G04 #@! TF.GenerationSoftware,KiCad,Pcbnew,5.1.0-060a0da~80~ubuntu18.04.1*
G04 #@! TF.CreationDate,2019-05-11T20:46:11+02:00*
G04 #@! TF.ProjectId,spi_connector_board,7370695f-636f-46e6-9e65-63746f725f62,rev?*
G04 #@! TF.SameCoordinates,Original*
G04 #@! TF.FileFunction,Copper,L2,Bot*
G04 #@! TF.FilePolarity,Positive*
%FSLAX46Y46*%
G04 Gerber Fmt 4.6, Leading zero omitted, Abs format (unit mm)*
G04 Created by KiCad (PCBNEW 5.1.0-060a0da~80~ubuntu18.04.1) date 2019-05-11 20:46:11*
%MOMM*%
%LPD*%
G04 APERTURE LIST*
%ADD10C,1.800000*%
%ADD11R,1.800000X1.800000*%
%ADD12C,0.800000*%
%ADD13C,0.250000*%
G04 APERTURE END LIST*
D10*
X197850000Y-147960000D03*
X196580000Y-150500000D03*
D11*
X191500000Y-150500000D03*
D10*
X192770000Y-147960000D03*
X194040000Y-150500000D03*
X195310000Y-147960000D03*
X186100000Y-147960000D03*
X184830000Y-150500000D03*
D11*
X179750000Y-150500000D03*
D10*
X181020000Y-147960000D03*
X182290000Y-150500000D03*
X183560000Y-147960000D03*
X174350000Y-147960000D03*
X173080000Y-150500000D03*
D11*
X168000000Y-150500000D03*
D10*
X169270000Y-147960000D03*
X170540000Y-150500000D03*
X171810000Y-147960000D03*
X162600000Y-147960000D03*
X161330000Y-150500000D03*
D11*
X156250000Y-150500000D03*
D10*
X157520000Y-147960000D03*
X158790000Y-150500000D03*
X160060000Y-147960000D03*
X150850000Y-147960000D03*
X149580000Y-150500000D03*
D11*
X144500000Y-150500000D03*
D10*
X145770000Y-147960000D03*
X147040000Y-150500000D03*
X148310000Y-147960000D03*
X139100000Y-147960000D03*
X137830000Y-150500000D03*
D11*
X132750000Y-150500000D03*
D10*
X134020000Y-147960000D03*
X135290000Y-150500000D03*
X136560000Y-147960000D03*
X127350000Y-147960000D03*
X126080000Y-150500000D03*
D11*
X121000000Y-150500000D03*
D10*
X122270000Y-147960000D03*
X123540000Y-150500000D03*
X124810000Y-147960000D03*
X197850000Y-134460000D03*
X196580000Y-137000000D03*
D11*
X191500000Y-137000000D03*
D10*
X192770000Y-134460000D03*
X194040000Y-137000000D03*
X195310000Y-134460000D03*
X186100000Y-134460000D03*
X184830000Y-137000000D03*
D11*
X179750000Y-137000000D03*
D10*
X181020000Y-134460000D03*
X182290000Y-137000000D03*
X183560000Y-134460000D03*
X174350000Y-134460000D03*
X173080000Y-137000000D03*
D11*
X168000000Y-137000000D03*
D10*
X169270000Y-134460000D03*
X170540000Y-137000000D03*
X171810000Y-134460000D03*
X162600000Y-134460000D03*
X161330000Y-137000000D03*
D11*
X156250000Y-137000000D03*
D10*
X157520000Y-134460000D03*
X158790000Y-137000000D03*
X160060000Y-134460000D03*
X150850000Y-134460000D03*
X149580000Y-137000000D03*
D11*
X144500000Y-137000000D03*
D10*
X145770000Y-134460000D03*
X147040000Y-137000000D03*
X148310000Y-134460000D03*
X139100000Y-134460000D03*
X137830000Y-137000000D03*
D11*
X132750000Y-137000000D03*
D10*
X134020000Y-134460000D03*
X135290000Y-137000000D03*
X136560000Y-134460000D03*
X127350000Y-134460000D03*
X126080000Y-137000000D03*
D11*
X121000000Y-137000000D03*
D10*
X122270000Y-134460000D03*
X123540000Y-137000000D03*
X124810000Y-134460000D03*
X197850000Y-120960000D03*
X196580000Y-123500000D03*
D11*
X191500000Y-123500000D03*
D10*
X192770000Y-120960000D03*
X194040000Y-123500000D03*
X195310000Y-120960000D03*
X186100000Y-120960000D03*
X184830000Y-123500000D03*
D11*
X179750000Y-123500000D03*
D10*
X181020000Y-120960000D03*
X182290000Y-123500000D03*
X183560000Y-120960000D03*
X174350000Y-120960000D03*
X173080000Y-123500000D03*
D11*
X168000000Y-123500000D03*
D10*
X169270000Y-120960000D03*
X170540000Y-123500000D03*
X171810000Y-120960000D03*
X162600000Y-120960000D03*
X161330000Y-123500000D03*
D11*
X156250000Y-123500000D03*
D10*
X157520000Y-120960000D03*
X158790000Y-123500000D03*
X160060000Y-120960000D03*
X150850000Y-120960000D03*
X149580000Y-123500000D03*
D11*
X144500000Y-123500000D03*
D10*
X145770000Y-120960000D03*
X147040000Y-123500000D03*
X148310000Y-120960000D03*
X139100000Y-120960000D03*
X137830000Y-123500000D03*
D11*
X132750000Y-123500000D03*
D10*
X134020000Y-120960000D03*
X135290000Y-123500000D03*
X136560000Y-120960000D03*
X127350000Y-120960000D03*
X126080000Y-123500000D03*
D11*
X121000000Y-123500000D03*
D10*
X122270000Y-120960000D03*
X123540000Y-123500000D03*
X124810000Y-120960000D03*
X197850000Y-107460000D03*
X196580000Y-110000000D03*
D11*
X191500000Y-110000000D03*
D10*
X192770000Y-107460000D03*
X194040000Y-110000000D03*
X195310000Y-107460000D03*
X186100000Y-107460000D03*
X184830000Y-110000000D03*
D11*
X179750000Y-110000000D03*
D10*
X181020000Y-107460000D03*
X182290000Y-110000000D03*
X183560000Y-107460000D03*
X174350000Y-107460000D03*
X173080000Y-110000000D03*
D11*
X168000000Y-110000000D03*
D10*
X169270000Y-107460000D03*
X170540000Y-110000000D03*
X171810000Y-107460000D03*
X162600000Y-107460000D03*
X161330000Y-110000000D03*
D11*
X156250000Y-110000000D03*
D10*
X157520000Y-107460000D03*
X158790000Y-110000000D03*
X160060000Y-107460000D03*
X150850000Y-107460000D03*
X149580000Y-110000000D03*
D11*
X144500000Y-110000000D03*
D10*
X145770000Y-107460000D03*
X147040000Y-110000000D03*
X148310000Y-107460000D03*
X139100000Y-107460000D03*
X137830000Y-110000000D03*
D11*
X132750000Y-110000000D03*
D10*
X134020000Y-107460000D03*
X135290000Y-110000000D03*
X136560000Y-107460000D03*
X127350000Y-107460000D03*
X126080000Y-110000000D03*
D11*
X121000000Y-110000000D03*
D10*
X122270000Y-107460000D03*
X123540000Y-110000000D03*
X124810000Y-107460000D03*
X197850000Y-93960000D03*
X196580000Y-96500000D03*
D11*
X191500000Y-96500000D03*
D10*
X192770000Y-93960000D03*
X194040000Y-96500000D03*
X195310000Y-93960000D03*
X186100000Y-93960000D03*
X184830000Y-96500000D03*
D11*
X179750000Y-96500000D03*
D10*
X181020000Y-93960000D03*
X182290000Y-96500000D03*
X183560000Y-93960000D03*
X174350000Y-93960000D03*
X173080000Y-96500000D03*
D11*
X168000000Y-96500000D03*
D10*
X169270000Y-93960000D03*
X170540000Y-96500000D03*
X171810000Y-93960000D03*
X162600000Y-93960000D03*
X161330000Y-96500000D03*
D11*
X156250000Y-96500000D03*
D10*
X157520000Y-93960000D03*
X158790000Y-96500000D03*
X160060000Y-93960000D03*
X150850000Y-93960000D03*
X149580000Y-96500000D03*
D11*
X144500000Y-96500000D03*
D10*
X145770000Y-93960000D03*
X147040000Y-96500000D03*
X148310000Y-93960000D03*
X139100000Y-93960000D03*
X137830000Y-96500000D03*
D11*
X132750000Y-96500000D03*
D10*
X134020000Y-93960000D03*
X135290000Y-96500000D03*
X136560000Y-93960000D03*
X127350000Y-93960000D03*
X126080000Y-96500000D03*
D11*
X121000000Y-96500000D03*
D10*
X122270000Y-93960000D03*
X123540000Y-96500000D03*
X124810000Y-93960000D03*
X197850000Y-80460000D03*
X196580000Y-83000000D03*
D11*
X191500000Y-83000000D03*
D10*
X192770000Y-80460000D03*
X194040000Y-83000000D03*
X195310000Y-80460000D03*
X186100000Y-80460000D03*
X184830000Y-83000000D03*
D11*
X179750000Y-83000000D03*
D10*
X181020000Y-80460000D03*
X182290000Y-83000000D03*
X183560000Y-80460000D03*
X174350000Y-80460000D03*
X173080000Y-83000000D03*
D11*
X168000000Y-83000000D03*
D10*
X169270000Y-80460000D03*
X170540000Y-83000000D03*
X171810000Y-80460000D03*
X162600000Y-80460000D03*
X161330000Y-83000000D03*
D11*
X156250000Y-83000000D03*
D10*
X157520000Y-80460000D03*
X158790000Y-83000000D03*
X160060000Y-80460000D03*
X150850000Y-80460000D03*
X149580000Y-83000000D03*
D11*
X144500000Y-83000000D03*
D10*
X145770000Y-80460000D03*
X147040000Y-83000000D03*
X148310000Y-80460000D03*
X139100000Y-80460000D03*
X137830000Y-83000000D03*
D11*
X132750000Y-83000000D03*
D10*
X134020000Y-80460000D03*
X135290000Y-83000000D03*
X136560000Y-80460000D03*
X124810000Y-80460000D03*
X123540000Y-83000000D03*
X122270000Y-80460000D03*
D11*
X121000000Y-83000000D03*
D10*
X126080000Y-83000000D03*
X127350000Y-80460000D03*
D12*
X125200000Y-78400000D03*
X126800000Y-78600000D03*
X127500000Y-74900000D03*
X139250000Y-74900000D03*
X151000000Y-74900000D03*
X162750000Y-74900000D03*
X174500000Y-74900000D03*
X186250000Y-74900000D03*
X198000000Y-74900000D03*
X127500000Y-88400000D03*
X139250000Y-88400000D03*
X151000000Y-88400000D03*
X162750000Y-88400000D03*
X174500000Y-88400000D03*
X186250000Y-88400000D03*
X198000000Y-88400000D03*
X127500000Y-101900000D03*
X139250000Y-101900000D03*
X151000000Y-101900000D03*
X162750000Y-101900000D03*
X174500000Y-101900000D03*
X186250000Y-101900000D03*
X198000000Y-101900000D03*
X127500000Y-115400000D03*
X139250000Y-115400000D03*
X151000000Y-115400000D03*
X162750000Y-115400000D03*
X174500000Y-115400000D03*
X186250000Y-115400000D03*
X198000000Y-115400000D03*
X127500000Y-128900000D03*
X139250000Y-128900000D03*
X151000000Y-128900000D03*
X162750000Y-128900000D03*
X174500000Y-128900000D03*
X186250000Y-128900000D03*
X198000000Y-128900000D03*
X127500000Y-142400000D03*
X139250000Y-142400000D03*
X151000000Y-142400000D03*
X162750000Y-142400000D03*
X174500000Y-142400000D03*
X186250000Y-142400000D03*
X198000000Y-142400000D03*
X138550000Y-78600000D03*
X150300000Y-78600000D03*
X162050000Y-78600000D03*
X173800000Y-78600000D03*
X185550000Y-78600000D03*
X197300000Y-78600000D03*
X126800000Y-92100000D03*
X138550000Y-92100000D03*
X150300000Y-92100000D03*
X162050000Y-92100000D03*
X173800000Y-92100000D03*
X185550000Y-92100000D03*
X197300000Y-92100000D03*
X126800000Y-105600000D03*
X138550000Y-105600000D03*
X150300000Y-105600000D03*
X162050000Y-105600000D03*
X173800000Y-105600000D03*
X185550000Y-105600000D03*
X197300000Y-105600000D03*
X126800000Y-119100000D03*
X138550000Y-119100000D03*
X150300000Y-119100000D03*
X162050000Y-119100000D03*
X173800000Y-119100000D03*
X185550000Y-119100000D03*
X197300000Y-119100000D03*
X126800000Y-132600000D03*
X138550000Y-132600000D03*
X150300000Y-132600000D03*
X162050000Y-132600000D03*
X173800000Y-132600000D03*
X185550000Y-132600000D03*
X197300000Y-132600000D03*
X126800000Y-146100000D03*
X138550000Y-146100000D03*
X150300000Y-146100000D03*
X162050000Y-146100000D03*
X173800000Y-146100000D03*
X185550000Y-146100000D03*
X197300000Y-146100000D03*
X136950000Y-78400000D03*
X148700000Y-78400000D03*
X160450000Y-78400000D03*
X172200000Y-78400000D03*
X183950000Y-78400000D03*
X195700000Y-78400000D03*
X125200000Y-91900000D03*
X136950000Y-91900000D03*
X148700000Y-91900000D03*
X160450000Y-91900000D03*
X172200000Y-91900000D03*
X183950000Y-91900000D03*
X195700000Y-91900000D03*
X125200000Y-105400000D03*
X136950000Y-105400000D03*
X148700000Y-105400000D03*
X160450000Y-105400000D03*
X172200000Y-105400000D03*
X183950000Y-105400000D03*
X195700000Y-105400000D03*
X125200000Y-118900000D03*
X136950000Y-118900000D03*
X148700000Y-118900000D03*
X160450000Y-118900000D03*
X172200000Y-118900000D03*
X183950000Y-118900000D03*
X195700000Y-118900000D03*
X125200000Y-132400000D03*
X136950000Y-132400000D03*
X148700000Y-132400000D03*
X160450000Y-132400000D03*
X172200000Y-132400000D03*
X183950000Y-132400000D03*
X195700000Y-132400000D03*
X125200000Y-145900000D03*
X136950000Y-145900000D03*
X148700000Y-145900000D03*
X160450000Y-145900000D03*
X172200000Y-145900000D03*
X183950000Y-145900000D03*
X195700000Y-145900000D03*
D13*
X124330000Y-78400000D02*
X122270000Y-80460000D01*
X125200000Y-78400000D02*
X124330000Y-78400000D01*
X126800000Y-78034315D02*
X126700000Y-77934315D01*
X126800000Y-78600000D02*
X126800000Y-78034315D01*
X121000000Y-81100000D02*
X121000000Y-83000000D01*
X120800000Y-80900000D02*
X121000000Y-81100000D01*
X125709999Y-79560001D02*
X126339999Y-79560001D01*
X124810000Y-80460000D02*
X125709999Y-79560001D01*
X126339999Y-79560001D02*
X126600000Y-79300000D01*
X126600000Y-79300000D02*
X126900000Y-79300000D01*
X126900000Y-79300000D02*
X128000000Y-78200000D01*
X128000000Y-75400000D02*
X127500000Y-74900000D01*
X128000000Y-78200000D02*
X128000000Y-75400000D01*
X126700000Y-77934315D02*
X126234315Y-77934315D01*
X126234315Y-77934315D02*
X126100000Y-77800000D01*
X126100000Y-77800000D02*
X123800000Y-77800000D01*
X123800000Y-77800000D02*
X122700000Y-78900000D01*
X120800000Y-80900000D02*
X120800000Y-80000000D01*
X121900000Y-78900000D02*
X122700000Y-78900000D01*
X120800000Y-80000000D02*
X121900000Y-78900000D01*
X138650000Y-79300000D02*
X139750000Y-78200000D01*
X150400000Y-79300000D02*
X151500000Y-78200000D01*
X162150000Y-79300000D02*
X163250000Y-78200000D01*
X173900000Y-79300000D02*
X175000000Y-78200000D01*
X185650000Y-79300000D02*
X186750000Y-78200000D01*
X197400000Y-79300000D02*
X198500000Y-78200000D01*
X126900000Y-92800000D02*
X128000000Y-91700000D01*
X138650000Y-92800000D02*
X139750000Y-91700000D01*
X150400000Y-92800000D02*
X151500000Y-91700000D01*
X162150000Y-92800000D02*
X163250000Y-91700000D01*
X173900000Y-92800000D02*
X175000000Y-91700000D01*
X185650000Y-92800000D02*
X186750000Y-91700000D01*
X197400000Y-92800000D02*
X198500000Y-91700000D01*
X126900000Y-106300000D02*
X128000000Y-105200000D01*
X138650000Y-106300000D02*
X139750000Y-105200000D01*
X150400000Y-106300000D02*
X151500000Y-105200000D01*
X162150000Y-106300000D02*
X163250000Y-105200000D01*
X173900000Y-106300000D02*
X175000000Y-105200000D01*
X185650000Y-106300000D02*
X186750000Y-105200000D01*
X197400000Y-106300000D02*
X198500000Y-105200000D01*
X126900000Y-119800000D02*
X128000000Y-118700000D01*
X138650000Y-119800000D02*
X139750000Y-118700000D01*
X150400000Y-119800000D02*
X151500000Y-118700000D01*
X162150000Y-119800000D02*
X163250000Y-118700000D01*
X173900000Y-119800000D02*
X175000000Y-118700000D01*
X185650000Y-119800000D02*
X186750000Y-118700000D01*
X197400000Y-119800000D02*
X198500000Y-118700000D01*
X126900000Y-133300000D02*
X128000000Y-132200000D01*
X138650000Y-133300000D02*
X139750000Y-132200000D01*
X150400000Y-133300000D02*
X151500000Y-132200000D01*
X162150000Y-133300000D02*
X163250000Y-132200000D01*
X173900000Y-133300000D02*
X175000000Y-132200000D01*
X185650000Y-133300000D02*
X186750000Y-132200000D01*
X197400000Y-133300000D02*
X198500000Y-132200000D01*
X126900000Y-146800000D02*
X128000000Y-145700000D01*
X138650000Y-146800000D02*
X139750000Y-145700000D01*
X150400000Y-146800000D02*
X151500000Y-145700000D01*
X162150000Y-146800000D02*
X163250000Y-145700000D01*
X173900000Y-146800000D02*
X175000000Y-145700000D01*
X185650000Y-146800000D02*
X186750000Y-145700000D01*
X197400000Y-146800000D02*
X198500000Y-145700000D01*
X139750000Y-75400000D02*
X139250000Y-74900000D01*
X151500000Y-75400000D02*
X151000000Y-74900000D01*
X163250000Y-75400000D02*
X162750000Y-74900000D01*
X175000000Y-75400000D02*
X174500000Y-74900000D01*
X186750000Y-75400000D02*
X186250000Y-74900000D01*
X198500000Y-75400000D02*
X198000000Y-74900000D01*
X128000000Y-88900000D02*
X127500000Y-88400000D01*
X139750000Y-88900000D02*
X139250000Y-88400000D01*
X151500000Y-88900000D02*
X151000000Y-88400000D01*
X163250000Y-88900000D02*
X162750000Y-88400000D01*
X175000000Y-88900000D02*
X174500000Y-88400000D01*
X186750000Y-88900000D02*
X186250000Y-88400000D01*
X198500000Y-88900000D02*
X198000000Y-88400000D01*
X128000000Y-102400000D02*
X127500000Y-101900000D01*
X139750000Y-102400000D02*
X139250000Y-101900000D01*
X151500000Y-102400000D02*
X151000000Y-101900000D01*
X163250000Y-102400000D02*
X162750000Y-101900000D01*
X175000000Y-102400000D02*
X174500000Y-101900000D01*
X186750000Y-102400000D02*
X186250000Y-101900000D01*
X198500000Y-102400000D02*
X198000000Y-101900000D01*
X128000000Y-115900000D02*
X127500000Y-115400000D01*
X139750000Y-115900000D02*
X139250000Y-115400000D01*
X151500000Y-115900000D02*
X151000000Y-115400000D01*
X163250000Y-115900000D02*
X162750000Y-115400000D01*
X175000000Y-115900000D02*
X174500000Y-115400000D01*
X186750000Y-115900000D02*
X186250000Y-115400000D01*
X198500000Y-115900000D02*
X198000000Y-115400000D01*
X128000000Y-129400000D02*
X127500000Y-128900000D01*
X139750000Y-129400000D02*
X139250000Y-128900000D01*
X151500000Y-129400000D02*
X151000000Y-128900000D01*
X163250000Y-129400000D02*
X162750000Y-128900000D01*
X175000000Y-129400000D02*
X174500000Y-128900000D01*
X186750000Y-129400000D02*
X186250000Y-128900000D01*
X198500000Y-129400000D02*
X198000000Y-128900000D01*
X128000000Y-142900000D02*
X127500000Y-142400000D01*
X139750000Y-142900000D02*
X139250000Y-142400000D01*
X151500000Y-142900000D02*
X151000000Y-142400000D01*
X163250000Y-142900000D02*
X162750000Y-142400000D01*
X175000000Y-142900000D02*
X174500000Y-142400000D01*
X186750000Y-142900000D02*
X186250000Y-142400000D01*
X198500000Y-142900000D02*
X198000000Y-142400000D01*
X132550000Y-80900000D02*
X132750000Y-81100000D01*
X144300000Y-80900000D02*
X144500000Y-81100000D01*
X156050000Y-80900000D02*
X156250000Y-81100000D01*
X167800000Y-80900000D02*
X168000000Y-81100000D01*
X179550000Y-80900000D02*
X179750000Y-81100000D01*
X191300000Y-80900000D02*
X191500000Y-81100000D01*
X120800000Y-94400000D02*
X121000000Y-94600000D01*
X132550000Y-94400000D02*
X132750000Y-94600000D01*
X144300000Y-94400000D02*
X144500000Y-94600000D01*
X156050000Y-94400000D02*
X156250000Y-94600000D01*
X167800000Y-94400000D02*
X168000000Y-94600000D01*
X179550000Y-94400000D02*
X179750000Y-94600000D01*
X191300000Y-94400000D02*
X191500000Y-94600000D01*
X120800000Y-107900000D02*
X121000000Y-108100000D01*
X132550000Y-107900000D02*
X132750000Y-108100000D01*
X144300000Y-107900000D02*
X144500000Y-108100000D01*
X156050000Y-107900000D02*
X156250000Y-108100000D01*
X167800000Y-107900000D02*
X168000000Y-108100000D01*
X179550000Y-107900000D02*
X179750000Y-108100000D01*
X191300000Y-107900000D02*
X191500000Y-108100000D01*
X120800000Y-121400000D02*
X121000000Y-121600000D01*
X132550000Y-121400000D02*
X132750000Y-121600000D01*
X144300000Y-121400000D02*
X144500000Y-121600000D01*
X156050000Y-121400000D02*
X156250000Y-121600000D01*
X167800000Y-121400000D02*
X168000000Y-121600000D01*
X179550000Y-121400000D02*
X179750000Y-121600000D01*
X191300000Y-121400000D02*
X191500000Y-121600000D01*
X120800000Y-134900000D02*
X121000000Y-135100000D01*
X132550000Y-134900000D02*
X132750000Y-135100000D01*
X144300000Y-134900000D02*
X144500000Y-135100000D01*
X156050000Y-134900000D02*
X156250000Y-135100000D01*
X167800000Y-134900000D02*
X168000000Y-135100000D01*
X179550000Y-134900000D02*
X179750000Y-135100000D01*
X191300000Y-134900000D02*
X191500000Y-135100000D01*
X120800000Y-148400000D02*
X121000000Y-148600000D01*
X132550000Y-148400000D02*
X132750000Y-148600000D01*
X144300000Y-148400000D02*
X144500000Y-148600000D01*
X156050000Y-148400000D02*
X156250000Y-148600000D01*
X167800000Y-148400000D02*
X168000000Y-148600000D01*
X179550000Y-148400000D02*
X179750000Y-148600000D01*
X191300000Y-148400000D02*
X191500000Y-148600000D01*
X139750000Y-78200000D02*
X139750000Y-75400000D01*
X151500000Y-78200000D02*
X151500000Y-75400000D01*
X163250000Y-78200000D02*
X163250000Y-75400000D01*
X175000000Y-78200000D02*
X175000000Y-75400000D01*
X186750000Y-78200000D02*
X186750000Y-75400000D01*
X198500000Y-78200000D02*
X198500000Y-75400000D01*
X128000000Y-91700000D02*
X128000000Y-88900000D01*
X139750000Y-91700000D02*
X139750000Y-88900000D01*
X151500000Y-91700000D02*
X151500000Y-88900000D01*
X163250000Y-91700000D02*
X163250000Y-88900000D01*
X175000000Y-91700000D02*
X175000000Y-88900000D01*
X186750000Y-91700000D02*
X186750000Y-88900000D01*
X198500000Y-91700000D02*
X198500000Y-88900000D01*
X128000000Y-105200000D02*
X128000000Y-102400000D01*
X139750000Y-105200000D02*
X139750000Y-102400000D01*
X151500000Y-105200000D02*
X151500000Y-102400000D01*
X163250000Y-105200000D02*
X163250000Y-102400000D01*
X175000000Y-105200000D02*
X175000000Y-102400000D01*
X186750000Y-105200000D02*
X186750000Y-102400000D01*
X198500000Y-105200000D02*
X198500000Y-102400000D01*
X128000000Y-118700000D02*
X128000000Y-115900000D01*
X139750000Y-118700000D02*
X139750000Y-115900000D01*
X151500000Y-118700000D02*
X151500000Y-115900000D01*
X163250000Y-118700000D02*
X163250000Y-115900000D01*
X175000000Y-118700000D02*
X175000000Y-115900000D01*
X186750000Y-118700000D02*
X186750000Y-115900000D01*
X198500000Y-118700000D02*
X198500000Y-115900000D01*
X128000000Y-132200000D02*
X128000000Y-129400000D01*
X139750000Y-132200000D02*
X139750000Y-129400000D01*
X151500000Y-132200000D02*
X151500000Y-129400000D01*
X163250000Y-132200000D02*
X163250000Y-129400000D01*
X175000000Y-132200000D02*
X175000000Y-129400000D01*
X186750000Y-132200000D02*
X186750000Y-129400000D01*
X198500000Y-132200000D02*
X198500000Y-129400000D01*
X128000000Y-145700000D02*
X128000000Y-142900000D01*
X139750000Y-145700000D02*
X139750000Y-142900000D01*
X151500000Y-145700000D02*
X151500000Y-142900000D01*
X163250000Y-145700000D02*
X163250000Y-142900000D01*
X175000000Y-145700000D02*
X175000000Y-142900000D01*
X186750000Y-145700000D02*
X186750000Y-142900000D01*
X198500000Y-145700000D02*
X198500000Y-142900000D01*
X135550000Y-77800000D02*
X134450000Y-78900000D01*
X147300000Y-77800000D02*
X146200000Y-78900000D01*
X159050000Y-77800000D02*
X157950000Y-78900000D01*
X170800000Y-77800000D02*
X169700000Y-78900000D01*
X182550000Y-77800000D02*
X181450000Y-78900000D01*
X194300000Y-77800000D02*
X193200000Y-78900000D01*
X123800000Y-91300000D02*
X122700000Y-92400000D01*
X135550000Y-91300000D02*
X134450000Y-92400000D01*
X147300000Y-91300000D02*
X146200000Y-92400000D01*
X159050000Y-91300000D02*
X157950000Y-92400000D01*
X170800000Y-91300000D02*
X169700000Y-92400000D01*
X182550000Y-91300000D02*
X181450000Y-92400000D01*
X194300000Y-91300000D02*
X193200000Y-92400000D01*
X123800000Y-104800000D02*
X122700000Y-105900000D01*
X135550000Y-104800000D02*
X134450000Y-105900000D01*
X147300000Y-104800000D02*
X146200000Y-105900000D01*
X159050000Y-104800000D02*
X157950000Y-105900000D01*
X170800000Y-104800000D02*
X169700000Y-105900000D01*
X182550000Y-104800000D02*
X181450000Y-105900000D01*
X194300000Y-104800000D02*
X193200000Y-105900000D01*
X123800000Y-118300000D02*
X122700000Y-119400000D01*
X135550000Y-118300000D02*
X134450000Y-119400000D01*
X147300000Y-118300000D02*
X146200000Y-119400000D01*
X159050000Y-118300000D02*
X157950000Y-119400000D01*
X170800000Y-118300000D02*
X169700000Y-119400000D01*
X182550000Y-118300000D02*
X181450000Y-119400000D01*
X194300000Y-118300000D02*
X193200000Y-119400000D01*
X123800000Y-131800000D02*
X122700000Y-132900000D01*
X135550000Y-131800000D02*
X134450000Y-132900000D01*
X147300000Y-131800000D02*
X146200000Y-132900000D01*
X159050000Y-131800000D02*
X157950000Y-132900000D01*
X170800000Y-131800000D02*
X169700000Y-132900000D01*
X182550000Y-131800000D02*
X181450000Y-132900000D01*
X194300000Y-131800000D02*
X193200000Y-132900000D01*
X123800000Y-145300000D02*
X122700000Y-146400000D01*
X135550000Y-145300000D02*
X134450000Y-146400000D01*
X147300000Y-145300000D02*
X146200000Y-146400000D01*
X159050000Y-145300000D02*
X157950000Y-146400000D01*
X170800000Y-145300000D02*
X169700000Y-146400000D01*
X182550000Y-145300000D02*
X181450000Y-146400000D01*
X194300000Y-145300000D02*
X193200000Y-146400000D01*
X132550000Y-80900000D02*
X132550000Y-80000000D01*
X144300000Y-80900000D02*
X144300000Y-80000000D01*
X156050000Y-80900000D02*
X156050000Y-80000000D01*
X167800000Y-80900000D02*
X167800000Y-80000000D01*
X179550000Y-80900000D02*
X179550000Y-80000000D01*
X191300000Y-80900000D02*
X191300000Y-80000000D01*
X120800000Y-94400000D02*
X120800000Y-93500000D01*
X132550000Y-94400000D02*
X132550000Y-93500000D01*
X144300000Y-94400000D02*
X144300000Y-93500000D01*
X156050000Y-94400000D02*
X156050000Y-93500000D01*
X167800000Y-94400000D02*
X167800000Y-93500000D01*
X179550000Y-94400000D02*
X179550000Y-93500000D01*
X191300000Y-94400000D02*
X191300000Y-93500000D01*
X120800000Y-107900000D02*
X120800000Y-107000000D01*
X132550000Y-107900000D02*
X132550000Y-107000000D01*
X144300000Y-107900000D02*
X144300000Y-107000000D01*
X156050000Y-107900000D02*
X156050000Y-107000000D01*
X167800000Y-107900000D02*
X167800000Y-107000000D01*
X179550000Y-107900000D02*
X179550000Y-107000000D01*
X191300000Y-107900000D02*
X191300000Y-107000000D01*
X120800000Y-121400000D02*
X120800000Y-120500000D01*
X132550000Y-121400000D02*
X132550000Y-120500000D01*
X144300000Y-121400000D02*
X144300000Y-120500000D01*
X156050000Y-121400000D02*
X156050000Y-120500000D01*
X167800000Y-121400000D02*
X167800000Y-120500000D01*
X179550000Y-121400000D02*
X179550000Y-120500000D01*
X191300000Y-121400000D02*
X191300000Y-120500000D01*
X120800000Y-134900000D02*
X120800000Y-134000000D01*
X132550000Y-134900000D02*
X132550000Y-134000000D01*
X144300000Y-134900000D02*
X144300000Y-134000000D01*
X156050000Y-134900000D02*
X156050000Y-134000000D01*
X167800000Y-134900000D02*
X167800000Y-134000000D01*
X179550000Y-134900000D02*
X179550000Y-134000000D01*
X191300000Y-134900000D02*
X191300000Y-134000000D01*
X120800000Y-148400000D02*
X120800000Y-147500000D01*
X132550000Y-148400000D02*
X132550000Y-147500000D01*
X144300000Y-148400000D02*
X144300000Y-147500000D01*
X156050000Y-148400000D02*
X156050000Y-147500000D01*
X167800000Y-148400000D02*
X167800000Y-147500000D01*
X179550000Y-148400000D02*
X179550000Y-147500000D01*
X191300000Y-148400000D02*
X191300000Y-147500000D01*
X136080000Y-78400000D02*
X134020000Y-80460000D01*
X147830000Y-78400000D02*
X145770000Y-80460000D01*
X159580000Y-78400000D02*
X157520000Y-80460000D01*
X171330000Y-78400000D02*
X169270000Y-80460000D01*
X183080000Y-78400000D02*
X181020000Y-80460000D01*
X194830000Y-78400000D02*
X192770000Y-80460000D01*
X124330000Y-91900000D02*
X122270000Y-93960000D01*
X136080000Y-91900000D02*
X134020000Y-93960000D01*
X147830000Y-91900000D02*
X145770000Y-93960000D01*
X159580000Y-91900000D02*
X157520000Y-93960000D01*
X171330000Y-91900000D02*
X169270000Y-93960000D01*
X183080000Y-91900000D02*
X181020000Y-93960000D01*
X194830000Y-91900000D02*
X192770000Y-93960000D01*
X124330000Y-105400000D02*
X122270000Y-107460000D01*
X136080000Y-105400000D02*
X134020000Y-107460000D01*
X147830000Y-105400000D02*
X145770000Y-107460000D01*
X159580000Y-105400000D02*
X157520000Y-107460000D01*
X171330000Y-105400000D02*
X169270000Y-107460000D01*
X183080000Y-105400000D02*
X181020000Y-107460000D01*
X194830000Y-105400000D02*
X192770000Y-107460000D01*
X124330000Y-118900000D02*
X122270000Y-120960000D01*
X136080000Y-118900000D02*
X134020000Y-120960000D01*
X147830000Y-118900000D02*
X145770000Y-120960000D01*
X159580000Y-118900000D02*
X157520000Y-120960000D01*
X171330000Y-118900000D02*
X169270000Y-120960000D01*
X183080000Y-118900000D02*
X181020000Y-120960000D01*
X194830000Y-118900000D02*
X192770000Y-120960000D01*
X124330000Y-132400000D02*
X122270000Y-134460000D01*
X136080000Y-132400000D02*
X134020000Y-134460000D01*
X147830000Y-132400000D02*
X145770000Y-134460000D01*
X159580000Y-132400000D02*
X157520000Y-134460000D01*
X171330000Y-132400000D02*
X169270000Y-134460000D01*
X183080000Y-132400000D02*
X181020000Y-134460000D01*
X194830000Y-132400000D02*
X192770000Y-134460000D01*
X124330000Y-145900000D02*
X122270000Y-147960000D01*
X136080000Y-145900000D02*
X134020000Y-147960000D01*
X147830000Y-145900000D02*
X145770000Y-147960000D01*
X159580000Y-145900000D02*
X157520000Y-147960000D01*
X171330000Y-145900000D02*
X169270000Y-147960000D01*
X183080000Y-145900000D02*
X181020000Y-147960000D01*
X194830000Y-145900000D02*
X192770000Y-147960000D01*
X137850000Y-77800000D02*
X135550000Y-77800000D01*
X149600000Y-77800000D02*
X147300000Y-77800000D01*
X161350000Y-77800000D02*
X159050000Y-77800000D01*
X173100000Y-77800000D02*
X170800000Y-77800000D01*
X184850000Y-77800000D02*
X182550000Y-77800000D01*
X196600000Y-77800000D02*
X194300000Y-77800000D01*
X126100000Y-91300000D02*
X123800000Y-91300000D01*
X137850000Y-91300000D02*
X135550000Y-91300000D01*
X149600000Y-91300000D02*
X147300000Y-91300000D01*
X161350000Y-91300000D02*
X159050000Y-91300000D01*
X173100000Y-91300000D02*
X170800000Y-91300000D01*
X184850000Y-91300000D02*
X182550000Y-91300000D01*
X196600000Y-91300000D02*
X194300000Y-91300000D01*
X126100000Y-104800000D02*
X123800000Y-104800000D01*
X137850000Y-104800000D02*
X135550000Y-104800000D01*
X149600000Y-104800000D02*
X147300000Y-104800000D01*
X161350000Y-104800000D02*
X159050000Y-104800000D01*
X173100000Y-104800000D02*
X170800000Y-104800000D01*
X184850000Y-104800000D02*
X182550000Y-104800000D01*
X196600000Y-104800000D02*
X194300000Y-104800000D01*
X126100000Y-118300000D02*
X123800000Y-118300000D01*
X137850000Y-118300000D02*
X135550000Y-118300000D01*
X149600000Y-118300000D02*
X147300000Y-118300000D01*
X161350000Y-118300000D02*
X159050000Y-118300000D01*
X173100000Y-118300000D02*
X170800000Y-118300000D01*
X184850000Y-118300000D02*
X182550000Y-118300000D01*
X196600000Y-118300000D02*
X194300000Y-118300000D01*
X126100000Y-131800000D02*
X123800000Y-131800000D01*
X137850000Y-131800000D02*
X135550000Y-131800000D01*
X149600000Y-131800000D02*
X147300000Y-131800000D01*
X161350000Y-131800000D02*
X159050000Y-131800000D01*
X173100000Y-131800000D02*
X170800000Y-131800000D01*
X184850000Y-131800000D02*
X182550000Y-131800000D01*
X196600000Y-131800000D02*
X194300000Y-131800000D01*
X126100000Y-145300000D02*
X123800000Y-145300000D01*
X137850000Y-145300000D02*
X135550000Y-145300000D01*
X149600000Y-145300000D02*
X147300000Y-145300000D01*
X161350000Y-145300000D02*
X159050000Y-145300000D01*
X173100000Y-145300000D02*
X170800000Y-145300000D01*
X184850000Y-145300000D02*
X182550000Y-145300000D01*
X196600000Y-145300000D02*
X194300000Y-145300000D01*
X138350000Y-79300000D02*
X138650000Y-79300000D01*
X150100000Y-79300000D02*
X150400000Y-79300000D01*
X161850000Y-79300000D02*
X162150000Y-79300000D01*
X173600000Y-79300000D02*
X173900000Y-79300000D01*
X185350000Y-79300000D02*
X185650000Y-79300000D01*
X197100000Y-79300000D02*
X197400000Y-79300000D01*
X126600000Y-92800000D02*
X126900000Y-92800000D01*
X138350000Y-92800000D02*
X138650000Y-92800000D01*
X150100000Y-92800000D02*
X150400000Y-92800000D01*
X161850000Y-92800000D02*
X162150000Y-92800000D01*
X173600000Y-92800000D02*
X173900000Y-92800000D01*
X185350000Y-92800000D02*
X185650000Y-92800000D01*
X197100000Y-92800000D02*
X197400000Y-92800000D01*
X126600000Y-106300000D02*
X126900000Y-106300000D01*
X138350000Y-106300000D02*
X138650000Y-106300000D01*
X150100000Y-106300000D02*
X150400000Y-106300000D01*
X161850000Y-106300000D02*
X162150000Y-106300000D01*
X173600000Y-106300000D02*
X173900000Y-106300000D01*
X185350000Y-106300000D02*
X185650000Y-106300000D01*
X197100000Y-106300000D02*
X197400000Y-106300000D01*
X126600000Y-119800000D02*
X126900000Y-119800000D01*
X138350000Y-119800000D02*
X138650000Y-119800000D01*
X150100000Y-119800000D02*
X150400000Y-119800000D01*
X161850000Y-119800000D02*
X162150000Y-119800000D01*
X173600000Y-119800000D02*
X173900000Y-119800000D01*
X185350000Y-119800000D02*
X185650000Y-119800000D01*
X197100000Y-119800000D02*
X197400000Y-119800000D01*
X126600000Y-133300000D02*
X126900000Y-133300000D01*
X138350000Y-133300000D02*
X138650000Y-133300000D01*
X150100000Y-133300000D02*
X150400000Y-133300000D01*
X161850000Y-133300000D02*
X162150000Y-133300000D01*
X173600000Y-133300000D02*
X173900000Y-133300000D01*
X185350000Y-133300000D02*
X185650000Y-133300000D01*
X197100000Y-133300000D02*
X197400000Y-133300000D01*
X126600000Y-146800000D02*
X126900000Y-146800000D01*
X138350000Y-146800000D02*
X138650000Y-146800000D01*
X150100000Y-146800000D02*
X150400000Y-146800000D01*
X161850000Y-146800000D02*
X162150000Y-146800000D01*
X173600000Y-146800000D02*
X173900000Y-146800000D01*
X185350000Y-146800000D02*
X185650000Y-146800000D01*
X197100000Y-146800000D02*
X197400000Y-146800000D01*
X138550000Y-78600000D02*
X138550000Y-78034315D01*
X150300000Y-78600000D02*
X150300000Y-78034315D01*
X162050000Y-78600000D02*
X162050000Y-78034315D01*
X173800000Y-78600000D02*
X173800000Y-78034315D01*
X185550000Y-78600000D02*
X185550000Y-78034315D01*
X197300000Y-78600000D02*
X197300000Y-78034315D01*
X126800000Y-92100000D02*
X126800000Y-91534315D01*
X138550000Y-92100000D02*
X138550000Y-91534315D01*
X150300000Y-92100000D02*
X150300000Y-91534315D01*
X162050000Y-92100000D02*
X162050000Y-91534315D01*
X173800000Y-92100000D02*
X173800000Y-91534315D01*
X185550000Y-92100000D02*
X185550000Y-91534315D01*
X197300000Y-92100000D02*
X197300000Y-91534315D01*
X126800000Y-105600000D02*
X126800000Y-105034315D01*
X138550000Y-105600000D02*
X138550000Y-105034315D01*
X150300000Y-105600000D02*
X150300000Y-105034315D01*
X162050000Y-105600000D02*
X162050000Y-105034315D01*
X173800000Y-105600000D02*
X173800000Y-105034315D01*
X185550000Y-105600000D02*
X185550000Y-105034315D01*
X197300000Y-105600000D02*
X197300000Y-105034315D01*
X126800000Y-119100000D02*
X126800000Y-118534315D01*
X138550000Y-119100000D02*
X138550000Y-118534315D01*
X150300000Y-119100000D02*
X150300000Y-118534315D01*
X162050000Y-119100000D02*
X162050000Y-118534315D01*
X173800000Y-119100000D02*
X173800000Y-118534315D01*
X185550000Y-119100000D02*
X185550000Y-118534315D01*
X197300000Y-119100000D02*
X197300000Y-118534315D01*
X126800000Y-132600000D02*
X126800000Y-132034315D01*
X138550000Y-132600000D02*
X138550000Y-132034315D01*
X150300000Y-132600000D02*
X150300000Y-132034315D01*
X162050000Y-132600000D02*
X162050000Y-132034315D01*
X173800000Y-132600000D02*
X173800000Y-132034315D01*
X185550000Y-132600000D02*
X185550000Y-132034315D01*
X197300000Y-132600000D02*
X197300000Y-132034315D01*
X126800000Y-146100000D02*
X126800000Y-145534315D01*
X138550000Y-146100000D02*
X138550000Y-145534315D01*
X150300000Y-146100000D02*
X150300000Y-145534315D01*
X162050000Y-146100000D02*
X162050000Y-145534315D01*
X173800000Y-146100000D02*
X173800000Y-145534315D01*
X185550000Y-146100000D02*
X185550000Y-145534315D01*
X197300000Y-146100000D02*
X197300000Y-145534315D01*
X132750000Y-81100000D02*
X132750000Y-83000000D01*
X144500000Y-81100000D02*
X144500000Y-83000000D01*
X156250000Y-81100000D02*
X156250000Y-83000000D01*
X168000000Y-81100000D02*
X168000000Y-83000000D01*
X179750000Y-81100000D02*
X179750000Y-83000000D01*
X191500000Y-81100000D02*
X191500000Y-83000000D01*
X121000000Y-94600000D02*
X121000000Y-96500000D01*
X132750000Y-94600000D02*
X132750000Y-96500000D01*
X144500000Y-94600000D02*
X144500000Y-96500000D01*
X156250000Y-94600000D02*
X156250000Y-96500000D01*
X168000000Y-94600000D02*
X168000000Y-96500000D01*
X179750000Y-94600000D02*
X179750000Y-96500000D01*
X191500000Y-94600000D02*
X191500000Y-96500000D01*
X121000000Y-108100000D02*
X121000000Y-110000000D01*
X132750000Y-108100000D02*
X132750000Y-110000000D01*
X144500000Y-108100000D02*
X144500000Y-110000000D01*
X156250000Y-108100000D02*
X156250000Y-110000000D01*
X168000000Y-108100000D02*
X168000000Y-110000000D01*
X179750000Y-108100000D02*
X179750000Y-110000000D01*
X191500000Y-108100000D02*
X191500000Y-110000000D01*
X121000000Y-121600000D02*
X121000000Y-123500000D01*
X132750000Y-121600000D02*
X132750000Y-123500000D01*
X144500000Y-121600000D02*
X144500000Y-123500000D01*
X156250000Y-121600000D02*
X156250000Y-123500000D01*
X168000000Y-121600000D02*
X168000000Y-123500000D01*
X179750000Y-121600000D02*
X179750000Y-123500000D01*
X191500000Y-121600000D02*
X191500000Y-123500000D01*
X121000000Y-135100000D02*
X121000000Y-137000000D01*
X132750000Y-135100000D02*
X132750000Y-137000000D01*
X144500000Y-135100000D02*
X144500000Y-137000000D01*
X156250000Y-135100000D02*
X156250000Y-137000000D01*
X168000000Y-135100000D02*
X168000000Y-137000000D01*
X179750000Y-135100000D02*
X179750000Y-137000000D01*
X191500000Y-135100000D02*
X191500000Y-137000000D01*
X121000000Y-148600000D02*
X121000000Y-150500000D01*
X132750000Y-148600000D02*
X132750000Y-150500000D01*
X144500000Y-148600000D02*
X144500000Y-150500000D01*
X156250000Y-148600000D02*
X156250000Y-150500000D01*
X168000000Y-148600000D02*
X168000000Y-150500000D01*
X179750000Y-148600000D02*
X179750000Y-150500000D01*
X191500000Y-148600000D02*
X191500000Y-150500000D01*
X137459999Y-79560001D02*
X138089999Y-79560001D01*
X149209999Y-79560001D02*
X149839999Y-79560001D01*
X160959999Y-79560001D02*
X161589999Y-79560001D01*
X172709999Y-79560001D02*
X173339999Y-79560001D01*
X184459999Y-79560001D02*
X185089999Y-79560001D01*
X196209999Y-79560001D02*
X196839999Y-79560001D01*
X125709999Y-93060001D02*
X126339999Y-93060001D01*
X137459999Y-93060001D02*
X138089999Y-93060001D01*
X149209999Y-93060001D02*
X149839999Y-93060001D01*
X160959999Y-93060001D02*
X161589999Y-93060001D01*
X172709999Y-93060001D02*
X173339999Y-93060001D01*
X184459999Y-93060001D02*
X185089999Y-93060001D01*
X196209999Y-93060001D02*
X196839999Y-93060001D01*
X125709999Y-106560001D02*
X126339999Y-106560001D01*
X137459999Y-106560001D02*
X138089999Y-106560001D01*
X149209999Y-106560001D02*
X149839999Y-106560001D01*
X160959999Y-106560001D02*
X161589999Y-106560001D01*
X172709999Y-106560001D02*
X173339999Y-106560001D01*
X184459999Y-106560001D02*
X185089999Y-106560001D01*
X196209999Y-106560001D02*
X196839999Y-106560001D01*
X125709999Y-120060001D02*
X126339999Y-120060001D01*
X137459999Y-120060001D02*
X138089999Y-120060001D01*
X149209999Y-120060001D02*
X149839999Y-120060001D01*
X160959999Y-120060001D02*
X161589999Y-120060001D01*
X172709999Y-120060001D02*
X173339999Y-120060001D01*
X184459999Y-120060001D02*
X185089999Y-120060001D01*
X196209999Y-120060001D02*
X196839999Y-120060001D01*
X125709999Y-133560001D02*
X126339999Y-133560001D01*
X137459999Y-133560001D02*
X138089999Y-133560001D01*
X149209999Y-133560001D02*
X149839999Y-133560001D01*
X160959999Y-133560001D02*
X161589999Y-133560001D01*
X172709999Y-133560001D02*
X173339999Y-133560001D01*
X184459999Y-133560001D02*
X185089999Y-133560001D01*
X196209999Y-133560001D02*
X196839999Y-133560001D01*
X125709999Y-147060001D02*
X126339999Y-147060001D01*
X137459999Y-147060001D02*
X138089999Y-147060001D01*
X149209999Y-147060001D02*
X149839999Y-147060001D01*
X160959999Y-147060001D02*
X161589999Y-147060001D01*
X172709999Y-147060001D02*
X173339999Y-147060001D01*
X184459999Y-147060001D02*
X185089999Y-147060001D01*
X196209999Y-147060001D02*
X196839999Y-147060001D01*
X136560000Y-80460000D02*
X137459999Y-79560001D01*
X148310000Y-80460000D02*
X149209999Y-79560001D01*
X160060000Y-80460000D02*
X160959999Y-79560001D01*
X171810000Y-80460000D02*
X172709999Y-79560001D01*
X183560000Y-80460000D02*
X184459999Y-79560001D01*
X195310000Y-80460000D02*
X196209999Y-79560001D01*
X124810000Y-93960000D02*
X125709999Y-93060001D01*
X136560000Y-93960000D02*
X137459999Y-93060001D01*
X148310000Y-93960000D02*
X149209999Y-93060001D01*
X160060000Y-93960000D02*
X160959999Y-93060001D01*
X171810000Y-93960000D02*
X172709999Y-93060001D01*
X183560000Y-93960000D02*
X184459999Y-93060001D01*
X195310000Y-93960000D02*
X196209999Y-93060001D01*
X124810000Y-107460000D02*
X125709999Y-106560001D01*
X136560000Y-107460000D02*
X137459999Y-106560001D01*
X148310000Y-107460000D02*
X149209999Y-106560001D01*
X160060000Y-107460000D02*
X160959999Y-106560001D01*
X171810000Y-107460000D02*
X172709999Y-106560001D01*
X183560000Y-107460000D02*
X184459999Y-106560001D01*
X195310000Y-107460000D02*
X196209999Y-106560001D01*
X124810000Y-120960000D02*
X125709999Y-120060001D01*
X136560000Y-120960000D02*
X137459999Y-120060001D01*
X148310000Y-120960000D02*
X149209999Y-120060001D01*
X160060000Y-120960000D02*
X160959999Y-120060001D01*
X171810000Y-120960000D02*
X172709999Y-120060001D01*
X183560000Y-120960000D02*
X184459999Y-120060001D01*
X195310000Y-120960000D02*
X196209999Y-120060001D01*
X124810000Y-134460000D02*
X125709999Y-133560001D01*
X136560000Y-134460000D02*
X137459999Y-133560001D01*
X148310000Y-134460000D02*
X149209999Y-133560001D01*
X160060000Y-134460000D02*
X160959999Y-133560001D01*
X171810000Y-134460000D02*
X172709999Y-133560001D01*
X183560000Y-134460000D02*
X184459999Y-133560001D01*
X195310000Y-134460000D02*
X196209999Y-133560001D01*
X124810000Y-147960000D02*
X125709999Y-147060001D01*
X136560000Y-147960000D02*
X137459999Y-147060001D01*
X148310000Y-147960000D02*
X149209999Y-147060001D01*
X160060000Y-147960000D02*
X160959999Y-147060001D01*
X171810000Y-147960000D02*
X172709999Y-147060001D01*
X183560000Y-147960000D02*
X184459999Y-147060001D01*
X195310000Y-147960000D02*
X196209999Y-147060001D01*
X138089999Y-79560001D02*
X138350000Y-79300000D01*
X149839999Y-79560001D02*
X150100000Y-79300000D01*
X161589999Y-79560001D02*
X161850000Y-79300000D01*
X173339999Y-79560001D02*
X173600000Y-79300000D01*
X185089999Y-79560001D02*
X185350000Y-79300000D01*
X196839999Y-79560001D02*
X197100000Y-79300000D01*
X126339999Y-93060001D02*
X126600000Y-92800000D01*
X138089999Y-93060001D02*
X138350000Y-92800000D01*
X149839999Y-93060001D02*
X150100000Y-92800000D01*
X161589999Y-93060001D02*
X161850000Y-92800000D01*
X173339999Y-93060001D02*
X173600000Y-92800000D01*
X185089999Y-93060001D02*
X185350000Y-92800000D01*
X196839999Y-93060001D02*
X197100000Y-92800000D01*
X126339999Y-106560001D02*
X126600000Y-106300000D01*
X138089999Y-106560001D02*
X138350000Y-106300000D01*
X149839999Y-106560001D02*
X150100000Y-106300000D01*
X161589999Y-106560001D02*
X161850000Y-106300000D01*
X173339999Y-106560001D02*
X173600000Y-106300000D01*
X185089999Y-106560001D02*
X185350000Y-106300000D01*
X196839999Y-106560001D02*
X197100000Y-106300000D01*
X126339999Y-120060001D02*
X126600000Y-119800000D01*
X138089999Y-120060001D02*
X138350000Y-119800000D01*
X149839999Y-120060001D02*
X150100000Y-119800000D01*
X161589999Y-120060001D02*
X161850000Y-119800000D01*
X173339999Y-120060001D02*
X173600000Y-119800000D01*
X185089999Y-120060001D02*
X185350000Y-119800000D01*
X196839999Y-120060001D02*
X197100000Y-119800000D01*
X126339999Y-133560001D02*
X126600000Y-133300000D01*
X138089999Y-133560001D02*
X138350000Y-133300000D01*
X149839999Y-133560001D02*
X150100000Y-133300000D01*
X161589999Y-133560001D02*
X161850000Y-133300000D01*
X173339999Y-133560001D02*
X173600000Y-133300000D01*
X185089999Y-133560001D02*
X185350000Y-133300000D01*
X196839999Y-133560001D02*
X197100000Y-133300000D01*
X126339999Y-147060001D02*
X126600000Y-146800000D01*
X138089999Y-147060001D02*
X138350000Y-146800000D01*
X149839999Y-147060001D02*
X150100000Y-146800000D01*
X161589999Y-147060001D02*
X161850000Y-146800000D01*
X173339999Y-147060001D02*
X173600000Y-146800000D01*
X185089999Y-147060001D02*
X185350000Y-146800000D01*
X196839999Y-147060001D02*
X197100000Y-146800000D01*
X138550000Y-78034315D02*
X138450000Y-77934315D01*
X150300000Y-78034315D02*
X150200000Y-77934315D01*
X162050000Y-78034315D02*
X161950000Y-77934315D01*
X173800000Y-78034315D02*
X173700000Y-77934315D01*
X185550000Y-78034315D02*
X185450000Y-77934315D01*
X197300000Y-78034315D02*
X197200000Y-77934315D01*
X126800000Y-91534315D02*
X126700000Y-91434315D01*
X138550000Y-91534315D02*
X138450000Y-91434315D01*
X150300000Y-91534315D02*
X150200000Y-91434315D01*
X162050000Y-91534315D02*
X161950000Y-91434315D01*
X173800000Y-91534315D02*
X173700000Y-91434315D01*
X185550000Y-91534315D02*
X185450000Y-91434315D01*
X197300000Y-91534315D02*
X197200000Y-91434315D01*
X126800000Y-105034315D02*
X126700000Y-104934315D01*
X138550000Y-105034315D02*
X138450000Y-104934315D01*
X150300000Y-105034315D02*
X150200000Y-104934315D01*
X162050000Y-105034315D02*
X161950000Y-104934315D01*
X173800000Y-105034315D02*
X173700000Y-104934315D01*
X185550000Y-105034315D02*
X185450000Y-104934315D01*
X197300000Y-105034315D02*
X197200000Y-104934315D01*
X126800000Y-118534315D02*
X126700000Y-118434315D01*
X138550000Y-118534315D02*
X138450000Y-118434315D01*
X150300000Y-118534315D02*
X150200000Y-118434315D01*
X162050000Y-118534315D02*
X161950000Y-118434315D01*
X173800000Y-118534315D02*
X173700000Y-118434315D01*
X185550000Y-118534315D02*
X185450000Y-118434315D01*
X197300000Y-118534315D02*
X197200000Y-118434315D01*
X126800000Y-132034315D02*
X126700000Y-131934315D01*
X138550000Y-132034315D02*
X138450000Y-131934315D01*
X150300000Y-132034315D02*
X150200000Y-131934315D01*
X162050000Y-132034315D02*
X161950000Y-131934315D01*
X173800000Y-132034315D02*
X173700000Y-131934315D01*
X185550000Y-132034315D02*
X185450000Y-131934315D01*
X197300000Y-132034315D02*
X197200000Y-131934315D01*
X126800000Y-145534315D02*
X126700000Y-145434315D01*
X138550000Y-145534315D02*
X138450000Y-145434315D01*
X150300000Y-145534315D02*
X150200000Y-145434315D01*
X162050000Y-145534315D02*
X161950000Y-145434315D01*
X173800000Y-145534315D02*
X173700000Y-145434315D01*
X185550000Y-145534315D02*
X185450000Y-145434315D01*
X197300000Y-145534315D02*
X197200000Y-145434315D01*
X133650000Y-78900000D02*
X134450000Y-78900000D01*
X145400000Y-78900000D02*
X146200000Y-78900000D01*
X157150000Y-78900000D02*
X157950000Y-78900000D01*
X168900000Y-78900000D02*
X169700000Y-78900000D01*
X180650000Y-78900000D02*
X181450000Y-78900000D01*
X192400000Y-78900000D02*
X193200000Y-78900000D01*
X121900000Y-92400000D02*
X122700000Y-92400000D01*
X133650000Y-92400000D02*
X134450000Y-92400000D01*
X145400000Y-92400000D02*
X146200000Y-92400000D01*
X157150000Y-92400000D02*
X157950000Y-92400000D01*
X168900000Y-92400000D02*
X169700000Y-92400000D01*
X180650000Y-92400000D02*
X181450000Y-92400000D01*
X192400000Y-92400000D02*
X193200000Y-92400000D01*
X121900000Y-105900000D02*
X122700000Y-105900000D01*
X133650000Y-105900000D02*
X134450000Y-105900000D01*
X145400000Y-105900000D02*
X146200000Y-105900000D01*
X157150000Y-105900000D02*
X157950000Y-105900000D01*
X168900000Y-105900000D02*
X169700000Y-105900000D01*
X180650000Y-105900000D02*
X181450000Y-105900000D01*
X192400000Y-105900000D02*
X193200000Y-105900000D01*
X121900000Y-119400000D02*
X122700000Y-119400000D01*
X133650000Y-119400000D02*
X134450000Y-119400000D01*
X145400000Y-119400000D02*
X146200000Y-119400000D01*
X157150000Y-119400000D02*
X157950000Y-119400000D01*
X168900000Y-119400000D02*
X169700000Y-119400000D01*
X180650000Y-119400000D02*
X181450000Y-119400000D01*
X192400000Y-119400000D02*
X193200000Y-119400000D01*
X121900000Y-132900000D02*
X122700000Y-132900000D01*
X133650000Y-132900000D02*
X134450000Y-132900000D01*
X145400000Y-132900000D02*
X146200000Y-132900000D01*
X157150000Y-132900000D02*
X157950000Y-132900000D01*
X168900000Y-132900000D02*
X169700000Y-132900000D01*
X180650000Y-132900000D02*
X181450000Y-132900000D01*
X192400000Y-132900000D02*
X193200000Y-132900000D01*
X121900000Y-146400000D02*
X122700000Y-146400000D01*
X133650000Y-146400000D02*
X134450000Y-146400000D01*
X145400000Y-146400000D02*
X146200000Y-146400000D01*
X157150000Y-146400000D02*
X157950000Y-146400000D01*
X168900000Y-146400000D02*
X169700000Y-146400000D01*
X180650000Y-146400000D02*
X181450000Y-146400000D01*
X192400000Y-146400000D02*
X193200000Y-146400000D01*
X132550000Y-80000000D02*
X133650000Y-78900000D01*
X144300000Y-80000000D02*
X145400000Y-78900000D01*
X156050000Y-80000000D02*
X157150000Y-78900000D01*
X167800000Y-80000000D02*
X168900000Y-78900000D01*
X179550000Y-80000000D02*
X180650000Y-78900000D01*
X191300000Y-80000000D02*
X192400000Y-78900000D01*
X120800000Y-93500000D02*
X121900000Y-92400000D01*
X132550000Y-93500000D02*
X133650000Y-92400000D01*
X144300000Y-93500000D02*
X145400000Y-92400000D01*
X156050000Y-93500000D02*
X157150000Y-92400000D01*
X167800000Y-93500000D02*
X168900000Y-92400000D01*
X179550000Y-93500000D02*
X180650000Y-92400000D01*
X191300000Y-93500000D02*
X192400000Y-92400000D01*
X120800000Y-107000000D02*
X121900000Y-105900000D01*
X132550000Y-107000000D02*
X133650000Y-105900000D01*
X144300000Y-107000000D02*
X145400000Y-105900000D01*
X156050000Y-107000000D02*
X157150000Y-105900000D01*
X167800000Y-107000000D02*
X168900000Y-105900000D01*
X179550000Y-107000000D02*
X180650000Y-105900000D01*
X191300000Y-107000000D02*
X192400000Y-105900000D01*
X120800000Y-120500000D02*
X121900000Y-119400000D01*
X132550000Y-120500000D02*
X133650000Y-119400000D01*
X144300000Y-120500000D02*
X145400000Y-119400000D01*
X156050000Y-120500000D02*
X157150000Y-119400000D01*
X167800000Y-120500000D02*
X168900000Y-119400000D01*
X179550000Y-120500000D02*
X180650000Y-119400000D01*
X191300000Y-120500000D02*
X192400000Y-119400000D01*
X120800000Y-134000000D02*
X121900000Y-132900000D01*
X132550000Y-134000000D02*
X133650000Y-132900000D01*
X144300000Y-134000000D02*
X145400000Y-132900000D01*
X156050000Y-134000000D02*
X157150000Y-132900000D01*
X167800000Y-134000000D02*
X168900000Y-132900000D01*
X179550000Y-134000000D02*
X180650000Y-132900000D01*
X191300000Y-134000000D02*
X192400000Y-132900000D01*
X120800000Y-147500000D02*
X121900000Y-146400000D01*
X132550000Y-147500000D02*
X133650000Y-146400000D01*
X144300000Y-147500000D02*
X145400000Y-146400000D01*
X156050000Y-147500000D02*
X157150000Y-146400000D01*
X167800000Y-147500000D02*
X168900000Y-146400000D01*
X179550000Y-147500000D02*
X180650000Y-146400000D01*
X191300000Y-147500000D02*
X192400000Y-146400000D01*
X138450000Y-77934315D02*
X137984315Y-77934315D01*
X150200000Y-77934315D02*
X149734315Y-77934315D01*
X161950000Y-77934315D02*
X161484315Y-77934315D01*
X173700000Y-77934315D02*
X173234315Y-77934315D01*
X185450000Y-77934315D02*
X184984315Y-77934315D01*
X197200000Y-77934315D02*
X196734315Y-77934315D01*
X126700000Y-91434315D02*
X126234315Y-91434315D01*
X138450000Y-91434315D02*
X137984315Y-91434315D01*
X150200000Y-91434315D02*
X149734315Y-91434315D01*
X161950000Y-91434315D02*
X161484315Y-91434315D01*
X173700000Y-91434315D02*
X173234315Y-91434315D01*
X185450000Y-91434315D02*
X184984315Y-91434315D01*
X197200000Y-91434315D02*
X196734315Y-91434315D01*
X126700000Y-104934315D02*
X126234315Y-104934315D01*
X138450000Y-104934315D02*
X137984315Y-104934315D01*
X150200000Y-104934315D02*
X149734315Y-104934315D01*
X161950000Y-104934315D02*
X161484315Y-104934315D01*
X173700000Y-104934315D02*
X173234315Y-104934315D01*
X185450000Y-104934315D02*
X184984315Y-104934315D01*
X197200000Y-104934315D02*
X196734315Y-104934315D01*
X126700000Y-118434315D02*
X126234315Y-118434315D01*
X138450000Y-118434315D02*
X137984315Y-118434315D01*
X150200000Y-118434315D02*
X149734315Y-118434315D01*
X161950000Y-118434315D02*
X161484315Y-118434315D01*
X173700000Y-118434315D02*
X173234315Y-118434315D01*
X185450000Y-118434315D02*
X184984315Y-118434315D01*
X197200000Y-118434315D02*
X196734315Y-118434315D01*
X126700000Y-131934315D02*
X126234315Y-131934315D01*
X138450000Y-131934315D02*
X137984315Y-131934315D01*
X150200000Y-131934315D02*
X149734315Y-131934315D01*
X161950000Y-131934315D02*
X161484315Y-131934315D01*
X173700000Y-131934315D02*
X173234315Y-131934315D01*
X185450000Y-131934315D02*
X184984315Y-131934315D01*
X197200000Y-131934315D02*
X196734315Y-131934315D01*
X126700000Y-145434315D02*
X126234315Y-145434315D01*
X138450000Y-145434315D02*
X137984315Y-145434315D01*
X150200000Y-145434315D02*
X149734315Y-145434315D01*
X161950000Y-145434315D02*
X161484315Y-145434315D01*
X173700000Y-145434315D02*
X173234315Y-145434315D01*
X185450000Y-145434315D02*
X184984315Y-145434315D01*
X197200000Y-145434315D02*
X196734315Y-145434315D01*
X137984315Y-77934315D02*
X137850000Y-77800000D01*
X149734315Y-77934315D02*
X149600000Y-77800000D01*
X161484315Y-77934315D02*
X161350000Y-77800000D01*
X173234315Y-77934315D02*
X173100000Y-77800000D01*
X184984315Y-77934315D02*
X184850000Y-77800000D01*
X196734315Y-77934315D02*
X196600000Y-77800000D01*
X126234315Y-91434315D02*
X126100000Y-91300000D01*
X137984315Y-91434315D02*
X137850000Y-91300000D01*
X149734315Y-91434315D02*
X149600000Y-91300000D01*
X161484315Y-91434315D02*
X161350000Y-91300000D01*
X173234315Y-91434315D02*
X173100000Y-91300000D01*
X184984315Y-91434315D02*
X184850000Y-91300000D01*
X196734315Y-91434315D02*
X196600000Y-91300000D01*
X126234315Y-104934315D02*
X126100000Y-104800000D01*
X137984315Y-104934315D02*
X137850000Y-104800000D01*
X149734315Y-104934315D02*
X149600000Y-104800000D01*
X161484315Y-104934315D02*
X161350000Y-104800000D01*
X173234315Y-104934315D02*
X173100000Y-104800000D01*
X184984315Y-104934315D02*
X184850000Y-104800000D01*
X196734315Y-104934315D02*
X196600000Y-104800000D01*
X126234315Y-118434315D02*
X126100000Y-118300000D01*
X137984315Y-118434315D02*
X137850000Y-118300000D01*
X149734315Y-118434315D02*
X149600000Y-118300000D01*
X161484315Y-118434315D02*
X161350000Y-118300000D01*
X173234315Y-118434315D02*
X173100000Y-118300000D01*
X184984315Y-118434315D02*
X184850000Y-118300000D01*
X196734315Y-118434315D02*
X196600000Y-118300000D01*
X126234315Y-131934315D02*
X126100000Y-131800000D01*
X137984315Y-131934315D02*
X137850000Y-131800000D01*
X149734315Y-131934315D02*
X149600000Y-131800000D01*
X161484315Y-131934315D02*
X161350000Y-131800000D01*
X173234315Y-131934315D02*
X173100000Y-131800000D01*
X184984315Y-131934315D02*
X184850000Y-131800000D01*
X196734315Y-131934315D02*
X196600000Y-131800000D01*
X126234315Y-145434315D02*
X126100000Y-145300000D01*
X137984315Y-145434315D02*
X137850000Y-145300000D01*
X149734315Y-145434315D02*
X149600000Y-145300000D01*
X161484315Y-145434315D02*
X161350000Y-145300000D01*
X173234315Y-145434315D02*
X173100000Y-145300000D01*
X184984315Y-145434315D02*
X184850000Y-145300000D01*
X196734315Y-145434315D02*
X196600000Y-145300000D01*
X136950000Y-78400000D02*
X136080000Y-78400000D01*
X148700000Y-78400000D02*
X147830000Y-78400000D01*
X160450000Y-78400000D02*
X159580000Y-78400000D01*
X172200000Y-78400000D02*
X171330000Y-78400000D01*
X183950000Y-78400000D02*
X183080000Y-78400000D01*
X195700000Y-78400000D02*
X194830000Y-78400000D01*
X125200000Y-91900000D02*
X124330000Y-91900000D01*
X136950000Y-91900000D02*
X136080000Y-91900000D01*
X148700000Y-91900000D02*
X147830000Y-91900000D01*
X160450000Y-91900000D02*
X159580000Y-91900000D01*
X172200000Y-91900000D02*
X171330000Y-91900000D01*
X183950000Y-91900000D02*
X183080000Y-91900000D01*
X195700000Y-91900000D02*
X194830000Y-91900000D01*
X125200000Y-105400000D02*
X124330000Y-105400000D01*
X136950000Y-105400000D02*
X136080000Y-105400000D01*
X148700000Y-105400000D02*
X147830000Y-105400000D01*
X160450000Y-105400000D02*
X159580000Y-105400000D01*
X172200000Y-105400000D02*
X171330000Y-105400000D01*
X183950000Y-105400000D02*
X183080000Y-105400000D01*
X195700000Y-105400000D02*
X194830000Y-105400000D01*
X125200000Y-118900000D02*
X124330000Y-118900000D01*
X136950000Y-118900000D02*
X136080000Y-118900000D01*
X148700000Y-118900000D02*
X147830000Y-118900000D01*
X160450000Y-118900000D02*
X159580000Y-118900000D01*
X172200000Y-118900000D02*
X171330000Y-118900000D01*
X183950000Y-118900000D02*
X183080000Y-118900000D01*
X195700000Y-118900000D02*
X194830000Y-118900000D01*
X125200000Y-132400000D02*
X124330000Y-132400000D01*
X136950000Y-132400000D02*
X136080000Y-132400000D01*
X148700000Y-132400000D02*
X147830000Y-132400000D01*
X160450000Y-132400000D02*
X159580000Y-132400000D01*
X172200000Y-132400000D02*
X171330000Y-132400000D01*
X183950000Y-132400000D02*
X183080000Y-132400000D01*
X195700000Y-132400000D02*
X194830000Y-132400000D01*
X125200000Y-145900000D02*
X124330000Y-145900000D01*
X136950000Y-145900000D02*
X136080000Y-145900000D01*
X148700000Y-145900000D02*
X147830000Y-145900000D01*
X160450000Y-145900000D02*
X159580000Y-145900000D01*
X172200000Y-145900000D02*
X171330000Y-145900000D01*
X183950000Y-145900000D02*
X183080000Y-145900000D01*
X195700000Y-145900000D02*
X194830000Y-145900000D01*
M02*
