G04 #@! TF.GenerationSoftware,KiCad,Pcbnew,5.1.0-060a0da~80~ubuntu18.04.1*
G04 #@! TF.CreationDate,2019-05-11T20:46:11+02:00*
G04 #@! TF.ProjectId,spi_connector_board,7370695f-636f-46e6-9e65-63746f725f62,rev?*
G04 #@! TF.SameCoordinates,Original*
G04 #@! TF.FileFunction,Copper,L1,Top*
G04 #@! TF.FilePolarity,Positive*
%FSLAX46Y46*%
G04 Gerber Fmt 4.6, Leading zero omitted, Abs format (unit mm)*
G04 Created by KiCad (PCBNEW 5.1.0-060a0da~80~ubuntu18.04.1) date 2019-05-11 20:46:11*
%MOMM*%
%LPD*%
G04 APERTURE LIST*
%ADD10C,1.800000*%
%ADD11R,1.800000X1.800000*%
%ADD12R,0.600000X1.550000*%
%ADD13R,1.200000X1.800000*%
%ADD14C,0.800000*%
%ADD15C,0.250000*%
G04 APERTURE END LIST*
D10*
X197850000Y-147960000D03*
X196580000Y-150500000D03*
D11*
X191500000Y-150500000D03*
D10*
X192770000Y-147960000D03*
X194040000Y-150500000D03*
X195310000Y-147960000D03*
X186100000Y-147960000D03*
X184830000Y-150500000D03*
D11*
X179750000Y-150500000D03*
D10*
X181020000Y-147960000D03*
X182290000Y-150500000D03*
X183560000Y-147960000D03*
X174350000Y-147960000D03*
X173080000Y-150500000D03*
D11*
X168000000Y-150500000D03*
D10*
X169270000Y-147960000D03*
X170540000Y-150500000D03*
X171810000Y-147960000D03*
X162600000Y-147960000D03*
X161330000Y-150500000D03*
D11*
X156250000Y-150500000D03*
D10*
X157520000Y-147960000D03*
X158790000Y-150500000D03*
X160060000Y-147960000D03*
X150850000Y-147960000D03*
X149580000Y-150500000D03*
D11*
X144500000Y-150500000D03*
D10*
X145770000Y-147960000D03*
X147040000Y-150500000D03*
X148310000Y-147960000D03*
X139100000Y-147960000D03*
X137830000Y-150500000D03*
D11*
X132750000Y-150500000D03*
D10*
X134020000Y-147960000D03*
X135290000Y-150500000D03*
X136560000Y-147960000D03*
X127350000Y-147960000D03*
X126080000Y-150500000D03*
D11*
X121000000Y-150500000D03*
D10*
X122270000Y-147960000D03*
X123540000Y-150500000D03*
X124810000Y-147960000D03*
X197850000Y-134460000D03*
X196580000Y-137000000D03*
D11*
X191500000Y-137000000D03*
D10*
X192770000Y-134460000D03*
X194040000Y-137000000D03*
X195310000Y-134460000D03*
X186100000Y-134460000D03*
X184830000Y-137000000D03*
D11*
X179750000Y-137000000D03*
D10*
X181020000Y-134460000D03*
X182290000Y-137000000D03*
X183560000Y-134460000D03*
X174350000Y-134460000D03*
X173080000Y-137000000D03*
D11*
X168000000Y-137000000D03*
D10*
X169270000Y-134460000D03*
X170540000Y-137000000D03*
X171810000Y-134460000D03*
X162600000Y-134460000D03*
X161330000Y-137000000D03*
D11*
X156250000Y-137000000D03*
D10*
X157520000Y-134460000D03*
X158790000Y-137000000D03*
X160060000Y-134460000D03*
X150850000Y-134460000D03*
X149580000Y-137000000D03*
D11*
X144500000Y-137000000D03*
D10*
X145770000Y-134460000D03*
X147040000Y-137000000D03*
X148310000Y-134460000D03*
X139100000Y-134460000D03*
X137830000Y-137000000D03*
D11*
X132750000Y-137000000D03*
D10*
X134020000Y-134460000D03*
X135290000Y-137000000D03*
X136560000Y-134460000D03*
X127350000Y-134460000D03*
X126080000Y-137000000D03*
D11*
X121000000Y-137000000D03*
D10*
X122270000Y-134460000D03*
X123540000Y-137000000D03*
X124810000Y-134460000D03*
X197850000Y-120960000D03*
X196580000Y-123500000D03*
D11*
X191500000Y-123500000D03*
D10*
X192770000Y-120960000D03*
X194040000Y-123500000D03*
X195310000Y-120960000D03*
X186100000Y-120960000D03*
X184830000Y-123500000D03*
D11*
X179750000Y-123500000D03*
D10*
X181020000Y-120960000D03*
X182290000Y-123500000D03*
X183560000Y-120960000D03*
X174350000Y-120960000D03*
X173080000Y-123500000D03*
D11*
X168000000Y-123500000D03*
D10*
X169270000Y-120960000D03*
X170540000Y-123500000D03*
X171810000Y-120960000D03*
X162600000Y-120960000D03*
X161330000Y-123500000D03*
D11*
X156250000Y-123500000D03*
D10*
X157520000Y-120960000D03*
X158790000Y-123500000D03*
X160060000Y-120960000D03*
X150850000Y-120960000D03*
X149580000Y-123500000D03*
D11*
X144500000Y-123500000D03*
D10*
X145770000Y-120960000D03*
X147040000Y-123500000D03*
X148310000Y-120960000D03*
X139100000Y-120960000D03*
X137830000Y-123500000D03*
D11*
X132750000Y-123500000D03*
D10*
X134020000Y-120960000D03*
X135290000Y-123500000D03*
X136560000Y-120960000D03*
X127350000Y-120960000D03*
X126080000Y-123500000D03*
D11*
X121000000Y-123500000D03*
D10*
X122270000Y-120960000D03*
X123540000Y-123500000D03*
X124810000Y-120960000D03*
X197850000Y-107460000D03*
X196580000Y-110000000D03*
D11*
X191500000Y-110000000D03*
D10*
X192770000Y-107460000D03*
X194040000Y-110000000D03*
X195310000Y-107460000D03*
X186100000Y-107460000D03*
X184830000Y-110000000D03*
D11*
X179750000Y-110000000D03*
D10*
X181020000Y-107460000D03*
X182290000Y-110000000D03*
X183560000Y-107460000D03*
X174350000Y-107460000D03*
X173080000Y-110000000D03*
D11*
X168000000Y-110000000D03*
D10*
X169270000Y-107460000D03*
X170540000Y-110000000D03*
X171810000Y-107460000D03*
X162600000Y-107460000D03*
X161330000Y-110000000D03*
D11*
X156250000Y-110000000D03*
D10*
X157520000Y-107460000D03*
X158790000Y-110000000D03*
X160060000Y-107460000D03*
X150850000Y-107460000D03*
X149580000Y-110000000D03*
D11*
X144500000Y-110000000D03*
D10*
X145770000Y-107460000D03*
X147040000Y-110000000D03*
X148310000Y-107460000D03*
X139100000Y-107460000D03*
X137830000Y-110000000D03*
D11*
X132750000Y-110000000D03*
D10*
X134020000Y-107460000D03*
X135290000Y-110000000D03*
X136560000Y-107460000D03*
X127350000Y-107460000D03*
X126080000Y-110000000D03*
D11*
X121000000Y-110000000D03*
D10*
X122270000Y-107460000D03*
X123540000Y-110000000D03*
X124810000Y-107460000D03*
X197850000Y-93960000D03*
X196580000Y-96500000D03*
D11*
X191500000Y-96500000D03*
D10*
X192770000Y-93960000D03*
X194040000Y-96500000D03*
X195310000Y-93960000D03*
X186100000Y-93960000D03*
X184830000Y-96500000D03*
D11*
X179750000Y-96500000D03*
D10*
X181020000Y-93960000D03*
X182290000Y-96500000D03*
X183560000Y-93960000D03*
X174350000Y-93960000D03*
X173080000Y-96500000D03*
D11*
X168000000Y-96500000D03*
D10*
X169270000Y-93960000D03*
X170540000Y-96500000D03*
X171810000Y-93960000D03*
X162600000Y-93960000D03*
X161330000Y-96500000D03*
D11*
X156250000Y-96500000D03*
D10*
X157520000Y-93960000D03*
X158790000Y-96500000D03*
X160060000Y-93960000D03*
X150850000Y-93960000D03*
X149580000Y-96500000D03*
D11*
X144500000Y-96500000D03*
D10*
X145770000Y-93960000D03*
X147040000Y-96500000D03*
X148310000Y-93960000D03*
X139100000Y-93960000D03*
X137830000Y-96500000D03*
D11*
X132750000Y-96500000D03*
D10*
X134020000Y-93960000D03*
X135290000Y-96500000D03*
X136560000Y-93960000D03*
X127350000Y-93960000D03*
X126080000Y-96500000D03*
D11*
X121000000Y-96500000D03*
D10*
X122270000Y-93960000D03*
X123540000Y-96500000D03*
X124810000Y-93960000D03*
X197850000Y-80460000D03*
X196580000Y-83000000D03*
D11*
X191500000Y-83000000D03*
D10*
X192770000Y-80460000D03*
X194040000Y-83000000D03*
X195310000Y-80460000D03*
X186100000Y-80460000D03*
X184830000Y-83000000D03*
D11*
X179750000Y-83000000D03*
D10*
X181020000Y-80460000D03*
X182290000Y-83000000D03*
X183560000Y-80460000D03*
X174350000Y-80460000D03*
X173080000Y-83000000D03*
D11*
X168000000Y-83000000D03*
D10*
X169270000Y-80460000D03*
X170540000Y-83000000D03*
X171810000Y-80460000D03*
X162600000Y-80460000D03*
X161330000Y-83000000D03*
D11*
X156250000Y-83000000D03*
D10*
X157520000Y-80460000D03*
X158790000Y-83000000D03*
X160060000Y-80460000D03*
X150850000Y-80460000D03*
X149580000Y-83000000D03*
D11*
X144500000Y-83000000D03*
D10*
X145770000Y-80460000D03*
X147040000Y-83000000D03*
X148310000Y-80460000D03*
X139100000Y-80460000D03*
X137830000Y-83000000D03*
D11*
X132750000Y-83000000D03*
D10*
X134020000Y-80460000D03*
X135290000Y-83000000D03*
X136560000Y-80460000D03*
D12*
X196500000Y-144375000D03*
D13*
X197800000Y-140500000D03*
X191200000Y-140500000D03*
D12*
X195500000Y-144375000D03*
X194500000Y-144375000D03*
X193500000Y-144375000D03*
X192500000Y-144375000D03*
X184750000Y-144375000D03*
D13*
X186050000Y-140500000D03*
X179450000Y-140500000D03*
D12*
X183750000Y-144375000D03*
X182750000Y-144375000D03*
X181750000Y-144375000D03*
X180750000Y-144375000D03*
X173000000Y-144375000D03*
D13*
X174300000Y-140500000D03*
X167700000Y-140500000D03*
D12*
X172000000Y-144375000D03*
X171000000Y-144375000D03*
X170000000Y-144375000D03*
X169000000Y-144375000D03*
X161250000Y-144375000D03*
D13*
X162550000Y-140500000D03*
X155950000Y-140500000D03*
D12*
X160250000Y-144375000D03*
X159250000Y-144375000D03*
X158250000Y-144375000D03*
X157250000Y-144375000D03*
X149500000Y-144375000D03*
D13*
X150800000Y-140500000D03*
X144200000Y-140500000D03*
D12*
X148500000Y-144375000D03*
X147500000Y-144375000D03*
X146500000Y-144375000D03*
X145500000Y-144375000D03*
X137750000Y-144375000D03*
D13*
X139050000Y-140500000D03*
X132450000Y-140500000D03*
D12*
X136750000Y-144375000D03*
X135750000Y-144375000D03*
X134750000Y-144375000D03*
X133750000Y-144375000D03*
X126000000Y-144375000D03*
D13*
X127300000Y-140500000D03*
X120700000Y-140500000D03*
D12*
X125000000Y-144375000D03*
X124000000Y-144375000D03*
X123000000Y-144375000D03*
X122000000Y-144375000D03*
X196500000Y-130875000D03*
D13*
X197800000Y-127000000D03*
X191200000Y-127000000D03*
D12*
X195500000Y-130875000D03*
X194500000Y-130875000D03*
X193500000Y-130875000D03*
X192500000Y-130875000D03*
X184750000Y-130875000D03*
D13*
X186050000Y-127000000D03*
X179450000Y-127000000D03*
D12*
X183750000Y-130875000D03*
X182750000Y-130875000D03*
X181750000Y-130875000D03*
X180750000Y-130875000D03*
X173000000Y-130875000D03*
D13*
X174300000Y-127000000D03*
X167700000Y-127000000D03*
D12*
X172000000Y-130875000D03*
X171000000Y-130875000D03*
X170000000Y-130875000D03*
X169000000Y-130875000D03*
X161250000Y-130875000D03*
D13*
X162550000Y-127000000D03*
X155950000Y-127000000D03*
D12*
X160250000Y-130875000D03*
X159250000Y-130875000D03*
X158250000Y-130875000D03*
X157250000Y-130875000D03*
X149500000Y-130875000D03*
D13*
X150800000Y-127000000D03*
X144200000Y-127000000D03*
D12*
X148500000Y-130875000D03*
X147500000Y-130875000D03*
X146500000Y-130875000D03*
X145500000Y-130875000D03*
X137750000Y-130875000D03*
D13*
X139050000Y-127000000D03*
X132450000Y-127000000D03*
D12*
X136750000Y-130875000D03*
X135750000Y-130875000D03*
X134750000Y-130875000D03*
X133750000Y-130875000D03*
X126000000Y-130875000D03*
D13*
X127300000Y-127000000D03*
X120700000Y-127000000D03*
D12*
X125000000Y-130875000D03*
X124000000Y-130875000D03*
X123000000Y-130875000D03*
X122000000Y-130875000D03*
X196500000Y-117375000D03*
D13*
X197800000Y-113500000D03*
X191200000Y-113500000D03*
D12*
X195500000Y-117375000D03*
X194500000Y-117375000D03*
X193500000Y-117375000D03*
X192500000Y-117375000D03*
X184750000Y-117375000D03*
D13*
X186050000Y-113500000D03*
X179450000Y-113500000D03*
D12*
X183750000Y-117375000D03*
X182750000Y-117375000D03*
X181750000Y-117375000D03*
X180750000Y-117375000D03*
X173000000Y-117375000D03*
D13*
X174300000Y-113500000D03*
X167700000Y-113500000D03*
D12*
X172000000Y-117375000D03*
X171000000Y-117375000D03*
X170000000Y-117375000D03*
X169000000Y-117375000D03*
X161250000Y-117375000D03*
D13*
X162550000Y-113500000D03*
X155950000Y-113500000D03*
D12*
X160250000Y-117375000D03*
X159250000Y-117375000D03*
X158250000Y-117375000D03*
X157250000Y-117375000D03*
X149500000Y-117375000D03*
D13*
X150800000Y-113500000D03*
X144200000Y-113500000D03*
D12*
X148500000Y-117375000D03*
X147500000Y-117375000D03*
X146500000Y-117375000D03*
X145500000Y-117375000D03*
X137750000Y-117375000D03*
D13*
X139050000Y-113500000D03*
X132450000Y-113500000D03*
D12*
X136750000Y-117375000D03*
X135750000Y-117375000D03*
X134750000Y-117375000D03*
X133750000Y-117375000D03*
X126000000Y-117375000D03*
D13*
X127300000Y-113500000D03*
X120700000Y-113500000D03*
D12*
X125000000Y-117375000D03*
X124000000Y-117375000D03*
X123000000Y-117375000D03*
X122000000Y-117375000D03*
X196500000Y-103875000D03*
D13*
X197800000Y-100000000D03*
X191200000Y-100000000D03*
D12*
X195500000Y-103875000D03*
X194500000Y-103875000D03*
X193500000Y-103875000D03*
X192500000Y-103875000D03*
X184750000Y-103875000D03*
D13*
X186050000Y-100000000D03*
X179450000Y-100000000D03*
D12*
X183750000Y-103875000D03*
X182750000Y-103875000D03*
X181750000Y-103875000D03*
X180750000Y-103875000D03*
X173000000Y-103875000D03*
D13*
X174300000Y-100000000D03*
X167700000Y-100000000D03*
D12*
X172000000Y-103875000D03*
X171000000Y-103875000D03*
X170000000Y-103875000D03*
X169000000Y-103875000D03*
X161250000Y-103875000D03*
D13*
X162550000Y-100000000D03*
X155950000Y-100000000D03*
D12*
X160250000Y-103875000D03*
X159250000Y-103875000D03*
X158250000Y-103875000D03*
X157250000Y-103875000D03*
X149500000Y-103875000D03*
D13*
X150800000Y-100000000D03*
X144200000Y-100000000D03*
D12*
X148500000Y-103875000D03*
X147500000Y-103875000D03*
X146500000Y-103875000D03*
X145500000Y-103875000D03*
X137750000Y-103875000D03*
D13*
X139050000Y-100000000D03*
X132450000Y-100000000D03*
D12*
X136750000Y-103875000D03*
X135750000Y-103875000D03*
X134750000Y-103875000D03*
X133750000Y-103875000D03*
X126000000Y-103875000D03*
D13*
X127300000Y-100000000D03*
X120700000Y-100000000D03*
D12*
X125000000Y-103875000D03*
X124000000Y-103875000D03*
X123000000Y-103875000D03*
X122000000Y-103875000D03*
X196500000Y-90375000D03*
D13*
X197800000Y-86500000D03*
X191200000Y-86500000D03*
D12*
X195500000Y-90375000D03*
X194500000Y-90375000D03*
X193500000Y-90375000D03*
X192500000Y-90375000D03*
X184750000Y-90375000D03*
D13*
X186050000Y-86500000D03*
X179450000Y-86500000D03*
D12*
X183750000Y-90375000D03*
X182750000Y-90375000D03*
X181750000Y-90375000D03*
X180750000Y-90375000D03*
X173000000Y-90375000D03*
D13*
X174300000Y-86500000D03*
X167700000Y-86500000D03*
D12*
X172000000Y-90375000D03*
X171000000Y-90375000D03*
X170000000Y-90375000D03*
X169000000Y-90375000D03*
X161250000Y-90375000D03*
D13*
X162550000Y-86500000D03*
X155950000Y-86500000D03*
D12*
X160250000Y-90375000D03*
X159250000Y-90375000D03*
X158250000Y-90375000D03*
X157250000Y-90375000D03*
X149500000Y-90375000D03*
D13*
X150800000Y-86500000D03*
X144200000Y-86500000D03*
D12*
X148500000Y-90375000D03*
X147500000Y-90375000D03*
X146500000Y-90375000D03*
X145500000Y-90375000D03*
X137750000Y-90375000D03*
D13*
X139050000Y-86500000D03*
X132450000Y-86500000D03*
D12*
X136750000Y-90375000D03*
X135750000Y-90375000D03*
X134750000Y-90375000D03*
X133750000Y-90375000D03*
X126000000Y-90375000D03*
D13*
X127300000Y-86500000D03*
X120700000Y-86500000D03*
D12*
X125000000Y-90375000D03*
X124000000Y-90375000D03*
X123000000Y-90375000D03*
X122000000Y-90375000D03*
X196500000Y-76875000D03*
D13*
X197800000Y-73000000D03*
X191200000Y-73000000D03*
D12*
X195500000Y-76875000D03*
X194500000Y-76875000D03*
X193500000Y-76875000D03*
X192500000Y-76875000D03*
X184750000Y-76875000D03*
D13*
X186050000Y-73000000D03*
X179450000Y-73000000D03*
D12*
X183750000Y-76875000D03*
X182750000Y-76875000D03*
X181750000Y-76875000D03*
X180750000Y-76875000D03*
X173000000Y-76875000D03*
D13*
X174300000Y-73000000D03*
X167700000Y-73000000D03*
D12*
X172000000Y-76875000D03*
X171000000Y-76875000D03*
X170000000Y-76875000D03*
X169000000Y-76875000D03*
X161250000Y-76875000D03*
D13*
X162550000Y-73000000D03*
X155950000Y-73000000D03*
D12*
X160250000Y-76875000D03*
X159250000Y-76875000D03*
X158250000Y-76875000D03*
X157250000Y-76875000D03*
X149500000Y-76875000D03*
D13*
X150800000Y-73000000D03*
X144200000Y-73000000D03*
D12*
X148500000Y-76875000D03*
X147500000Y-76875000D03*
X146500000Y-76875000D03*
X145500000Y-76875000D03*
X137750000Y-76875000D03*
D13*
X139050000Y-73000000D03*
X132450000Y-73000000D03*
D12*
X136750000Y-76875000D03*
X135750000Y-76875000D03*
X134750000Y-76875000D03*
X133750000Y-76875000D03*
X122000000Y-76875000D03*
X123000000Y-76875000D03*
X124000000Y-76875000D03*
X125000000Y-76875000D03*
D13*
X120700000Y-73000000D03*
X127300000Y-73000000D03*
D12*
X126000000Y-76875000D03*
D10*
X124810000Y-80460000D03*
X123540000Y-83000000D03*
X122270000Y-80460000D03*
D11*
X121000000Y-83000000D03*
D10*
X126080000Y-83000000D03*
X127350000Y-80460000D03*
D14*
X125200000Y-78400000D03*
X126800000Y-78600000D03*
X127500000Y-74900000D03*
X139250000Y-74900000D03*
X151000000Y-74900000D03*
X162750000Y-74900000D03*
X174500000Y-74900000D03*
X186250000Y-74900000D03*
X198000000Y-74900000D03*
X127500000Y-88400000D03*
X139250000Y-88400000D03*
X151000000Y-88400000D03*
X162750000Y-88400000D03*
X174500000Y-88400000D03*
X186250000Y-88400000D03*
X198000000Y-88400000D03*
X127500000Y-101900000D03*
X139250000Y-101900000D03*
X151000000Y-101900000D03*
X162750000Y-101900000D03*
X174500000Y-101900000D03*
X186250000Y-101900000D03*
X198000000Y-101900000D03*
X127500000Y-115400000D03*
X139250000Y-115400000D03*
X151000000Y-115400000D03*
X162750000Y-115400000D03*
X174500000Y-115400000D03*
X186250000Y-115400000D03*
X198000000Y-115400000D03*
X127500000Y-128900000D03*
X139250000Y-128900000D03*
X151000000Y-128900000D03*
X162750000Y-128900000D03*
X174500000Y-128900000D03*
X186250000Y-128900000D03*
X198000000Y-128900000D03*
X127500000Y-142400000D03*
X139250000Y-142400000D03*
X151000000Y-142400000D03*
X162750000Y-142400000D03*
X174500000Y-142400000D03*
X186250000Y-142400000D03*
X198000000Y-142400000D03*
X138550000Y-78600000D03*
X150300000Y-78600000D03*
X162050000Y-78600000D03*
X173800000Y-78600000D03*
X185550000Y-78600000D03*
X197300000Y-78600000D03*
X126800000Y-92100000D03*
X138550000Y-92100000D03*
X150300000Y-92100000D03*
X162050000Y-92100000D03*
X173800000Y-92100000D03*
X185550000Y-92100000D03*
X197300000Y-92100000D03*
X126800000Y-105600000D03*
X138550000Y-105600000D03*
X150300000Y-105600000D03*
X162050000Y-105600000D03*
X173800000Y-105600000D03*
X185550000Y-105600000D03*
X197300000Y-105600000D03*
X126800000Y-119100000D03*
X138550000Y-119100000D03*
X150300000Y-119100000D03*
X162050000Y-119100000D03*
X173800000Y-119100000D03*
X185550000Y-119100000D03*
X197300000Y-119100000D03*
X126800000Y-132600000D03*
X138550000Y-132600000D03*
X150300000Y-132600000D03*
X162050000Y-132600000D03*
X173800000Y-132600000D03*
X185550000Y-132600000D03*
X197300000Y-132600000D03*
X126800000Y-146100000D03*
X138550000Y-146100000D03*
X150300000Y-146100000D03*
X162050000Y-146100000D03*
X173800000Y-146100000D03*
X185550000Y-146100000D03*
X197300000Y-146100000D03*
X136950000Y-78400000D03*
X148700000Y-78400000D03*
X160450000Y-78400000D03*
X172200000Y-78400000D03*
X183950000Y-78400000D03*
X195700000Y-78400000D03*
X125200000Y-91900000D03*
X136950000Y-91900000D03*
X148700000Y-91900000D03*
X160450000Y-91900000D03*
X172200000Y-91900000D03*
X183950000Y-91900000D03*
X195700000Y-91900000D03*
X125200000Y-105400000D03*
X136950000Y-105400000D03*
X148700000Y-105400000D03*
X160450000Y-105400000D03*
X172200000Y-105400000D03*
X183950000Y-105400000D03*
X195700000Y-105400000D03*
X125200000Y-118900000D03*
X136950000Y-118900000D03*
X148700000Y-118900000D03*
X160450000Y-118900000D03*
X172200000Y-118900000D03*
X183950000Y-118900000D03*
X195700000Y-118900000D03*
X125200000Y-132400000D03*
X136950000Y-132400000D03*
X148700000Y-132400000D03*
X160450000Y-132400000D03*
X172200000Y-132400000D03*
X183950000Y-132400000D03*
X195700000Y-132400000D03*
X125200000Y-145900000D03*
X136950000Y-145900000D03*
X148700000Y-145900000D03*
X160450000Y-145900000D03*
X172200000Y-145900000D03*
X183950000Y-145900000D03*
X195700000Y-145900000D03*
D15*
X122000000Y-76875000D02*
X122000000Y-75000000D01*
X122000000Y-75000000D02*
X122500000Y-74500000D01*
X127500000Y-74350000D02*
X127500000Y-74500000D01*
X127300000Y-73000000D02*
X127300000Y-74150000D01*
X127300000Y-74150000D02*
X127500000Y-74350000D01*
X122500000Y-74500000D02*
X127500000Y-74500000D01*
X121900000Y-74500000D02*
X120700000Y-73300000D01*
X120700000Y-73300000D02*
X120700000Y-73000000D01*
X122500000Y-74500000D02*
X121900000Y-74500000D01*
X125000000Y-76875000D02*
X125000000Y-78110000D01*
X125000000Y-78200000D02*
X125200000Y-78400000D01*
X125000000Y-78110000D02*
X125000000Y-78200000D01*
X126000000Y-77800000D02*
X126800000Y-78600000D01*
X126000000Y-76875000D02*
X126000000Y-77800000D01*
X123000000Y-76875000D02*
X123000000Y-78700000D01*
X123540000Y-79240000D02*
X123540000Y-83000000D01*
X123000000Y-78700000D02*
X123540000Y-79240000D01*
X126080000Y-79480000D02*
X126080000Y-83000000D01*
X124000000Y-76875000D02*
X124000000Y-78400000D01*
X124000000Y-78400000D02*
X124800000Y-79200000D01*
X124800000Y-79200000D02*
X125800000Y-79200000D01*
X125800000Y-79200000D02*
X126080000Y-79480000D01*
X127500000Y-74900000D02*
X127500000Y-74350000D01*
X135750000Y-78400000D02*
X136550000Y-79200000D01*
X147500000Y-78400000D02*
X148300000Y-79200000D01*
X159250000Y-78400000D02*
X160050000Y-79200000D01*
X171000000Y-78400000D02*
X171800000Y-79200000D01*
X182750000Y-78400000D02*
X183550000Y-79200000D01*
X194500000Y-78400000D02*
X195300000Y-79200000D01*
X124000000Y-91900000D02*
X124800000Y-92700000D01*
X135750000Y-91900000D02*
X136550000Y-92700000D01*
X147500000Y-91900000D02*
X148300000Y-92700000D01*
X159250000Y-91900000D02*
X160050000Y-92700000D01*
X171000000Y-91900000D02*
X171800000Y-92700000D01*
X182750000Y-91900000D02*
X183550000Y-92700000D01*
X194500000Y-91900000D02*
X195300000Y-92700000D01*
X124000000Y-105400000D02*
X124800000Y-106200000D01*
X135750000Y-105400000D02*
X136550000Y-106200000D01*
X147500000Y-105400000D02*
X148300000Y-106200000D01*
X159250000Y-105400000D02*
X160050000Y-106200000D01*
X171000000Y-105400000D02*
X171800000Y-106200000D01*
X182750000Y-105400000D02*
X183550000Y-106200000D01*
X194500000Y-105400000D02*
X195300000Y-106200000D01*
X124000000Y-118900000D02*
X124800000Y-119700000D01*
X135750000Y-118900000D02*
X136550000Y-119700000D01*
X147500000Y-118900000D02*
X148300000Y-119700000D01*
X159250000Y-118900000D02*
X160050000Y-119700000D01*
X171000000Y-118900000D02*
X171800000Y-119700000D01*
X182750000Y-118900000D02*
X183550000Y-119700000D01*
X194500000Y-118900000D02*
X195300000Y-119700000D01*
X124000000Y-132400000D02*
X124800000Y-133200000D01*
X135750000Y-132400000D02*
X136550000Y-133200000D01*
X147500000Y-132400000D02*
X148300000Y-133200000D01*
X159250000Y-132400000D02*
X160050000Y-133200000D01*
X171000000Y-132400000D02*
X171800000Y-133200000D01*
X182750000Y-132400000D02*
X183550000Y-133200000D01*
X194500000Y-132400000D02*
X195300000Y-133200000D01*
X124000000Y-145900000D02*
X124800000Y-146700000D01*
X135750000Y-145900000D02*
X136550000Y-146700000D01*
X147500000Y-145900000D02*
X148300000Y-146700000D01*
X159250000Y-145900000D02*
X160050000Y-146700000D01*
X171000000Y-145900000D02*
X171800000Y-146700000D01*
X182750000Y-145900000D02*
X183550000Y-146700000D01*
X194500000Y-145900000D02*
X195300000Y-146700000D01*
X136550000Y-79200000D02*
X137550000Y-79200000D01*
X148300000Y-79200000D02*
X149300000Y-79200000D01*
X160050000Y-79200000D02*
X161050000Y-79200000D01*
X171800000Y-79200000D02*
X172800000Y-79200000D01*
X183550000Y-79200000D02*
X184550000Y-79200000D01*
X195300000Y-79200000D02*
X196300000Y-79200000D01*
X124800000Y-92700000D02*
X125800000Y-92700000D01*
X136550000Y-92700000D02*
X137550000Y-92700000D01*
X148300000Y-92700000D02*
X149300000Y-92700000D01*
X160050000Y-92700000D02*
X161050000Y-92700000D01*
X171800000Y-92700000D02*
X172800000Y-92700000D01*
X183550000Y-92700000D02*
X184550000Y-92700000D01*
X195300000Y-92700000D02*
X196300000Y-92700000D01*
X124800000Y-106200000D02*
X125800000Y-106200000D01*
X136550000Y-106200000D02*
X137550000Y-106200000D01*
X148300000Y-106200000D02*
X149300000Y-106200000D01*
X160050000Y-106200000D02*
X161050000Y-106200000D01*
X171800000Y-106200000D02*
X172800000Y-106200000D01*
X183550000Y-106200000D02*
X184550000Y-106200000D01*
X195300000Y-106200000D02*
X196300000Y-106200000D01*
X124800000Y-119700000D02*
X125800000Y-119700000D01*
X136550000Y-119700000D02*
X137550000Y-119700000D01*
X148300000Y-119700000D02*
X149300000Y-119700000D01*
X160050000Y-119700000D02*
X161050000Y-119700000D01*
X171800000Y-119700000D02*
X172800000Y-119700000D01*
X183550000Y-119700000D02*
X184550000Y-119700000D01*
X195300000Y-119700000D02*
X196300000Y-119700000D01*
X124800000Y-133200000D02*
X125800000Y-133200000D01*
X136550000Y-133200000D02*
X137550000Y-133200000D01*
X148300000Y-133200000D02*
X149300000Y-133200000D01*
X160050000Y-133200000D02*
X161050000Y-133200000D01*
X171800000Y-133200000D02*
X172800000Y-133200000D01*
X183550000Y-133200000D02*
X184550000Y-133200000D01*
X195300000Y-133200000D02*
X196300000Y-133200000D01*
X124800000Y-146700000D02*
X125800000Y-146700000D01*
X136550000Y-146700000D02*
X137550000Y-146700000D01*
X148300000Y-146700000D02*
X149300000Y-146700000D01*
X160050000Y-146700000D02*
X161050000Y-146700000D01*
X171800000Y-146700000D02*
X172800000Y-146700000D01*
X183550000Y-146700000D02*
X184550000Y-146700000D01*
X195300000Y-146700000D02*
X196300000Y-146700000D01*
X137750000Y-77800000D02*
X138550000Y-78600000D01*
X149500000Y-77800000D02*
X150300000Y-78600000D01*
X161250000Y-77800000D02*
X162050000Y-78600000D01*
X173000000Y-77800000D02*
X173800000Y-78600000D01*
X184750000Y-77800000D02*
X185550000Y-78600000D01*
X196500000Y-77800000D02*
X197300000Y-78600000D01*
X126000000Y-91300000D02*
X126800000Y-92100000D01*
X137750000Y-91300000D02*
X138550000Y-92100000D01*
X149500000Y-91300000D02*
X150300000Y-92100000D01*
X161250000Y-91300000D02*
X162050000Y-92100000D01*
X173000000Y-91300000D02*
X173800000Y-92100000D01*
X184750000Y-91300000D02*
X185550000Y-92100000D01*
X196500000Y-91300000D02*
X197300000Y-92100000D01*
X126000000Y-104800000D02*
X126800000Y-105600000D01*
X137750000Y-104800000D02*
X138550000Y-105600000D01*
X149500000Y-104800000D02*
X150300000Y-105600000D01*
X161250000Y-104800000D02*
X162050000Y-105600000D01*
X173000000Y-104800000D02*
X173800000Y-105600000D01*
X184750000Y-104800000D02*
X185550000Y-105600000D01*
X196500000Y-104800000D02*
X197300000Y-105600000D01*
X126000000Y-118300000D02*
X126800000Y-119100000D01*
X137750000Y-118300000D02*
X138550000Y-119100000D01*
X149500000Y-118300000D02*
X150300000Y-119100000D01*
X161250000Y-118300000D02*
X162050000Y-119100000D01*
X173000000Y-118300000D02*
X173800000Y-119100000D01*
X184750000Y-118300000D02*
X185550000Y-119100000D01*
X196500000Y-118300000D02*
X197300000Y-119100000D01*
X126000000Y-131800000D02*
X126800000Y-132600000D01*
X137750000Y-131800000D02*
X138550000Y-132600000D01*
X149500000Y-131800000D02*
X150300000Y-132600000D01*
X161250000Y-131800000D02*
X162050000Y-132600000D01*
X173000000Y-131800000D02*
X173800000Y-132600000D01*
X184750000Y-131800000D02*
X185550000Y-132600000D01*
X196500000Y-131800000D02*
X197300000Y-132600000D01*
X126000000Y-145300000D02*
X126800000Y-146100000D01*
X137750000Y-145300000D02*
X138550000Y-146100000D01*
X149500000Y-145300000D02*
X150300000Y-146100000D01*
X161250000Y-145300000D02*
X162050000Y-146100000D01*
X173000000Y-145300000D02*
X173800000Y-146100000D01*
X184750000Y-145300000D02*
X185550000Y-146100000D01*
X196500000Y-145300000D02*
X197300000Y-146100000D01*
X137750000Y-76875000D02*
X137750000Y-77800000D01*
X149500000Y-76875000D02*
X149500000Y-77800000D01*
X161250000Y-76875000D02*
X161250000Y-77800000D01*
X173000000Y-76875000D02*
X173000000Y-77800000D01*
X184750000Y-76875000D02*
X184750000Y-77800000D01*
X196500000Y-76875000D02*
X196500000Y-77800000D01*
X126000000Y-90375000D02*
X126000000Y-91300000D01*
X137750000Y-90375000D02*
X137750000Y-91300000D01*
X149500000Y-90375000D02*
X149500000Y-91300000D01*
X161250000Y-90375000D02*
X161250000Y-91300000D01*
X173000000Y-90375000D02*
X173000000Y-91300000D01*
X184750000Y-90375000D02*
X184750000Y-91300000D01*
X196500000Y-90375000D02*
X196500000Y-91300000D01*
X126000000Y-103875000D02*
X126000000Y-104800000D01*
X137750000Y-103875000D02*
X137750000Y-104800000D01*
X149500000Y-103875000D02*
X149500000Y-104800000D01*
X161250000Y-103875000D02*
X161250000Y-104800000D01*
X173000000Y-103875000D02*
X173000000Y-104800000D01*
X184750000Y-103875000D02*
X184750000Y-104800000D01*
X196500000Y-103875000D02*
X196500000Y-104800000D01*
X126000000Y-117375000D02*
X126000000Y-118300000D01*
X137750000Y-117375000D02*
X137750000Y-118300000D01*
X149500000Y-117375000D02*
X149500000Y-118300000D01*
X161250000Y-117375000D02*
X161250000Y-118300000D01*
X173000000Y-117375000D02*
X173000000Y-118300000D01*
X184750000Y-117375000D02*
X184750000Y-118300000D01*
X196500000Y-117375000D02*
X196500000Y-118300000D01*
X126000000Y-130875000D02*
X126000000Y-131800000D01*
X137750000Y-130875000D02*
X137750000Y-131800000D01*
X149500000Y-130875000D02*
X149500000Y-131800000D01*
X161250000Y-130875000D02*
X161250000Y-131800000D01*
X173000000Y-130875000D02*
X173000000Y-131800000D01*
X184750000Y-130875000D02*
X184750000Y-131800000D01*
X196500000Y-130875000D02*
X196500000Y-131800000D01*
X126000000Y-144375000D02*
X126000000Y-145300000D01*
X137750000Y-144375000D02*
X137750000Y-145300000D01*
X149500000Y-144375000D02*
X149500000Y-145300000D01*
X161250000Y-144375000D02*
X161250000Y-145300000D01*
X173000000Y-144375000D02*
X173000000Y-145300000D01*
X184750000Y-144375000D02*
X184750000Y-145300000D01*
X196500000Y-144375000D02*
X196500000Y-145300000D01*
X133750000Y-75000000D02*
X134250000Y-74500000D01*
X145500000Y-75000000D02*
X146000000Y-74500000D01*
X157250000Y-75000000D02*
X157750000Y-74500000D01*
X169000000Y-75000000D02*
X169500000Y-74500000D01*
X180750000Y-75000000D02*
X181250000Y-74500000D01*
X192500000Y-75000000D02*
X193000000Y-74500000D01*
X122000000Y-88500000D02*
X122500000Y-88000000D01*
X133750000Y-88500000D02*
X134250000Y-88000000D01*
X145500000Y-88500000D02*
X146000000Y-88000000D01*
X157250000Y-88500000D02*
X157750000Y-88000000D01*
X169000000Y-88500000D02*
X169500000Y-88000000D01*
X180750000Y-88500000D02*
X181250000Y-88000000D01*
X192500000Y-88500000D02*
X193000000Y-88000000D01*
X122000000Y-102000000D02*
X122500000Y-101500000D01*
X133750000Y-102000000D02*
X134250000Y-101500000D01*
X145500000Y-102000000D02*
X146000000Y-101500000D01*
X157250000Y-102000000D02*
X157750000Y-101500000D01*
X169000000Y-102000000D02*
X169500000Y-101500000D01*
X180750000Y-102000000D02*
X181250000Y-101500000D01*
X192500000Y-102000000D02*
X193000000Y-101500000D01*
X122000000Y-115500000D02*
X122500000Y-115000000D01*
X133750000Y-115500000D02*
X134250000Y-115000000D01*
X145500000Y-115500000D02*
X146000000Y-115000000D01*
X157250000Y-115500000D02*
X157750000Y-115000000D01*
X169000000Y-115500000D02*
X169500000Y-115000000D01*
X180750000Y-115500000D02*
X181250000Y-115000000D01*
X192500000Y-115500000D02*
X193000000Y-115000000D01*
X122000000Y-129000000D02*
X122500000Y-128500000D01*
X133750000Y-129000000D02*
X134250000Y-128500000D01*
X145500000Y-129000000D02*
X146000000Y-128500000D01*
X157250000Y-129000000D02*
X157750000Y-128500000D01*
X169000000Y-129000000D02*
X169500000Y-128500000D01*
X180750000Y-129000000D02*
X181250000Y-128500000D01*
X192500000Y-129000000D02*
X193000000Y-128500000D01*
X122000000Y-142500000D02*
X122500000Y-142000000D01*
X133750000Y-142500000D02*
X134250000Y-142000000D01*
X145500000Y-142500000D02*
X146000000Y-142000000D01*
X157250000Y-142500000D02*
X157750000Y-142000000D01*
X169000000Y-142500000D02*
X169500000Y-142000000D01*
X180750000Y-142500000D02*
X181250000Y-142000000D01*
X192500000Y-142500000D02*
X193000000Y-142000000D01*
X139250000Y-74900000D02*
X139250000Y-74350000D01*
X151000000Y-74900000D02*
X151000000Y-74350000D01*
X162750000Y-74900000D02*
X162750000Y-74350000D01*
X174500000Y-74900000D02*
X174500000Y-74350000D01*
X186250000Y-74900000D02*
X186250000Y-74350000D01*
X198000000Y-74900000D02*
X198000000Y-74350000D01*
X127500000Y-88400000D02*
X127500000Y-87850000D01*
X139250000Y-88400000D02*
X139250000Y-87850000D01*
X151000000Y-88400000D02*
X151000000Y-87850000D01*
X162750000Y-88400000D02*
X162750000Y-87850000D01*
X174500000Y-88400000D02*
X174500000Y-87850000D01*
X186250000Y-88400000D02*
X186250000Y-87850000D01*
X198000000Y-88400000D02*
X198000000Y-87850000D01*
X127500000Y-101900000D02*
X127500000Y-101350000D01*
X139250000Y-101900000D02*
X139250000Y-101350000D01*
X151000000Y-101900000D02*
X151000000Y-101350000D01*
X162750000Y-101900000D02*
X162750000Y-101350000D01*
X174500000Y-101900000D02*
X174500000Y-101350000D01*
X186250000Y-101900000D02*
X186250000Y-101350000D01*
X198000000Y-101900000D02*
X198000000Y-101350000D01*
X127500000Y-115400000D02*
X127500000Y-114850000D01*
X139250000Y-115400000D02*
X139250000Y-114850000D01*
X151000000Y-115400000D02*
X151000000Y-114850000D01*
X162750000Y-115400000D02*
X162750000Y-114850000D01*
X174500000Y-115400000D02*
X174500000Y-114850000D01*
X186250000Y-115400000D02*
X186250000Y-114850000D01*
X198000000Y-115400000D02*
X198000000Y-114850000D01*
X127500000Y-128900000D02*
X127500000Y-128350000D01*
X139250000Y-128900000D02*
X139250000Y-128350000D01*
X151000000Y-128900000D02*
X151000000Y-128350000D01*
X162750000Y-128900000D02*
X162750000Y-128350000D01*
X174500000Y-128900000D02*
X174500000Y-128350000D01*
X186250000Y-128900000D02*
X186250000Y-128350000D01*
X198000000Y-128900000D02*
X198000000Y-128350000D01*
X127500000Y-142400000D02*
X127500000Y-141850000D01*
X139250000Y-142400000D02*
X139250000Y-141850000D01*
X151000000Y-142400000D02*
X151000000Y-141850000D01*
X162750000Y-142400000D02*
X162750000Y-141850000D01*
X174500000Y-142400000D02*
X174500000Y-141850000D01*
X186250000Y-142400000D02*
X186250000Y-141850000D01*
X198000000Y-142400000D02*
X198000000Y-141850000D01*
X133750000Y-76875000D02*
X133750000Y-75000000D01*
X145500000Y-76875000D02*
X145500000Y-75000000D01*
X157250000Y-76875000D02*
X157250000Y-75000000D01*
X169000000Y-76875000D02*
X169000000Y-75000000D01*
X180750000Y-76875000D02*
X180750000Y-75000000D01*
X192500000Y-76875000D02*
X192500000Y-75000000D01*
X122000000Y-90375000D02*
X122000000Y-88500000D01*
X133750000Y-90375000D02*
X133750000Y-88500000D01*
X145500000Y-90375000D02*
X145500000Y-88500000D01*
X157250000Y-90375000D02*
X157250000Y-88500000D01*
X169000000Y-90375000D02*
X169000000Y-88500000D01*
X180750000Y-90375000D02*
X180750000Y-88500000D01*
X192500000Y-90375000D02*
X192500000Y-88500000D01*
X122000000Y-103875000D02*
X122000000Y-102000000D01*
X133750000Y-103875000D02*
X133750000Y-102000000D01*
X145500000Y-103875000D02*
X145500000Y-102000000D01*
X157250000Y-103875000D02*
X157250000Y-102000000D01*
X169000000Y-103875000D02*
X169000000Y-102000000D01*
X180750000Y-103875000D02*
X180750000Y-102000000D01*
X192500000Y-103875000D02*
X192500000Y-102000000D01*
X122000000Y-117375000D02*
X122000000Y-115500000D01*
X133750000Y-117375000D02*
X133750000Y-115500000D01*
X145500000Y-117375000D02*
X145500000Y-115500000D01*
X157250000Y-117375000D02*
X157250000Y-115500000D01*
X169000000Y-117375000D02*
X169000000Y-115500000D01*
X180750000Y-117375000D02*
X180750000Y-115500000D01*
X192500000Y-117375000D02*
X192500000Y-115500000D01*
X122000000Y-130875000D02*
X122000000Y-129000000D01*
X133750000Y-130875000D02*
X133750000Y-129000000D01*
X145500000Y-130875000D02*
X145500000Y-129000000D01*
X157250000Y-130875000D02*
X157250000Y-129000000D01*
X169000000Y-130875000D02*
X169000000Y-129000000D01*
X180750000Y-130875000D02*
X180750000Y-129000000D01*
X192500000Y-130875000D02*
X192500000Y-129000000D01*
X122000000Y-144375000D02*
X122000000Y-142500000D01*
X133750000Y-144375000D02*
X133750000Y-142500000D01*
X145500000Y-144375000D02*
X145500000Y-142500000D01*
X157250000Y-144375000D02*
X157250000Y-142500000D01*
X169000000Y-144375000D02*
X169000000Y-142500000D01*
X180750000Y-144375000D02*
X180750000Y-142500000D01*
X192500000Y-144375000D02*
X192500000Y-142500000D01*
X134250000Y-74500000D02*
X133650000Y-74500000D01*
X146000000Y-74500000D02*
X145400000Y-74500000D01*
X157750000Y-74500000D02*
X157150000Y-74500000D01*
X169500000Y-74500000D02*
X168900000Y-74500000D01*
X181250000Y-74500000D02*
X180650000Y-74500000D01*
X193000000Y-74500000D02*
X192400000Y-74500000D01*
X122500000Y-88000000D02*
X121900000Y-88000000D01*
X134250000Y-88000000D02*
X133650000Y-88000000D01*
X146000000Y-88000000D02*
X145400000Y-88000000D01*
X157750000Y-88000000D02*
X157150000Y-88000000D01*
X169500000Y-88000000D02*
X168900000Y-88000000D01*
X181250000Y-88000000D02*
X180650000Y-88000000D01*
X193000000Y-88000000D02*
X192400000Y-88000000D01*
X122500000Y-101500000D02*
X121900000Y-101500000D01*
X134250000Y-101500000D02*
X133650000Y-101500000D01*
X146000000Y-101500000D02*
X145400000Y-101500000D01*
X157750000Y-101500000D02*
X157150000Y-101500000D01*
X169500000Y-101500000D02*
X168900000Y-101500000D01*
X181250000Y-101500000D02*
X180650000Y-101500000D01*
X193000000Y-101500000D02*
X192400000Y-101500000D01*
X122500000Y-115000000D02*
X121900000Y-115000000D01*
X134250000Y-115000000D02*
X133650000Y-115000000D01*
X146000000Y-115000000D02*
X145400000Y-115000000D01*
X157750000Y-115000000D02*
X157150000Y-115000000D01*
X169500000Y-115000000D02*
X168900000Y-115000000D01*
X181250000Y-115000000D02*
X180650000Y-115000000D01*
X193000000Y-115000000D02*
X192400000Y-115000000D01*
X122500000Y-128500000D02*
X121900000Y-128500000D01*
X134250000Y-128500000D02*
X133650000Y-128500000D01*
X146000000Y-128500000D02*
X145400000Y-128500000D01*
X157750000Y-128500000D02*
X157150000Y-128500000D01*
X169500000Y-128500000D02*
X168900000Y-128500000D01*
X181250000Y-128500000D02*
X180650000Y-128500000D01*
X193000000Y-128500000D02*
X192400000Y-128500000D01*
X122500000Y-142000000D02*
X121900000Y-142000000D01*
X134250000Y-142000000D02*
X133650000Y-142000000D01*
X146000000Y-142000000D02*
X145400000Y-142000000D01*
X157750000Y-142000000D02*
X157150000Y-142000000D01*
X169500000Y-142000000D02*
X168900000Y-142000000D01*
X181250000Y-142000000D02*
X180650000Y-142000000D01*
X193000000Y-142000000D02*
X192400000Y-142000000D01*
X136750000Y-76875000D02*
X136750000Y-78110000D01*
X148500000Y-76875000D02*
X148500000Y-78110000D01*
X160250000Y-76875000D02*
X160250000Y-78110000D01*
X172000000Y-76875000D02*
X172000000Y-78110000D01*
X183750000Y-76875000D02*
X183750000Y-78110000D01*
X195500000Y-76875000D02*
X195500000Y-78110000D01*
X125000000Y-90375000D02*
X125000000Y-91610000D01*
X136750000Y-90375000D02*
X136750000Y-91610000D01*
X148500000Y-90375000D02*
X148500000Y-91610000D01*
X160250000Y-90375000D02*
X160250000Y-91610000D01*
X172000000Y-90375000D02*
X172000000Y-91610000D01*
X183750000Y-90375000D02*
X183750000Y-91610000D01*
X195500000Y-90375000D02*
X195500000Y-91610000D01*
X125000000Y-103875000D02*
X125000000Y-105110000D01*
X136750000Y-103875000D02*
X136750000Y-105110000D01*
X148500000Y-103875000D02*
X148500000Y-105110000D01*
X160250000Y-103875000D02*
X160250000Y-105110000D01*
X172000000Y-103875000D02*
X172000000Y-105110000D01*
X183750000Y-103875000D02*
X183750000Y-105110000D01*
X195500000Y-103875000D02*
X195500000Y-105110000D01*
X125000000Y-117375000D02*
X125000000Y-118610000D01*
X136750000Y-117375000D02*
X136750000Y-118610000D01*
X148500000Y-117375000D02*
X148500000Y-118610000D01*
X160250000Y-117375000D02*
X160250000Y-118610000D01*
X172000000Y-117375000D02*
X172000000Y-118610000D01*
X183750000Y-117375000D02*
X183750000Y-118610000D01*
X195500000Y-117375000D02*
X195500000Y-118610000D01*
X125000000Y-130875000D02*
X125000000Y-132110000D01*
X136750000Y-130875000D02*
X136750000Y-132110000D01*
X148500000Y-130875000D02*
X148500000Y-132110000D01*
X160250000Y-130875000D02*
X160250000Y-132110000D01*
X172000000Y-130875000D02*
X172000000Y-132110000D01*
X183750000Y-130875000D02*
X183750000Y-132110000D01*
X195500000Y-130875000D02*
X195500000Y-132110000D01*
X125000000Y-144375000D02*
X125000000Y-145610000D01*
X136750000Y-144375000D02*
X136750000Y-145610000D01*
X148500000Y-144375000D02*
X148500000Y-145610000D01*
X160250000Y-144375000D02*
X160250000Y-145610000D01*
X172000000Y-144375000D02*
X172000000Y-145610000D01*
X183750000Y-144375000D02*
X183750000Y-145610000D01*
X195500000Y-144375000D02*
X195500000Y-145610000D01*
X137550000Y-79200000D02*
X137830000Y-79480000D01*
X149300000Y-79200000D02*
X149580000Y-79480000D01*
X161050000Y-79200000D02*
X161330000Y-79480000D01*
X172800000Y-79200000D02*
X173080000Y-79480000D01*
X184550000Y-79200000D02*
X184830000Y-79480000D01*
X196300000Y-79200000D02*
X196580000Y-79480000D01*
X125800000Y-92700000D02*
X126080000Y-92980000D01*
X137550000Y-92700000D02*
X137830000Y-92980000D01*
X149300000Y-92700000D02*
X149580000Y-92980000D01*
X161050000Y-92700000D02*
X161330000Y-92980000D01*
X172800000Y-92700000D02*
X173080000Y-92980000D01*
X184550000Y-92700000D02*
X184830000Y-92980000D01*
X196300000Y-92700000D02*
X196580000Y-92980000D01*
X125800000Y-106200000D02*
X126080000Y-106480000D01*
X137550000Y-106200000D02*
X137830000Y-106480000D01*
X149300000Y-106200000D02*
X149580000Y-106480000D01*
X161050000Y-106200000D02*
X161330000Y-106480000D01*
X172800000Y-106200000D02*
X173080000Y-106480000D01*
X184550000Y-106200000D02*
X184830000Y-106480000D01*
X196300000Y-106200000D02*
X196580000Y-106480000D01*
X125800000Y-119700000D02*
X126080000Y-119980000D01*
X137550000Y-119700000D02*
X137830000Y-119980000D01*
X149300000Y-119700000D02*
X149580000Y-119980000D01*
X161050000Y-119700000D02*
X161330000Y-119980000D01*
X172800000Y-119700000D02*
X173080000Y-119980000D01*
X184550000Y-119700000D02*
X184830000Y-119980000D01*
X196300000Y-119700000D02*
X196580000Y-119980000D01*
X125800000Y-133200000D02*
X126080000Y-133480000D01*
X137550000Y-133200000D02*
X137830000Y-133480000D01*
X149300000Y-133200000D02*
X149580000Y-133480000D01*
X161050000Y-133200000D02*
X161330000Y-133480000D01*
X172800000Y-133200000D02*
X173080000Y-133480000D01*
X184550000Y-133200000D02*
X184830000Y-133480000D01*
X196300000Y-133200000D02*
X196580000Y-133480000D01*
X125800000Y-146700000D02*
X126080000Y-146980000D01*
X137550000Y-146700000D02*
X137830000Y-146980000D01*
X149300000Y-146700000D02*
X149580000Y-146980000D01*
X161050000Y-146700000D02*
X161330000Y-146980000D01*
X172800000Y-146700000D02*
X173080000Y-146980000D01*
X184550000Y-146700000D02*
X184830000Y-146980000D01*
X196300000Y-146700000D02*
X196580000Y-146980000D01*
X134750000Y-78700000D02*
X135290000Y-79240000D01*
X146500000Y-78700000D02*
X147040000Y-79240000D01*
X158250000Y-78700000D02*
X158790000Y-79240000D01*
X170000000Y-78700000D02*
X170540000Y-79240000D01*
X181750000Y-78700000D02*
X182290000Y-79240000D01*
X193500000Y-78700000D02*
X194040000Y-79240000D01*
X123000000Y-92200000D02*
X123540000Y-92740000D01*
X134750000Y-92200000D02*
X135290000Y-92740000D01*
X146500000Y-92200000D02*
X147040000Y-92740000D01*
X158250000Y-92200000D02*
X158790000Y-92740000D01*
X170000000Y-92200000D02*
X170540000Y-92740000D01*
X181750000Y-92200000D02*
X182290000Y-92740000D01*
X193500000Y-92200000D02*
X194040000Y-92740000D01*
X123000000Y-105700000D02*
X123540000Y-106240000D01*
X134750000Y-105700000D02*
X135290000Y-106240000D01*
X146500000Y-105700000D02*
X147040000Y-106240000D01*
X158250000Y-105700000D02*
X158790000Y-106240000D01*
X170000000Y-105700000D02*
X170540000Y-106240000D01*
X181750000Y-105700000D02*
X182290000Y-106240000D01*
X193500000Y-105700000D02*
X194040000Y-106240000D01*
X123000000Y-119200000D02*
X123540000Y-119740000D01*
X134750000Y-119200000D02*
X135290000Y-119740000D01*
X146500000Y-119200000D02*
X147040000Y-119740000D01*
X158250000Y-119200000D02*
X158790000Y-119740000D01*
X170000000Y-119200000D02*
X170540000Y-119740000D01*
X181750000Y-119200000D02*
X182290000Y-119740000D01*
X193500000Y-119200000D02*
X194040000Y-119740000D01*
X123000000Y-132700000D02*
X123540000Y-133240000D01*
X134750000Y-132700000D02*
X135290000Y-133240000D01*
X146500000Y-132700000D02*
X147040000Y-133240000D01*
X158250000Y-132700000D02*
X158790000Y-133240000D01*
X170000000Y-132700000D02*
X170540000Y-133240000D01*
X181750000Y-132700000D02*
X182290000Y-133240000D01*
X193500000Y-132700000D02*
X194040000Y-133240000D01*
X123000000Y-146200000D02*
X123540000Y-146740000D01*
X134750000Y-146200000D02*
X135290000Y-146740000D01*
X146500000Y-146200000D02*
X147040000Y-146740000D01*
X158250000Y-146200000D02*
X158790000Y-146740000D01*
X170000000Y-146200000D02*
X170540000Y-146740000D01*
X181750000Y-146200000D02*
X182290000Y-146740000D01*
X193500000Y-146200000D02*
X194040000Y-146740000D01*
X137830000Y-79480000D02*
X137830000Y-83000000D01*
X149580000Y-79480000D02*
X149580000Y-83000000D01*
X161330000Y-79480000D02*
X161330000Y-83000000D01*
X173080000Y-79480000D02*
X173080000Y-83000000D01*
X184830000Y-79480000D02*
X184830000Y-83000000D01*
X196580000Y-79480000D02*
X196580000Y-83000000D01*
X126080000Y-92980000D02*
X126080000Y-96500000D01*
X137830000Y-92980000D02*
X137830000Y-96500000D01*
X149580000Y-92980000D02*
X149580000Y-96500000D01*
X161330000Y-92980000D02*
X161330000Y-96500000D01*
X173080000Y-92980000D02*
X173080000Y-96500000D01*
X184830000Y-92980000D02*
X184830000Y-96500000D01*
X196580000Y-92980000D02*
X196580000Y-96500000D01*
X126080000Y-106480000D02*
X126080000Y-110000000D01*
X137830000Y-106480000D02*
X137830000Y-110000000D01*
X149580000Y-106480000D02*
X149580000Y-110000000D01*
X161330000Y-106480000D02*
X161330000Y-110000000D01*
X173080000Y-106480000D02*
X173080000Y-110000000D01*
X184830000Y-106480000D02*
X184830000Y-110000000D01*
X196580000Y-106480000D02*
X196580000Y-110000000D01*
X126080000Y-119980000D02*
X126080000Y-123500000D01*
X137830000Y-119980000D02*
X137830000Y-123500000D01*
X149580000Y-119980000D02*
X149580000Y-123500000D01*
X161330000Y-119980000D02*
X161330000Y-123500000D01*
X173080000Y-119980000D02*
X173080000Y-123500000D01*
X184830000Y-119980000D02*
X184830000Y-123500000D01*
X196580000Y-119980000D02*
X196580000Y-123500000D01*
X126080000Y-133480000D02*
X126080000Y-137000000D01*
X137830000Y-133480000D02*
X137830000Y-137000000D01*
X149580000Y-133480000D02*
X149580000Y-137000000D01*
X161330000Y-133480000D02*
X161330000Y-137000000D01*
X173080000Y-133480000D02*
X173080000Y-137000000D01*
X184830000Y-133480000D02*
X184830000Y-137000000D01*
X196580000Y-133480000D02*
X196580000Y-137000000D01*
X126080000Y-146980000D02*
X126080000Y-150500000D01*
X137830000Y-146980000D02*
X137830000Y-150500000D01*
X149580000Y-146980000D02*
X149580000Y-150500000D01*
X161330000Y-146980000D02*
X161330000Y-150500000D01*
X173080000Y-146980000D02*
X173080000Y-150500000D01*
X184830000Y-146980000D02*
X184830000Y-150500000D01*
X196580000Y-146980000D02*
X196580000Y-150500000D01*
X132450000Y-73300000D02*
X132450000Y-73000000D01*
X144200000Y-73300000D02*
X144200000Y-73000000D01*
X155950000Y-73300000D02*
X155950000Y-73000000D01*
X167700000Y-73300000D02*
X167700000Y-73000000D01*
X179450000Y-73300000D02*
X179450000Y-73000000D01*
X191200000Y-73300000D02*
X191200000Y-73000000D01*
X120700000Y-86800000D02*
X120700000Y-86500000D01*
X132450000Y-86800000D02*
X132450000Y-86500000D01*
X144200000Y-86800000D02*
X144200000Y-86500000D01*
X155950000Y-86800000D02*
X155950000Y-86500000D01*
X167700000Y-86800000D02*
X167700000Y-86500000D01*
X179450000Y-86800000D02*
X179450000Y-86500000D01*
X191200000Y-86800000D02*
X191200000Y-86500000D01*
X120700000Y-100300000D02*
X120700000Y-100000000D01*
X132450000Y-100300000D02*
X132450000Y-100000000D01*
X144200000Y-100300000D02*
X144200000Y-100000000D01*
X155950000Y-100300000D02*
X155950000Y-100000000D01*
X167700000Y-100300000D02*
X167700000Y-100000000D01*
X179450000Y-100300000D02*
X179450000Y-100000000D01*
X191200000Y-100300000D02*
X191200000Y-100000000D01*
X120700000Y-113800000D02*
X120700000Y-113500000D01*
X132450000Y-113800000D02*
X132450000Y-113500000D01*
X144200000Y-113800000D02*
X144200000Y-113500000D01*
X155950000Y-113800000D02*
X155950000Y-113500000D01*
X167700000Y-113800000D02*
X167700000Y-113500000D01*
X179450000Y-113800000D02*
X179450000Y-113500000D01*
X191200000Y-113800000D02*
X191200000Y-113500000D01*
X120700000Y-127300000D02*
X120700000Y-127000000D01*
X132450000Y-127300000D02*
X132450000Y-127000000D01*
X144200000Y-127300000D02*
X144200000Y-127000000D01*
X155950000Y-127300000D02*
X155950000Y-127000000D01*
X167700000Y-127300000D02*
X167700000Y-127000000D01*
X179450000Y-127300000D02*
X179450000Y-127000000D01*
X191200000Y-127300000D02*
X191200000Y-127000000D01*
X120700000Y-140800000D02*
X120700000Y-140500000D01*
X132450000Y-140800000D02*
X132450000Y-140500000D01*
X144200000Y-140800000D02*
X144200000Y-140500000D01*
X155950000Y-140800000D02*
X155950000Y-140500000D01*
X167700000Y-140800000D02*
X167700000Y-140500000D01*
X179450000Y-140800000D02*
X179450000Y-140500000D01*
X191200000Y-140800000D02*
X191200000Y-140500000D01*
X135290000Y-79240000D02*
X135290000Y-83000000D01*
X147040000Y-79240000D02*
X147040000Y-83000000D01*
X158790000Y-79240000D02*
X158790000Y-83000000D01*
X170540000Y-79240000D02*
X170540000Y-83000000D01*
X182290000Y-79240000D02*
X182290000Y-83000000D01*
X194040000Y-79240000D02*
X194040000Y-83000000D01*
X123540000Y-92740000D02*
X123540000Y-96500000D01*
X135290000Y-92740000D02*
X135290000Y-96500000D01*
X147040000Y-92740000D02*
X147040000Y-96500000D01*
X158790000Y-92740000D02*
X158790000Y-96500000D01*
X170540000Y-92740000D02*
X170540000Y-96500000D01*
X182290000Y-92740000D02*
X182290000Y-96500000D01*
X194040000Y-92740000D02*
X194040000Y-96500000D01*
X123540000Y-106240000D02*
X123540000Y-110000000D01*
X135290000Y-106240000D02*
X135290000Y-110000000D01*
X147040000Y-106240000D02*
X147040000Y-110000000D01*
X158790000Y-106240000D02*
X158790000Y-110000000D01*
X170540000Y-106240000D02*
X170540000Y-110000000D01*
X182290000Y-106240000D02*
X182290000Y-110000000D01*
X194040000Y-106240000D02*
X194040000Y-110000000D01*
X123540000Y-119740000D02*
X123540000Y-123500000D01*
X135290000Y-119740000D02*
X135290000Y-123500000D01*
X147040000Y-119740000D02*
X147040000Y-123500000D01*
X158790000Y-119740000D02*
X158790000Y-123500000D01*
X170540000Y-119740000D02*
X170540000Y-123500000D01*
X182290000Y-119740000D02*
X182290000Y-123500000D01*
X194040000Y-119740000D02*
X194040000Y-123500000D01*
X123540000Y-133240000D02*
X123540000Y-137000000D01*
X135290000Y-133240000D02*
X135290000Y-137000000D01*
X147040000Y-133240000D02*
X147040000Y-137000000D01*
X158790000Y-133240000D02*
X158790000Y-137000000D01*
X170540000Y-133240000D02*
X170540000Y-137000000D01*
X182290000Y-133240000D02*
X182290000Y-137000000D01*
X194040000Y-133240000D02*
X194040000Y-137000000D01*
X123540000Y-146740000D02*
X123540000Y-150500000D01*
X135290000Y-146740000D02*
X135290000Y-150500000D01*
X147040000Y-146740000D02*
X147040000Y-150500000D01*
X158790000Y-146740000D02*
X158790000Y-150500000D01*
X170540000Y-146740000D02*
X170540000Y-150500000D01*
X182290000Y-146740000D02*
X182290000Y-150500000D01*
X194040000Y-146740000D02*
X194040000Y-150500000D01*
X134750000Y-76875000D02*
X134750000Y-78700000D01*
X146500000Y-76875000D02*
X146500000Y-78700000D01*
X158250000Y-76875000D02*
X158250000Y-78700000D01*
X170000000Y-76875000D02*
X170000000Y-78700000D01*
X181750000Y-76875000D02*
X181750000Y-78700000D01*
X193500000Y-76875000D02*
X193500000Y-78700000D01*
X123000000Y-90375000D02*
X123000000Y-92200000D01*
X134750000Y-90375000D02*
X134750000Y-92200000D01*
X146500000Y-90375000D02*
X146500000Y-92200000D01*
X158250000Y-90375000D02*
X158250000Y-92200000D01*
X170000000Y-90375000D02*
X170000000Y-92200000D01*
X181750000Y-90375000D02*
X181750000Y-92200000D01*
X193500000Y-90375000D02*
X193500000Y-92200000D01*
X123000000Y-103875000D02*
X123000000Y-105700000D01*
X134750000Y-103875000D02*
X134750000Y-105700000D01*
X146500000Y-103875000D02*
X146500000Y-105700000D01*
X158250000Y-103875000D02*
X158250000Y-105700000D01*
X170000000Y-103875000D02*
X170000000Y-105700000D01*
X181750000Y-103875000D02*
X181750000Y-105700000D01*
X193500000Y-103875000D02*
X193500000Y-105700000D01*
X123000000Y-117375000D02*
X123000000Y-119200000D01*
X134750000Y-117375000D02*
X134750000Y-119200000D01*
X146500000Y-117375000D02*
X146500000Y-119200000D01*
X158250000Y-117375000D02*
X158250000Y-119200000D01*
X170000000Y-117375000D02*
X170000000Y-119200000D01*
X181750000Y-117375000D02*
X181750000Y-119200000D01*
X193500000Y-117375000D02*
X193500000Y-119200000D01*
X123000000Y-130875000D02*
X123000000Y-132700000D01*
X134750000Y-130875000D02*
X134750000Y-132700000D01*
X146500000Y-130875000D02*
X146500000Y-132700000D01*
X158250000Y-130875000D02*
X158250000Y-132700000D01*
X170000000Y-130875000D02*
X170000000Y-132700000D01*
X181750000Y-130875000D02*
X181750000Y-132700000D01*
X193500000Y-130875000D02*
X193500000Y-132700000D01*
X123000000Y-144375000D02*
X123000000Y-146200000D01*
X134750000Y-144375000D02*
X134750000Y-146200000D01*
X146500000Y-144375000D02*
X146500000Y-146200000D01*
X158250000Y-144375000D02*
X158250000Y-146200000D01*
X170000000Y-144375000D02*
X170000000Y-146200000D01*
X181750000Y-144375000D02*
X181750000Y-146200000D01*
X193500000Y-144375000D02*
X193500000Y-146200000D01*
X136750000Y-78110000D02*
X136750000Y-78200000D01*
X148500000Y-78110000D02*
X148500000Y-78200000D01*
X160250000Y-78110000D02*
X160250000Y-78200000D01*
X172000000Y-78110000D02*
X172000000Y-78200000D01*
X183750000Y-78110000D02*
X183750000Y-78200000D01*
X195500000Y-78110000D02*
X195500000Y-78200000D01*
X125000000Y-91610000D02*
X125000000Y-91700000D01*
X136750000Y-91610000D02*
X136750000Y-91700000D01*
X148500000Y-91610000D02*
X148500000Y-91700000D01*
X160250000Y-91610000D02*
X160250000Y-91700000D01*
X172000000Y-91610000D02*
X172000000Y-91700000D01*
X183750000Y-91610000D02*
X183750000Y-91700000D01*
X195500000Y-91610000D02*
X195500000Y-91700000D01*
X125000000Y-105110000D02*
X125000000Y-105200000D01*
X136750000Y-105110000D02*
X136750000Y-105200000D01*
X148500000Y-105110000D02*
X148500000Y-105200000D01*
X160250000Y-105110000D02*
X160250000Y-105200000D01*
X172000000Y-105110000D02*
X172000000Y-105200000D01*
X183750000Y-105110000D02*
X183750000Y-105200000D01*
X195500000Y-105110000D02*
X195500000Y-105200000D01*
X125000000Y-118610000D02*
X125000000Y-118700000D01*
X136750000Y-118610000D02*
X136750000Y-118700000D01*
X148500000Y-118610000D02*
X148500000Y-118700000D01*
X160250000Y-118610000D02*
X160250000Y-118700000D01*
X172000000Y-118610000D02*
X172000000Y-118700000D01*
X183750000Y-118610000D02*
X183750000Y-118700000D01*
X195500000Y-118610000D02*
X195500000Y-118700000D01*
X125000000Y-132110000D02*
X125000000Y-132200000D01*
X136750000Y-132110000D02*
X136750000Y-132200000D01*
X148500000Y-132110000D02*
X148500000Y-132200000D01*
X160250000Y-132110000D02*
X160250000Y-132200000D01*
X172000000Y-132110000D02*
X172000000Y-132200000D01*
X183750000Y-132110000D02*
X183750000Y-132200000D01*
X195500000Y-132110000D02*
X195500000Y-132200000D01*
X125000000Y-145610000D02*
X125000000Y-145700000D01*
X136750000Y-145610000D02*
X136750000Y-145700000D01*
X148500000Y-145610000D02*
X148500000Y-145700000D01*
X160250000Y-145610000D02*
X160250000Y-145700000D01*
X172000000Y-145610000D02*
X172000000Y-145700000D01*
X183750000Y-145610000D02*
X183750000Y-145700000D01*
X195500000Y-145610000D02*
X195500000Y-145700000D01*
X139050000Y-73000000D02*
X139050000Y-74150000D01*
X150800000Y-73000000D02*
X150800000Y-74150000D01*
X162550000Y-73000000D02*
X162550000Y-74150000D01*
X174300000Y-73000000D02*
X174300000Y-74150000D01*
X186050000Y-73000000D02*
X186050000Y-74150000D01*
X197800000Y-73000000D02*
X197800000Y-74150000D01*
X127300000Y-86500000D02*
X127300000Y-87650000D01*
X139050000Y-86500000D02*
X139050000Y-87650000D01*
X150800000Y-86500000D02*
X150800000Y-87650000D01*
X162550000Y-86500000D02*
X162550000Y-87650000D01*
X174300000Y-86500000D02*
X174300000Y-87650000D01*
X186050000Y-86500000D02*
X186050000Y-87650000D01*
X197800000Y-86500000D02*
X197800000Y-87650000D01*
X127300000Y-100000000D02*
X127300000Y-101150000D01*
X139050000Y-100000000D02*
X139050000Y-101150000D01*
X150800000Y-100000000D02*
X150800000Y-101150000D01*
X162550000Y-100000000D02*
X162550000Y-101150000D01*
X174300000Y-100000000D02*
X174300000Y-101150000D01*
X186050000Y-100000000D02*
X186050000Y-101150000D01*
X197800000Y-100000000D02*
X197800000Y-101150000D01*
X127300000Y-113500000D02*
X127300000Y-114650000D01*
X139050000Y-113500000D02*
X139050000Y-114650000D01*
X150800000Y-113500000D02*
X150800000Y-114650000D01*
X162550000Y-113500000D02*
X162550000Y-114650000D01*
X174300000Y-113500000D02*
X174300000Y-114650000D01*
X186050000Y-113500000D02*
X186050000Y-114650000D01*
X197800000Y-113500000D02*
X197800000Y-114650000D01*
X127300000Y-127000000D02*
X127300000Y-128150000D01*
X139050000Y-127000000D02*
X139050000Y-128150000D01*
X150800000Y-127000000D02*
X150800000Y-128150000D01*
X162550000Y-127000000D02*
X162550000Y-128150000D01*
X174300000Y-127000000D02*
X174300000Y-128150000D01*
X186050000Y-127000000D02*
X186050000Y-128150000D01*
X197800000Y-127000000D02*
X197800000Y-128150000D01*
X127300000Y-140500000D02*
X127300000Y-141650000D01*
X139050000Y-140500000D02*
X139050000Y-141650000D01*
X150800000Y-140500000D02*
X150800000Y-141650000D01*
X162550000Y-140500000D02*
X162550000Y-141650000D01*
X174300000Y-140500000D02*
X174300000Y-141650000D01*
X186050000Y-140500000D02*
X186050000Y-141650000D01*
X197800000Y-140500000D02*
X197800000Y-141650000D01*
X139050000Y-74150000D02*
X139250000Y-74350000D01*
X150800000Y-74150000D02*
X151000000Y-74350000D01*
X162550000Y-74150000D02*
X162750000Y-74350000D01*
X174300000Y-74150000D02*
X174500000Y-74350000D01*
X186050000Y-74150000D02*
X186250000Y-74350000D01*
X197800000Y-74150000D02*
X198000000Y-74350000D01*
X127300000Y-87650000D02*
X127500000Y-87850000D01*
X139050000Y-87650000D02*
X139250000Y-87850000D01*
X150800000Y-87650000D02*
X151000000Y-87850000D01*
X162550000Y-87650000D02*
X162750000Y-87850000D01*
X174300000Y-87650000D02*
X174500000Y-87850000D01*
X186050000Y-87650000D02*
X186250000Y-87850000D01*
X197800000Y-87650000D02*
X198000000Y-87850000D01*
X127300000Y-101150000D02*
X127500000Y-101350000D01*
X139050000Y-101150000D02*
X139250000Y-101350000D01*
X150800000Y-101150000D02*
X151000000Y-101350000D01*
X162550000Y-101150000D02*
X162750000Y-101350000D01*
X174300000Y-101150000D02*
X174500000Y-101350000D01*
X186050000Y-101150000D02*
X186250000Y-101350000D01*
X197800000Y-101150000D02*
X198000000Y-101350000D01*
X127300000Y-114650000D02*
X127500000Y-114850000D01*
X139050000Y-114650000D02*
X139250000Y-114850000D01*
X150800000Y-114650000D02*
X151000000Y-114850000D01*
X162550000Y-114650000D02*
X162750000Y-114850000D01*
X174300000Y-114650000D02*
X174500000Y-114850000D01*
X186050000Y-114650000D02*
X186250000Y-114850000D01*
X197800000Y-114650000D02*
X198000000Y-114850000D01*
X127300000Y-128150000D02*
X127500000Y-128350000D01*
X139050000Y-128150000D02*
X139250000Y-128350000D01*
X150800000Y-128150000D02*
X151000000Y-128350000D01*
X162550000Y-128150000D02*
X162750000Y-128350000D01*
X174300000Y-128150000D02*
X174500000Y-128350000D01*
X186050000Y-128150000D02*
X186250000Y-128350000D01*
X197800000Y-128150000D02*
X198000000Y-128350000D01*
X127300000Y-141650000D02*
X127500000Y-141850000D01*
X139050000Y-141650000D02*
X139250000Y-141850000D01*
X150800000Y-141650000D02*
X151000000Y-141850000D01*
X162550000Y-141650000D02*
X162750000Y-141850000D01*
X174300000Y-141650000D02*
X174500000Y-141850000D01*
X186050000Y-141650000D02*
X186250000Y-141850000D01*
X197800000Y-141650000D02*
X198000000Y-141850000D01*
X139250000Y-74350000D02*
X139250000Y-74500000D01*
X151000000Y-74350000D02*
X151000000Y-74500000D01*
X162750000Y-74350000D02*
X162750000Y-74500000D01*
X174500000Y-74350000D02*
X174500000Y-74500000D01*
X186250000Y-74350000D02*
X186250000Y-74500000D01*
X198000000Y-74350000D02*
X198000000Y-74500000D01*
X127500000Y-87850000D02*
X127500000Y-88000000D01*
X139250000Y-87850000D02*
X139250000Y-88000000D01*
X151000000Y-87850000D02*
X151000000Y-88000000D01*
X162750000Y-87850000D02*
X162750000Y-88000000D01*
X174500000Y-87850000D02*
X174500000Y-88000000D01*
X186250000Y-87850000D02*
X186250000Y-88000000D01*
X198000000Y-87850000D02*
X198000000Y-88000000D01*
X127500000Y-101350000D02*
X127500000Y-101500000D01*
X139250000Y-101350000D02*
X139250000Y-101500000D01*
X151000000Y-101350000D02*
X151000000Y-101500000D01*
X162750000Y-101350000D02*
X162750000Y-101500000D01*
X174500000Y-101350000D02*
X174500000Y-101500000D01*
X186250000Y-101350000D02*
X186250000Y-101500000D01*
X198000000Y-101350000D02*
X198000000Y-101500000D01*
X127500000Y-114850000D02*
X127500000Y-115000000D01*
X139250000Y-114850000D02*
X139250000Y-115000000D01*
X151000000Y-114850000D02*
X151000000Y-115000000D01*
X162750000Y-114850000D02*
X162750000Y-115000000D01*
X174500000Y-114850000D02*
X174500000Y-115000000D01*
X186250000Y-114850000D02*
X186250000Y-115000000D01*
X198000000Y-114850000D02*
X198000000Y-115000000D01*
X127500000Y-128350000D02*
X127500000Y-128500000D01*
X139250000Y-128350000D02*
X139250000Y-128500000D01*
X151000000Y-128350000D02*
X151000000Y-128500000D01*
X162750000Y-128350000D02*
X162750000Y-128500000D01*
X174500000Y-128350000D02*
X174500000Y-128500000D01*
X186250000Y-128350000D02*
X186250000Y-128500000D01*
X198000000Y-128350000D02*
X198000000Y-128500000D01*
X127500000Y-141850000D02*
X127500000Y-142000000D01*
X139250000Y-141850000D02*
X139250000Y-142000000D01*
X151000000Y-141850000D02*
X151000000Y-142000000D01*
X162750000Y-141850000D02*
X162750000Y-142000000D01*
X174500000Y-141850000D02*
X174500000Y-142000000D01*
X186250000Y-141850000D02*
X186250000Y-142000000D01*
X198000000Y-141850000D02*
X198000000Y-142000000D01*
X136750000Y-78200000D02*
X136950000Y-78400000D01*
X148500000Y-78200000D02*
X148700000Y-78400000D01*
X160250000Y-78200000D02*
X160450000Y-78400000D01*
X172000000Y-78200000D02*
X172200000Y-78400000D01*
X183750000Y-78200000D02*
X183950000Y-78400000D01*
X195500000Y-78200000D02*
X195700000Y-78400000D01*
X125000000Y-91700000D02*
X125200000Y-91900000D01*
X136750000Y-91700000D02*
X136950000Y-91900000D01*
X148500000Y-91700000D02*
X148700000Y-91900000D01*
X160250000Y-91700000D02*
X160450000Y-91900000D01*
X172000000Y-91700000D02*
X172200000Y-91900000D01*
X183750000Y-91700000D02*
X183950000Y-91900000D01*
X195500000Y-91700000D02*
X195700000Y-91900000D01*
X125000000Y-105200000D02*
X125200000Y-105400000D01*
X136750000Y-105200000D02*
X136950000Y-105400000D01*
X148500000Y-105200000D02*
X148700000Y-105400000D01*
X160250000Y-105200000D02*
X160450000Y-105400000D01*
X172000000Y-105200000D02*
X172200000Y-105400000D01*
X183750000Y-105200000D02*
X183950000Y-105400000D01*
X195500000Y-105200000D02*
X195700000Y-105400000D01*
X125000000Y-118700000D02*
X125200000Y-118900000D01*
X136750000Y-118700000D02*
X136950000Y-118900000D01*
X148500000Y-118700000D02*
X148700000Y-118900000D01*
X160250000Y-118700000D02*
X160450000Y-118900000D01*
X172000000Y-118700000D02*
X172200000Y-118900000D01*
X183750000Y-118700000D02*
X183950000Y-118900000D01*
X195500000Y-118700000D02*
X195700000Y-118900000D01*
X125000000Y-132200000D02*
X125200000Y-132400000D01*
X136750000Y-132200000D02*
X136950000Y-132400000D01*
X148500000Y-132200000D02*
X148700000Y-132400000D01*
X160250000Y-132200000D02*
X160450000Y-132400000D01*
X172000000Y-132200000D02*
X172200000Y-132400000D01*
X183750000Y-132200000D02*
X183950000Y-132400000D01*
X195500000Y-132200000D02*
X195700000Y-132400000D01*
X125000000Y-145700000D02*
X125200000Y-145900000D01*
X136750000Y-145700000D02*
X136950000Y-145900000D01*
X148500000Y-145700000D02*
X148700000Y-145900000D01*
X160250000Y-145700000D02*
X160450000Y-145900000D01*
X172000000Y-145700000D02*
X172200000Y-145900000D01*
X183750000Y-145700000D02*
X183950000Y-145900000D01*
X195500000Y-145700000D02*
X195700000Y-145900000D01*
X135750000Y-76875000D02*
X135750000Y-78400000D01*
X147500000Y-76875000D02*
X147500000Y-78400000D01*
X159250000Y-76875000D02*
X159250000Y-78400000D01*
X171000000Y-76875000D02*
X171000000Y-78400000D01*
X182750000Y-76875000D02*
X182750000Y-78400000D01*
X194500000Y-76875000D02*
X194500000Y-78400000D01*
X124000000Y-90375000D02*
X124000000Y-91900000D01*
X135750000Y-90375000D02*
X135750000Y-91900000D01*
X147500000Y-90375000D02*
X147500000Y-91900000D01*
X159250000Y-90375000D02*
X159250000Y-91900000D01*
X171000000Y-90375000D02*
X171000000Y-91900000D01*
X182750000Y-90375000D02*
X182750000Y-91900000D01*
X194500000Y-90375000D02*
X194500000Y-91900000D01*
X124000000Y-103875000D02*
X124000000Y-105400000D01*
X135750000Y-103875000D02*
X135750000Y-105400000D01*
X147500000Y-103875000D02*
X147500000Y-105400000D01*
X159250000Y-103875000D02*
X159250000Y-105400000D01*
X171000000Y-103875000D02*
X171000000Y-105400000D01*
X182750000Y-103875000D02*
X182750000Y-105400000D01*
X194500000Y-103875000D02*
X194500000Y-105400000D01*
X124000000Y-117375000D02*
X124000000Y-118900000D01*
X135750000Y-117375000D02*
X135750000Y-118900000D01*
X147500000Y-117375000D02*
X147500000Y-118900000D01*
X159250000Y-117375000D02*
X159250000Y-118900000D01*
X171000000Y-117375000D02*
X171000000Y-118900000D01*
X182750000Y-117375000D02*
X182750000Y-118900000D01*
X194500000Y-117375000D02*
X194500000Y-118900000D01*
X124000000Y-130875000D02*
X124000000Y-132400000D01*
X135750000Y-130875000D02*
X135750000Y-132400000D01*
X147500000Y-130875000D02*
X147500000Y-132400000D01*
X159250000Y-130875000D02*
X159250000Y-132400000D01*
X171000000Y-130875000D02*
X171000000Y-132400000D01*
X182750000Y-130875000D02*
X182750000Y-132400000D01*
X194500000Y-130875000D02*
X194500000Y-132400000D01*
X124000000Y-144375000D02*
X124000000Y-145900000D01*
X135750000Y-144375000D02*
X135750000Y-145900000D01*
X147500000Y-144375000D02*
X147500000Y-145900000D01*
X159250000Y-144375000D02*
X159250000Y-145900000D01*
X171000000Y-144375000D02*
X171000000Y-145900000D01*
X182750000Y-144375000D02*
X182750000Y-145900000D01*
X194500000Y-144375000D02*
X194500000Y-145900000D01*
X134250000Y-74500000D02*
X139250000Y-74500000D01*
X146000000Y-74500000D02*
X151000000Y-74500000D01*
X157750000Y-74500000D02*
X162750000Y-74500000D01*
X169500000Y-74500000D02*
X174500000Y-74500000D01*
X181250000Y-74500000D02*
X186250000Y-74500000D01*
X193000000Y-74500000D02*
X198000000Y-74500000D01*
X122500000Y-88000000D02*
X127500000Y-88000000D01*
X134250000Y-88000000D02*
X139250000Y-88000000D01*
X146000000Y-88000000D02*
X151000000Y-88000000D01*
X157750000Y-88000000D02*
X162750000Y-88000000D01*
X169500000Y-88000000D02*
X174500000Y-88000000D01*
X181250000Y-88000000D02*
X186250000Y-88000000D01*
X193000000Y-88000000D02*
X198000000Y-88000000D01*
X122500000Y-101500000D02*
X127500000Y-101500000D01*
X134250000Y-101500000D02*
X139250000Y-101500000D01*
X146000000Y-101500000D02*
X151000000Y-101500000D01*
X157750000Y-101500000D02*
X162750000Y-101500000D01*
X169500000Y-101500000D02*
X174500000Y-101500000D01*
X181250000Y-101500000D02*
X186250000Y-101500000D01*
X193000000Y-101500000D02*
X198000000Y-101500000D01*
X122500000Y-115000000D02*
X127500000Y-115000000D01*
X134250000Y-115000000D02*
X139250000Y-115000000D01*
X146000000Y-115000000D02*
X151000000Y-115000000D01*
X157750000Y-115000000D02*
X162750000Y-115000000D01*
X169500000Y-115000000D02*
X174500000Y-115000000D01*
X181250000Y-115000000D02*
X186250000Y-115000000D01*
X193000000Y-115000000D02*
X198000000Y-115000000D01*
X122500000Y-128500000D02*
X127500000Y-128500000D01*
X134250000Y-128500000D02*
X139250000Y-128500000D01*
X146000000Y-128500000D02*
X151000000Y-128500000D01*
X157750000Y-128500000D02*
X162750000Y-128500000D01*
X169500000Y-128500000D02*
X174500000Y-128500000D01*
X181250000Y-128500000D02*
X186250000Y-128500000D01*
X193000000Y-128500000D02*
X198000000Y-128500000D01*
X122500000Y-142000000D02*
X127500000Y-142000000D01*
X134250000Y-142000000D02*
X139250000Y-142000000D01*
X146000000Y-142000000D02*
X151000000Y-142000000D01*
X157750000Y-142000000D02*
X162750000Y-142000000D01*
X169500000Y-142000000D02*
X174500000Y-142000000D01*
X181250000Y-142000000D02*
X186250000Y-142000000D01*
X193000000Y-142000000D02*
X198000000Y-142000000D01*
X133650000Y-74500000D02*
X132450000Y-73300000D01*
X145400000Y-74500000D02*
X144200000Y-73300000D01*
X157150000Y-74500000D02*
X155950000Y-73300000D01*
X168900000Y-74500000D02*
X167700000Y-73300000D01*
X180650000Y-74500000D02*
X179450000Y-73300000D01*
X192400000Y-74500000D02*
X191200000Y-73300000D01*
X121900000Y-88000000D02*
X120700000Y-86800000D01*
X133650000Y-88000000D02*
X132450000Y-86800000D01*
X145400000Y-88000000D02*
X144200000Y-86800000D01*
X157150000Y-88000000D02*
X155950000Y-86800000D01*
X168900000Y-88000000D02*
X167700000Y-86800000D01*
X180650000Y-88000000D02*
X179450000Y-86800000D01*
X192400000Y-88000000D02*
X191200000Y-86800000D01*
X121900000Y-101500000D02*
X120700000Y-100300000D01*
X133650000Y-101500000D02*
X132450000Y-100300000D01*
X145400000Y-101500000D02*
X144200000Y-100300000D01*
X157150000Y-101500000D02*
X155950000Y-100300000D01*
X168900000Y-101500000D02*
X167700000Y-100300000D01*
X180650000Y-101500000D02*
X179450000Y-100300000D01*
X192400000Y-101500000D02*
X191200000Y-100300000D01*
X121900000Y-115000000D02*
X120700000Y-113800000D01*
X133650000Y-115000000D02*
X132450000Y-113800000D01*
X145400000Y-115000000D02*
X144200000Y-113800000D01*
X157150000Y-115000000D02*
X155950000Y-113800000D01*
X168900000Y-115000000D02*
X167700000Y-113800000D01*
X180650000Y-115000000D02*
X179450000Y-113800000D01*
X192400000Y-115000000D02*
X191200000Y-113800000D01*
X121900000Y-128500000D02*
X120700000Y-127300000D01*
X133650000Y-128500000D02*
X132450000Y-127300000D01*
X145400000Y-128500000D02*
X144200000Y-127300000D01*
X157150000Y-128500000D02*
X155950000Y-127300000D01*
X168900000Y-128500000D02*
X167700000Y-127300000D01*
X180650000Y-128500000D02*
X179450000Y-127300000D01*
X192400000Y-128500000D02*
X191200000Y-127300000D01*
X121900000Y-142000000D02*
X120700000Y-140800000D01*
X133650000Y-142000000D02*
X132450000Y-140800000D01*
X145400000Y-142000000D02*
X144200000Y-140800000D01*
X157150000Y-142000000D02*
X155950000Y-140800000D01*
X168900000Y-142000000D02*
X167700000Y-140800000D01*
X180650000Y-142000000D02*
X179450000Y-140800000D01*
X192400000Y-142000000D02*
X191200000Y-140800000D01*
M02*
