G04 #@! TF.GenerationSoftware,KiCad,Pcbnew,5.1.0-060a0da~80~ubuntu18.04.1*
G04 #@! TF.CreationDate,2019-05-11T20:46:11+02:00*
G04 #@! TF.ProjectId,spi_connector_board,7370695f-636f-46e6-9e65-63746f725f62,rev?*
G04 #@! TF.SameCoordinates,Original*
G04 #@! TF.FileFunction,Legend,Top*
G04 #@! TF.FilePolarity,Positive*
%FSLAX46Y46*%
G04 Gerber Fmt 4.6, Leading zero omitted, Abs format (unit mm)*
G04 Created by KiCad (PCBNEW 5.1.0-060a0da~80~ubuntu18.04.1) date 2019-05-11 20:46:11*
%MOMM*%
%LPD*%
G04 APERTURE LIST*
%ADD10C,0.120000*%
%ADD11C,0.127000*%
%ADD12C,0.200000*%
G04 APERTURE END LIST*
D10*
X194040000Y-152030000D02*
X199725000Y-152030000D01*
X199725000Y-152030000D02*
X199725000Y-146430000D01*
X189625000Y-146430000D02*
X199725000Y-146430000D01*
X189625000Y-147960000D02*
X189625000Y-146430000D01*
X190900000Y-149230000D02*
X192770000Y-149230000D01*
X192770000Y-149230000D02*
X192770000Y-151100000D01*
X191500000Y-152030000D02*
X189625000Y-152030000D01*
X189625000Y-152030000D02*
X189625000Y-150500000D01*
X182290000Y-152030000D02*
X187975000Y-152030000D01*
X187975000Y-152030000D02*
X187975000Y-146430000D01*
X177875000Y-146430000D02*
X187975000Y-146430000D01*
X177875000Y-147960000D02*
X177875000Y-146430000D01*
X179150000Y-149230000D02*
X181020000Y-149230000D01*
X181020000Y-149230000D02*
X181020000Y-151100000D01*
X179750000Y-152030000D02*
X177875000Y-152030000D01*
X177875000Y-152030000D02*
X177875000Y-150500000D01*
X170540000Y-152030000D02*
X176225000Y-152030000D01*
X176225000Y-152030000D02*
X176225000Y-146430000D01*
X166125000Y-146430000D02*
X176225000Y-146430000D01*
X166125000Y-147960000D02*
X166125000Y-146430000D01*
X167400000Y-149230000D02*
X169270000Y-149230000D01*
X169270000Y-149230000D02*
X169270000Y-151100000D01*
X168000000Y-152030000D02*
X166125000Y-152030000D01*
X166125000Y-152030000D02*
X166125000Y-150500000D01*
X158790000Y-152030000D02*
X164475000Y-152030000D01*
X164475000Y-152030000D02*
X164475000Y-146430000D01*
X154375000Y-146430000D02*
X164475000Y-146430000D01*
X154375000Y-147960000D02*
X154375000Y-146430000D01*
X155650000Y-149230000D02*
X157520000Y-149230000D01*
X157520000Y-149230000D02*
X157520000Y-151100000D01*
X156250000Y-152030000D02*
X154375000Y-152030000D01*
X154375000Y-152030000D02*
X154375000Y-150500000D01*
X147040000Y-152030000D02*
X152725000Y-152030000D01*
X152725000Y-152030000D02*
X152725000Y-146430000D01*
X142625000Y-146430000D02*
X152725000Y-146430000D01*
X142625000Y-147960000D02*
X142625000Y-146430000D01*
X143900000Y-149230000D02*
X145770000Y-149230000D01*
X145770000Y-149230000D02*
X145770000Y-151100000D01*
X144500000Y-152030000D02*
X142625000Y-152030000D01*
X142625000Y-152030000D02*
X142625000Y-150500000D01*
X135290000Y-152030000D02*
X140975000Y-152030000D01*
X140975000Y-152030000D02*
X140975000Y-146430000D01*
X130875000Y-146430000D02*
X140975000Y-146430000D01*
X130875000Y-147960000D02*
X130875000Y-146430000D01*
X132150000Y-149230000D02*
X134020000Y-149230000D01*
X134020000Y-149230000D02*
X134020000Y-151100000D01*
X132750000Y-152030000D02*
X130875000Y-152030000D01*
X130875000Y-152030000D02*
X130875000Y-150500000D01*
X123540000Y-152030000D02*
X129225000Y-152030000D01*
X129225000Y-152030000D02*
X129225000Y-146430000D01*
X119125000Y-146430000D02*
X129225000Y-146430000D01*
X119125000Y-147960000D02*
X119125000Y-146430000D01*
X120400000Y-149230000D02*
X122270000Y-149230000D01*
X122270000Y-149230000D02*
X122270000Y-151100000D01*
X121000000Y-152030000D02*
X119125000Y-152030000D01*
X119125000Y-152030000D02*
X119125000Y-150500000D01*
X194040000Y-138530000D02*
X199725000Y-138530000D01*
X199725000Y-138530000D02*
X199725000Y-132930000D01*
X189625000Y-132930000D02*
X199725000Y-132930000D01*
X189625000Y-134460000D02*
X189625000Y-132930000D01*
X190900000Y-135730000D02*
X192770000Y-135730000D01*
X192770000Y-135730000D02*
X192770000Y-137600000D01*
X191500000Y-138530000D02*
X189625000Y-138530000D01*
X189625000Y-138530000D02*
X189625000Y-137000000D01*
X182290000Y-138530000D02*
X187975000Y-138530000D01*
X187975000Y-138530000D02*
X187975000Y-132930000D01*
X177875000Y-132930000D02*
X187975000Y-132930000D01*
X177875000Y-134460000D02*
X177875000Y-132930000D01*
X179150000Y-135730000D02*
X181020000Y-135730000D01*
X181020000Y-135730000D02*
X181020000Y-137600000D01*
X179750000Y-138530000D02*
X177875000Y-138530000D01*
X177875000Y-138530000D02*
X177875000Y-137000000D01*
X170540000Y-138530000D02*
X176225000Y-138530000D01*
X176225000Y-138530000D02*
X176225000Y-132930000D01*
X166125000Y-132930000D02*
X176225000Y-132930000D01*
X166125000Y-134460000D02*
X166125000Y-132930000D01*
X167400000Y-135730000D02*
X169270000Y-135730000D01*
X169270000Y-135730000D02*
X169270000Y-137600000D01*
X168000000Y-138530000D02*
X166125000Y-138530000D01*
X166125000Y-138530000D02*
X166125000Y-137000000D01*
X158790000Y-138530000D02*
X164475000Y-138530000D01*
X164475000Y-138530000D02*
X164475000Y-132930000D01*
X154375000Y-132930000D02*
X164475000Y-132930000D01*
X154375000Y-134460000D02*
X154375000Y-132930000D01*
X155650000Y-135730000D02*
X157520000Y-135730000D01*
X157520000Y-135730000D02*
X157520000Y-137600000D01*
X156250000Y-138530000D02*
X154375000Y-138530000D01*
X154375000Y-138530000D02*
X154375000Y-137000000D01*
X147040000Y-138530000D02*
X152725000Y-138530000D01*
X152725000Y-138530000D02*
X152725000Y-132930000D01*
X142625000Y-132930000D02*
X152725000Y-132930000D01*
X142625000Y-134460000D02*
X142625000Y-132930000D01*
X143900000Y-135730000D02*
X145770000Y-135730000D01*
X145770000Y-135730000D02*
X145770000Y-137600000D01*
X144500000Y-138530000D02*
X142625000Y-138530000D01*
X142625000Y-138530000D02*
X142625000Y-137000000D01*
X135290000Y-138530000D02*
X140975000Y-138530000D01*
X140975000Y-138530000D02*
X140975000Y-132930000D01*
X130875000Y-132930000D02*
X140975000Y-132930000D01*
X130875000Y-134460000D02*
X130875000Y-132930000D01*
X132150000Y-135730000D02*
X134020000Y-135730000D01*
X134020000Y-135730000D02*
X134020000Y-137600000D01*
X132750000Y-138530000D02*
X130875000Y-138530000D01*
X130875000Y-138530000D02*
X130875000Y-137000000D01*
X123540000Y-138530000D02*
X129225000Y-138530000D01*
X129225000Y-138530000D02*
X129225000Y-132930000D01*
X119125000Y-132930000D02*
X129225000Y-132930000D01*
X119125000Y-134460000D02*
X119125000Y-132930000D01*
X120400000Y-135730000D02*
X122270000Y-135730000D01*
X122270000Y-135730000D02*
X122270000Y-137600000D01*
X121000000Y-138530000D02*
X119125000Y-138530000D01*
X119125000Y-138530000D02*
X119125000Y-137000000D01*
X194040000Y-125030000D02*
X199725000Y-125030000D01*
X199725000Y-125030000D02*
X199725000Y-119430000D01*
X189625000Y-119430000D02*
X199725000Y-119430000D01*
X189625000Y-120960000D02*
X189625000Y-119430000D01*
X190900000Y-122230000D02*
X192770000Y-122230000D01*
X192770000Y-122230000D02*
X192770000Y-124100000D01*
X191500000Y-125030000D02*
X189625000Y-125030000D01*
X189625000Y-125030000D02*
X189625000Y-123500000D01*
X182290000Y-125030000D02*
X187975000Y-125030000D01*
X187975000Y-125030000D02*
X187975000Y-119430000D01*
X177875000Y-119430000D02*
X187975000Y-119430000D01*
X177875000Y-120960000D02*
X177875000Y-119430000D01*
X179150000Y-122230000D02*
X181020000Y-122230000D01*
X181020000Y-122230000D02*
X181020000Y-124100000D01*
X179750000Y-125030000D02*
X177875000Y-125030000D01*
X177875000Y-125030000D02*
X177875000Y-123500000D01*
X170540000Y-125030000D02*
X176225000Y-125030000D01*
X176225000Y-125030000D02*
X176225000Y-119430000D01*
X166125000Y-119430000D02*
X176225000Y-119430000D01*
X166125000Y-120960000D02*
X166125000Y-119430000D01*
X167400000Y-122230000D02*
X169270000Y-122230000D01*
X169270000Y-122230000D02*
X169270000Y-124100000D01*
X168000000Y-125030000D02*
X166125000Y-125030000D01*
X166125000Y-125030000D02*
X166125000Y-123500000D01*
X158790000Y-125030000D02*
X164475000Y-125030000D01*
X164475000Y-125030000D02*
X164475000Y-119430000D01*
X154375000Y-119430000D02*
X164475000Y-119430000D01*
X154375000Y-120960000D02*
X154375000Y-119430000D01*
X155650000Y-122230000D02*
X157520000Y-122230000D01*
X157520000Y-122230000D02*
X157520000Y-124100000D01*
X156250000Y-125030000D02*
X154375000Y-125030000D01*
X154375000Y-125030000D02*
X154375000Y-123500000D01*
X147040000Y-125030000D02*
X152725000Y-125030000D01*
X152725000Y-125030000D02*
X152725000Y-119430000D01*
X142625000Y-119430000D02*
X152725000Y-119430000D01*
X142625000Y-120960000D02*
X142625000Y-119430000D01*
X143900000Y-122230000D02*
X145770000Y-122230000D01*
X145770000Y-122230000D02*
X145770000Y-124100000D01*
X144500000Y-125030000D02*
X142625000Y-125030000D01*
X142625000Y-125030000D02*
X142625000Y-123500000D01*
X135290000Y-125030000D02*
X140975000Y-125030000D01*
X140975000Y-125030000D02*
X140975000Y-119430000D01*
X130875000Y-119430000D02*
X140975000Y-119430000D01*
X130875000Y-120960000D02*
X130875000Y-119430000D01*
X132150000Y-122230000D02*
X134020000Y-122230000D01*
X134020000Y-122230000D02*
X134020000Y-124100000D01*
X132750000Y-125030000D02*
X130875000Y-125030000D01*
X130875000Y-125030000D02*
X130875000Y-123500000D01*
X123540000Y-125030000D02*
X129225000Y-125030000D01*
X129225000Y-125030000D02*
X129225000Y-119430000D01*
X119125000Y-119430000D02*
X129225000Y-119430000D01*
X119125000Y-120960000D02*
X119125000Y-119430000D01*
X120400000Y-122230000D02*
X122270000Y-122230000D01*
X122270000Y-122230000D02*
X122270000Y-124100000D01*
X121000000Y-125030000D02*
X119125000Y-125030000D01*
X119125000Y-125030000D02*
X119125000Y-123500000D01*
X194040000Y-111530000D02*
X199725000Y-111530000D01*
X199725000Y-111530000D02*
X199725000Y-105930000D01*
X189625000Y-105930000D02*
X199725000Y-105930000D01*
X189625000Y-107460000D02*
X189625000Y-105930000D01*
X190900000Y-108730000D02*
X192770000Y-108730000D01*
X192770000Y-108730000D02*
X192770000Y-110600000D01*
X191500000Y-111530000D02*
X189625000Y-111530000D01*
X189625000Y-111530000D02*
X189625000Y-110000000D01*
X182290000Y-111530000D02*
X187975000Y-111530000D01*
X187975000Y-111530000D02*
X187975000Y-105930000D01*
X177875000Y-105930000D02*
X187975000Y-105930000D01*
X177875000Y-107460000D02*
X177875000Y-105930000D01*
X179150000Y-108730000D02*
X181020000Y-108730000D01*
X181020000Y-108730000D02*
X181020000Y-110600000D01*
X179750000Y-111530000D02*
X177875000Y-111530000D01*
X177875000Y-111530000D02*
X177875000Y-110000000D01*
X170540000Y-111530000D02*
X176225000Y-111530000D01*
X176225000Y-111530000D02*
X176225000Y-105930000D01*
X166125000Y-105930000D02*
X176225000Y-105930000D01*
X166125000Y-107460000D02*
X166125000Y-105930000D01*
X167400000Y-108730000D02*
X169270000Y-108730000D01*
X169270000Y-108730000D02*
X169270000Y-110600000D01*
X168000000Y-111530000D02*
X166125000Y-111530000D01*
X166125000Y-111530000D02*
X166125000Y-110000000D01*
X158790000Y-111530000D02*
X164475000Y-111530000D01*
X164475000Y-111530000D02*
X164475000Y-105930000D01*
X154375000Y-105930000D02*
X164475000Y-105930000D01*
X154375000Y-107460000D02*
X154375000Y-105930000D01*
X155650000Y-108730000D02*
X157520000Y-108730000D01*
X157520000Y-108730000D02*
X157520000Y-110600000D01*
X156250000Y-111530000D02*
X154375000Y-111530000D01*
X154375000Y-111530000D02*
X154375000Y-110000000D01*
X147040000Y-111530000D02*
X152725000Y-111530000D01*
X152725000Y-111530000D02*
X152725000Y-105930000D01*
X142625000Y-105930000D02*
X152725000Y-105930000D01*
X142625000Y-107460000D02*
X142625000Y-105930000D01*
X143900000Y-108730000D02*
X145770000Y-108730000D01*
X145770000Y-108730000D02*
X145770000Y-110600000D01*
X144500000Y-111530000D02*
X142625000Y-111530000D01*
X142625000Y-111530000D02*
X142625000Y-110000000D01*
X135290000Y-111530000D02*
X140975000Y-111530000D01*
X140975000Y-111530000D02*
X140975000Y-105930000D01*
X130875000Y-105930000D02*
X140975000Y-105930000D01*
X130875000Y-107460000D02*
X130875000Y-105930000D01*
X132150000Y-108730000D02*
X134020000Y-108730000D01*
X134020000Y-108730000D02*
X134020000Y-110600000D01*
X132750000Y-111530000D02*
X130875000Y-111530000D01*
X130875000Y-111530000D02*
X130875000Y-110000000D01*
X123540000Y-111530000D02*
X129225000Y-111530000D01*
X129225000Y-111530000D02*
X129225000Y-105930000D01*
X119125000Y-105930000D02*
X129225000Y-105930000D01*
X119125000Y-107460000D02*
X119125000Y-105930000D01*
X120400000Y-108730000D02*
X122270000Y-108730000D01*
X122270000Y-108730000D02*
X122270000Y-110600000D01*
X121000000Y-111530000D02*
X119125000Y-111530000D01*
X119125000Y-111530000D02*
X119125000Y-110000000D01*
X194040000Y-98030000D02*
X199725000Y-98030000D01*
X199725000Y-98030000D02*
X199725000Y-92430000D01*
X189625000Y-92430000D02*
X199725000Y-92430000D01*
X189625000Y-93960000D02*
X189625000Y-92430000D01*
X190900000Y-95230000D02*
X192770000Y-95230000D01*
X192770000Y-95230000D02*
X192770000Y-97100000D01*
X191500000Y-98030000D02*
X189625000Y-98030000D01*
X189625000Y-98030000D02*
X189625000Y-96500000D01*
X182290000Y-98030000D02*
X187975000Y-98030000D01*
X187975000Y-98030000D02*
X187975000Y-92430000D01*
X177875000Y-92430000D02*
X187975000Y-92430000D01*
X177875000Y-93960000D02*
X177875000Y-92430000D01*
X179150000Y-95230000D02*
X181020000Y-95230000D01*
X181020000Y-95230000D02*
X181020000Y-97100000D01*
X179750000Y-98030000D02*
X177875000Y-98030000D01*
X177875000Y-98030000D02*
X177875000Y-96500000D01*
X170540000Y-98030000D02*
X176225000Y-98030000D01*
X176225000Y-98030000D02*
X176225000Y-92430000D01*
X166125000Y-92430000D02*
X176225000Y-92430000D01*
X166125000Y-93960000D02*
X166125000Y-92430000D01*
X167400000Y-95230000D02*
X169270000Y-95230000D01*
X169270000Y-95230000D02*
X169270000Y-97100000D01*
X168000000Y-98030000D02*
X166125000Y-98030000D01*
X166125000Y-98030000D02*
X166125000Y-96500000D01*
X158790000Y-98030000D02*
X164475000Y-98030000D01*
X164475000Y-98030000D02*
X164475000Y-92430000D01*
X154375000Y-92430000D02*
X164475000Y-92430000D01*
X154375000Y-93960000D02*
X154375000Y-92430000D01*
X155650000Y-95230000D02*
X157520000Y-95230000D01*
X157520000Y-95230000D02*
X157520000Y-97100000D01*
X156250000Y-98030000D02*
X154375000Y-98030000D01*
X154375000Y-98030000D02*
X154375000Y-96500000D01*
X147040000Y-98030000D02*
X152725000Y-98030000D01*
X152725000Y-98030000D02*
X152725000Y-92430000D01*
X142625000Y-92430000D02*
X152725000Y-92430000D01*
X142625000Y-93960000D02*
X142625000Y-92430000D01*
X143900000Y-95230000D02*
X145770000Y-95230000D01*
X145770000Y-95230000D02*
X145770000Y-97100000D01*
X144500000Y-98030000D02*
X142625000Y-98030000D01*
X142625000Y-98030000D02*
X142625000Y-96500000D01*
X135290000Y-98030000D02*
X140975000Y-98030000D01*
X140975000Y-98030000D02*
X140975000Y-92430000D01*
X130875000Y-92430000D02*
X140975000Y-92430000D01*
X130875000Y-93960000D02*
X130875000Y-92430000D01*
X132150000Y-95230000D02*
X134020000Y-95230000D01*
X134020000Y-95230000D02*
X134020000Y-97100000D01*
X132750000Y-98030000D02*
X130875000Y-98030000D01*
X130875000Y-98030000D02*
X130875000Y-96500000D01*
X123540000Y-98030000D02*
X129225000Y-98030000D01*
X129225000Y-98030000D02*
X129225000Y-92430000D01*
X119125000Y-92430000D02*
X129225000Y-92430000D01*
X119125000Y-93960000D02*
X119125000Y-92430000D01*
X120400000Y-95230000D02*
X122270000Y-95230000D01*
X122270000Y-95230000D02*
X122270000Y-97100000D01*
X121000000Y-98030000D02*
X119125000Y-98030000D01*
X119125000Y-98030000D02*
X119125000Y-96500000D01*
X194040000Y-84530000D02*
X199725000Y-84530000D01*
X199725000Y-84530000D02*
X199725000Y-78930000D01*
X189625000Y-78930000D02*
X199725000Y-78930000D01*
X189625000Y-80460000D02*
X189625000Y-78930000D01*
X190900000Y-81730000D02*
X192770000Y-81730000D01*
X192770000Y-81730000D02*
X192770000Y-83600000D01*
X191500000Y-84530000D02*
X189625000Y-84530000D01*
X189625000Y-84530000D02*
X189625000Y-83000000D01*
X182290000Y-84530000D02*
X187975000Y-84530000D01*
X187975000Y-84530000D02*
X187975000Y-78930000D01*
X177875000Y-78930000D02*
X187975000Y-78930000D01*
X177875000Y-80460000D02*
X177875000Y-78930000D01*
X179150000Y-81730000D02*
X181020000Y-81730000D01*
X181020000Y-81730000D02*
X181020000Y-83600000D01*
X179750000Y-84530000D02*
X177875000Y-84530000D01*
X177875000Y-84530000D02*
X177875000Y-83000000D01*
X170540000Y-84530000D02*
X176225000Y-84530000D01*
X176225000Y-84530000D02*
X176225000Y-78930000D01*
X166125000Y-78930000D02*
X176225000Y-78930000D01*
X166125000Y-80460000D02*
X166125000Y-78930000D01*
X167400000Y-81730000D02*
X169270000Y-81730000D01*
X169270000Y-81730000D02*
X169270000Y-83600000D01*
X168000000Y-84530000D02*
X166125000Y-84530000D01*
X166125000Y-84530000D02*
X166125000Y-83000000D01*
X158790000Y-84530000D02*
X164475000Y-84530000D01*
X164475000Y-84530000D02*
X164475000Y-78930000D01*
X154375000Y-78930000D02*
X164475000Y-78930000D01*
X154375000Y-80460000D02*
X154375000Y-78930000D01*
X155650000Y-81730000D02*
X157520000Y-81730000D01*
X157520000Y-81730000D02*
X157520000Y-83600000D01*
X156250000Y-84530000D02*
X154375000Y-84530000D01*
X154375000Y-84530000D02*
X154375000Y-83000000D01*
X147040000Y-84530000D02*
X152725000Y-84530000D01*
X152725000Y-84530000D02*
X152725000Y-78930000D01*
X142625000Y-78930000D02*
X152725000Y-78930000D01*
X142625000Y-80460000D02*
X142625000Y-78930000D01*
X143900000Y-81730000D02*
X145770000Y-81730000D01*
X145770000Y-81730000D02*
X145770000Y-83600000D01*
X144500000Y-84530000D02*
X142625000Y-84530000D01*
X142625000Y-84530000D02*
X142625000Y-83000000D01*
X135290000Y-84530000D02*
X140975000Y-84530000D01*
X140975000Y-84530000D02*
X140975000Y-78930000D01*
X130875000Y-78930000D02*
X140975000Y-78930000D01*
X130875000Y-80460000D02*
X130875000Y-78930000D01*
X132150000Y-81730000D02*
X134020000Y-81730000D01*
X134020000Y-81730000D02*
X134020000Y-83600000D01*
X132750000Y-84530000D02*
X130875000Y-84530000D01*
X130875000Y-84530000D02*
X130875000Y-83000000D01*
D11*
X197110000Y-144050000D02*
X198000000Y-144050000D01*
X198000000Y-144050000D02*
X198000000Y-141710000D01*
X196890000Y-139800000D02*
X192110000Y-139800000D01*
X191890000Y-144050000D02*
X191000000Y-144050000D01*
X191000000Y-144050000D02*
X191000000Y-141710000D01*
D12*
X196600000Y-145700000D02*
G75*
G03X196600000Y-145700000I-100000J0D01*
G01*
D11*
X185360000Y-144050000D02*
X186250000Y-144050000D01*
X186250000Y-144050000D02*
X186250000Y-141710000D01*
X185140000Y-139800000D02*
X180360000Y-139800000D01*
X180140000Y-144050000D02*
X179250000Y-144050000D01*
X179250000Y-144050000D02*
X179250000Y-141710000D01*
D12*
X184850000Y-145700000D02*
G75*
G03X184850000Y-145700000I-100000J0D01*
G01*
D11*
X173610000Y-144050000D02*
X174500000Y-144050000D01*
X174500000Y-144050000D02*
X174500000Y-141710000D01*
X173390000Y-139800000D02*
X168610000Y-139800000D01*
X168390000Y-144050000D02*
X167500000Y-144050000D01*
X167500000Y-144050000D02*
X167500000Y-141710000D01*
D12*
X173100000Y-145700000D02*
G75*
G03X173100000Y-145700000I-100000J0D01*
G01*
D11*
X161860000Y-144050000D02*
X162750000Y-144050000D01*
X162750000Y-144050000D02*
X162750000Y-141710000D01*
X161640000Y-139800000D02*
X156860000Y-139800000D01*
X156640000Y-144050000D02*
X155750000Y-144050000D01*
X155750000Y-144050000D02*
X155750000Y-141710000D01*
D12*
X161350000Y-145700000D02*
G75*
G03X161350000Y-145700000I-100000J0D01*
G01*
D11*
X150110000Y-144050000D02*
X151000000Y-144050000D01*
X151000000Y-144050000D02*
X151000000Y-141710000D01*
X149890000Y-139800000D02*
X145110000Y-139800000D01*
X144890000Y-144050000D02*
X144000000Y-144050000D01*
X144000000Y-144050000D02*
X144000000Y-141710000D01*
D12*
X149600000Y-145700000D02*
G75*
G03X149600000Y-145700000I-100000J0D01*
G01*
D11*
X138360000Y-144050000D02*
X139250000Y-144050000D01*
X139250000Y-144050000D02*
X139250000Y-141710000D01*
X138140000Y-139800000D02*
X133360000Y-139800000D01*
X133140000Y-144050000D02*
X132250000Y-144050000D01*
X132250000Y-144050000D02*
X132250000Y-141710000D01*
D12*
X137850000Y-145700000D02*
G75*
G03X137850000Y-145700000I-100000J0D01*
G01*
D11*
X126610000Y-144050000D02*
X127500000Y-144050000D01*
X127500000Y-144050000D02*
X127500000Y-141710000D01*
X126390000Y-139800000D02*
X121610000Y-139800000D01*
X121390000Y-144050000D02*
X120500000Y-144050000D01*
X120500000Y-144050000D02*
X120500000Y-141710000D01*
D12*
X126100000Y-145700000D02*
G75*
G03X126100000Y-145700000I-100000J0D01*
G01*
D11*
X197110000Y-130550000D02*
X198000000Y-130550000D01*
X198000000Y-130550000D02*
X198000000Y-128210000D01*
X196890000Y-126300000D02*
X192110000Y-126300000D01*
X191890000Y-130550000D02*
X191000000Y-130550000D01*
X191000000Y-130550000D02*
X191000000Y-128210000D01*
D12*
X196600000Y-132200000D02*
G75*
G03X196600000Y-132200000I-100000J0D01*
G01*
D11*
X185360000Y-130550000D02*
X186250000Y-130550000D01*
X186250000Y-130550000D02*
X186250000Y-128210000D01*
X185140000Y-126300000D02*
X180360000Y-126300000D01*
X180140000Y-130550000D02*
X179250000Y-130550000D01*
X179250000Y-130550000D02*
X179250000Y-128210000D01*
D12*
X184850000Y-132200000D02*
G75*
G03X184850000Y-132200000I-100000J0D01*
G01*
D11*
X173610000Y-130550000D02*
X174500000Y-130550000D01*
X174500000Y-130550000D02*
X174500000Y-128210000D01*
X173390000Y-126300000D02*
X168610000Y-126300000D01*
X168390000Y-130550000D02*
X167500000Y-130550000D01*
X167500000Y-130550000D02*
X167500000Y-128210000D01*
D12*
X173100000Y-132200000D02*
G75*
G03X173100000Y-132200000I-100000J0D01*
G01*
D11*
X161860000Y-130550000D02*
X162750000Y-130550000D01*
X162750000Y-130550000D02*
X162750000Y-128210000D01*
X161640000Y-126300000D02*
X156860000Y-126300000D01*
X156640000Y-130550000D02*
X155750000Y-130550000D01*
X155750000Y-130550000D02*
X155750000Y-128210000D01*
D12*
X161350000Y-132200000D02*
G75*
G03X161350000Y-132200000I-100000J0D01*
G01*
D11*
X150110000Y-130550000D02*
X151000000Y-130550000D01*
X151000000Y-130550000D02*
X151000000Y-128210000D01*
X149890000Y-126300000D02*
X145110000Y-126300000D01*
X144890000Y-130550000D02*
X144000000Y-130550000D01*
X144000000Y-130550000D02*
X144000000Y-128210000D01*
D12*
X149600000Y-132200000D02*
G75*
G03X149600000Y-132200000I-100000J0D01*
G01*
D11*
X138360000Y-130550000D02*
X139250000Y-130550000D01*
X139250000Y-130550000D02*
X139250000Y-128210000D01*
X138140000Y-126300000D02*
X133360000Y-126300000D01*
X133140000Y-130550000D02*
X132250000Y-130550000D01*
X132250000Y-130550000D02*
X132250000Y-128210000D01*
D12*
X137850000Y-132200000D02*
G75*
G03X137850000Y-132200000I-100000J0D01*
G01*
D11*
X126610000Y-130550000D02*
X127500000Y-130550000D01*
X127500000Y-130550000D02*
X127500000Y-128210000D01*
X126390000Y-126300000D02*
X121610000Y-126300000D01*
X121390000Y-130550000D02*
X120500000Y-130550000D01*
X120500000Y-130550000D02*
X120500000Y-128210000D01*
D12*
X126100000Y-132200000D02*
G75*
G03X126100000Y-132200000I-100000J0D01*
G01*
D11*
X197110000Y-117050000D02*
X198000000Y-117050000D01*
X198000000Y-117050000D02*
X198000000Y-114710000D01*
X196890000Y-112800000D02*
X192110000Y-112800000D01*
X191890000Y-117050000D02*
X191000000Y-117050000D01*
X191000000Y-117050000D02*
X191000000Y-114710000D01*
D12*
X196600000Y-118700000D02*
G75*
G03X196600000Y-118700000I-100000J0D01*
G01*
D11*
X185360000Y-117050000D02*
X186250000Y-117050000D01*
X186250000Y-117050000D02*
X186250000Y-114710000D01*
X185140000Y-112800000D02*
X180360000Y-112800000D01*
X180140000Y-117050000D02*
X179250000Y-117050000D01*
X179250000Y-117050000D02*
X179250000Y-114710000D01*
D12*
X184850000Y-118700000D02*
G75*
G03X184850000Y-118700000I-100000J0D01*
G01*
D11*
X173610000Y-117050000D02*
X174500000Y-117050000D01*
X174500000Y-117050000D02*
X174500000Y-114710000D01*
X173390000Y-112800000D02*
X168610000Y-112800000D01*
X168390000Y-117050000D02*
X167500000Y-117050000D01*
X167500000Y-117050000D02*
X167500000Y-114710000D01*
D12*
X173100000Y-118700000D02*
G75*
G03X173100000Y-118700000I-100000J0D01*
G01*
D11*
X161860000Y-117050000D02*
X162750000Y-117050000D01*
X162750000Y-117050000D02*
X162750000Y-114710000D01*
X161640000Y-112800000D02*
X156860000Y-112800000D01*
X156640000Y-117050000D02*
X155750000Y-117050000D01*
X155750000Y-117050000D02*
X155750000Y-114710000D01*
D12*
X161350000Y-118700000D02*
G75*
G03X161350000Y-118700000I-100000J0D01*
G01*
D11*
X150110000Y-117050000D02*
X151000000Y-117050000D01*
X151000000Y-117050000D02*
X151000000Y-114710000D01*
X149890000Y-112800000D02*
X145110000Y-112800000D01*
X144890000Y-117050000D02*
X144000000Y-117050000D01*
X144000000Y-117050000D02*
X144000000Y-114710000D01*
D12*
X149600000Y-118700000D02*
G75*
G03X149600000Y-118700000I-100000J0D01*
G01*
D11*
X138360000Y-117050000D02*
X139250000Y-117050000D01*
X139250000Y-117050000D02*
X139250000Y-114710000D01*
X138140000Y-112800000D02*
X133360000Y-112800000D01*
X133140000Y-117050000D02*
X132250000Y-117050000D01*
X132250000Y-117050000D02*
X132250000Y-114710000D01*
D12*
X137850000Y-118700000D02*
G75*
G03X137850000Y-118700000I-100000J0D01*
G01*
D11*
X126610000Y-117050000D02*
X127500000Y-117050000D01*
X127500000Y-117050000D02*
X127500000Y-114710000D01*
X126390000Y-112800000D02*
X121610000Y-112800000D01*
X121390000Y-117050000D02*
X120500000Y-117050000D01*
X120500000Y-117050000D02*
X120500000Y-114710000D01*
D12*
X126100000Y-118700000D02*
G75*
G03X126100000Y-118700000I-100000J0D01*
G01*
D11*
X197110000Y-103550000D02*
X198000000Y-103550000D01*
X198000000Y-103550000D02*
X198000000Y-101210000D01*
X196890000Y-99300000D02*
X192110000Y-99300000D01*
X191890000Y-103550000D02*
X191000000Y-103550000D01*
X191000000Y-103550000D02*
X191000000Y-101210000D01*
D12*
X196600000Y-105200000D02*
G75*
G03X196600000Y-105200000I-100000J0D01*
G01*
D11*
X185360000Y-103550000D02*
X186250000Y-103550000D01*
X186250000Y-103550000D02*
X186250000Y-101210000D01*
X185140000Y-99300000D02*
X180360000Y-99300000D01*
X180140000Y-103550000D02*
X179250000Y-103550000D01*
X179250000Y-103550000D02*
X179250000Y-101210000D01*
D12*
X184850000Y-105200000D02*
G75*
G03X184850000Y-105200000I-100000J0D01*
G01*
D11*
X173610000Y-103550000D02*
X174500000Y-103550000D01*
X174500000Y-103550000D02*
X174500000Y-101210000D01*
X173390000Y-99300000D02*
X168610000Y-99300000D01*
X168390000Y-103550000D02*
X167500000Y-103550000D01*
X167500000Y-103550000D02*
X167500000Y-101210000D01*
D12*
X173100000Y-105200000D02*
G75*
G03X173100000Y-105200000I-100000J0D01*
G01*
D11*
X161860000Y-103550000D02*
X162750000Y-103550000D01*
X162750000Y-103550000D02*
X162750000Y-101210000D01*
X161640000Y-99300000D02*
X156860000Y-99300000D01*
X156640000Y-103550000D02*
X155750000Y-103550000D01*
X155750000Y-103550000D02*
X155750000Y-101210000D01*
D12*
X161350000Y-105200000D02*
G75*
G03X161350000Y-105200000I-100000J0D01*
G01*
D11*
X150110000Y-103550000D02*
X151000000Y-103550000D01*
X151000000Y-103550000D02*
X151000000Y-101210000D01*
X149890000Y-99300000D02*
X145110000Y-99300000D01*
X144890000Y-103550000D02*
X144000000Y-103550000D01*
X144000000Y-103550000D02*
X144000000Y-101210000D01*
D12*
X149600000Y-105200000D02*
G75*
G03X149600000Y-105200000I-100000J0D01*
G01*
D11*
X138360000Y-103550000D02*
X139250000Y-103550000D01*
X139250000Y-103550000D02*
X139250000Y-101210000D01*
X138140000Y-99300000D02*
X133360000Y-99300000D01*
X133140000Y-103550000D02*
X132250000Y-103550000D01*
X132250000Y-103550000D02*
X132250000Y-101210000D01*
D12*
X137850000Y-105200000D02*
G75*
G03X137850000Y-105200000I-100000J0D01*
G01*
D11*
X126610000Y-103550000D02*
X127500000Y-103550000D01*
X127500000Y-103550000D02*
X127500000Y-101210000D01*
X126390000Y-99300000D02*
X121610000Y-99300000D01*
X121390000Y-103550000D02*
X120500000Y-103550000D01*
X120500000Y-103550000D02*
X120500000Y-101210000D01*
D12*
X126100000Y-105200000D02*
G75*
G03X126100000Y-105200000I-100000J0D01*
G01*
D11*
X197110000Y-90050000D02*
X198000000Y-90050000D01*
X198000000Y-90050000D02*
X198000000Y-87710000D01*
X196890000Y-85800000D02*
X192110000Y-85800000D01*
X191890000Y-90050000D02*
X191000000Y-90050000D01*
X191000000Y-90050000D02*
X191000000Y-87710000D01*
D12*
X196600000Y-91700000D02*
G75*
G03X196600000Y-91700000I-100000J0D01*
G01*
D11*
X185360000Y-90050000D02*
X186250000Y-90050000D01*
X186250000Y-90050000D02*
X186250000Y-87710000D01*
X185140000Y-85800000D02*
X180360000Y-85800000D01*
X180140000Y-90050000D02*
X179250000Y-90050000D01*
X179250000Y-90050000D02*
X179250000Y-87710000D01*
D12*
X184850000Y-91700000D02*
G75*
G03X184850000Y-91700000I-100000J0D01*
G01*
D11*
X173610000Y-90050000D02*
X174500000Y-90050000D01*
X174500000Y-90050000D02*
X174500000Y-87710000D01*
X173390000Y-85800000D02*
X168610000Y-85800000D01*
X168390000Y-90050000D02*
X167500000Y-90050000D01*
X167500000Y-90050000D02*
X167500000Y-87710000D01*
D12*
X173100000Y-91700000D02*
G75*
G03X173100000Y-91700000I-100000J0D01*
G01*
D11*
X161860000Y-90050000D02*
X162750000Y-90050000D01*
X162750000Y-90050000D02*
X162750000Y-87710000D01*
X161640000Y-85800000D02*
X156860000Y-85800000D01*
X156640000Y-90050000D02*
X155750000Y-90050000D01*
X155750000Y-90050000D02*
X155750000Y-87710000D01*
D12*
X161350000Y-91700000D02*
G75*
G03X161350000Y-91700000I-100000J0D01*
G01*
D11*
X150110000Y-90050000D02*
X151000000Y-90050000D01*
X151000000Y-90050000D02*
X151000000Y-87710000D01*
X149890000Y-85800000D02*
X145110000Y-85800000D01*
X144890000Y-90050000D02*
X144000000Y-90050000D01*
X144000000Y-90050000D02*
X144000000Y-87710000D01*
D12*
X149600000Y-91700000D02*
G75*
G03X149600000Y-91700000I-100000J0D01*
G01*
D11*
X138360000Y-90050000D02*
X139250000Y-90050000D01*
X139250000Y-90050000D02*
X139250000Y-87710000D01*
X138140000Y-85800000D02*
X133360000Y-85800000D01*
X133140000Y-90050000D02*
X132250000Y-90050000D01*
X132250000Y-90050000D02*
X132250000Y-87710000D01*
D12*
X137850000Y-91700000D02*
G75*
G03X137850000Y-91700000I-100000J0D01*
G01*
D11*
X126610000Y-90050000D02*
X127500000Y-90050000D01*
X127500000Y-90050000D02*
X127500000Y-87710000D01*
X126390000Y-85800000D02*
X121610000Y-85800000D01*
X121390000Y-90050000D02*
X120500000Y-90050000D01*
X120500000Y-90050000D02*
X120500000Y-87710000D01*
D12*
X126100000Y-91700000D02*
G75*
G03X126100000Y-91700000I-100000J0D01*
G01*
D11*
X197110000Y-76550000D02*
X198000000Y-76550000D01*
X198000000Y-76550000D02*
X198000000Y-74210000D01*
X196890000Y-72300000D02*
X192110000Y-72300000D01*
X191890000Y-76550000D02*
X191000000Y-76550000D01*
X191000000Y-76550000D02*
X191000000Y-74210000D01*
D12*
X196600000Y-78200000D02*
G75*
G03X196600000Y-78200000I-100000J0D01*
G01*
D11*
X185360000Y-76550000D02*
X186250000Y-76550000D01*
X186250000Y-76550000D02*
X186250000Y-74210000D01*
X185140000Y-72300000D02*
X180360000Y-72300000D01*
X180140000Y-76550000D02*
X179250000Y-76550000D01*
X179250000Y-76550000D02*
X179250000Y-74210000D01*
D12*
X184850000Y-78200000D02*
G75*
G03X184850000Y-78200000I-100000J0D01*
G01*
D11*
X173610000Y-76550000D02*
X174500000Y-76550000D01*
X174500000Y-76550000D02*
X174500000Y-74210000D01*
X173390000Y-72300000D02*
X168610000Y-72300000D01*
X168390000Y-76550000D02*
X167500000Y-76550000D01*
X167500000Y-76550000D02*
X167500000Y-74210000D01*
D12*
X173100000Y-78200000D02*
G75*
G03X173100000Y-78200000I-100000J0D01*
G01*
D11*
X161860000Y-76550000D02*
X162750000Y-76550000D01*
X162750000Y-76550000D02*
X162750000Y-74210000D01*
X161640000Y-72300000D02*
X156860000Y-72300000D01*
X156640000Y-76550000D02*
X155750000Y-76550000D01*
X155750000Y-76550000D02*
X155750000Y-74210000D01*
D12*
X161350000Y-78200000D02*
G75*
G03X161350000Y-78200000I-100000J0D01*
G01*
D11*
X150110000Y-76550000D02*
X151000000Y-76550000D01*
X151000000Y-76550000D02*
X151000000Y-74210000D01*
X149890000Y-72300000D02*
X145110000Y-72300000D01*
X144890000Y-76550000D02*
X144000000Y-76550000D01*
X144000000Y-76550000D02*
X144000000Y-74210000D01*
D12*
X149600000Y-78200000D02*
G75*
G03X149600000Y-78200000I-100000J0D01*
G01*
D11*
X138360000Y-76550000D02*
X139250000Y-76550000D01*
X139250000Y-76550000D02*
X139250000Y-74210000D01*
X138140000Y-72300000D02*
X133360000Y-72300000D01*
X133140000Y-76550000D02*
X132250000Y-76550000D01*
X132250000Y-76550000D02*
X132250000Y-74210000D01*
D12*
X137850000Y-78200000D02*
G75*
G03X137850000Y-78200000I-100000J0D01*
G01*
X126100000Y-78200000D02*
G75*
G03X126100000Y-78200000I-100000J0D01*
G01*
D11*
X120500000Y-76550000D02*
X120500000Y-74210000D01*
X121390000Y-76550000D02*
X120500000Y-76550000D01*
X126390000Y-72300000D02*
X121610000Y-72300000D01*
X127500000Y-76550000D02*
X127500000Y-74210000D01*
X126610000Y-76550000D02*
X127500000Y-76550000D01*
D10*
X119125000Y-84530000D02*
X119125000Y-83000000D01*
X121000000Y-84530000D02*
X119125000Y-84530000D01*
X122270000Y-81730000D02*
X122270000Y-83600000D01*
X120400000Y-81730000D02*
X122270000Y-81730000D01*
X119125000Y-80460000D02*
X119125000Y-78930000D01*
X119125000Y-78930000D02*
X129225000Y-78930000D01*
X129225000Y-84530000D02*
X129225000Y-78930000D01*
X123540000Y-84530000D02*
X129225000Y-84530000D01*
M02*
