M48
; DRILL file {KiCad 5.1.0-060a0da~80~ubuntu18.04.1} date Sa 11 Mai 2019 20:46:13 CEST
; FORMAT={-:-/ absolute / inch / decimal}
; #@! TF.CreationDate,2019-05-11T20:46:13+02:00
; #@! TF.GenerationSoftware,Kicad,Pcbnew,5.1.0-060a0da~80~ubuntu18.04.1
; #@! TF.FileFunction,NonPlated,1,2,NPTH
FMAT,2
INCH
T1C0.0591
%
G90
G05
T1
X6.0965Y-4.7913
X5.6339Y-4.7913
X6.0965Y-3.1969
X5.1713Y-3.7283
X5.1713Y-5.8543
X7.4843Y-5.3228
X7.0217Y-3.1969
X6.0965Y-4.2598
X4.7087Y-5.3228
X7.0217Y-4.2598
X7.4843Y-3.7283
X7.0217Y-5.8543
X6.0965Y-5.3228
X4.7087Y-4.7913
X7.0217Y-5.3228
X6.5591Y-3.1969
X7.4843Y-3.1969
X5.1713Y-4.2598
X4.7087Y-3.7283
X5.6339Y-3.1969
X5.6339Y-5.8543
X7.4843Y-4.2598
X5.6339Y-4.2598
X7.0217Y-4.7913
X6.5591Y-4.2598
X5.1713Y-3.1969
X4.7087Y-5.8543
X6.5591Y-5.8543
X6.0965Y-3.7283
X4.7087Y-3.1969
X5.1713Y-4.7913
X5.1713Y-5.3228
X6.5591Y-5.3228
X6.0965Y-5.8543
X7.4843Y-5.8543
X4.7087Y-4.2598
X5.6339Y-5.3228
X5.6339Y-3.7283
X6.5591Y-4.7913
X7.4843Y-4.7913
X7.0217Y-3.7283
X6.5591Y-3.7283
T0
M30
