G04 #@! TF.GenerationSoftware,KiCad,Pcbnew,5.0.2-bee76a0~70~ubuntu18.04.1*
G04 #@! TF.CreationDate,2019-05-10T19:11:01+02:00*
G04 #@! TF.ProjectId,spi_connector_board_5x5_panel,7370695f-636f-46e6-9e65-63746f725f62,rev?*
G04 #@! TF.SameCoordinates,Original*
G04 #@! TF.FileFunction,Profile,NP*
%FSLAX46Y46*%
G04 Gerber Fmt 4.6, Leading zero omitted, Abs format (unit mm)*
G04 Created by KiCad (PCBNEW 5.0.2-bee76a0~70~ubuntu18.04.1) date Fr 10 Mai 2019 19:11:01 CEST*
%MOMM*%
%LPD*%
G01*
G04 APERTURE LIST*
%ADD10C,0.050000*%
G04 APERTURE END LIST*
D10*
X95072500Y-111131500D02*
X95072500Y-97631500D01*
X95072500Y-138447500D02*
X95072500Y-124947500D01*
X106822500Y-83931500D02*
X95072500Y-83931500D01*
X106822500Y-97531500D02*
X95072500Y-97531500D01*
X95072500Y-70331500D02*
X95072500Y-56831500D01*
X106822500Y-84031500D02*
X106822500Y-97531500D01*
X95072500Y-97631500D02*
X106822500Y-97631500D01*
X95072500Y-124947500D02*
X106822500Y-124947500D01*
X106822500Y-111131500D02*
X95072500Y-111131500D01*
X95072500Y-97531500D02*
X95072500Y-84031500D01*
X106822500Y-111231500D02*
X106822500Y-124731500D01*
X106822500Y-124731500D02*
X95072500Y-124731500D01*
X106822500Y-124947500D02*
X106822500Y-138447500D01*
X95072500Y-70431500D02*
X106822500Y-70431500D01*
X106822500Y-56831500D02*
X106822500Y-70331500D01*
X106822500Y-70431500D02*
X106822500Y-83931500D01*
X95072500Y-84031500D02*
X106822500Y-84031500D01*
X106822500Y-70331500D02*
X95072500Y-70331500D01*
X95072500Y-111231500D02*
X106822500Y-111231500D01*
X95072500Y-56831500D02*
X106822500Y-56831500D01*
X106822500Y-138447500D02*
X95072500Y-138447500D01*
X106822500Y-97631500D02*
X106822500Y-111131500D01*
X95072500Y-124731500D02*
X95072500Y-111231500D01*
X95072500Y-83931500D02*
X95072500Y-70431500D01*
X119078000Y-124947500D02*
X119078000Y-138447500D01*
X143393000Y-124947500D02*
X155143000Y-124947500D01*
X119078000Y-138447500D02*
X107328000Y-138447500D01*
X119393000Y-124947500D02*
X131143000Y-124947500D01*
X107328000Y-124947500D02*
X119078000Y-124947500D01*
X131143000Y-124947500D02*
X131143000Y-138447500D01*
X143143000Y-124947500D02*
X143143000Y-138447500D01*
X155143000Y-124947500D02*
X155143000Y-138447500D01*
X131393000Y-124947500D02*
X143143000Y-124947500D01*
X167143000Y-124947500D02*
X167143000Y-138447500D01*
X179143000Y-124947500D02*
X179143000Y-138447500D01*
X131143000Y-138447500D02*
X119393000Y-138447500D01*
X143143000Y-138447500D02*
X131393000Y-138447500D01*
X155143000Y-138447500D02*
X143393000Y-138447500D01*
X167143000Y-138447500D02*
X155393000Y-138447500D01*
X179143000Y-138447500D02*
X167393000Y-138447500D01*
X119393000Y-138447500D02*
X119393000Y-124947500D01*
X131393000Y-138447500D02*
X131393000Y-124947500D01*
X143393000Y-138447500D02*
X143393000Y-124947500D01*
X155393000Y-138447500D02*
X155393000Y-124947500D01*
X167393000Y-138447500D02*
X167393000Y-124947500D01*
X155393000Y-124947500D02*
X167143000Y-124947500D01*
X107328000Y-138447500D02*
X107328000Y-124947500D01*
X167393000Y-124947500D02*
X179143000Y-124947500D01*
X119078000Y-97631500D02*
X119078000Y-111131500D01*
X107328000Y-84031500D02*
X119078000Y-84031500D01*
X119078000Y-84031500D02*
X119078000Y-97531500D01*
X107328000Y-97631500D02*
X119078000Y-97631500D01*
X107328000Y-111231500D02*
X119078000Y-111231500D01*
X119078000Y-70431500D02*
X119078000Y-83931500D01*
X107328000Y-70331500D02*
X107328000Y-56831500D01*
X119078000Y-70331500D02*
X107328000Y-70331500D01*
X119078000Y-111231500D02*
X119078000Y-124731500D01*
X107328000Y-70431500D02*
X119078000Y-70431500D01*
X119078000Y-83931500D02*
X107328000Y-83931500D01*
X119078000Y-97531500D02*
X107328000Y-97531500D01*
X119078000Y-111131500D02*
X107328000Y-111131500D01*
X119078000Y-124731500D02*
X107328000Y-124731500D01*
X107328000Y-83931500D02*
X107328000Y-70431500D01*
X107328000Y-97531500D02*
X107328000Y-84031500D01*
X107328000Y-111131500D02*
X107328000Y-97631500D01*
X107328000Y-124731500D02*
X107328000Y-111231500D01*
X119078000Y-56831500D02*
X119078000Y-70331500D01*
X107328000Y-56831500D02*
X119078000Y-56831500D01*
X167393000Y-124731500D02*
X167393000Y-111231500D01*
X155393000Y-124731500D02*
X155393000Y-111231500D01*
X143393000Y-124731500D02*
X143393000Y-111231500D01*
X131393000Y-124731500D02*
X131393000Y-111231500D01*
X119393000Y-124731500D02*
X119393000Y-111231500D01*
X167393000Y-111131500D02*
X167393000Y-97631500D01*
X155393000Y-111131500D02*
X155393000Y-97631500D01*
X143393000Y-111131500D02*
X143393000Y-97631500D01*
X131393000Y-111131500D02*
X131393000Y-97631500D01*
X119393000Y-111131500D02*
X119393000Y-97631500D01*
X167393000Y-97531500D02*
X167393000Y-84031500D01*
X155393000Y-97531500D02*
X155393000Y-84031500D01*
X143393000Y-97531500D02*
X143393000Y-84031500D01*
X131393000Y-97531500D02*
X131393000Y-84031500D01*
X119393000Y-97531500D02*
X119393000Y-84031500D01*
X167393000Y-83931500D02*
X167393000Y-70431500D01*
X155393000Y-83931500D02*
X155393000Y-70431500D01*
X143393000Y-83931500D02*
X143393000Y-70431500D01*
X131393000Y-83931500D02*
X131393000Y-70431500D01*
X119393000Y-83931500D02*
X119393000Y-70431500D01*
X167393000Y-70331500D02*
X167393000Y-56831500D01*
X155393000Y-70331500D02*
X155393000Y-56831500D01*
X143393000Y-70331500D02*
X143393000Y-56831500D01*
X131393000Y-70331500D02*
X131393000Y-56831500D01*
X179143000Y-124731500D02*
X167393000Y-124731500D01*
X167143000Y-124731500D02*
X155393000Y-124731500D01*
X155143000Y-124731500D02*
X143393000Y-124731500D01*
X143143000Y-124731500D02*
X131393000Y-124731500D01*
X131143000Y-124731500D02*
X119393000Y-124731500D01*
X179143000Y-111131500D02*
X167393000Y-111131500D01*
X167143000Y-111131500D02*
X155393000Y-111131500D01*
X155143000Y-111131500D02*
X143393000Y-111131500D01*
X143143000Y-111131500D02*
X131393000Y-111131500D01*
X131143000Y-111131500D02*
X119393000Y-111131500D01*
X179143000Y-97531500D02*
X167393000Y-97531500D01*
X167143000Y-97531500D02*
X155393000Y-97531500D01*
X155143000Y-97531500D02*
X143393000Y-97531500D01*
X143143000Y-97531500D02*
X131393000Y-97531500D01*
X131143000Y-97531500D02*
X119393000Y-97531500D01*
X179143000Y-83931500D02*
X167393000Y-83931500D01*
X167143000Y-83931500D02*
X155393000Y-83931500D01*
X155143000Y-83931500D02*
X143393000Y-83931500D01*
X143143000Y-83931500D02*
X131393000Y-83931500D01*
X131143000Y-83931500D02*
X119393000Y-83931500D01*
X179143000Y-70331500D02*
X167393000Y-70331500D01*
X167143000Y-70331500D02*
X155393000Y-70331500D01*
X155143000Y-70331500D02*
X143393000Y-70331500D01*
X143143000Y-70331500D02*
X131393000Y-70331500D01*
X179143000Y-111231500D02*
X179143000Y-124731500D01*
X167143000Y-111231500D02*
X167143000Y-124731500D01*
X155143000Y-111231500D02*
X155143000Y-124731500D01*
X143143000Y-111231500D02*
X143143000Y-124731500D01*
X131143000Y-111231500D02*
X131143000Y-124731500D01*
X179143000Y-97631500D02*
X179143000Y-111131500D01*
X167143000Y-97631500D02*
X167143000Y-111131500D01*
X155143000Y-97631500D02*
X155143000Y-111131500D01*
X143143000Y-97631500D02*
X143143000Y-111131500D01*
X131143000Y-97631500D02*
X131143000Y-111131500D01*
X179143000Y-84031500D02*
X179143000Y-97531500D01*
X167143000Y-84031500D02*
X167143000Y-97531500D01*
X155143000Y-84031500D02*
X155143000Y-97531500D01*
X143143000Y-84031500D02*
X143143000Y-97531500D01*
X131143000Y-84031500D02*
X131143000Y-97531500D01*
X179143000Y-70431500D02*
X179143000Y-83931500D01*
X167143000Y-70431500D02*
X167143000Y-83931500D01*
X155143000Y-70431500D02*
X155143000Y-83931500D01*
X143143000Y-70431500D02*
X143143000Y-83931500D01*
X131143000Y-70431500D02*
X131143000Y-83931500D01*
X179143000Y-56831500D02*
X179143000Y-70331500D01*
X167143000Y-56831500D02*
X167143000Y-70331500D01*
X155143000Y-56831500D02*
X155143000Y-70331500D01*
X143143000Y-56831500D02*
X143143000Y-70331500D01*
X167393000Y-111231500D02*
X179143000Y-111231500D01*
X155393000Y-111231500D02*
X167143000Y-111231500D01*
X143393000Y-111231500D02*
X155143000Y-111231500D01*
X131393000Y-111231500D02*
X143143000Y-111231500D01*
X119393000Y-111231500D02*
X131143000Y-111231500D01*
X167393000Y-97631500D02*
X179143000Y-97631500D01*
X155393000Y-97631500D02*
X167143000Y-97631500D01*
X143393000Y-97631500D02*
X155143000Y-97631500D01*
X131393000Y-97631500D02*
X143143000Y-97631500D01*
X119393000Y-97631500D02*
X131143000Y-97631500D01*
X167393000Y-84031500D02*
X179143000Y-84031500D01*
X155393000Y-84031500D02*
X167143000Y-84031500D01*
X143393000Y-84031500D02*
X155143000Y-84031500D01*
X131393000Y-84031500D02*
X143143000Y-84031500D01*
X119393000Y-84031500D02*
X131143000Y-84031500D01*
X167393000Y-70431500D02*
X179143000Y-70431500D01*
X155393000Y-70431500D02*
X167143000Y-70431500D01*
X143393000Y-70431500D02*
X155143000Y-70431500D01*
X131393000Y-70431500D02*
X143143000Y-70431500D01*
X119393000Y-70431500D02*
X131143000Y-70431500D01*
X167393000Y-56831500D02*
X179143000Y-56831500D01*
X155393000Y-56831500D02*
X167143000Y-56831500D01*
X143393000Y-56831500D02*
X155143000Y-56831500D01*
X131393000Y-56831500D02*
X143143000Y-56831500D01*
X119393000Y-70331500D02*
X119393000Y-56831500D01*
X131143000Y-70331500D02*
X119393000Y-70331500D01*
X131143000Y-56831500D02*
X131143000Y-70331500D01*
X119393000Y-56831500D02*
X131143000Y-56831500D01*
M02*
