G04 #@! TF.GenerationSoftware,KiCad,Pcbnew,5.0.2-bee76a0~70~ubuntu18.04.1*
G04 #@! TF.CreationDate,2019-05-10T19:11:01+02:00*
G04 #@! TF.ProjectId,spi_connector_board_5x5_panel,7370695f-636f-46e6-9e65-63746f725f62,rev?*
G04 #@! TF.SameCoordinates,Original*
G04 #@! TF.FileFunction,Other,Comment*
%FSLAX46Y46*%
G04 Gerber Fmt 4.6, Leading zero omitted, Abs format (unit mm)*
G04 Created by KiCad (PCBNEW 5.0.2-bee76a0~70~ubuntu18.04.1) date Fr 10 Mai 2019 19:11:01 CEST*
%MOMM*%
%LPD*%
G01*
G04 APERTURE LIST*
%ADD10C,0.300000*%
%ADD11C,0.200000*%
G04 APERTURE END LIST*
D10*
X181709857Y-122876571D02*
X182209857Y-124376571D01*
X182709857Y-122876571D01*
X183209857Y-123805142D02*
X184352714Y-123805142D01*
X184995571Y-124305142D02*
X185209857Y-124376571D01*
X185567000Y-124376571D01*
X185709857Y-124305142D01*
X185781285Y-124233714D01*
X185852714Y-124090857D01*
X185852714Y-123948000D01*
X185781285Y-123805142D01*
X185709857Y-123733714D01*
X185567000Y-123662285D01*
X185281285Y-123590857D01*
X185138428Y-123519428D01*
X185067000Y-123448000D01*
X184995571Y-123305142D01*
X184995571Y-123162285D01*
X185067000Y-123019428D01*
X185138428Y-122948000D01*
X185281285Y-122876571D01*
X185638428Y-122876571D01*
X185852714Y-122948000D01*
X187352714Y-124233714D02*
X187281285Y-124305142D01*
X187067000Y-124376571D01*
X186924142Y-124376571D01*
X186709857Y-124305142D01*
X186567000Y-124162285D01*
X186495571Y-124019428D01*
X186424142Y-123733714D01*
X186424142Y-123519428D01*
X186495571Y-123233714D01*
X186567000Y-123090857D01*
X186709857Y-122948000D01*
X186924142Y-122876571D01*
X187067000Y-122876571D01*
X187281285Y-122948000D01*
X187352714Y-123019428D01*
X188281285Y-122876571D02*
X188567000Y-122876571D01*
X188709857Y-122948000D01*
X188852714Y-123090857D01*
X188924142Y-123376571D01*
X188924142Y-123876571D01*
X188852714Y-124162285D01*
X188709857Y-124305142D01*
X188567000Y-124376571D01*
X188281285Y-124376571D01*
X188138428Y-124305142D01*
X187995571Y-124162285D01*
X187924142Y-123876571D01*
X187924142Y-123376571D01*
X187995571Y-123090857D01*
X188138428Y-122948000D01*
X188281285Y-122876571D01*
X190424142Y-124376571D02*
X189924142Y-123662285D01*
X189567000Y-124376571D02*
X189567000Y-122876571D01*
X190138428Y-122876571D01*
X190281285Y-122948000D01*
X190352714Y-123019428D01*
X190424142Y-123162285D01*
X190424142Y-123376571D01*
X190352714Y-123519428D01*
X190281285Y-123590857D01*
X190138428Y-123662285D01*
X189567000Y-123662285D01*
X191067000Y-123590857D02*
X191567000Y-123590857D01*
X191781285Y-124376571D02*
X191067000Y-124376571D01*
X191067000Y-122876571D01*
X191781285Y-122876571D01*
D11*
X116332000Y-124841000D02*
X191897000Y-124841000D01*
D10*
X105033071Y-54573642D02*
X106533071Y-54073642D01*
X105033071Y-53573642D01*
X105961642Y-53073642D02*
X105961642Y-51930785D01*
X106461642Y-51287928D02*
X106533071Y-51073642D01*
X106533071Y-50716500D01*
X106461642Y-50573642D01*
X106390214Y-50502214D01*
X106247357Y-50430785D01*
X106104500Y-50430785D01*
X105961642Y-50502214D01*
X105890214Y-50573642D01*
X105818785Y-50716500D01*
X105747357Y-51002214D01*
X105675928Y-51145071D01*
X105604500Y-51216500D01*
X105461642Y-51287928D01*
X105318785Y-51287928D01*
X105175928Y-51216500D01*
X105104500Y-51145071D01*
X105033071Y-51002214D01*
X105033071Y-50645071D01*
X105104500Y-50430785D01*
X106390214Y-48930785D02*
X106461642Y-49002214D01*
X106533071Y-49216500D01*
X106533071Y-49359357D01*
X106461642Y-49573642D01*
X106318785Y-49716500D01*
X106175928Y-49787928D01*
X105890214Y-49859357D01*
X105675928Y-49859357D01*
X105390214Y-49787928D01*
X105247357Y-49716500D01*
X105104500Y-49573642D01*
X105033071Y-49359357D01*
X105033071Y-49216500D01*
X105104500Y-49002214D01*
X105175928Y-48930785D01*
X105033071Y-48002214D02*
X105033071Y-47716500D01*
X105104500Y-47573642D01*
X105247357Y-47430785D01*
X105533071Y-47359357D01*
X106033071Y-47359357D01*
X106318785Y-47430785D01*
X106461642Y-47573642D01*
X106533071Y-47716500D01*
X106533071Y-48002214D01*
X106461642Y-48145071D01*
X106318785Y-48287928D01*
X106033071Y-48359357D01*
X105533071Y-48359357D01*
X105247357Y-48287928D01*
X105104500Y-48145071D01*
X105033071Y-48002214D01*
X106533071Y-45859357D02*
X105818785Y-46359357D01*
X106533071Y-46716500D02*
X105033071Y-46716500D01*
X105033071Y-46145071D01*
X105104500Y-46002214D01*
X105175928Y-45930785D01*
X105318785Y-45859357D01*
X105533071Y-45859357D01*
X105675928Y-45930785D01*
X105747357Y-46002214D01*
X105818785Y-46145071D01*
X105818785Y-46716500D01*
X105747357Y-45216500D02*
X105747357Y-44716500D01*
X106533071Y-44502214D02*
X106533071Y-45216500D01*
X105033071Y-45216500D01*
X105033071Y-44502214D01*
D11*
X106997500Y-130302000D02*
X106997500Y-44386500D01*
X119189500Y-130111500D02*
X119189500Y-44196000D01*
D10*
X117225071Y-54383142D02*
X118725071Y-53883142D01*
X117225071Y-53383142D01*
X118153642Y-52883142D02*
X118153642Y-51740285D01*
X118653642Y-51097428D02*
X118725071Y-50883142D01*
X118725071Y-50526000D01*
X118653642Y-50383142D01*
X118582214Y-50311714D01*
X118439357Y-50240285D01*
X118296500Y-50240285D01*
X118153642Y-50311714D01*
X118082214Y-50383142D01*
X118010785Y-50526000D01*
X117939357Y-50811714D01*
X117867928Y-50954571D01*
X117796500Y-51026000D01*
X117653642Y-51097428D01*
X117510785Y-51097428D01*
X117367928Y-51026000D01*
X117296500Y-50954571D01*
X117225071Y-50811714D01*
X117225071Y-50454571D01*
X117296500Y-50240285D01*
X118582214Y-48740285D02*
X118653642Y-48811714D01*
X118725071Y-49026000D01*
X118725071Y-49168857D01*
X118653642Y-49383142D01*
X118510785Y-49526000D01*
X118367928Y-49597428D01*
X118082214Y-49668857D01*
X117867928Y-49668857D01*
X117582214Y-49597428D01*
X117439357Y-49526000D01*
X117296500Y-49383142D01*
X117225071Y-49168857D01*
X117225071Y-49026000D01*
X117296500Y-48811714D01*
X117367928Y-48740285D01*
X117225071Y-47811714D02*
X117225071Y-47526000D01*
X117296500Y-47383142D01*
X117439357Y-47240285D01*
X117725071Y-47168857D01*
X118225071Y-47168857D01*
X118510785Y-47240285D01*
X118653642Y-47383142D01*
X118725071Y-47526000D01*
X118725071Y-47811714D01*
X118653642Y-47954571D01*
X118510785Y-48097428D01*
X118225071Y-48168857D01*
X117725071Y-48168857D01*
X117439357Y-48097428D01*
X117296500Y-47954571D01*
X117225071Y-47811714D01*
X118725071Y-45668857D02*
X118010785Y-46168857D01*
X118725071Y-46526000D02*
X117225071Y-46526000D01*
X117225071Y-45954571D01*
X117296500Y-45811714D01*
X117367928Y-45740285D01*
X117510785Y-45668857D01*
X117725071Y-45668857D01*
X117867928Y-45740285D01*
X117939357Y-45811714D01*
X118010785Y-45954571D01*
X118010785Y-46526000D01*
X117939357Y-45026000D02*
X117939357Y-44526000D01*
X118725071Y-44311714D02*
X118725071Y-45026000D01*
X117225071Y-45026000D01*
X117225071Y-44311714D01*
X165294571Y-53938642D02*
X166794571Y-53438642D01*
X165294571Y-52938642D01*
X166223142Y-52438642D02*
X166223142Y-51295785D01*
X166723142Y-50652928D02*
X166794571Y-50438642D01*
X166794571Y-50081500D01*
X166723142Y-49938642D01*
X166651714Y-49867214D01*
X166508857Y-49795785D01*
X166366000Y-49795785D01*
X166223142Y-49867214D01*
X166151714Y-49938642D01*
X166080285Y-50081500D01*
X166008857Y-50367214D01*
X165937428Y-50510071D01*
X165866000Y-50581500D01*
X165723142Y-50652928D01*
X165580285Y-50652928D01*
X165437428Y-50581500D01*
X165366000Y-50510071D01*
X165294571Y-50367214D01*
X165294571Y-50010071D01*
X165366000Y-49795785D01*
X166651714Y-48295785D02*
X166723142Y-48367214D01*
X166794571Y-48581500D01*
X166794571Y-48724357D01*
X166723142Y-48938642D01*
X166580285Y-49081500D01*
X166437428Y-49152928D01*
X166151714Y-49224357D01*
X165937428Y-49224357D01*
X165651714Y-49152928D01*
X165508857Y-49081500D01*
X165366000Y-48938642D01*
X165294571Y-48724357D01*
X165294571Y-48581500D01*
X165366000Y-48367214D01*
X165437428Y-48295785D01*
X165294571Y-47367214D02*
X165294571Y-47081500D01*
X165366000Y-46938642D01*
X165508857Y-46795785D01*
X165794571Y-46724357D01*
X166294571Y-46724357D01*
X166580285Y-46795785D01*
X166723142Y-46938642D01*
X166794571Y-47081500D01*
X166794571Y-47367214D01*
X166723142Y-47510071D01*
X166580285Y-47652928D01*
X166294571Y-47724357D01*
X165794571Y-47724357D01*
X165508857Y-47652928D01*
X165366000Y-47510071D01*
X165294571Y-47367214D01*
X166794571Y-45224357D02*
X166080285Y-45724357D01*
X166794571Y-46081500D02*
X165294571Y-46081500D01*
X165294571Y-45510071D01*
X165366000Y-45367214D01*
X165437428Y-45295785D01*
X165580285Y-45224357D01*
X165794571Y-45224357D01*
X165937428Y-45295785D01*
X166008857Y-45367214D01*
X166080285Y-45510071D01*
X166080285Y-46081500D01*
X166008857Y-44581500D02*
X166008857Y-44081500D01*
X166794571Y-43867214D02*
X166794571Y-44581500D01*
X165294571Y-44581500D01*
X165294571Y-43867214D01*
D11*
X167259000Y-129667000D02*
X167259000Y-43751500D01*
D10*
X153293071Y-53875142D02*
X154793071Y-53375142D01*
X153293071Y-52875142D01*
X154221642Y-52375142D02*
X154221642Y-51232285D01*
X154721642Y-50589428D02*
X154793071Y-50375142D01*
X154793071Y-50018000D01*
X154721642Y-49875142D01*
X154650214Y-49803714D01*
X154507357Y-49732285D01*
X154364500Y-49732285D01*
X154221642Y-49803714D01*
X154150214Y-49875142D01*
X154078785Y-50018000D01*
X154007357Y-50303714D01*
X153935928Y-50446571D01*
X153864500Y-50518000D01*
X153721642Y-50589428D01*
X153578785Y-50589428D01*
X153435928Y-50518000D01*
X153364500Y-50446571D01*
X153293071Y-50303714D01*
X153293071Y-49946571D01*
X153364500Y-49732285D01*
X154650214Y-48232285D02*
X154721642Y-48303714D01*
X154793071Y-48518000D01*
X154793071Y-48660857D01*
X154721642Y-48875142D01*
X154578785Y-49018000D01*
X154435928Y-49089428D01*
X154150214Y-49160857D01*
X153935928Y-49160857D01*
X153650214Y-49089428D01*
X153507357Y-49018000D01*
X153364500Y-48875142D01*
X153293071Y-48660857D01*
X153293071Y-48518000D01*
X153364500Y-48303714D01*
X153435928Y-48232285D01*
X153293071Y-47303714D02*
X153293071Y-47018000D01*
X153364500Y-46875142D01*
X153507357Y-46732285D01*
X153793071Y-46660857D01*
X154293071Y-46660857D01*
X154578785Y-46732285D01*
X154721642Y-46875142D01*
X154793071Y-47018000D01*
X154793071Y-47303714D01*
X154721642Y-47446571D01*
X154578785Y-47589428D01*
X154293071Y-47660857D01*
X153793071Y-47660857D01*
X153507357Y-47589428D01*
X153364500Y-47446571D01*
X153293071Y-47303714D01*
X154793071Y-45160857D02*
X154078785Y-45660857D01*
X154793071Y-46018000D02*
X153293071Y-46018000D01*
X153293071Y-45446571D01*
X153364500Y-45303714D01*
X153435928Y-45232285D01*
X153578785Y-45160857D01*
X153793071Y-45160857D01*
X153935928Y-45232285D01*
X154007357Y-45303714D01*
X154078785Y-45446571D01*
X154078785Y-46018000D01*
X154007357Y-44518000D02*
X154007357Y-44018000D01*
X154793071Y-43803714D02*
X154793071Y-44518000D01*
X153293071Y-44518000D01*
X153293071Y-43803714D01*
D11*
X155257500Y-129603500D02*
X155257500Y-43688000D01*
X143256000Y-129730500D02*
X143256000Y-43815000D01*
D10*
X141291571Y-54002142D02*
X142791571Y-53502142D01*
X141291571Y-53002142D01*
X142220142Y-52502142D02*
X142220142Y-51359285D01*
X142720142Y-50716428D02*
X142791571Y-50502142D01*
X142791571Y-50145000D01*
X142720142Y-50002142D01*
X142648714Y-49930714D01*
X142505857Y-49859285D01*
X142363000Y-49859285D01*
X142220142Y-49930714D01*
X142148714Y-50002142D01*
X142077285Y-50145000D01*
X142005857Y-50430714D01*
X141934428Y-50573571D01*
X141863000Y-50645000D01*
X141720142Y-50716428D01*
X141577285Y-50716428D01*
X141434428Y-50645000D01*
X141363000Y-50573571D01*
X141291571Y-50430714D01*
X141291571Y-50073571D01*
X141363000Y-49859285D01*
X142648714Y-48359285D02*
X142720142Y-48430714D01*
X142791571Y-48645000D01*
X142791571Y-48787857D01*
X142720142Y-49002142D01*
X142577285Y-49145000D01*
X142434428Y-49216428D01*
X142148714Y-49287857D01*
X141934428Y-49287857D01*
X141648714Y-49216428D01*
X141505857Y-49145000D01*
X141363000Y-49002142D01*
X141291571Y-48787857D01*
X141291571Y-48645000D01*
X141363000Y-48430714D01*
X141434428Y-48359285D01*
X141291571Y-47430714D02*
X141291571Y-47145000D01*
X141363000Y-47002142D01*
X141505857Y-46859285D01*
X141791571Y-46787857D01*
X142291571Y-46787857D01*
X142577285Y-46859285D01*
X142720142Y-47002142D01*
X142791571Y-47145000D01*
X142791571Y-47430714D01*
X142720142Y-47573571D01*
X142577285Y-47716428D01*
X142291571Y-47787857D01*
X141791571Y-47787857D01*
X141505857Y-47716428D01*
X141363000Y-47573571D01*
X141291571Y-47430714D01*
X142791571Y-45287857D02*
X142077285Y-45787857D01*
X142791571Y-46145000D02*
X141291571Y-46145000D01*
X141291571Y-45573571D01*
X141363000Y-45430714D01*
X141434428Y-45359285D01*
X141577285Y-45287857D01*
X141791571Y-45287857D01*
X141934428Y-45359285D01*
X142005857Y-45430714D01*
X142077285Y-45573571D01*
X142077285Y-46145000D01*
X142005857Y-44645000D02*
X142005857Y-44145000D01*
X142791571Y-43930714D02*
X142791571Y-44645000D01*
X141291571Y-44645000D01*
X141291571Y-43930714D01*
X129290071Y-54065642D02*
X130790071Y-53565642D01*
X129290071Y-53065642D01*
X130218642Y-52565642D02*
X130218642Y-51422785D01*
X130718642Y-50779928D02*
X130790071Y-50565642D01*
X130790071Y-50208500D01*
X130718642Y-50065642D01*
X130647214Y-49994214D01*
X130504357Y-49922785D01*
X130361500Y-49922785D01*
X130218642Y-49994214D01*
X130147214Y-50065642D01*
X130075785Y-50208500D01*
X130004357Y-50494214D01*
X129932928Y-50637071D01*
X129861500Y-50708500D01*
X129718642Y-50779928D01*
X129575785Y-50779928D01*
X129432928Y-50708500D01*
X129361500Y-50637071D01*
X129290071Y-50494214D01*
X129290071Y-50137071D01*
X129361500Y-49922785D01*
X130647214Y-48422785D02*
X130718642Y-48494214D01*
X130790071Y-48708500D01*
X130790071Y-48851357D01*
X130718642Y-49065642D01*
X130575785Y-49208500D01*
X130432928Y-49279928D01*
X130147214Y-49351357D01*
X129932928Y-49351357D01*
X129647214Y-49279928D01*
X129504357Y-49208500D01*
X129361500Y-49065642D01*
X129290071Y-48851357D01*
X129290071Y-48708500D01*
X129361500Y-48494214D01*
X129432928Y-48422785D01*
X129290071Y-47494214D02*
X129290071Y-47208500D01*
X129361500Y-47065642D01*
X129504357Y-46922785D01*
X129790071Y-46851357D01*
X130290071Y-46851357D01*
X130575785Y-46922785D01*
X130718642Y-47065642D01*
X130790071Y-47208500D01*
X130790071Y-47494214D01*
X130718642Y-47637071D01*
X130575785Y-47779928D01*
X130290071Y-47851357D01*
X129790071Y-47851357D01*
X129504357Y-47779928D01*
X129361500Y-47637071D01*
X129290071Y-47494214D01*
X130790071Y-45351357D02*
X130075785Y-45851357D01*
X130790071Y-46208500D02*
X129290071Y-46208500D01*
X129290071Y-45637071D01*
X129361500Y-45494214D01*
X129432928Y-45422785D01*
X129575785Y-45351357D01*
X129790071Y-45351357D01*
X129932928Y-45422785D01*
X130004357Y-45494214D01*
X130075785Y-45637071D01*
X130075785Y-46208500D01*
X130004357Y-44708500D02*
X130004357Y-44208500D01*
X130790071Y-43994214D02*
X130790071Y-44708500D01*
X129290071Y-44708500D01*
X129290071Y-43994214D01*
D11*
X131254500Y-129794000D02*
X131254500Y-43878500D01*
D10*
X181519357Y-109224071D02*
X182019357Y-110724071D01*
X182519357Y-109224071D01*
X183019357Y-110152642D02*
X184162214Y-110152642D01*
X184805071Y-110652642D02*
X185019357Y-110724071D01*
X185376500Y-110724071D01*
X185519357Y-110652642D01*
X185590785Y-110581214D01*
X185662214Y-110438357D01*
X185662214Y-110295500D01*
X185590785Y-110152642D01*
X185519357Y-110081214D01*
X185376500Y-110009785D01*
X185090785Y-109938357D01*
X184947928Y-109866928D01*
X184876500Y-109795500D01*
X184805071Y-109652642D01*
X184805071Y-109509785D01*
X184876500Y-109366928D01*
X184947928Y-109295500D01*
X185090785Y-109224071D01*
X185447928Y-109224071D01*
X185662214Y-109295500D01*
X187162214Y-110581214D02*
X187090785Y-110652642D01*
X186876500Y-110724071D01*
X186733642Y-110724071D01*
X186519357Y-110652642D01*
X186376500Y-110509785D01*
X186305071Y-110366928D01*
X186233642Y-110081214D01*
X186233642Y-109866928D01*
X186305071Y-109581214D01*
X186376500Y-109438357D01*
X186519357Y-109295500D01*
X186733642Y-109224071D01*
X186876500Y-109224071D01*
X187090785Y-109295500D01*
X187162214Y-109366928D01*
X188090785Y-109224071D02*
X188376500Y-109224071D01*
X188519357Y-109295500D01*
X188662214Y-109438357D01*
X188733642Y-109724071D01*
X188733642Y-110224071D01*
X188662214Y-110509785D01*
X188519357Y-110652642D01*
X188376500Y-110724071D01*
X188090785Y-110724071D01*
X187947928Y-110652642D01*
X187805071Y-110509785D01*
X187733642Y-110224071D01*
X187733642Y-109724071D01*
X187805071Y-109438357D01*
X187947928Y-109295500D01*
X188090785Y-109224071D01*
X190233642Y-110724071D02*
X189733642Y-110009785D01*
X189376500Y-110724071D02*
X189376500Y-109224071D01*
X189947928Y-109224071D01*
X190090785Y-109295500D01*
X190162214Y-109366928D01*
X190233642Y-109509785D01*
X190233642Y-109724071D01*
X190162214Y-109866928D01*
X190090785Y-109938357D01*
X189947928Y-110009785D01*
X189376500Y-110009785D01*
X190876500Y-109938357D02*
X191376500Y-109938357D01*
X191590785Y-110724071D02*
X190876500Y-110724071D01*
X190876500Y-109224071D01*
X191590785Y-109224071D01*
D11*
X116141500Y-111188500D02*
X191706500Y-111188500D01*
X116332000Y-97599500D02*
X191897000Y-97599500D01*
D10*
X181709857Y-95635071D02*
X182209857Y-97135071D01*
X182709857Y-95635071D01*
X183209857Y-96563642D02*
X184352714Y-96563642D01*
X184995571Y-97063642D02*
X185209857Y-97135071D01*
X185567000Y-97135071D01*
X185709857Y-97063642D01*
X185781285Y-96992214D01*
X185852714Y-96849357D01*
X185852714Y-96706500D01*
X185781285Y-96563642D01*
X185709857Y-96492214D01*
X185567000Y-96420785D01*
X185281285Y-96349357D01*
X185138428Y-96277928D01*
X185067000Y-96206500D01*
X184995571Y-96063642D01*
X184995571Y-95920785D01*
X185067000Y-95777928D01*
X185138428Y-95706500D01*
X185281285Y-95635071D01*
X185638428Y-95635071D01*
X185852714Y-95706500D01*
X187352714Y-96992214D02*
X187281285Y-97063642D01*
X187067000Y-97135071D01*
X186924142Y-97135071D01*
X186709857Y-97063642D01*
X186567000Y-96920785D01*
X186495571Y-96777928D01*
X186424142Y-96492214D01*
X186424142Y-96277928D01*
X186495571Y-95992214D01*
X186567000Y-95849357D01*
X186709857Y-95706500D01*
X186924142Y-95635071D01*
X187067000Y-95635071D01*
X187281285Y-95706500D01*
X187352714Y-95777928D01*
X188281285Y-95635071D02*
X188567000Y-95635071D01*
X188709857Y-95706500D01*
X188852714Y-95849357D01*
X188924142Y-96135071D01*
X188924142Y-96635071D01*
X188852714Y-96920785D01*
X188709857Y-97063642D01*
X188567000Y-97135071D01*
X188281285Y-97135071D01*
X188138428Y-97063642D01*
X187995571Y-96920785D01*
X187924142Y-96635071D01*
X187924142Y-96135071D01*
X187995571Y-95849357D01*
X188138428Y-95706500D01*
X188281285Y-95635071D01*
X190424142Y-97135071D02*
X189924142Y-96420785D01*
X189567000Y-97135071D02*
X189567000Y-95635071D01*
X190138428Y-95635071D01*
X190281285Y-95706500D01*
X190352714Y-95777928D01*
X190424142Y-95920785D01*
X190424142Y-96135071D01*
X190352714Y-96277928D01*
X190281285Y-96349357D01*
X190138428Y-96420785D01*
X189567000Y-96420785D01*
X191067000Y-96349357D02*
X191567000Y-96349357D01*
X191781285Y-97135071D02*
X191067000Y-97135071D01*
X191067000Y-95635071D01*
X191781285Y-95635071D01*
X182027357Y-81982571D02*
X182527357Y-83482571D01*
X183027357Y-81982571D01*
X183527357Y-82911142D02*
X184670214Y-82911142D01*
X185313071Y-83411142D02*
X185527357Y-83482571D01*
X185884500Y-83482571D01*
X186027357Y-83411142D01*
X186098785Y-83339714D01*
X186170214Y-83196857D01*
X186170214Y-83054000D01*
X186098785Y-82911142D01*
X186027357Y-82839714D01*
X185884500Y-82768285D01*
X185598785Y-82696857D01*
X185455928Y-82625428D01*
X185384500Y-82554000D01*
X185313071Y-82411142D01*
X185313071Y-82268285D01*
X185384500Y-82125428D01*
X185455928Y-82054000D01*
X185598785Y-81982571D01*
X185955928Y-81982571D01*
X186170214Y-82054000D01*
X187670214Y-83339714D02*
X187598785Y-83411142D01*
X187384500Y-83482571D01*
X187241642Y-83482571D01*
X187027357Y-83411142D01*
X186884500Y-83268285D01*
X186813071Y-83125428D01*
X186741642Y-82839714D01*
X186741642Y-82625428D01*
X186813071Y-82339714D01*
X186884500Y-82196857D01*
X187027357Y-82054000D01*
X187241642Y-81982571D01*
X187384500Y-81982571D01*
X187598785Y-82054000D01*
X187670214Y-82125428D01*
X188598785Y-81982571D02*
X188884500Y-81982571D01*
X189027357Y-82054000D01*
X189170214Y-82196857D01*
X189241642Y-82482571D01*
X189241642Y-82982571D01*
X189170214Y-83268285D01*
X189027357Y-83411142D01*
X188884500Y-83482571D01*
X188598785Y-83482571D01*
X188455928Y-83411142D01*
X188313071Y-83268285D01*
X188241642Y-82982571D01*
X188241642Y-82482571D01*
X188313071Y-82196857D01*
X188455928Y-82054000D01*
X188598785Y-81982571D01*
X190741642Y-83482571D02*
X190241642Y-82768285D01*
X189884500Y-83482571D02*
X189884500Y-81982571D01*
X190455928Y-81982571D01*
X190598785Y-82054000D01*
X190670214Y-82125428D01*
X190741642Y-82268285D01*
X190741642Y-82482571D01*
X190670214Y-82625428D01*
X190598785Y-82696857D01*
X190455928Y-82768285D01*
X189884500Y-82768285D01*
X191384500Y-82696857D02*
X191884500Y-82696857D01*
X192098785Y-83482571D02*
X191384500Y-83482571D01*
X191384500Y-81982571D01*
X192098785Y-81982571D01*
D11*
X116649500Y-83947000D02*
X192214500Y-83947000D01*
D10*
X182281357Y-68393571D02*
X182781357Y-69893571D01*
X183281357Y-68393571D01*
X183781357Y-69322142D02*
X184924214Y-69322142D01*
X185567071Y-69822142D02*
X185781357Y-69893571D01*
X186138500Y-69893571D01*
X186281357Y-69822142D01*
X186352785Y-69750714D01*
X186424214Y-69607857D01*
X186424214Y-69465000D01*
X186352785Y-69322142D01*
X186281357Y-69250714D01*
X186138500Y-69179285D01*
X185852785Y-69107857D01*
X185709928Y-69036428D01*
X185638500Y-68965000D01*
X185567071Y-68822142D01*
X185567071Y-68679285D01*
X185638500Y-68536428D01*
X185709928Y-68465000D01*
X185852785Y-68393571D01*
X186209928Y-68393571D01*
X186424214Y-68465000D01*
X187924214Y-69750714D02*
X187852785Y-69822142D01*
X187638500Y-69893571D01*
X187495642Y-69893571D01*
X187281357Y-69822142D01*
X187138500Y-69679285D01*
X187067071Y-69536428D01*
X186995642Y-69250714D01*
X186995642Y-69036428D01*
X187067071Y-68750714D01*
X187138500Y-68607857D01*
X187281357Y-68465000D01*
X187495642Y-68393571D01*
X187638500Y-68393571D01*
X187852785Y-68465000D01*
X187924214Y-68536428D01*
X188852785Y-68393571D02*
X189138500Y-68393571D01*
X189281357Y-68465000D01*
X189424214Y-68607857D01*
X189495642Y-68893571D01*
X189495642Y-69393571D01*
X189424214Y-69679285D01*
X189281357Y-69822142D01*
X189138500Y-69893571D01*
X188852785Y-69893571D01*
X188709928Y-69822142D01*
X188567071Y-69679285D01*
X188495642Y-69393571D01*
X188495642Y-68893571D01*
X188567071Y-68607857D01*
X188709928Y-68465000D01*
X188852785Y-68393571D01*
X190995642Y-69893571D02*
X190495642Y-69179285D01*
X190138500Y-69893571D02*
X190138500Y-68393571D01*
X190709928Y-68393571D01*
X190852785Y-68465000D01*
X190924214Y-68536428D01*
X190995642Y-68679285D01*
X190995642Y-68893571D01*
X190924214Y-69036428D01*
X190852785Y-69107857D01*
X190709928Y-69179285D01*
X190138500Y-69179285D01*
X191638500Y-69107857D02*
X192138500Y-69107857D01*
X192352785Y-69893571D02*
X191638500Y-69893571D01*
X191638500Y-68393571D01*
X192352785Y-68393571D01*
D11*
X116903500Y-70358000D02*
X192468500Y-70358000D01*
M02*
