M48
; DRILL file {KiCad 5.1.0-060a0da~80~ubuntu18.04.1} date Sa 11 Mai 2019 20:46:13 CEST
; FORMAT={-:-/ absolute / inch / decimal}
; #@! TF.CreationDate,2019-05-11T20:46:13+02:00
; #@! TF.GenerationSoftware,Kicad,Pcbnew,5.1.0-060a0da~80~ubuntu18.04.1
; #@! TF.FileFunction,Plated,1,2,PTH
FMAT,2
INCH
T1C0.0157
T2C0.0315
%
G90
G05
T1
X4.9291Y-3.0866
X4.9291Y-3.6181
X4.9291Y-4.1496
X4.9291Y-4.6811
X4.9291Y-5.2126
X4.9291Y-5.7441
X4.9921Y-3.0945
X4.9921Y-3.626
X4.9921Y-4.1575
X4.9921Y-4.689
X4.9921Y-5.2205
X4.9921Y-5.752
X5.0197Y-2.9488
X5.0197Y-3.4803
X5.0197Y-4.0118
X5.0197Y-4.5433
X5.0197Y-5.0748
X5.0197Y-5.6063
X5.3917Y-3.0866
X5.3917Y-3.6181
X5.3917Y-4.1496
X5.3917Y-4.6811
X5.3917Y-5.2126
X5.3917Y-5.7441
X5.4547Y-3.0945
X5.4547Y-3.626
X5.4547Y-4.1575
X5.4547Y-4.689
X5.4547Y-5.2205
X5.4547Y-5.752
X5.4823Y-2.9488
X5.4823Y-3.4803
X5.4823Y-4.0118
X5.4823Y-4.5433
X5.4823Y-5.0748
X5.4823Y-5.6063
X5.8543Y-3.0866
X5.8543Y-3.6181
X5.8543Y-4.1496
X5.8543Y-4.6811
X5.8543Y-5.2126
X5.8543Y-5.7441
X5.9173Y-3.0945
X5.9173Y-3.626
X5.9173Y-4.1575
X5.9173Y-4.689
X5.9173Y-5.2205
X5.9173Y-5.752
X5.9449Y-2.9488
X5.9449Y-3.4803
X5.9449Y-4.0118
X5.9449Y-4.5433
X5.9449Y-5.0748
X5.9449Y-5.6063
X6.3169Y-3.0866
X6.3169Y-3.6181
X6.3169Y-4.1496
X6.3169Y-4.6811
X6.3169Y-5.2126
X6.3169Y-5.7441
X6.3799Y-3.0945
X6.3799Y-3.626
X6.3799Y-4.1575
X6.3799Y-4.689
X6.3799Y-5.2205
X6.3799Y-5.752
X6.4075Y-2.9488
X6.4075Y-3.4803
X6.4075Y-4.0118
X6.4075Y-4.5433
X6.4075Y-5.0748
X6.4075Y-5.6063
X6.7795Y-3.0866
X6.7795Y-3.6181
X6.7795Y-4.1496
X6.7795Y-4.6811
X6.7795Y-5.2126
X6.7795Y-5.7441
X6.8425Y-3.0945
X6.8425Y-3.626
X6.8425Y-4.1575
X6.8425Y-4.689
X6.8425Y-5.2205
X6.8425Y-5.752
X6.8701Y-2.9488
X6.8701Y-3.4803
X6.8701Y-4.0118
X6.8701Y-4.5433
X6.8701Y-5.0748
X6.8701Y-5.6063
X7.2421Y-3.0866
X7.2421Y-3.6181
X7.2421Y-4.1496
X7.2421Y-4.6811
X7.2421Y-5.2126
X7.2421Y-5.7441
X7.3051Y-3.0945
X7.3051Y-3.626
X7.3051Y-4.1575
X7.3051Y-4.689
X7.3051Y-5.2205
X7.3051Y-5.752
X7.3327Y-2.9488
X7.3327Y-3.4803
X7.3327Y-4.0118
X7.3327Y-4.5433
X7.3327Y-5.0748
X7.3327Y-5.6063
X7.7047Y-3.0866
X7.7047Y-3.6181
X7.7047Y-4.1496
X7.7047Y-4.6811
X7.7047Y-5.2126
X7.7047Y-5.7441
X7.7677Y-3.0945
X7.7677Y-3.626
X7.7677Y-4.1575
X7.7677Y-4.689
X7.7677Y-5.2205
X7.7677Y-5.752
X7.7953Y-2.9488
X7.7953Y-3.4803
X7.7953Y-4.0118
X7.7953Y-4.5433
X7.7953Y-5.0748
X7.7953Y-5.6063
T2
X6.6142Y-5.3937
X6.6642Y-5.2937
X6.7142Y-5.3937
X6.7642Y-5.2937
X6.8142Y-5.3937
X6.8642Y-5.2937
X6.1516Y-5.9252
X6.2016Y-5.8252
X6.2516Y-5.9252
X6.3016Y-5.8252
X6.3516Y-5.9252
X6.4016Y-5.8252
X7.5394Y-5.9252
X7.5894Y-5.8252
X7.6394Y-5.9252
X7.6894Y-5.8252
X7.7394Y-5.9252
X7.7894Y-5.8252
X4.7638Y-4.3307
X4.8138Y-4.2307
X4.8638Y-4.3307
X4.9138Y-4.2307
X4.9638Y-4.3307
X5.0138Y-4.2307
X5.689Y-5.3937
X5.739Y-5.2937
X5.789Y-5.3937
X5.839Y-5.2937
X5.889Y-5.3937
X5.939Y-5.2937
X5.689Y-3.7992
X5.739Y-3.6992
X5.789Y-3.7992
X5.839Y-3.6992
X5.889Y-3.7992
X5.939Y-3.6992
X6.6142Y-4.8622
X6.6642Y-4.7622
X6.7142Y-4.8622
X6.7642Y-4.7622
X6.8142Y-4.8622
X6.8642Y-4.7622
X7.5394Y-4.8622
X7.5894Y-4.7622
X7.6394Y-4.8622
X7.6894Y-4.7622
X7.7394Y-4.8622
X7.7894Y-4.7622
X7.0768Y-3.7992
X7.1268Y-3.6992
X7.1768Y-3.7992
X7.2268Y-3.6992
X7.2768Y-3.7992
X7.3268Y-3.6992
X6.6142Y-3.7992
X6.6642Y-3.6992
X6.7142Y-3.7992
X6.7642Y-3.6992
X6.8142Y-3.7992
X6.8642Y-3.6992
X6.1516Y-4.8622
X6.2016Y-4.7622
X6.2516Y-4.8622
X6.3016Y-4.7622
X6.3516Y-4.8622
X6.4016Y-4.7622
X5.689Y-4.8622
X5.739Y-4.7622
X5.789Y-4.8622
X5.839Y-4.7622
X5.889Y-4.8622
X5.939Y-4.7622
X6.1516Y-3.2677
X6.2016Y-3.1677
X6.2516Y-3.2677
X6.3016Y-3.1677
X6.3516Y-3.2677
X6.4016Y-3.1677
X5.2264Y-3.7992
X5.2764Y-3.6992
X5.3264Y-3.7992
X5.3764Y-3.6992
X5.4264Y-3.7992
X5.4764Y-3.6992
X5.2264Y-5.9252
X5.2764Y-5.8252
X5.3264Y-5.9252
X5.3764Y-5.8252
X5.4264Y-5.9252
X5.4764Y-5.8252
X7.5394Y-5.3937
X7.5894Y-5.2937
X7.6394Y-5.3937
X7.6894Y-5.2937
X7.7394Y-5.3937
X7.7894Y-5.2937
X7.0768Y-3.2677
X7.1268Y-3.1677
X7.1768Y-3.2677
X7.2268Y-3.1677
X7.2768Y-3.2677
X7.3268Y-3.1677
X6.1516Y-4.3307
X6.2016Y-4.2307
X6.2516Y-4.3307
X6.3016Y-4.2307
X6.3516Y-4.3307
X6.4016Y-4.2307
X4.7638Y-5.3937
X4.8138Y-5.2937
X4.8638Y-5.3937
X4.9138Y-5.2937
X4.9638Y-5.3937
X5.0138Y-5.2937
X7.0768Y-4.3307
X7.1268Y-4.2307
X7.1768Y-4.3307
X7.2268Y-4.2307
X7.2768Y-4.3307
X7.3268Y-4.2307
X7.5394Y-3.7992
X7.5894Y-3.6992
X7.6394Y-3.7992
X7.6894Y-3.6992
X7.7394Y-3.7992
X7.7894Y-3.6992
X7.0768Y-5.9252
X7.1268Y-5.8252
X7.1768Y-5.9252
X7.2268Y-5.8252
X7.2768Y-5.9252
X7.3268Y-5.8252
X6.1516Y-5.3937
X6.2016Y-5.2937
X6.2516Y-5.3937
X6.3016Y-5.2937
X6.3516Y-5.3937
X6.4016Y-5.2937
X4.7638Y-4.8622
X4.8138Y-4.7622
X4.8638Y-4.8622
X4.9138Y-4.7622
X4.9638Y-4.8622
X5.0138Y-4.7622
X7.0768Y-5.3937
X7.1268Y-5.2937
X7.1768Y-5.3937
X7.2268Y-5.2937
X7.2768Y-5.3937
X7.3268Y-5.2937
X6.6142Y-3.2677
X6.6642Y-3.1677
X6.7142Y-3.2677
X6.7642Y-3.1677
X6.8142Y-3.2677
X6.8642Y-3.1677
X7.5394Y-3.2677
X7.5894Y-3.1677
X7.6394Y-3.2677
X7.6894Y-3.1677
X7.7394Y-3.2677
X7.7894Y-3.1677
X5.2264Y-4.3307
X5.2764Y-4.2307
X5.3264Y-4.3307
X5.3764Y-4.2307
X5.4264Y-4.3307
X5.4764Y-4.2307
X4.7638Y-3.7992
X4.8138Y-3.6992
X4.8638Y-3.7992
X4.9138Y-3.6992
X4.9638Y-3.7992
X5.0138Y-3.6992
X5.689Y-3.2677
X5.739Y-3.1677
X5.789Y-3.2677
X5.839Y-3.1677
X5.889Y-3.2677
X5.939Y-3.1677
X5.689Y-5.9252
X5.739Y-5.8252
X5.789Y-5.9252
X5.839Y-5.8252
X5.889Y-5.9252
X5.939Y-5.8252
X7.5394Y-4.3307
X7.5894Y-4.2307
X7.6394Y-4.3307
X7.6894Y-4.2307
X7.7394Y-4.3307
X7.7894Y-4.2307
X5.689Y-4.3307
X5.739Y-4.2307
X5.789Y-4.3307
X5.839Y-4.2307
X5.889Y-4.3307
X5.939Y-4.2307
X7.0768Y-4.8622
X7.1268Y-4.7622
X7.1768Y-4.8622
X7.2268Y-4.7622
X7.2768Y-4.8622
X7.3268Y-4.7622
X6.6142Y-4.3307
X6.6642Y-4.2307
X6.7142Y-4.3307
X6.7642Y-4.2307
X6.8142Y-4.3307
X6.8642Y-4.2307
X5.2264Y-3.2677
X5.2764Y-3.1677
X5.3264Y-3.2677
X5.3764Y-3.1677
X5.4264Y-3.2677
X5.4764Y-3.1677
X4.7638Y-5.9252
X4.8138Y-5.8252
X4.8638Y-5.9252
X4.9138Y-5.8252
X4.9638Y-5.9252
X5.0138Y-5.8252
X6.6142Y-5.9252
X6.6642Y-5.8252
X6.7142Y-5.9252
X6.7642Y-5.8252
X6.8142Y-5.9252
X6.8642Y-5.8252
X6.1516Y-3.7992
X6.2016Y-3.6992
X6.2516Y-3.7992
X6.3016Y-3.6992
X6.3516Y-3.7992
X6.4016Y-3.6992
X4.7638Y-3.2677
X4.8138Y-3.1677
X4.8638Y-3.2677
X4.9138Y-3.1677
X4.9638Y-3.2677
X5.0138Y-3.1677
X5.2264Y-4.8622
X5.2764Y-4.7622
X5.3264Y-4.8622
X5.3764Y-4.7622
X5.4264Y-4.8622
X5.4764Y-4.7622
X5.2264Y-5.3937
X5.2764Y-5.2937
X5.3264Y-5.3937
X5.3764Y-5.2937
X5.4264Y-5.3937
X5.4764Y-5.2937
T0
M30
