G04 #@! TF.GenerationSoftware,KiCad,Pcbnew,5.0.2-bee76a0~70~ubuntu18.04.1*
G04 #@! TF.CreationDate,2019-05-10T19:11:01+02:00*
G04 #@! TF.ProjectId,spi_connector_board_5x5_panel,7370695f-636f-46e6-9e65-63746f725f62,rev?*
G04 #@! TF.SameCoordinates,Original*
G04 #@! TF.FileFunction,Paste,Top*
G04 #@! TF.FilePolarity,Positive*
%FSLAX46Y46*%
G04 Gerber Fmt 4.6, Leading zero omitted, Abs format (unit mm)*
G04 Created by KiCad (PCBNEW 5.0.2-bee76a0~70~ubuntu18.04.1) date Fr 10 Mai 2019 19:11:01 CEST*
%MOMM*%
%LPD*%
G01*
G04 APERTURE LIST*
%ADD10R,0.600000X1.550000*%
%ADD11R,1.200000X1.800000*%
G04 APERTURE END LIST*
D10*
G04 #@! TO.C,JST_SM05B-SRSS-TB(LF)(SN)*
X102822500Y-89406500D03*
D11*
X104122500Y-85531500D03*
X97522500Y-85531500D03*
D10*
X101822500Y-89406500D03*
X100822500Y-89406500D03*
X99822500Y-89406500D03*
X98822500Y-89406500D03*
G04 #@! TD*
G04 #@! TO.C,JST_SM05B-SRSS-TB(LF)(SN)*
X102822500Y-116606500D03*
D11*
X104122500Y-112731500D03*
X97522500Y-112731500D03*
D10*
X101822500Y-116606500D03*
X100822500Y-116606500D03*
X99822500Y-116606500D03*
X98822500Y-116606500D03*
G04 #@! TD*
G04 #@! TO.C,JST_SM05B-SRSS-TB(LF)(SN)*
X98822500Y-130322500D03*
X99822500Y-130322500D03*
X100822500Y-130322500D03*
X101822500Y-130322500D03*
D11*
X97522500Y-126447500D03*
X104122500Y-126447500D03*
D10*
X102822500Y-130322500D03*
G04 #@! TD*
G04 #@! TO.C,JST_SM05B-SRSS-TB(LF)(SN)*
X98822500Y-62206500D03*
X99822500Y-62206500D03*
X100822500Y-62206500D03*
X101822500Y-62206500D03*
D11*
X97522500Y-58331500D03*
X104122500Y-58331500D03*
D10*
X102822500Y-62206500D03*
G04 #@! TD*
G04 #@! TO.C,JST_SM05B-SRSS-TB(LF)(SN)*
X102822500Y-103006500D03*
D11*
X104122500Y-99131500D03*
X97522500Y-99131500D03*
D10*
X101822500Y-103006500D03*
X100822500Y-103006500D03*
X99822500Y-103006500D03*
X98822500Y-103006500D03*
G04 #@! TD*
G04 #@! TO.C,JST_SM05B-SRSS-TB(LF)(SN)*
X102822500Y-75806500D03*
D11*
X104122500Y-71931500D03*
X97522500Y-71931500D03*
D10*
X101822500Y-75806500D03*
X100822500Y-75806500D03*
X99822500Y-75806500D03*
X98822500Y-75806500D03*
G04 #@! TD*
G04 #@! TO.C,JST_SM05B-SRSS-TB(LF)(SN)*
X115078000Y-130322500D03*
D11*
X116378000Y-126447500D03*
X109778000Y-126447500D03*
D10*
X114078000Y-130322500D03*
X113078000Y-130322500D03*
X112078000Y-130322500D03*
X111078000Y-130322500D03*
G04 #@! TD*
G04 #@! TO.C,JST_SM05B-SRSS-TB(LF)(SN)*
X171143000Y-130322500D03*
X172143000Y-130322500D03*
X173143000Y-130322500D03*
X174143000Y-130322500D03*
D11*
X169843000Y-126447500D03*
X176443000Y-126447500D03*
D10*
X175143000Y-130322500D03*
G04 #@! TD*
G04 #@! TO.C,JST_SM05B-SRSS-TB(LF)(SN)*
X159143000Y-130322500D03*
X160143000Y-130322500D03*
X161143000Y-130322500D03*
X162143000Y-130322500D03*
D11*
X157843000Y-126447500D03*
X164443000Y-126447500D03*
D10*
X163143000Y-130322500D03*
G04 #@! TD*
G04 #@! TO.C,JST_SM05B-SRSS-TB(LF)(SN)*
X147143000Y-130322500D03*
X148143000Y-130322500D03*
X149143000Y-130322500D03*
X150143000Y-130322500D03*
D11*
X145843000Y-126447500D03*
X152443000Y-126447500D03*
D10*
X151143000Y-130322500D03*
G04 #@! TD*
G04 #@! TO.C,JST_SM05B-SRSS-TB(LF)(SN)*
X135143000Y-130322500D03*
X136143000Y-130322500D03*
X137143000Y-130322500D03*
X138143000Y-130322500D03*
D11*
X133843000Y-126447500D03*
X140443000Y-126447500D03*
D10*
X139143000Y-130322500D03*
G04 #@! TD*
G04 #@! TO.C,JST_SM05B-SRSS-TB(LF)(SN)*
X123143000Y-130322500D03*
X124143000Y-130322500D03*
X125143000Y-130322500D03*
X126143000Y-130322500D03*
D11*
X121843000Y-126447500D03*
X128443000Y-126447500D03*
D10*
X127143000Y-130322500D03*
G04 #@! TD*
G04 #@! TO.C,JST_SM05B-SRSS-TB(LF)(SN)*
X115078000Y-62206500D03*
D11*
X116378000Y-58331500D03*
X109778000Y-58331500D03*
D10*
X114078000Y-62206500D03*
X113078000Y-62206500D03*
X112078000Y-62206500D03*
X111078000Y-62206500D03*
G04 #@! TD*
G04 #@! TO.C,JST_SM05B-SRSS-TB(LF)(SN)*
X111078000Y-116606500D03*
X112078000Y-116606500D03*
X113078000Y-116606500D03*
X114078000Y-116606500D03*
D11*
X109778000Y-112731500D03*
X116378000Y-112731500D03*
D10*
X115078000Y-116606500D03*
G04 #@! TD*
G04 #@! TO.C,JST_SM05B-SRSS-TB(LF)(SN)*
X111078000Y-103006500D03*
X112078000Y-103006500D03*
X113078000Y-103006500D03*
X114078000Y-103006500D03*
D11*
X109778000Y-99131500D03*
X116378000Y-99131500D03*
D10*
X115078000Y-103006500D03*
G04 #@! TD*
G04 #@! TO.C,JST_SM05B-SRSS-TB(LF)(SN)*
X111078000Y-89406500D03*
X112078000Y-89406500D03*
X113078000Y-89406500D03*
X114078000Y-89406500D03*
D11*
X109778000Y-85531500D03*
X116378000Y-85531500D03*
D10*
X115078000Y-89406500D03*
G04 #@! TD*
G04 #@! TO.C,JST_SM05B-SRSS-TB(LF)(SN)*
X111078000Y-75806500D03*
X112078000Y-75806500D03*
X113078000Y-75806500D03*
X114078000Y-75806500D03*
D11*
X109778000Y-71931500D03*
X116378000Y-71931500D03*
D10*
X115078000Y-75806500D03*
G04 #@! TD*
G04 #@! TO.C,JST_SM05B-SRSS-TB(LF)(SN)*
X175143000Y-116606500D03*
D11*
X176443000Y-112731500D03*
X169843000Y-112731500D03*
D10*
X174143000Y-116606500D03*
X173143000Y-116606500D03*
X172143000Y-116606500D03*
X171143000Y-116606500D03*
G04 #@! TD*
G04 #@! TO.C,JST_SM05B-SRSS-TB(LF)(SN)*
X163143000Y-116606500D03*
D11*
X164443000Y-112731500D03*
X157843000Y-112731500D03*
D10*
X162143000Y-116606500D03*
X161143000Y-116606500D03*
X160143000Y-116606500D03*
X159143000Y-116606500D03*
G04 #@! TD*
G04 #@! TO.C,JST_SM05B-SRSS-TB(LF)(SN)*
X151143000Y-116606500D03*
D11*
X152443000Y-112731500D03*
X145843000Y-112731500D03*
D10*
X150143000Y-116606500D03*
X149143000Y-116606500D03*
X148143000Y-116606500D03*
X147143000Y-116606500D03*
G04 #@! TD*
G04 #@! TO.C,JST_SM05B-SRSS-TB(LF)(SN)*
X139143000Y-116606500D03*
D11*
X140443000Y-112731500D03*
X133843000Y-112731500D03*
D10*
X138143000Y-116606500D03*
X137143000Y-116606500D03*
X136143000Y-116606500D03*
X135143000Y-116606500D03*
G04 #@! TD*
G04 #@! TO.C,JST_SM05B-SRSS-TB(LF)(SN)*
X127143000Y-116606500D03*
D11*
X128443000Y-112731500D03*
X121843000Y-112731500D03*
D10*
X126143000Y-116606500D03*
X125143000Y-116606500D03*
X124143000Y-116606500D03*
X123143000Y-116606500D03*
G04 #@! TD*
G04 #@! TO.C,JST_SM05B-SRSS-TB(LF)(SN)*
X175143000Y-103006500D03*
D11*
X176443000Y-99131500D03*
X169843000Y-99131500D03*
D10*
X174143000Y-103006500D03*
X173143000Y-103006500D03*
X172143000Y-103006500D03*
X171143000Y-103006500D03*
G04 #@! TD*
G04 #@! TO.C,JST_SM05B-SRSS-TB(LF)(SN)*
X163143000Y-103006500D03*
D11*
X164443000Y-99131500D03*
X157843000Y-99131500D03*
D10*
X162143000Y-103006500D03*
X161143000Y-103006500D03*
X160143000Y-103006500D03*
X159143000Y-103006500D03*
G04 #@! TD*
G04 #@! TO.C,JST_SM05B-SRSS-TB(LF)(SN)*
X151143000Y-103006500D03*
D11*
X152443000Y-99131500D03*
X145843000Y-99131500D03*
D10*
X150143000Y-103006500D03*
X149143000Y-103006500D03*
X148143000Y-103006500D03*
X147143000Y-103006500D03*
G04 #@! TD*
G04 #@! TO.C,JST_SM05B-SRSS-TB(LF)(SN)*
X139143000Y-103006500D03*
D11*
X140443000Y-99131500D03*
X133843000Y-99131500D03*
D10*
X138143000Y-103006500D03*
X137143000Y-103006500D03*
X136143000Y-103006500D03*
X135143000Y-103006500D03*
G04 #@! TD*
G04 #@! TO.C,JST_SM05B-SRSS-TB(LF)(SN)*
X127143000Y-103006500D03*
D11*
X128443000Y-99131500D03*
X121843000Y-99131500D03*
D10*
X126143000Y-103006500D03*
X125143000Y-103006500D03*
X124143000Y-103006500D03*
X123143000Y-103006500D03*
G04 #@! TD*
G04 #@! TO.C,JST_SM05B-SRSS-TB(LF)(SN)*
X175143000Y-89406500D03*
D11*
X176443000Y-85531500D03*
X169843000Y-85531500D03*
D10*
X174143000Y-89406500D03*
X173143000Y-89406500D03*
X172143000Y-89406500D03*
X171143000Y-89406500D03*
G04 #@! TD*
G04 #@! TO.C,JST_SM05B-SRSS-TB(LF)(SN)*
X163143000Y-89406500D03*
D11*
X164443000Y-85531500D03*
X157843000Y-85531500D03*
D10*
X162143000Y-89406500D03*
X161143000Y-89406500D03*
X160143000Y-89406500D03*
X159143000Y-89406500D03*
G04 #@! TD*
G04 #@! TO.C,JST_SM05B-SRSS-TB(LF)(SN)*
X151143000Y-89406500D03*
D11*
X152443000Y-85531500D03*
X145843000Y-85531500D03*
D10*
X150143000Y-89406500D03*
X149143000Y-89406500D03*
X148143000Y-89406500D03*
X147143000Y-89406500D03*
G04 #@! TD*
G04 #@! TO.C,JST_SM05B-SRSS-TB(LF)(SN)*
X139143000Y-89406500D03*
D11*
X140443000Y-85531500D03*
X133843000Y-85531500D03*
D10*
X138143000Y-89406500D03*
X137143000Y-89406500D03*
X136143000Y-89406500D03*
X135143000Y-89406500D03*
G04 #@! TD*
G04 #@! TO.C,JST_SM05B-SRSS-TB(LF)(SN)*
X127143000Y-89406500D03*
D11*
X128443000Y-85531500D03*
X121843000Y-85531500D03*
D10*
X126143000Y-89406500D03*
X125143000Y-89406500D03*
X124143000Y-89406500D03*
X123143000Y-89406500D03*
G04 #@! TD*
G04 #@! TO.C,JST_SM05B-SRSS-TB(LF)(SN)*
X175143000Y-75806500D03*
D11*
X176443000Y-71931500D03*
X169843000Y-71931500D03*
D10*
X174143000Y-75806500D03*
X173143000Y-75806500D03*
X172143000Y-75806500D03*
X171143000Y-75806500D03*
G04 #@! TD*
G04 #@! TO.C,JST_SM05B-SRSS-TB(LF)(SN)*
X163143000Y-75806500D03*
D11*
X164443000Y-71931500D03*
X157843000Y-71931500D03*
D10*
X162143000Y-75806500D03*
X161143000Y-75806500D03*
X160143000Y-75806500D03*
X159143000Y-75806500D03*
G04 #@! TD*
G04 #@! TO.C,JST_SM05B-SRSS-TB(LF)(SN)*
X151143000Y-75806500D03*
D11*
X152443000Y-71931500D03*
X145843000Y-71931500D03*
D10*
X150143000Y-75806500D03*
X149143000Y-75806500D03*
X148143000Y-75806500D03*
X147143000Y-75806500D03*
G04 #@! TD*
G04 #@! TO.C,JST_SM05B-SRSS-TB(LF)(SN)*
X139143000Y-75806500D03*
D11*
X140443000Y-71931500D03*
X133843000Y-71931500D03*
D10*
X138143000Y-75806500D03*
X137143000Y-75806500D03*
X136143000Y-75806500D03*
X135143000Y-75806500D03*
G04 #@! TD*
G04 #@! TO.C,JST_SM05B-SRSS-TB(LF)(SN)*
X127143000Y-75806500D03*
D11*
X128443000Y-71931500D03*
X121843000Y-71931500D03*
D10*
X126143000Y-75806500D03*
X125143000Y-75806500D03*
X124143000Y-75806500D03*
X123143000Y-75806500D03*
G04 #@! TD*
G04 #@! TO.C,JST_SM05B-SRSS-TB(LF)(SN)*
X175143000Y-62206500D03*
D11*
X176443000Y-58331500D03*
X169843000Y-58331500D03*
D10*
X174143000Y-62206500D03*
X173143000Y-62206500D03*
X172143000Y-62206500D03*
X171143000Y-62206500D03*
G04 #@! TD*
G04 #@! TO.C,JST_SM05B-SRSS-TB(LF)(SN)*
X163143000Y-62206500D03*
D11*
X164443000Y-58331500D03*
X157843000Y-58331500D03*
D10*
X162143000Y-62206500D03*
X161143000Y-62206500D03*
X160143000Y-62206500D03*
X159143000Y-62206500D03*
G04 #@! TD*
G04 #@! TO.C,JST_SM05B-SRSS-TB(LF)(SN)*
X151143000Y-62206500D03*
D11*
X152443000Y-58331500D03*
X145843000Y-58331500D03*
D10*
X150143000Y-62206500D03*
X149143000Y-62206500D03*
X148143000Y-62206500D03*
X147143000Y-62206500D03*
G04 #@! TD*
G04 #@! TO.C,JST_SM05B-SRSS-TB(LF)(SN)*
X139143000Y-62206500D03*
D11*
X140443000Y-58331500D03*
X133843000Y-58331500D03*
D10*
X138143000Y-62206500D03*
X137143000Y-62206500D03*
X136143000Y-62206500D03*
X135143000Y-62206500D03*
G04 #@! TD*
G04 #@! TO.C,JST_SM05B-SRSS-TB(LF)(SN)*
X123143000Y-62206500D03*
X124143000Y-62206500D03*
X125143000Y-62206500D03*
X126143000Y-62206500D03*
D11*
X121843000Y-58331500D03*
X128443000Y-58331500D03*
D10*
X127143000Y-62206500D03*
G04 #@! TD*
M02*
