G04 #@! TF.GenerationSoftware,KiCad,Pcbnew,5.0.2-bee76a0~70~ubuntu18.04.1*
G04 #@! TF.CreationDate,2019-05-10T19:11:01+02:00*
G04 #@! TF.ProjectId,spi_connector_board_5x5_panel,7370695f-636f-46e6-9e65-63746f725f62,rev?*
G04 #@! TF.SameCoordinates,Original*
G04 #@! TF.FileFunction,Copper,L2,Bot*
G04 #@! TF.FilePolarity,Positive*
%FSLAX46Y46*%
G04 Gerber Fmt 4.6, Leading zero omitted, Abs format (unit mm)*
G04 Created by KiCad (PCBNEW 5.0.2-bee76a0~70~ubuntu18.04.1) date Fr 10 Mai 2019 19:11:01 CEST*
%MOMM*%
%LPD*%
G01*
G04 APERTURE LIST*
G04 #@! TA.AperFunction,ComponentPad*
%ADD10C,1.800000*%
G04 #@! TD*
G04 #@! TA.AperFunction,ComponentPad*
%ADD11R,1.800000X1.800000*%
G04 #@! TD*
G04 #@! TA.AperFunction,ViaPad*
%ADD12C,0.800000*%
G04 #@! TD*
G04 #@! TA.AperFunction,Conductor*
%ADD13C,0.250000*%
G04 #@! TD*
G04 APERTURE END LIST*
D10*
G04 #@! TO.P,REF\002A\002A,6*
G04 #@! TO.N,N/C*
X104172500Y-92991500D03*
G04 #@! TO.P,REF\002A\002A,5*
X102902500Y-95531500D03*
D11*
G04 #@! TO.P,REF\002A\002A,1*
X97822500Y-95531500D03*
D10*
G04 #@! TO.P,REF\002A\002A,2*
X99092500Y-92991500D03*
G04 #@! TO.P,REF\002A\002A,3*
X100362500Y-95531500D03*
G04 #@! TO.P,REF\002A\002A,4*
X101632500Y-92991500D03*
G04 #@! TD*
G04 #@! TO.P,REF\002A\002A,4*
G04 #@! TO.N,N/C*
X101632500Y-65791500D03*
G04 #@! TO.P,REF\002A\002A,3*
X100362500Y-68331500D03*
G04 #@! TO.P,REF\002A\002A,2*
X99092500Y-65791500D03*
D11*
G04 #@! TO.P,REF\002A\002A,1*
X97822500Y-68331500D03*
D10*
G04 #@! TO.P,REF\002A\002A,5*
X102902500Y-68331500D03*
G04 #@! TO.P,REF\002A\002A,6*
X104172500Y-65791500D03*
G04 #@! TD*
G04 #@! TO.P,REF\002A\002A,4*
G04 #@! TO.N,N/C*
X101632500Y-133907500D03*
G04 #@! TO.P,REF\002A\002A,3*
X100362500Y-136447500D03*
G04 #@! TO.P,REF\002A\002A,2*
X99092500Y-133907500D03*
D11*
G04 #@! TO.P,REF\002A\002A,1*
X97822500Y-136447500D03*
D10*
G04 #@! TO.P,REF\002A\002A,5*
X102902500Y-136447500D03*
G04 #@! TO.P,REF\002A\002A,6*
X104172500Y-133907500D03*
G04 #@! TD*
G04 #@! TO.P,REF\002A\002A,6*
G04 #@! TO.N,N/C*
X104172500Y-106591500D03*
G04 #@! TO.P,REF\002A\002A,5*
X102902500Y-109131500D03*
D11*
G04 #@! TO.P,REF\002A\002A,1*
X97822500Y-109131500D03*
D10*
G04 #@! TO.P,REF\002A\002A,2*
X99092500Y-106591500D03*
G04 #@! TO.P,REF\002A\002A,3*
X100362500Y-109131500D03*
G04 #@! TO.P,REF\002A\002A,4*
X101632500Y-106591500D03*
G04 #@! TD*
G04 #@! TO.P,REF\002A\002A,6*
G04 #@! TO.N,N/C*
X104172500Y-120191500D03*
G04 #@! TO.P,REF\002A\002A,5*
X102902500Y-122731500D03*
D11*
G04 #@! TO.P,REF\002A\002A,1*
X97822500Y-122731500D03*
D10*
G04 #@! TO.P,REF\002A\002A,2*
X99092500Y-120191500D03*
G04 #@! TO.P,REF\002A\002A,3*
X100362500Y-122731500D03*
G04 #@! TO.P,REF\002A\002A,4*
X101632500Y-120191500D03*
G04 #@! TD*
G04 #@! TO.P,REF\002A\002A,6*
G04 #@! TO.N,N/C*
X104172500Y-79391500D03*
G04 #@! TO.P,REF\002A\002A,5*
X102902500Y-81931500D03*
D11*
G04 #@! TO.P,REF\002A\002A,1*
X97822500Y-81931500D03*
D10*
G04 #@! TO.P,REF\002A\002A,2*
X99092500Y-79391500D03*
G04 #@! TO.P,REF\002A\002A,3*
X100362500Y-81931500D03*
G04 #@! TO.P,REF\002A\002A,4*
X101632500Y-79391500D03*
G04 #@! TD*
G04 #@! TO.P,REF\002A\002A,4*
G04 #@! TO.N,N/C*
X137953000Y-133907500D03*
G04 #@! TO.P,REF\002A\002A,3*
X136683000Y-136447500D03*
G04 #@! TO.P,REF\002A\002A,2*
X135413000Y-133907500D03*
D11*
G04 #@! TO.P,REF\002A\002A,1*
X134143000Y-136447500D03*
D10*
G04 #@! TO.P,REF\002A\002A,5*
X139223000Y-136447500D03*
G04 #@! TO.P,REF\002A\002A,6*
X140493000Y-133907500D03*
G04 #@! TD*
G04 #@! TO.P,REF\002A\002A,4*
G04 #@! TO.N,N/C*
X125953000Y-133907500D03*
G04 #@! TO.P,REF\002A\002A,3*
X124683000Y-136447500D03*
G04 #@! TO.P,REF\002A\002A,2*
X123413000Y-133907500D03*
D11*
G04 #@! TO.P,REF\002A\002A,1*
X122143000Y-136447500D03*
D10*
G04 #@! TO.P,REF\002A\002A,5*
X127223000Y-136447500D03*
G04 #@! TO.P,REF\002A\002A,6*
X128493000Y-133907500D03*
G04 #@! TD*
G04 #@! TO.P,REF\002A\002A,4*
G04 #@! TO.N,N/C*
X161953000Y-133907500D03*
G04 #@! TO.P,REF\002A\002A,3*
X160683000Y-136447500D03*
G04 #@! TO.P,REF\002A\002A,2*
X159413000Y-133907500D03*
D11*
G04 #@! TO.P,REF\002A\002A,1*
X158143000Y-136447500D03*
D10*
G04 #@! TO.P,REF\002A\002A,5*
X163223000Y-136447500D03*
G04 #@! TO.P,REF\002A\002A,6*
X164493000Y-133907500D03*
G04 #@! TD*
G04 #@! TO.P,REF\002A\002A,4*
G04 #@! TO.N,N/C*
X149953000Y-133907500D03*
G04 #@! TO.P,REF\002A\002A,3*
X148683000Y-136447500D03*
G04 #@! TO.P,REF\002A\002A,2*
X147413000Y-133907500D03*
D11*
G04 #@! TO.P,REF\002A\002A,1*
X146143000Y-136447500D03*
D10*
G04 #@! TO.P,REF\002A\002A,5*
X151223000Y-136447500D03*
G04 #@! TO.P,REF\002A\002A,6*
X152493000Y-133907500D03*
G04 #@! TD*
G04 #@! TO.P,REF\002A\002A,4*
G04 #@! TO.N,N/C*
X173953000Y-133907500D03*
G04 #@! TO.P,REF\002A\002A,3*
X172683000Y-136447500D03*
G04 #@! TO.P,REF\002A\002A,2*
X171413000Y-133907500D03*
D11*
G04 #@! TO.P,REF\002A\002A,1*
X170143000Y-136447500D03*
D10*
G04 #@! TO.P,REF\002A\002A,5*
X175223000Y-136447500D03*
G04 #@! TO.P,REF\002A\002A,6*
X176493000Y-133907500D03*
G04 #@! TD*
G04 #@! TO.P,REF\002A\002A,6*
G04 #@! TO.N,N/C*
X116428000Y-133907500D03*
G04 #@! TO.P,REF\002A\002A,5*
X115158000Y-136447500D03*
D11*
G04 #@! TO.P,REF\002A\002A,1*
X110078000Y-136447500D03*
D10*
G04 #@! TO.P,REF\002A\002A,2*
X111348000Y-133907500D03*
G04 #@! TO.P,REF\002A\002A,3*
X112618000Y-136447500D03*
G04 #@! TO.P,REF\002A\002A,4*
X113888000Y-133907500D03*
G04 #@! TD*
G04 #@! TO.P,REF\002A\002A,6*
G04 #@! TO.N,N/C*
X116428000Y-65791500D03*
G04 #@! TO.P,REF\002A\002A,5*
X115158000Y-68331500D03*
D11*
G04 #@! TO.P,REF\002A\002A,1*
X110078000Y-68331500D03*
D10*
G04 #@! TO.P,REF\002A\002A,2*
X111348000Y-65791500D03*
G04 #@! TO.P,REF\002A\002A,3*
X112618000Y-68331500D03*
G04 #@! TO.P,REF\002A\002A,4*
X113888000Y-65791500D03*
G04 #@! TD*
G04 #@! TO.P,REF\002A\002A,4*
G04 #@! TO.N,N/C*
X113888000Y-120191500D03*
G04 #@! TO.P,REF\002A\002A,3*
X112618000Y-122731500D03*
G04 #@! TO.P,REF\002A\002A,2*
X111348000Y-120191500D03*
D11*
G04 #@! TO.P,REF\002A\002A,1*
X110078000Y-122731500D03*
D10*
G04 #@! TO.P,REF\002A\002A,5*
X115158000Y-122731500D03*
G04 #@! TO.P,REF\002A\002A,6*
X116428000Y-120191500D03*
G04 #@! TD*
G04 #@! TO.P,REF\002A\002A,4*
G04 #@! TO.N,N/C*
X113888000Y-79391500D03*
G04 #@! TO.P,REF\002A\002A,3*
X112618000Y-81931500D03*
G04 #@! TO.P,REF\002A\002A,2*
X111348000Y-79391500D03*
D11*
G04 #@! TO.P,REF\002A\002A,1*
X110078000Y-81931500D03*
D10*
G04 #@! TO.P,REF\002A\002A,5*
X115158000Y-81931500D03*
G04 #@! TO.P,REF\002A\002A,6*
X116428000Y-79391500D03*
G04 #@! TD*
G04 #@! TO.P,REF\002A\002A,4*
G04 #@! TO.N,N/C*
X113888000Y-92991500D03*
G04 #@! TO.P,REF\002A\002A,3*
X112618000Y-95531500D03*
G04 #@! TO.P,REF\002A\002A,2*
X111348000Y-92991500D03*
D11*
G04 #@! TO.P,REF\002A\002A,1*
X110078000Y-95531500D03*
D10*
G04 #@! TO.P,REF\002A\002A,5*
X115158000Y-95531500D03*
G04 #@! TO.P,REF\002A\002A,6*
X116428000Y-92991500D03*
G04 #@! TD*
G04 #@! TO.P,REF\002A\002A,4*
G04 #@! TO.N,N/C*
X113888000Y-106591500D03*
G04 #@! TO.P,REF\002A\002A,3*
X112618000Y-109131500D03*
G04 #@! TO.P,REF\002A\002A,2*
X111348000Y-106591500D03*
D11*
G04 #@! TO.P,REF\002A\002A,1*
X110078000Y-109131500D03*
D10*
G04 #@! TO.P,REF\002A\002A,5*
X115158000Y-109131500D03*
G04 #@! TO.P,REF\002A\002A,6*
X116428000Y-106591500D03*
G04 #@! TD*
G04 #@! TO.P,REF\002A\002A,6*
G04 #@! TO.N,N/C*
X176493000Y-120191500D03*
G04 #@! TO.P,REF\002A\002A,5*
X175223000Y-122731500D03*
D11*
G04 #@! TO.P,REF\002A\002A,1*
X170143000Y-122731500D03*
D10*
G04 #@! TO.P,REF\002A\002A,2*
X171413000Y-120191500D03*
G04 #@! TO.P,REF\002A\002A,3*
X172683000Y-122731500D03*
G04 #@! TO.P,REF\002A\002A,4*
X173953000Y-120191500D03*
G04 #@! TD*
G04 #@! TO.P,REF\002A\002A,6*
G04 #@! TO.N,N/C*
X164493000Y-120191500D03*
G04 #@! TO.P,REF\002A\002A,5*
X163223000Y-122731500D03*
D11*
G04 #@! TO.P,REF\002A\002A,1*
X158143000Y-122731500D03*
D10*
G04 #@! TO.P,REF\002A\002A,2*
X159413000Y-120191500D03*
G04 #@! TO.P,REF\002A\002A,3*
X160683000Y-122731500D03*
G04 #@! TO.P,REF\002A\002A,4*
X161953000Y-120191500D03*
G04 #@! TD*
G04 #@! TO.P,REF\002A\002A,6*
G04 #@! TO.N,N/C*
X152493000Y-120191500D03*
G04 #@! TO.P,REF\002A\002A,5*
X151223000Y-122731500D03*
D11*
G04 #@! TO.P,REF\002A\002A,1*
X146143000Y-122731500D03*
D10*
G04 #@! TO.P,REF\002A\002A,2*
X147413000Y-120191500D03*
G04 #@! TO.P,REF\002A\002A,3*
X148683000Y-122731500D03*
G04 #@! TO.P,REF\002A\002A,4*
X149953000Y-120191500D03*
G04 #@! TD*
G04 #@! TO.P,REF\002A\002A,6*
G04 #@! TO.N,N/C*
X140493000Y-120191500D03*
G04 #@! TO.P,REF\002A\002A,5*
X139223000Y-122731500D03*
D11*
G04 #@! TO.P,REF\002A\002A,1*
X134143000Y-122731500D03*
D10*
G04 #@! TO.P,REF\002A\002A,2*
X135413000Y-120191500D03*
G04 #@! TO.P,REF\002A\002A,3*
X136683000Y-122731500D03*
G04 #@! TO.P,REF\002A\002A,4*
X137953000Y-120191500D03*
G04 #@! TD*
G04 #@! TO.P,REF\002A\002A,6*
G04 #@! TO.N,N/C*
X128493000Y-120191500D03*
G04 #@! TO.P,REF\002A\002A,5*
X127223000Y-122731500D03*
D11*
G04 #@! TO.P,REF\002A\002A,1*
X122143000Y-122731500D03*
D10*
G04 #@! TO.P,REF\002A\002A,2*
X123413000Y-120191500D03*
G04 #@! TO.P,REF\002A\002A,3*
X124683000Y-122731500D03*
G04 #@! TO.P,REF\002A\002A,4*
X125953000Y-120191500D03*
G04 #@! TD*
G04 #@! TO.P,REF\002A\002A,6*
G04 #@! TO.N,N/C*
X176493000Y-106591500D03*
G04 #@! TO.P,REF\002A\002A,5*
X175223000Y-109131500D03*
D11*
G04 #@! TO.P,REF\002A\002A,1*
X170143000Y-109131500D03*
D10*
G04 #@! TO.P,REF\002A\002A,2*
X171413000Y-106591500D03*
G04 #@! TO.P,REF\002A\002A,3*
X172683000Y-109131500D03*
G04 #@! TO.P,REF\002A\002A,4*
X173953000Y-106591500D03*
G04 #@! TD*
G04 #@! TO.P,REF\002A\002A,6*
G04 #@! TO.N,N/C*
X164493000Y-106591500D03*
G04 #@! TO.P,REF\002A\002A,5*
X163223000Y-109131500D03*
D11*
G04 #@! TO.P,REF\002A\002A,1*
X158143000Y-109131500D03*
D10*
G04 #@! TO.P,REF\002A\002A,2*
X159413000Y-106591500D03*
G04 #@! TO.P,REF\002A\002A,3*
X160683000Y-109131500D03*
G04 #@! TO.P,REF\002A\002A,4*
X161953000Y-106591500D03*
G04 #@! TD*
G04 #@! TO.P,REF\002A\002A,6*
G04 #@! TO.N,N/C*
X152493000Y-106591500D03*
G04 #@! TO.P,REF\002A\002A,5*
X151223000Y-109131500D03*
D11*
G04 #@! TO.P,REF\002A\002A,1*
X146143000Y-109131500D03*
D10*
G04 #@! TO.P,REF\002A\002A,2*
X147413000Y-106591500D03*
G04 #@! TO.P,REF\002A\002A,3*
X148683000Y-109131500D03*
G04 #@! TO.P,REF\002A\002A,4*
X149953000Y-106591500D03*
G04 #@! TD*
G04 #@! TO.P,REF\002A\002A,6*
G04 #@! TO.N,N/C*
X140493000Y-106591500D03*
G04 #@! TO.P,REF\002A\002A,5*
X139223000Y-109131500D03*
D11*
G04 #@! TO.P,REF\002A\002A,1*
X134143000Y-109131500D03*
D10*
G04 #@! TO.P,REF\002A\002A,2*
X135413000Y-106591500D03*
G04 #@! TO.P,REF\002A\002A,3*
X136683000Y-109131500D03*
G04 #@! TO.P,REF\002A\002A,4*
X137953000Y-106591500D03*
G04 #@! TD*
G04 #@! TO.P,REF\002A\002A,6*
G04 #@! TO.N,N/C*
X128493000Y-106591500D03*
G04 #@! TO.P,REF\002A\002A,5*
X127223000Y-109131500D03*
D11*
G04 #@! TO.P,REF\002A\002A,1*
X122143000Y-109131500D03*
D10*
G04 #@! TO.P,REF\002A\002A,2*
X123413000Y-106591500D03*
G04 #@! TO.P,REF\002A\002A,3*
X124683000Y-109131500D03*
G04 #@! TO.P,REF\002A\002A,4*
X125953000Y-106591500D03*
G04 #@! TD*
G04 #@! TO.P,REF\002A\002A,6*
G04 #@! TO.N,N/C*
X176493000Y-92991500D03*
G04 #@! TO.P,REF\002A\002A,5*
X175223000Y-95531500D03*
D11*
G04 #@! TO.P,REF\002A\002A,1*
X170143000Y-95531500D03*
D10*
G04 #@! TO.P,REF\002A\002A,2*
X171413000Y-92991500D03*
G04 #@! TO.P,REF\002A\002A,3*
X172683000Y-95531500D03*
G04 #@! TO.P,REF\002A\002A,4*
X173953000Y-92991500D03*
G04 #@! TD*
G04 #@! TO.P,REF\002A\002A,6*
G04 #@! TO.N,N/C*
X164493000Y-92991500D03*
G04 #@! TO.P,REF\002A\002A,5*
X163223000Y-95531500D03*
D11*
G04 #@! TO.P,REF\002A\002A,1*
X158143000Y-95531500D03*
D10*
G04 #@! TO.P,REF\002A\002A,2*
X159413000Y-92991500D03*
G04 #@! TO.P,REF\002A\002A,3*
X160683000Y-95531500D03*
G04 #@! TO.P,REF\002A\002A,4*
X161953000Y-92991500D03*
G04 #@! TD*
G04 #@! TO.P,REF\002A\002A,6*
G04 #@! TO.N,N/C*
X152493000Y-92991500D03*
G04 #@! TO.P,REF\002A\002A,5*
X151223000Y-95531500D03*
D11*
G04 #@! TO.P,REF\002A\002A,1*
X146143000Y-95531500D03*
D10*
G04 #@! TO.P,REF\002A\002A,2*
X147413000Y-92991500D03*
G04 #@! TO.P,REF\002A\002A,3*
X148683000Y-95531500D03*
G04 #@! TO.P,REF\002A\002A,4*
X149953000Y-92991500D03*
G04 #@! TD*
G04 #@! TO.P,REF\002A\002A,6*
G04 #@! TO.N,N/C*
X140493000Y-92991500D03*
G04 #@! TO.P,REF\002A\002A,5*
X139223000Y-95531500D03*
D11*
G04 #@! TO.P,REF\002A\002A,1*
X134143000Y-95531500D03*
D10*
G04 #@! TO.P,REF\002A\002A,2*
X135413000Y-92991500D03*
G04 #@! TO.P,REF\002A\002A,3*
X136683000Y-95531500D03*
G04 #@! TO.P,REF\002A\002A,4*
X137953000Y-92991500D03*
G04 #@! TD*
G04 #@! TO.P,REF\002A\002A,6*
G04 #@! TO.N,N/C*
X128493000Y-92991500D03*
G04 #@! TO.P,REF\002A\002A,5*
X127223000Y-95531500D03*
D11*
G04 #@! TO.P,REF\002A\002A,1*
X122143000Y-95531500D03*
D10*
G04 #@! TO.P,REF\002A\002A,2*
X123413000Y-92991500D03*
G04 #@! TO.P,REF\002A\002A,3*
X124683000Y-95531500D03*
G04 #@! TO.P,REF\002A\002A,4*
X125953000Y-92991500D03*
G04 #@! TD*
G04 #@! TO.P,REF\002A\002A,6*
G04 #@! TO.N,N/C*
X176493000Y-79391500D03*
G04 #@! TO.P,REF\002A\002A,5*
X175223000Y-81931500D03*
D11*
G04 #@! TO.P,REF\002A\002A,1*
X170143000Y-81931500D03*
D10*
G04 #@! TO.P,REF\002A\002A,2*
X171413000Y-79391500D03*
G04 #@! TO.P,REF\002A\002A,3*
X172683000Y-81931500D03*
G04 #@! TO.P,REF\002A\002A,4*
X173953000Y-79391500D03*
G04 #@! TD*
G04 #@! TO.P,REF\002A\002A,6*
G04 #@! TO.N,N/C*
X164493000Y-79391500D03*
G04 #@! TO.P,REF\002A\002A,5*
X163223000Y-81931500D03*
D11*
G04 #@! TO.P,REF\002A\002A,1*
X158143000Y-81931500D03*
D10*
G04 #@! TO.P,REF\002A\002A,2*
X159413000Y-79391500D03*
G04 #@! TO.P,REF\002A\002A,3*
X160683000Y-81931500D03*
G04 #@! TO.P,REF\002A\002A,4*
X161953000Y-79391500D03*
G04 #@! TD*
G04 #@! TO.P,REF\002A\002A,6*
G04 #@! TO.N,N/C*
X152493000Y-79391500D03*
G04 #@! TO.P,REF\002A\002A,5*
X151223000Y-81931500D03*
D11*
G04 #@! TO.P,REF\002A\002A,1*
X146143000Y-81931500D03*
D10*
G04 #@! TO.P,REF\002A\002A,2*
X147413000Y-79391500D03*
G04 #@! TO.P,REF\002A\002A,3*
X148683000Y-81931500D03*
G04 #@! TO.P,REF\002A\002A,4*
X149953000Y-79391500D03*
G04 #@! TD*
G04 #@! TO.P,REF\002A\002A,6*
G04 #@! TO.N,N/C*
X140493000Y-79391500D03*
G04 #@! TO.P,REF\002A\002A,5*
X139223000Y-81931500D03*
D11*
G04 #@! TO.P,REF\002A\002A,1*
X134143000Y-81931500D03*
D10*
G04 #@! TO.P,REF\002A\002A,2*
X135413000Y-79391500D03*
G04 #@! TO.P,REF\002A\002A,3*
X136683000Y-81931500D03*
G04 #@! TO.P,REF\002A\002A,4*
X137953000Y-79391500D03*
G04 #@! TD*
G04 #@! TO.P,REF\002A\002A,6*
G04 #@! TO.N,N/C*
X128493000Y-79391500D03*
G04 #@! TO.P,REF\002A\002A,5*
X127223000Y-81931500D03*
D11*
G04 #@! TO.P,REF\002A\002A,1*
X122143000Y-81931500D03*
D10*
G04 #@! TO.P,REF\002A\002A,2*
X123413000Y-79391500D03*
G04 #@! TO.P,REF\002A\002A,3*
X124683000Y-81931500D03*
G04 #@! TO.P,REF\002A\002A,4*
X125953000Y-79391500D03*
G04 #@! TD*
G04 #@! TO.P,REF\002A\002A,6*
G04 #@! TO.N,N/C*
X176493000Y-65791500D03*
G04 #@! TO.P,REF\002A\002A,5*
X175223000Y-68331500D03*
D11*
G04 #@! TO.P,REF\002A\002A,1*
X170143000Y-68331500D03*
D10*
G04 #@! TO.P,REF\002A\002A,2*
X171413000Y-65791500D03*
G04 #@! TO.P,REF\002A\002A,3*
X172683000Y-68331500D03*
G04 #@! TO.P,REF\002A\002A,4*
X173953000Y-65791500D03*
G04 #@! TD*
G04 #@! TO.P,REF\002A\002A,6*
G04 #@! TO.N,N/C*
X164493000Y-65791500D03*
G04 #@! TO.P,REF\002A\002A,5*
X163223000Y-68331500D03*
D11*
G04 #@! TO.P,REF\002A\002A,1*
X158143000Y-68331500D03*
D10*
G04 #@! TO.P,REF\002A\002A,2*
X159413000Y-65791500D03*
G04 #@! TO.P,REF\002A\002A,3*
X160683000Y-68331500D03*
G04 #@! TO.P,REF\002A\002A,4*
X161953000Y-65791500D03*
G04 #@! TD*
G04 #@! TO.P,REF\002A\002A,6*
G04 #@! TO.N,N/C*
X152493000Y-65791500D03*
G04 #@! TO.P,REF\002A\002A,5*
X151223000Y-68331500D03*
D11*
G04 #@! TO.P,REF\002A\002A,1*
X146143000Y-68331500D03*
D10*
G04 #@! TO.P,REF\002A\002A,2*
X147413000Y-65791500D03*
G04 #@! TO.P,REF\002A\002A,3*
X148683000Y-68331500D03*
G04 #@! TO.P,REF\002A\002A,4*
X149953000Y-65791500D03*
G04 #@! TD*
G04 #@! TO.P,REF\002A\002A,6*
G04 #@! TO.N,N/C*
X140493000Y-65791500D03*
G04 #@! TO.P,REF\002A\002A,5*
X139223000Y-68331500D03*
D11*
G04 #@! TO.P,REF\002A\002A,1*
X134143000Y-68331500D03*
D10*
G04 #@! TO.P,REF\002A\002A,2*
X135413000Y-65791500D03*
G04 #@! TO.P,REF\002A\002A,3*
X136683000Y-68331500D03*
G04 #@! TO.P,REF\002A\002A,4*
X137953000Y-65791500D03*
G04 #@! TD*
G04 #@! TO.P,REF\002A\002A,4*
G04 #@! TO.N,N/C*
X125953000Y-65791500D03*
G04 #@! TO.P,REF\002A\002A,3*
X124683000Y-68331500D03*
G04 #@! TO.P,REF\002A\002A,2*
X123413000Y-65791500D03*
D11*
G04 #@! TO.P,REF\002A\002A,1*
X122143000Y-68331500D03*
D10*
G04 #@! TO.P,REF\002A\002A,5*
X127223000Y-68331500D03*
G04 #@! TO.P,REF\002A\002A,6*
X128493000Y-65791500D03*
G04 #@! TD*
D12*
G04 #@! TO.N,*
X126343000Y-63731500D03*
X127943000Y-63931500D03*
X128643000Y-60231500D03*
X140643000Y-60231500D03*
X152643000Y-60231500D03*
X164643000Y-60231500D03*
X176643000Y-60231500D03*
X128643000Y-73831500D03*
X140643000Y-73831500D03*
X152643000Y-73831500D03*
X164643000Y-73831500D03*
X176643000Y-73831500D03*
X128643000Y-87431500D03*
X140643000Y-87431500D03*
X152643000Y-87431500D03*
X164643000Y-87431500D03*
X176643000Y-87431500D03*
X128643000Y-101031500D03*
X140643000Y-101031500D03*
X152643000Y-101031500D03*
X164643000Y-101031500D03*
X176643000Y-101031500D03*
X128643000Y-114631500D03*
X140643000Y-114631500D03*
X152643000Y-114631500D03*
X164643000Y-114631500D03*
X176643000Y-114631500D03*
X139943000Y-63931500D03*
X151943000Y-63931500D03*
X163943000Y-63931500D03*
X175943000Y-63931500D03*
X127943000Y-77531500D03*
X139943000Y-77531500D03*
X151943000Y-77531500D03*
X163943000Y-77531500D03*
X175943000Y-77531500D03*
X127943000Y-91131500D03*
X139943000Y-91131500D03*
X151943000Y-91131500D03*
X163943000Y-91131500D03*
X175943000Y-91131500D03*
X127943000Y-104731500D03*
X139943000Y-104731500D03*
X151943000Y-104731500D03*
X163943000Y-104731500D03*
X175943000Y-104731500D03*
X127943000Y-118331500D03*
X139943000Y-118331500D03*
X151943000Y-118331500D03*
X163943000Y-118331500D03*
X175943000Y-118331500D03*
X138343000Y-63731500D03*
X150343000Y-63731500D03*
X162343000Y-63731500D03*
X174343000Y-63731500D03*
X126343000Y-77331500D03*
X138343000Y-77331500D03*
X150343000Y-77331500D03*
X162343000Y-77331500D03*
X174343000Y-77331500D03*
X126343000Y-90931500D03*
X138343000Y-90931500D03*
X150343000Y-90931500D03*
X162343000Y-90931500D03*
X174343000Y-90931500D03*
X126343000Y-104531500D03*
X138343000Y-104531500D03*
X150343000Y-104531500D03*
X162343000Y-104531500D03*
X174343000Y-104531500D03*
X126343000Y-118131500D03*
X138343000Y-118131500D03*
X150343000Y-118131500D03*
X162343000Y-118131500D03*
X174343000Y-118131500D03*
X115878000Y-104731500D03*
X115878000Y-91131500D03*
X116578000Y-114631500D03*
X116578000Y-101031500D03*
X116578000Y-87431500D03*
X116578000Y-73831500D03*
X115878000Y-118331500D03*
X115878000Y-77531500D03*
X116578000Y-60231500D03*
X115878000Y-63931500D03*
X114278000Y-77331500D03*
X114278000Y-90931500D03*
X114278000Y-104531500D03*
X114278000Y-118131500D03*
X114278000Y-63731500D03*
X176643000Y-128347500D03*
X152643000Y-128347500D03*
X164643000Y-128347500D03*
X128643000Y-128347500D03*
X140643000Y-128347500D03*
X175943000Y-132047500D03*
X151943000Y-132047500D03*
X163943000Y-132047500D03*
X127943000Y-132047500D03*
X139943000Y-132047500D03*
X126343000Y-131847500D03*
X138343000Y-131847500D03*
X150343000Y-131847500D03*
X162343000Y-131847500D03*
X174343000Y-131847500D03*
X114278000Y-131847500D03*
X115878000Y-132047500D03*
X116578000Y-128347500D03*
X104322500Y-101031500D03*
X102022500Y-104531500D03*
X102022500Y-90931500D03*
X104322500Y-87431500D03*
X102022500Y-77331500D03*
X103622500Y-63931500D03*
X103622500Y-132047500D03*
X104322500Y-73831500D03*
X102022500Y-131847500D03*
X102022500Y-118131500D03*
X103622500Y-77531500D03*
X102022500Y-63731500D03*
X104322500Y-128347500D03*
X103622500Y-104731500D03*
X103622500Y-118331500D03*
X104322500Y-60231500D03*
X104322500Y-114631500D03*
X103622500Y-91131500D03*
G04 #@! TD*
D13*
G04 #@! TO.N,*
X125473000Y-63731500D02*
X123413000Y-65791500D01*
X126343000Y-63731500D02*
X125473000Y-63731500D01*
X127943000Y-63365815D02*
X127843000Y-63265815D01*
X127943000Y-63931500D02*
X127943000Y-63365815D01*
X122143000Y-66431500D02*
X122143000Y-68331500D01*
X121943000Y-66231500D02*
X122143000Y-66431500D01*
X126852999Y-64891501D02*
X127482999Y-64891501D01*
X125953000Y-65791500D02*
X126852999Y-64891501D01*
X127482999Y-64891501D02*
X127743000Y-64631500D01*
X127743000Y-64631500D02*
X128043000Y-64631500D01*
X128043000Y-64631500D02*
X129143000Y-63531500D01*
X129143000Y-60731500D02*
X128643000Y-60231500D01*
X129143000Y-63531500D02*
X129143000Y-60731500D01*
X127843000Y-63265815D02*
X127377315Y-63265815D01*
X127377315Y-63265815D02*
X127243000Y-63131500D01*
X127243000Y-63131500D02*
X124943000Y-63131500D01*
X124943000Y-63131500D02*
X123843000Y-64231500D01*
X121943000Y-66231500D02*
X121943000Y-65331500D01*
X123043000Y-64231500D02*
X123843000Y-64231500D01*
X121943000Y-65331500D02*
X123043000Y-64231500D01*
X139243000Y-63131500D02*
X136943000Y-63131500D01*
X151243000Y-63131500D02*
X148943000Y-63131500D01*
X163243000Y-63131500D02*
X160943000Y-63131500D01*
X175243000Y-63131500D02*
X172943000Y-63131500D01*
X127243000Y-76731500D02*
X124943000Y-76731500D01*
X139243000Y-76731500D02*
X136943000Y-76731500D01*
X151243000Y-76731500D02*
X148943000Y-76731500D01*
X163243000Y-76731500D02*
X160943000Y-76731500D01*
X175243000Y-76731500D02*
X172943000Y-76731500D01*
X127243000Y-90331500D02*
X124943000Y-90331500D01*
X139243000Y-90331500D02*
X136943000Y-90331500D01*
X151243000Y-90331500D02*
X148943000Y-90331500D01*
X163243000Y-90331500D02*
X160943000Y-90331500D01*
X175243000Y-90331500D02*
X172943000Y-90331500D01*
X127243000Y-103931500D02*
X124943000Y-103931500D01*
X139243000Y-103931500D02*
X136943000Y-103931500D01*
X151243000Y-103931500D02*
X148943000Y-103931500D01*
X163243000Y-103931500D02*
X160943000Y-103931500D01*
X175243000Y-103931500D02*
X172943000Y-103931500D01*
X127243000Y-117531500D02*
X124943000Y-117531500D01*
X139243000Y-117531500D02*
X136943000Y-117531500D01*
X151243000Y-117531500D02*
X148943000Y-117531500D01*
X163243000Y-117531500D02*
X160943000Y-117531500D01*
X175243000Y-117531500D02*
X172943000Y-117531500D01*
X136943000Y-63131500D02*
X135843000Y-64231500D01*
X148943000Y-63131500D02*
X147843000Y-64231500D01*
X160943000Y-63131500D02*
X159843000Y-64231500D01*
X172943000Y-63131500D02*
X171843000Y-64231500D01*
X124943000Y-76731500D02*
X123843000Y-77831500D01*
X136943000Y-76731500D02*
X135843000Y-77831500D01*
X148943000Y-76731500D02*
X147843000Y-77831500D01*
X160943000Y-76731500D02*
X159843000Y-77831500D01*
X172943000Y-76731500D02*
X171843000Y-77831500D01*
X124943000Y-90331500D02*
X123843000Y-91431500D01*
X136943000Y-90331500D02*
X135843000Y-91431500D01*
X148943000Y-90331500D02*
X147843000Y-91431500D01*
X160943000Y-90331500D02*
X159843000Y-91431500D01*
X172943000Y-90331500D02*
X171843000Y-91431500D01*
X124943000Y-103931500D02*
X123843000Y-105031500D01*
X136943000Y-103931500D02*
X135843000Y-105031500D01*
X148943000Y-103931500D02*
X147843000Y-105031500D01*
X160943000Y-103931500D02*
X159843000Y-105031500D01*
X172943000Y-103931500D02*
X171843000Y-105031500D01*
X124943000Y-117531500D02*
X123843000Y-118631500D01*
X136943000Y-117531500D02*
X135843000Y-118631500D01*
X148943000Y-117531500D02*
X147843000Y-118631500D01*
X160943000Y-117531500D02*
X159843000Y-118631500D01*
X172943000Y-117531500D02*
X171843000Y-118631500D01*
X139743000Y-64631500D02*
X140043000Y-64631500D01*
X151743000Y-64631500D02*
X152043000Y-64631500D01*
X163743000Y-64631500D02*
X164043000Y-64631500D01*
X175743000Y-64631500D02*
X176043000Y-64631500D01*
X127743000Y-78231500D02*
X128043000Y-78231500D01*
X139743000Y-78231500D02*
X140043000Y-78231500D01*
X151743000Y-78231500D02*
X152043000Y-78231500D01*
X163743000Y-78231500D02*
X164043000Y-78231500D01*
X175743000Y-78231500D02*
X176043000Y-78231500D01*
X127743000Y-91831500D02*
X128043000Y-91831500D01*
X139743000Y-91831500D02*
X140043000Y-91831500D01*
X151743000Y-91831500D02*
X152043000Y-91831500D01*
X163743000Y-91831500D02*
X164043000Y-91831500D01*
X175743000Y-91831500D02*
X176043000Y-91831500D01*
X127743000Y-105431500D02*
X128043000Y-105431500D01*
X139743000Y-105431500D02*
X140043000Y-105431500D01*
X151743000Y-105431500D02*
X152043000Y-105431500D01*
X163743000Y-105431500D02*
X164043000Y-105431500D01*
X175743000Y-105431500D02*
X176043000Y-105431500D01*
X127743000Y-119031500D02*
X128043000Y-119031500D01*
X139743000Y-119031500D02*
X140043000Y-119031500D01*
X151743000Y-119031500D02*
X152043000Y-119031500D01*
X163743000Y-119031500D02*
X164043000Y-119031500D01*
X175743000Y-119031500D02*
X176043000Y-119031500D01*
X140043000Y-64631500D02*
X141143000Y-63531500D01*
X152043000Y-64631500D02*
X153143000Y-63531500D01*
X164043000Y-64631500D02*
X165143000Y-63531500D01*
X176043000Y-64631500D02*
X177143000Y-63531500D01*
X128043000Y-78231500D02*
X129143000Y-77131500D01*
X140043000Y-78231500D02*
X141143000Y-77131500D01*
X152043000Y-78231500D02*
X153143000Y-77131500D01*
X164043000Y-78231500D02*
X165143000Y-77131500D01*
X176043000Y-78231500D02*
X177143000Y-77131500D01*
X128043000Y-91831500D02*
X129143000Y-90731500D01*
X140043000Y-91831500D02*
X141143000Y-90731500D01*
X152043000Y-91831500D02*
X153143000Y-90731500D01*
X164043000Y-91831500D02*
X165143000Y-90731500D01*
X176043000Y-91831500D02*
X177143000Y-90731500D01*
X128043000Y-105431500D02*
X129143000Y-104331500D01*
X140043000Y-105431500D02*
X141143000Y-104331500D01*
X152043000Y-105431500D02*
X153143000Y-104331500D01*
X164043000Y-105431500D02*
X165143000Y-104331500D01*
X176043000Y-105431500D02*
X177143000Y-104331500D01*
X128043000Y-119031500D02*
X129143000Y-117931500D01*
X140043000Y-119031500D02*
X141143000Y-117931500D01*
X152043000Y-119031500D02*
X153143000Y-117931500D01*
X164043000Y-119031500D02*
X165143000Y-117931500D01*
X176043000Y-119031500D02*
X177143000Y-117931500D01*
X138852999Y-64891501D02*
X139482999Y-64891501D01*
X150852999Y-64891501D02*
X151482999Y-64891501D01*
X162852999Y-64891501D02*
X163482999Y-64891501D01*
X174852999Y-64891501D02*
X175482999Y-64891501D01*
X126852999Y-78491501D02*
X127482999Y-78491501D01*
X138852999Y-78491501D02*
X139482999Y-78491501D01*
X150852999Y-78491501D02*
X151482999Y-78491501D01*
X162852999Y-78491501D02*
X163482999Y-78491501D01*
X174852999Y-78491501D02*
X175482999Y-78491501D01*
X126852999Y-92091501D02*
X127482999Y-92091501D01*
X138852999Y-92091501D02*
X139482999Y-92091501D01*
X150852999Y-92091501D02*
X151482999Y-92091501D01*
X162852999Y-92091501D02*
X163482999Y-92091501D01*
X174852999Y-92091501D02*
X175482999Y-92091501D01*
X126852999Y-105691501D02*
X127482999Y-105691501D01*
X138852999Y-105691501D02*
X139482999Y-105691501D01*
X150852999Y-105691501D02*
X151482999Y-105691501D01*
X162852999Y-105691501D02*
X163482999Y-105691501D01*
X174852999Y-105691501D02*
X175482999Y-105691501D01*
X126852999Y-119291501D02*
X127482999Y-119291501D01*
X138852999Y-119291501D02*
X139482999Y-119291501D01*
X150852999Y-119291501D02*
X151482999Y-119291501D01*
X162852999Y-119291501D02*
X163482999Y-119291501D01*
X174852999Y-119291501D02*
X175482999Y-119291501D01*
X141143000Y-60731500D02*
X140643000Y-60231500D01*
X153143000Y-60731500D02*
X152643000Y-60231500D01*
X165143000Y-60731500D02*
X164643000Y-60231500D01*
X177143000Y-60731500D02*
X176643000Y-60231500D01*
X129143000Y-74331500D02*
X128643000Y-73831500D01*
X141143000Y-74331500D02*
X140643000Y-73831500D01*
X153143000Y-74331500D02*
X152643000Y-73831500D01*
X165143000Y-74331500D02*
X164643000Y-73831500D01*
X177143000Y-74331500D02*
X176643000Y-73831500D01*
X129143000Y-87931500D02*
X128643000Y-87431500D01*
X141143000Y-87931500D02*
X140643000Y-87431500D01*
X153143000Y-87931500D02*
X152643000Y-87431500D01*
X165143000Y-87931500D02*
X164643000Y-87431500D01*
X177143000Y-87931500D02*
X176643000Y-87431500D01*
X129143000Y-101531500D02*
X128643000Y-101031500D01*
X141143000Y-101531500D02*
X140643000Y-101031500D01*
X153143000Y-101531500D02*
X152643000Y-101031500D01*
X165143000Y-101531500D02*
X164643000Y-101031500D01*
X177143000Y-101531500D02*
X176643000Y-101031500D01*
X129143000Y-115131500D02*
X128643000Y-114631500D01*
X141143000Y-115131500D02*
X140643000Y-114631500D01*
X153143000Y-115131500D02*
X152643000Y-114631500D01*
X165143000Y-115131500D02*
X164643000Y-114631500D01*
X177143000Y-115131500D02*
X176643000Y-114631500D01*
X139377315Y-63265815D02*
X139243000Y-63131500D01*
X151377315Y-63265815D02*
X151243000Y-63131500D01*
X163377315Y-63265815D02*
X163243000Y-63131500D01*
X175377315Y-63265815D02*
X175243000Y-63131500D01*
X127377315Y-76865815D02*
X127243000Y-76731500D01*
X139377315Y-76865815D02*
X139243000Y-76731500D01*
X151377315Y-76865815D02*
X151243000Y-76731500D01*
X163377315Y-76865815D02*
X163243000Y-76731500D01*
X175377315Y-76865815D02*
X175243000Y-76731500D01*
X127377315Y-90465815D02*
X127243000Y-90331500D01*
X139377315Y-90465815D02*
X139243000Y-90331500D01*
X151377315Y-90465815D02*
X151243000Y-90331500D01*
X163377315Y-90465815D02*
X163243000Y-90331500D01*
X175377315Y-90465815D02*
X175243000Y-90331500D01*
X127377315Y-104065815D02*
X127243000Y-103931500D01*
X139377315Y-104065815D02*
X139243000Y-103931500D01*
X151377315Y-104065815D02*
X151243000Y-103931500D01*
X163377315Y-104065815D02*
X163243000Y-103931500D01*
X175377315Y-104065815D02*
X175243000Y-103931500D01*
X127377315Y-117665815D02*
X127243000Y-117531500D01*
X139377315Y-117665815D02*
X139243000Y-117531500D01*
X151377315Y-117665815D02*
X151243000Y-117531500D01*
X163377315Y-117665815D02*
X163243000Y-117531500D01*
X175377315Y-117665815D02*
X175243000Y-117531500D01*
X141143000Y-63531500D02*
X141143000Y-60731500D01*
X153143000Y-63531500D02*
X153143000Y-60731500D01*
X165143000Y-63531500D02*
X165143000Y-60731500D01*
X177143000Y-63531500D02*
X177143000Y-60731500D01*
X129143000Y-77131500D02*
X129143000Y-74331500D01*
X141143000Y-77131500D02*
X141143000Y-74331500D01*
X153143000Y-77131500D02*
X153143000Y-74331500D01*
X165143000Y-77131500D02*
X165143000Y-74331500D01*
X177143000Y-77131500D02*
X177143000Y-74331500D01*
X129143000Y-90731500D02*
X129143000Y-87931500D01*
X141143000Y-90731500D02*
X141143000Y-87931500D01*
X153143000Y-90731500D02*
X153143000Y-87931500D01*
X165143000Y-90731500D02*
X165143000Y-87931500D01*
X177143000Y-90731500D02*
X177143000Y-87931500D01*
X129143000Y-104331500D02*
X129143000Y-101531500D01*
X141143000Y-104331500D02*
X141143000Y-101531500D01*
X153143000Y-104331500D02*
X153143000Y-101531500D01*
X165143000Y-104331500D02*
X165143000Y-101531500D01*
X177143000Y-104331500D02*
X177143000Y-101531500D01*
X129143000Y-117931500D02*
X129143000Y-115131500D01*
X141143000Y-117931500D02*
X141143000Y-115131500D01*
X153143000Y-117931500D02*
X153143000Y-115131500D01*
X165143000Y-117931500D02*
X165143000Y-115131500D01*
X177143000Y-117931500D02*
X177143000Y-115131500D01*
X133943000Y-66231500D02*
X134143000Y-66431500D01*
X145943000Y-66231500D02*
X146143000Y-66431500D01*
X157943000Y-66231500D02*
X158143000Y-66431500D01*
X169943000Y-66231500D02*
X170143000Y-66431500D01*
X121943000Y-79831500D02*
X122143000Y-80031500D01*
X133943000Y-79831500D02*
X134143000Y-80031500D01*
X145943000Y-79831500D02*
X146143000Y-80031500D01*
X157943000Y-79831500D02*
X158143000Y-80031500D01*
X169943000Y-79831500D02*
X170143000Y-80031500D01*
X121943000Y-93431500D02*
X122143000Y-93631500D01*
X133943000Y-93431500D02*
X134143000Y-93631500D01*
X145943000Y-93431500D02*
X146143000Y-93631500D01*
X157943000Y-93431500D02*
X158143000Y-93631500D01*
X169943000Y-93431500D02*
X170143000Y-93631500D01*
X121943000Y-107031500D02*
X122143000Y-107231500D01*
X133943000Y-107031500D02*
X134143000Y-107231500D01*
X145943000Y-107031500D02*
X146143000Y-107231500D01*
X157943000Y-107031500D02*
X158143000Y-107231500D01*
X169943000Y-107031500D02*
X170143000Y-107231500D01*
X121943000Y-120631500D02*
X122143000Y-120831500D01*
X133943000Y-120631500D02*
X134143000Y-120831500D01*
X145943000Y-120631500D02*
X146143000Y-120831500D01*
X157943000Y-120631500D02*
X158143000Y-120831500D01*
X169943000Y-120631500D02*
X170143000Y-120831500D01*
X133943000Y-66231500D02*
X133943000Y-65331500D01*
X145943000Y-66231500D02*
X145943000Y-65331500D01*
X157943000Y-66231500D02*
X157943000Y-65331500D01*
X169943000Y-66231500D02*
X169943000Y-65331500D01*
X121943000Y-79831500D02*
X121943000Y-78931500D01*
X133943000Y-79831500D02*
X133943000Y-78931500D01*
X145943000Y-79831500D02*
X145943000Y-78931500D01*
X157943000Y-79831500D02*
X157943000Y-78931500D01*
X169943000Y-79831500D02*
X169943000Y-78931500D01*
X121943000Y-93431500D02*
X121943000Y-92531500D01*
X133943000Y-93431500D02*
X133943000Y-92531500D01*
X145943000Y-93431500D02*
X145943000Y-92531500D01*
X157943000Y-93431500D02*
X157943000Y-92531500D01*
X169943000Y-93431500D02*
X169943000Y-92531500D01*
X121943000Y-107031500D02*
X121943000Y-106131500D01*
X133943000Y-107031500D02*
X133943000Y-106131500D01*
X145943000Y-107031500D02*
X145943000Y-106131500D01*
X157943000Y-107031500D02*
X157943000Y-106131500D01*
X169943000Y-107031500D02*
X169943000Y-106131500D01*
X121943000Y-120631500D02*
X121943000Y-119731500D01*
X133943000Y-120631500D02*
X133943000Y-119731500D01*
X145943000Y-120631500D02*
X145943000Y-119731500D01*
X157943000Y-120631500D02*
X157943000Y-119731500D01*
X169943000Y-120631500D02*
X169943000Y-119731500D01*
X139943000Y-63931500D02*
X139943000Y-63365815D01*
X151943000Y-63931500D02*
X151943000Y-63365815D01*
X163943000Y-63931500D02*
X163943000Y-63365815D01*
X175943000Y-63931500D02*
X175943000Y-63365815D01*
X127943000Y-77531500D02*
X127943000Y-76965815D01*
X139943000Y-77531500D02*
X139943000Y-76965815D01*
X151943000Y-77531500D02*
X151943000Y-76965815D01*
X163943000Y-77531500D02*
X163943000Y-76965815D01*
X175943000Y-77531500D02*
X175943000Y-76965815D01*
X127943000Y-91131500D02*
X127943000Y-90565815D01*
X139943000Y-91131500D02*
X139943000Y-90565815D01*
X151943000Y-91131500D02*
X151943000Y-90565815D01*
X163943000Y-91131500D02*
X163943000Y-90565815D01*
X175943000Y-91131500D02*
X175943000Y-90565815D01*
X127943000Y-104731500D02*
X127943000Y-104165815D01*
X139943000Y-104731500D02*
X139943000Y-104165815D01*
X151943000Y-104731500D02*
X151943000Y-104165815D01*
X163943000Y-104731500D02*
X163943000Y-104165815D01*
X175943000Y-104731500D02*
X175943000Y-104165815D01*
X127943000Y-118331500D02*
X127943000Y-117765815D01*
X139943000Y-118331500D02*
X139943000Y-117765815D01*
X151943000Y-118331500D02*
X151943000Y-117765815D01*
X163943000Y-118331500D02*
X163943000Y-117765815D01*
X175943000Y-118331500D02*
X175943000Y-117765815D01*
X139943000Y-63365815D02*
X139843000Y-63265815D01*
X151943000Y-63365815D02*
X151843000Y-63265815D01*
X163943000Y-63365815D02*
X163843000Y-63265815D01*
X175943000Y-63365815D02*
X175843000Y-63265815D01*
X127943000Y-76965815D02*
X127843000Y-76865815D01*
X139943000Y-76965815D02*
X139843000Y-76865815D01*
X151943000Y-76965815D02*
X151843000Y-76865815D01*
X163943000Y-76965815D02*
X163843000Y-76865815D01*
X175943000Y-76965815D02*
X175843000Y-76865815D01*
X127943000Y-90565815D02*
X127843000Y-90465815D01*
X139943000Y-90565815D02*
X139843000Y-90465815D01*
X151943000Y-90565815D02*
X151843000Y-90465815D01*
X163943000Y-90565815D02*
X163843000Y-90465815D01*
X175943000Y-90565815D02*
X175843000Y-90465815D01*
X127943000Y-104165815D02*
X127843000Y-104065815D01*
X139943000Y-104165815D02*
X139843000Y-104065815D01*
X151943000Y-104165815D02*
X151843000Y-104065815D01*
X163943000Y-104165815D02*
X163843000Y-104065815D01*
X175943000Y-104165815D02*
X175843000Y-104065815D01*
X127943000Y-117765815D02*
X127843000Y-117665815D01*
X139943000Y-117765815D02*
X139843000Y-117665815D01*
X151943000Y-117765815D02*
X151843000Y-117665815D01*
X163943000Y-117765815D02*
X163843000Y-117665815D01*
X175943000Y-117765815D02*
X175843000Y-117665815D01*
X139843000Y-63265815D02*
X139377315Y-63265815D01*
X151843000Y-63265815D02*
X151377315Y-63265815D01*
X163843000Y-63265815D02*
X163377315Y-63265815D01*
X175843000Y-63265815D02*
X175377315Y-63265815D01*
X127843000Y-76865815D02*
X127377315Y-76865815D01*
X139843000Y-76865815D02*
X139377315Y-76865815D01*
X151843000Y-76865815D02*
X151377315Y-76865815D01*
X163843000Y-76865815D02*
X163377315Y-76865815D01*
X175843000Y-76865815D02*
X175377315Y-76865815D01*
X127843000Y-90465815D02*
X127377315Y-90465815D01*
X139843000Y-90465815D02*
X139377315Y-90465815D01*
X151843000Y-90465815D02*
X151377315Y-90465815D01*
X163843000Y-90465815D02*
X163377315Y-90465815D01*
X175843000Y-90465815D02*
X175377315Y-90465815D01*
X127843000Y-104065815D02*
X127377315Y-104065815D01*
X139843000Y-104065815D02*
X139377315Y-104065815D01*
X151843000Y-104065815D02*
X151377315Y-104065815D01*
X163843000Y-104065815D02*
X163377315Y-104065815D01*
X175843000Y-104065815D02*
X175377315Y-104065815D01*
X127843000Y-117665815D02*
X127377315Y-117665815D01*
X139843000Y-117665815D02*
X139377315Y-117665815D01*
X151843000Y-117665815D02*
X151377315Y-117665815D01*
X163843000Y-117665815D02*
X163377315Y-117665815D01*
X175843000Y-117665815D02*
X175377315Y-117665815D01*
X139482999Y-64891501D02*
X139743000Y-64631500D01*
X151482999Y-64891501D02*
X151743000Y-64631500D01*
X163482999Y-64891501D02*
X163743000Y-64631500D01*
X175482999Y-64891501D02*
X175743000Y-64631500D01*
X127482999Y-78491501D02*
X127743000Y-78231500D01*
X139482999Y-78491501D02*
X139743000Y-78231500D01*
X151482999Y-78491501D02*
X151743000Y-78231500D01*
X163482999Y-78491501D02*
X163743000Y-78231500D01*
X175482999Y-78491501D02*
X175743000Y-78231500D01*
X127482999Y-92091501D02*
X127743000Y-91831500D01*
X139482999Y-92091501D02*
X139743000Y-91831500D01*
X151482999Y-92091501D02*
X151743000Y-91831500D01*
X163482999Y-92091501D02*
X163743000Y-91831500D01*
X175482999Y-92091501D02*
X175743000Y-91831500D01*
X127482999Y-105691501D02*
X127743000Y-105431500D01*
X139482999Y-105691501D02*
X139743000Y-105431500D01*
X151482999Y-105691501D02*
X151743000Y-105431500D01*
X163482999Y-105691501D02*
X163743000Y-105431500D01*
X175482999Y-105691501D02*
X175743000Y-105431500D01*
X127482999Y-119291501D02*
X127743000Y-119031500D01*
X139482999Y-119291501D02*
X139743000Y-119031500D01*
X151482999Y-119291501D02*
X151743000Y-119031500D01*
X163482999Y-119291501D02*
X163743000Y-119031500D01*
X175482999Y-119291501D02*
X175743000Y-119031500D01*
X135043000Y-64231500D02*
X135843000Y-64231500D01*
X147043000Y-64231500D02*
X147843000Y-64231500D01*
X159043000Y-64231500D02*
X159843000Y-64231500D01*
X171043000Y-64231500D02*
X171843000Y-64231500D01*
X123043000Y-77831500D02*
X123843000Y-77831500D01*
X135043000Y-77831500D02*
X135843000Y-77831500D01*
X147043000Y-77831500D02*
X147843000Y-77831500D01*
X159043000Y-77831500D02*
X159843000Y-77831500D01*
X171043000Y-77831500D02*
X171843000Y-77831500D01*
X123043000Y-91431500D02*
X123843000Y-91431500D01*
X135043000Y-91431500D02*
X135843000Y-91431500D01*
X147043000Y-91431500D02*
X147843000Y-91431500D01*
X159043000Y-91431500D02*
X159843000Y-91431500D01*
X171043000Y-91431500D02*
X171843000Y-91431500D01*
X123043000Y-105031500D02*
X123843000Y-105031500D01*
X135043000Y-105031500D02*
X135843000Y-105031500D01*
X147043000Y-105031500D02*
X147843000Y-105031500D01*
X159043000Y-105031500D02*
X159843000Y-105031500D01*
X171043000Y-105031500D02*
X171843000Y-105031500D01*
X123043000Y-118631500D02*
X123843000Y-118631500D01*
X135043000Y-118631500D02*
X135843000Y-118631500D01*
X147043000Y-118631500D02*
X147843000Y-118631500D01*
X159043000Y-118631500D02*
X159843000Y-118631500D01*
X171043000Y-118631500D02*
X171843000Y-118631500D01*
X138343000Y-63731500D02*
X137473000Y-63731500D01*
X150343000Y-63731500D02*
X149473000Y-63731500D01*
X162343000Y-63731500D02*
X161473000Y-63731500D01*
X174343000Y-63731500D02*
X173473000Y-63731500D01*
X126343000Y-77331500D02*
X125473000Y-77331500D01*
X138343000Y-77331500D02*
X137473000Y-77331500D01*
X150343000Y-77331500D02*
X149473000Y-77331500D01*
X162343000Y-77331500D02*
X161473000Y-77331500D01*
X174343000Y-77331500D02*
X173473000Y-77331500D01*
X126343000Y-90931500D02*
X125473000Y-90931500D01*
X138343000Y-90931500D02*
X137473000Y-90931500D01*
X150343000Y-90931500D02*
X149473000Y-90931500D01*
X162343000Y-90931500D02*
X161473000Y-90931500D01*
X174343000Y-90931500D02*
X173473000Y-90931500D01*
X126343000Y-104531500D02*
X125473000Y-104531500D01*
X138343000Y-104531500D02*
X137473000Y-104531500D01*
X150343000Y-104531500D02*
X149473000Y-104531500D01*
X162343000Y-104531500D02*
X161473000Y-104531500D01*
X174343000Y-104531500D02*
X173473000Y-104531500D01*
X126343000Y-118131500D02*
X125473000Y-118131500D01*
X138343000Y-118131500D02*
X137473000Y-118131500D01*
X150343000Y-118131500D02*
X149473000Y-118131500D01*
X162343000Y-118131500D02*
X161473000Y-118131500D01*
X174343000Y-118131500D02*
X173473000Y-118131500D01*
X134143000Y-66431500D02*
X134143000Y-68331500D01*
X146143000Y-66431500D02*
X146143000Y-68331500D01*
X158143000Y-66431500D02*
X158143000Y-68331500D01*
X170143000Y-66431500D02*
X170143000Y-68331500D01*
X122143000Y-80031500D02*
X122143000Y-81931500D01*
X134143000Y-80031500D02*
X134143000Y-81931500D01*
X146143000Y-80031500D02*
X146143000Y-81931500D01*
X158143000Y-80031500D02*
X158143000Y-81931500D01*
X170143000Y-80031500D02*
X170143000Y-81931500D01*
X122143000Y-93631500D02*
X122143000Y-95531500D01*
X134143000Y-93631500D02*
X134143000Y-95531500D01*
X146143000Y-93631500D02*
X146143000Y-95531500D01*
X158143000Y-93631500D02*
X158143000Y-95531500D01*
X170143000Y-93631500D02*
X170143000Y-95531500D01*
X122143000Y-107231500D02*
X122143000Y-109131500D01*
X134143000Y-107231500D02*
X134143000Y-109131500D01*
X146143000Y-107231500D02*
X146143000Y-109131500D01*
X158143000Y-107231500D02*
X158143000Y-109131500D01*
X170143000Y-107231500D02*
X170143000Y-109131500D01*
X122143000Y-120831500D02*
X122143000Y-122731500D01*
X134143000Y-120831500D02*
X134143000Y-122731500D01*
X146143000Y-120831500D02*
X146143000Y-122731500D01*
X158143000Y-120831500D02*
X158143000Y-122731500D01*
X170143000Y-120831500D02*
X170143000Y-122731500D01*
X137473000Y-63731500D02*
X135413000Y-65791500D01*
X149473000Y-63731500D02*
X147413000Y-65791500D01*
X161473000Y-63731500D02*
X159413000Y-65791500D01*
X173473000Y-63731500D02*
X171413000Y-65791500D01*
X125473000Y-77331500D02*
X123413000Y-79391500D01*
X137473000Y-77331500D02*
X135413000Y-79391500D01*
X149473000Y-77331500D02*
X147413000Y-79391500D01*
X161473000Y-77331500D02*
X159413000Y-79391500D01*
X173473000Y-77331500D02*
X171413000Y-79391500D01*
X125473000Y-90931500D02*
X123413000Y-92991500D01*
X137473000Y-90931500D02*
X135413000Y-92991500D01*
X149473000Y-90931500D02*
X147413000Y-92991500D01*
X161473000Y-90931500D02*
X159413000Y-92991500D01*
X173473000Y-90931500D02*
X171413000Y-92991500D01*
X125473000Y-104531500D02*
X123413000Y-106591500D01*
X137473000Y-104531500D02*
X135413000Y-106591500D01*
X149473000Y-104531500D02*
X147413000Y-106591500D01*
X161473000Y-104531500D02*
X159413000Y-106591500D01*
X173473000Y-104531500D02*
X171413000Y-106591500D01*
X125473000Y-118131500D02*
X123413000Y-120191500D01*
X137473000Y-118131500D02*
X135413000Y-120191500D01*
X149473000Y-118131500D02*
X147413000Y-120191500D01*
X161473000Y-118131500D02*
X159413000Y-120191500D01*
X173473000Y-118131500D02*
X171413000Y-120191500D01*
X137953000Y-65791500D02*
X138852999Y-64891501D01*
X149953000Y-65791500D02*
X150852999Y-64891501D01*
X161953000Y-65791500D02*
X162852999Y-64891501D01*
X173953000Y-65791500D02*
X174852999Y-64891501D01*
X125953000Y-79391500D02*
X126852999Y-78491501D01*
X137953000Y-79391500D02*
X138852999Y-78491501D01*
X149953000Y-79391500D02*
X150852999Y-78491501D01*
X161953000Y-79391500D02*
X162852999Y-78491501D01*
X173953000Y-79391500D02*
X174852999Y-78491501D01*
X125953000Y-92991500D02*
X126852999Y-92091501D01*
X137953000Y-92991500D02*
X138852999Y-92091501D01*
X149953000Y-92991500D02*
X150852999Y-92091501D01*
X161953000Y-92991500D02*
X162852999Y-92091501D01*
X173953000Y-92991500D02*
X174852999Y-92091501D01*
X125953000Y-106591500D02*
X126852999Y-105691501D01*
X137953000Y-106591500D02*
X138852999Y-105691501D01*
X149953000Y-106591500D02*
X150852999Y-105691501D01*
X161953000Y-106591500D02*
X162852999Y-105691501D01*
X173953000Y-106591500D02*
X174852999Y-105691501D01*
X125953000Y-120191500D02*
X126852999Y-119291501D01*
X137953000Y-120191500D02*
X138852999Y-119291501D01*
X149953000Y-120191500D02*
X150852999Y-119291501D01*
X161953000Y-120191500D02*
X162852999Y-119291501D01*
X173953000Y-120191500D02*
X174852999Y-119291501D01*
X133943000Y-65331500D02*
X135043000Y-64231500D01*
X145943000Y-65331500D02*
X147043000Y-64231500D01*
X157943000Y-65331500D02*
X159043000Y-64231500D01*
X169943000Y-65331500D02*
X171043000Y-64231500D01*
X121943000Y-78931500D02*
X123043000Y-77831500D01*
X133943000Y-78931500D02*
X135043000Y-77831500D01*
X145943000Y-78931500D02*
X147043000Y-77831500D01*
X157943000Y-78931500D02*
X159043000Y-77831500D01*
X169943000Y-78931500D02*
X171043000Y-77831500D01*
X121943000Y-92531500D02*
X123043000Y-91431500D01*
X133943000Y-92531500D02*
X135043000Y-91431500D01*
X145943000Y-92531500D02*
X147043000Y-91431500D01*
X157943000Y-92531500D02*
X159043000Y-91431500D01*
X169943000Y-92531500D02*
X171043000Y-91431500D01*
X121943000Y-106131500D02*
X123043000Y-105031500D01*
X133943000Y-106131500D02*
X135043000Y-105031500D01*
X145943000Y-106131500D02*
X147043000Y-105031500D01*
X157943000Y-106131500D02*
X159043000Y-105031500D01*
X169943000Y-106131500D02*
X171043000Y-105031500D01*
X121943000Y-119731500D02*
X123043000Y-118631500D01*
X133943000Y-119731500D02*
X135043000Y-118631500D01*
X145943000Y-119731500D02*
X147043000Y-118631500D01*
X157943000Y-119731500D02*
X159043000Y-118631500D01*
X169943000Y-119731500D02*
X171043000Y-118631500D01*
X115178000Y-63131500D02*
X112878000Y-63131500D01*
X112878000Y-63131500D02*
X111778000Y-64231500D01*
X113408000Y-118131500D02*
X111348000Y-120191500D01*
X109878000Y-119731500D02*
X110978000Y-118631500D01*
X109878000Y-106131500D02*
X110978000Y-105031500D01*
X109878000Y-92531500D02*
X110978000Y-91431500D01*
X109878000Y-78931500D02*
X110978000Y-77831500D01*
X114787999Y-92091501D02*
X115417999Y-92091501D01*
X113888000Y-120191500D02*
X114787999Y-119291501D01*
X113888000Y-106591500D02*
X114787999Y-105691501D01*
X113888000Y-92991500D02*
X114787999Y-92091501D01*
X113888000Y-79391500D02*
X114787999Y-78491501D01*
X113408000Y-104531500D02*
X111348000Y-106591500D01*
X113408000Y-90931500D02*
X111348000Y-92991500D01*
X113408000Y-77331500D02*
X111348000Y-79391500D01*
X110078000Y-120831500D02*
X110078000Y-122731500D01*
X110078000Y-107231500D02*
X110078000Y-109131500D01*
X110078000Y-93631500D02*
X110078000Y-95531500D01*
X110078000Y-80031500D02*
X110078000Y-81931500D01*
X114278000Y-118131500D02*
X113408000Y-118131500D01*
X114278000Y-104531500D02*
X113408000Y-104531500D01*
X114278000Y-90931500D02*
X113408000Y-90931500D01*
X114278000Y-77331500D02*
X113408000Y-77331500D01*
X110978000Y-118631500D02*
X111778000Y-118631500D01*
X110978000Y-105031500D02*
X111778000Y-105031500D01*
X110978000Y-91431500D02*
X111778000Y-91431500D01*
X110978000Y-77831500D02*
X111778000Y-77831500D01*
X117078000Y-117931500D02*
X117078000Y-115131500D01*
X117078000Y-104331500D02*
X117078000Y-101531500D01*
X117078000Y-90731500D02*
X117078000Y-87931500D01*
X117078000Y-77131500D02*
X117078000Y-74331500D01*
X115417999Y-119291501D02*
X115678000Y-119031500D01*
X115417999Y-105691501D02*
X115678000Y-105431500D01*
X115417999Y-92091501D02*
X115678000Y-91831500D01*
X115417999Y-78491501D02*
X115678000Y-78231500D01*
X115778000Y-117665815D02*
X115312315Y-117665815D01*
X115778000Y-104065815D02*
X115312315Y-104065815D01*
X115778000Y-90465815D02*
X115312315Y-90465815D01*
X115778000Y-76865815D02*
X115312315Y-76865815D01*
X115878000Y-117765815D02*
X115778000Y-117665815D01*
X115878000Y-104165815D02*
X115778000Y-104065815D01*
X115878000Y-90565815D02*
X115778000Y-90465815D01*
X115878000Y-76965815D02*
X115778000Y-76865815D01*
X115878000Y-118331500D02*
X115878000Y-117765815D01*
X115878000Y-104731500D02*
X115878000Y-104165815D01*
X115878000Y-91131500D02*
X115878000Y-90565815D01*
X115878000Y-77531500D02*
X115878000Y-76965815D01*
X109878000Y-120631500D02*
X109878000Y-119731500D01*
X109878000Y-107031500D02*
X109878000Y-106131500D01*
X109878000Y-93431500D02*
X109878000Y-92531500D01*
X109878000Y-79831500D02*
X109878000Y-78931500D01*
X109878000Y-120631500D02*
X110078000Y-120831500D01*
X109878000Y-107031500D02*
X110078000Y-107231500D01*
X109878000Y-93431500D02*
X110078000Y-93631500D01*
X109878000Y-79831500D02*
X110078000Y-80031500D01*
X115312315Y-117665815D02*
X115178000Y-117531500D01*
X115312315Y-104065815D02*
X115178000Y-103931500D01*
X115312315Y-90465815D02*
X115178000Y-90331500D01*
X115312315Y-76865815D02*
X115178000Y-76731500D01*
X115178000Y-103931500D02*
X112878000Y-103931500D01*
X114787999Y-78491501D02*
X115417999Y-78491501D01*
X115678000Y-64631500D02*
X115978000Y-64631500D01*
X115978000Y-64631500D02*
X117078000Y-63531500D01*
X114787999Y-64891501D02*
X115417999Y-64891501D01*
X117078000Y-60731500D02*
X116578000Y-60231500D01*
X117078000Y-101531500D02*
X116578000Y-101031500D01*
X115312315Y-63265815D02*
X115178000Y-63131500D01*
X117078000Y-63531500D02*
X117078000Y-60731500D01*
X109878000Y-66231500D02*
X110078000Y-66431500D01*
X115678000Y-119031500D02*
X115978000Y-119031500D01*
X109878000Y-66231500D02*
X109878000Y-65331500D01*
X115678000Y-78231500D02*
X115978000Y-78231500D01*
X115878000Y-63931500D02*
X115878000Y-63365815D01*
X115878000Y-63365815D02*
X115778000Y-63265815D01*
X115178000Y-76731500D02*
X112878000Y-76731500D01*
X115778000Y-63265815D02*
X115312315Y-63265815D01*
X115417999Y-64891501D02*
X115678000Y-64631500D01*
X114787999Y-105691501D02*
X115417999Y-105691501D01*
X112878000Y-117531500D02*
X111778000Y-118631500D01*
X117078000Y-74331500D02*
X116578000Y-73831500D01*
X114787999Y-119291501D02*
X115417999Y-119291501D01*
X117078000Y-87931500D02*
X116578000Y-87431500D01*
X110978000Y-64231500D02*
X111778000Y-64231500D01*
X114278000Y-63731500D02*
X113408000Y-63731500D01*
X110078000Y-66431500D02*
X110078000Y-68331500D01*
X113408000Y-63731500D02*
X111348000Y-65791500D01*
X113888000Y-65791500D02*
X114787999Y-64891501D01*
X109878000Y-65331500D02*
X110978000Y-64231500D01*
X117078000Y-115131500D02*
X116578000Y-114631500D01*
X115978000Y-119031500D02*
X117078000Y-117931500D01*
X115678000Y-91831500D02*
X115978000Y-91831500D01*
X112878000Y-76731500D02*
X111778000Y-77831500D01*
X115978000Y-78231500D02*
X117078000Y-77131500D01*
X115178000Y-90331500D02*
X112878000Y-90331500D01*
X112878000Y-103931500D02*
X111778000Y-105031500D01*
X115978000Y-91831500D02*
X117078000Y-90731500D01*
X112878000Y-90331500D02*
X111778000Y-91431500D01*
X115978000Y-105431500D02*
X117078000Y-104331500D01*
X115678000Y-105431500D02*
X115978000Y-105431500D01*
X115178000Y-117531500D02*
X112878000Y-117531500D01*
X140043000Y-132747500D02*
X141143000Y-131647500D01*
X125473000Y-131847500D02*
X123413000Y-133907500D01*
X157943000Y-133447500D02*
X159043000Y-132347500D01*
X169943000Y-133447500D02*
X171043000Y-132347500D01*
X133943000Y-133447500D02*
X135043000Y-132347500D01*
X145943000Y-133447500D02*
X147043000Y-132347500D01*
X121943000Y-133447500D02*
X123043000Y-132347500D01*
X161953000Y-133907500D02*
X162852999Y-133007501D01*
X173953000Y-133907500D02*
X174852999Y-133007501D01*
X137953000Y-133907500D02*
X138852999Y-133007501D01*
X149953000Y-133907500D02*
X150852999Y-133007501D01*
X125953000Y-133907500D02*
X126852999Y-133007501D01*
X110978000Y-132347500D02*
X111778000Y-132347500D01*
X161473000Y-131847500D02*
X159413000Y-133907500D01*
X173473000Y-131847500D02*
X171413000Y-133907500D01*
X137473000Y-131847500D02*
X135413000Y-133907500D01*
X149473000Y-131847500D02*
X147413000Y-133907500D01*
X158143000Y-134547500D02*
X158143000Y-136447500D01*
X170143000Y-134547500D02*
X170143000Y-136447500D01*
X134143000Y-134547500D02*
X134143000Y-136447500D01*
X146143000Y-134547500D02*
X146143000Y-136447500D01*
X122143000Y-134547500D02*
X122143000Y-136447500D01*
X162343000Y-131847500D02*
X161473000Y-131847500D01*
X174343000Y-131847500D02*
X173473000Y-131847500D01*
X138343000Y-131847500D02*
X137473000Y-131847500D01*
X150343000Y-131847500D02*
X149473000Y-131847500D01*
X126343000Y-131847500D02*
X125473000Y-131847500D01*
X115878000Y-131481815D02*
X115778000Y-131381815D01*
X159043000Y-132347500D02*
X159843000Y-132347500D01*
X171043000Y-132347500D02*
X171843000Y-132347500D01*
X135043000Y-132347500D02*
X135843000Y-132347500D01*
X147043000Y-132347500D02*
X147843000Y-132347500D01*
X123043000Y-132347500D02*
X123843000Y-132347500D01*
X112878000Y-131247500D02*
X111778000Y-132347500D01*
X153143000Y-131647500D02*
X153143000Y-128847500D01*
X165143000Y-131647500D02*
X165143000Y-128847500D01*
X129143000Y-131647500D02*
X129143000Y-128847500D01*
X141143000Y-131647500D02*
X141143000Y-128847500D01*
X177143000Y-128847500D02*
X176643000Y-128347500D01*
X115678000Y-132747500D02*
X115978000Y-132747500D01*
X175482999Y-133007501D02*
X175743000Y-132747500D01*
X151482999Y-133007501D02*
X151743000Y-132747500D01*
X163482999Y-133007501D02*
X163743000Y-132747500D01*
X127482999Y-133007501D02*
X127743000Y-132747500D01*
X139482999Y-133007501D02*
X139743000Y-132747500D01*
X175843000Y-131381815D02*
X175377315Y-131381815D01*
X151843000Y-131381815D02*
X151377315Y-131381815D01*
X163843000Y-131381815D02*
X163377315Y-131381815D01*
X127843000Y-131381815D02*
X127377315Y-131381815D01*
X139843000Y-131381815D02*
X139377315Y-131381815D01*
X175943000Y-131481815D02*
X175843000Y-131381815D01*
X151943000Y-131481815D02*
X151843000Y-131381815D01*
X163943000Y-131481815D02*
X163843000Y-131381815D01*
X127943000Y-131481815D02*
X127843000Y-131381815D01*
X139943000Y-131481815D02*
X139843000Y-131381815D01*
X175943000Y-132047500D02*
X175943000Y-131481815D01*
X151943000Y-132047500D02*
X151943000Y-131481815D01*
X163943000Y-132047500D02*
X163943000Y-131481815D01*
X127943000Y-132047500D02*
X127943000Y-131481815D01*
X139943000Y-132047500D02*
X139943000Y-131481815D01*
X169943000Y-134347500D02*
X169943000Y-133447500D01*
X145943000Y-134347500D02*
X145943000Y-133447500D01*
X157943000Y-134347500D02*
X157943000Y-133447500D01*
X121943000Y-134347500D02*
X121943000Y-133447500D01*
X133943000Y-134347500D02*
X133943000Y-133447500D01*
X109878000Y-133447500D02*
X110978000Y-132347500D01*
X169943000Y-134347500D02*
X170143000Y-134547500D01*
X145943000Y-134347500D02*
X146143000Y-134547500D01*
X157943000Y-134347500D02*
X158143000Y-134547500D01*
X121943000Y-134347500D02*
X122143000Y-134547500D01*
X133943000Y-134347500D02*
X134143000Y-134547500D01*
X115312315Y-131381815D02*
X115178000Y-131247500D01*
X177143000Y-131647500D02*
X177143000Y-128847500D01*
X175377315Y-131381815D02*
X175243000Y-131247500D01*
X151377315Y-131381815D02*
X151243000Y-131247500D01*
X163377315Y-131381815D02*
X163243000Y-131247500D01*
X127377315Y-131381815D02*
X127243000Y-131247500D01*
X139377315Y-131381815D02*
X139243000Y-131247500D01*
X110078000Y-134547500D02*
X110078000Y-136447500D01*
X114787999Y-133007501D02*
X115417999Y-133007501D01*
X117078000Y-128847500D02*
X116578000Y-128347500D01*
X162852999Y-133007501D02*
X163482999Y-133007501D01*
X127743000Y-132747500D02*
X128043000Y-132747500D01*
X148943000Y-131247500D02*
X147843000Y-132347500D01*
X136943000Y-131247500D02*
X135843000Y-132347500D01*
X172943000Y-131247500D02*
X171843000Y-132347500D01*
X176043000Y-132747500D02*
X177143000Y-131647500D01*
X124943000Y-131247500D02*
X123843000Y-132347500D01*
X115417999Y-133007501D02*
X115678000Y-132747500D01*
X174852999Y-133007501D02*
X175482999Y-133007501D01*
X114278000Y-131847500D02*
X113408000Y-131847500D01*
X115978000Y-132747500D02*
X117078000Y-131647500D01*
X109878000Y-134347500D02*
X109878000Y-133447500D01*
X163743000Y-132747500D02*
X164043000Y-132747500D01*
X126852999Y-133007501D02*
X127482999Y-133007501D01*
X117078000Y-131647500D02*
X117078000Y-128847500D01*
X175243000Y-131247500D02*
X172943000Y-131247500D01*
X139243000Y-131247500D02*
X136943000Y-131247500D01*
X129143000Y-128847500D02*
X128643000Y-128347500D01*
X141143000Y-128847500D02*
X140643000Y-128347500D01*
X151743000Y-132747500D02*
X152043000Y-132747500D01*
X151243000Y-131247500D02*
X148943000Y-131247500D01*
X128043000Y-132747500D02*
X129143000Y-131647500D01*
X175743000Y-132747500D02*
X176043000Y-132747500D01*
X164043000Y-132747500D02*
X165143000Y-131647500D01*
X153143000Y-128847500D02*
X152643000Y-128347500D01*
X165143000Y-128847500D02*
X164643000Y-128347500D01*
X113408000Y-131847500D02*
X111348000Y-133907500D01*
X139743000Y-132747500D02*
X140043000Y-132747500D01*
X152043000Y-132747500D02*
X153143000Y-131647500D01*
X138852999Y-133007501D02*
X139482999Y-133007501D01*
X160943000Y-131247500D02*
X159843000Y-132347500D01*
X163243000Y-131247500D02*
X160943000Y-131247500D01*
X150852999Y-133007501D02*
X151482999Y-133007501D01*
X115878000Y-132047500D02*
X115878000Y-131481815D01*
X115178000Y-131247500D02*
X112878000Y-131247500D01*
X113888000Y-133907500D02*
X114787999Y-133007501D01*
X115778000Y-131381815D02*
X115312315Y-131381815D01*
X109878000Y-134347500D02*
X110078000Y-134547500D01*
X127243000Y-131247500D02*
X124943000Y-131247500D01*
X103522500Y-90465815D02*
X103056815Y-90465815D01*
X103622500Y-132047500D02*
X103622500Y-131481815D01*
X101632500Y-92991500D02*
X102532499Y-92091501D01*
X103622500Y-104731500D02*
X103622500Y-104165815D01*
X97622500Y-107031500D02*
X97822500Y-107231500D01*
X98722500Y-132347500D02*
X99522500Y-132347500D01*
X102022500Y-90931500D02*
X101152500Y-90931500D01*
X97622500Y-133447500D02*
X98722500Y-132347500D01*
X98722500Y-118631500D02*
X99522500Y-118631500D01*
X97622500Y-66231500D02*
X97822500Y-66431500D01*
X102532499Y-92091501D02*
X103162499Y-92091501D01*
X101632500Y-79391500D02*
X102532499Y-78491501D01*
X103622500Y-117765815D02*
X103522500Y-117665815D01*
X100622500Y-117531500D02*
X99522500Y-118631500D01*
X104822500Y-90731500D02*
X104822500Y-87931500D01*
X103422500Y-91831500D02*
X103722500Y-91831500D01*
X103056815Y-131381815D02*
X102922500Y-131247500D01*
X102022500Y-77331500D02*
X101152500Y-77331500D01*
X101152500Y-77331500D02*
X99092500Y-79391500D01*
X98722500Y-77831500D02*
X99522500Y-77831500D01*
X100622500Y-103931500D02*
X99522500Y-105031500D01*
X103056815Y-76865815D02*
X102922500Y-76731500D01*
X103422500Y-119031500D02*
X103722500Y-119031500D01*
X103162499Y-133007501D02*
X103422500Y-132747500D01*
X97622500Y-119731500D02*
X98722500Y-118631500D01*
X103056815Y-117665815D02*
X102922500Y-117531500D01*
X103622500Y-131481815D02*
X103522500Y-131381815D01*
X103622500Y-104165815D02*
X103522500Y-104065815D01*
X103622500Y-90565815D02*
X103522500Y-90465815D01*
X102022500Y-104531500D02*
X101152500Y-104531500D01*
X101152500Y-104531500D02*
X99092500Y-106591500D01*
X97822500Y-120831500D02*
X97822500Y-122731500D01*
X104822500Y-101531500D02*
X104322500Y-101031500D01*
X103422500Y-132747500D02*
X103722500Y-132747500D01*
X102532499Y-119291501D02*
X103162499Y-119291501D01*
X103162499Y-64891501D02*
X103422500Y-64631500D01*
X102532499Y-78491501D02*
X103162499Y-78491501D01*
X101632500Y-65791500D02*
X102532499Y-64891501D01*
X97822500Y-66431500D02*
X97822500Y-68331500D01*
X98722500Y-64231500D02*
X99522500Y-64231500D01*
X97822500Y-107231500D02*
X97822500Y-109131500D01*
X102532499Y-133007501D02*
X103162499Y-133007501D01*
X98722500Y-91431500D02*
X99522500Y-91431500D01*
X102922500Y-131247500D02*
X100622500Y-131247500D01*
X103722500Y-105431500D02*
X104822500Y-104331500D01*
X104822500Y-60731500D02*
X104322500Y-60231500D01*
X103622500Y-91131500D02*
X103622500Y-90565815D01*
X100622500Y-76731500D02*
X99522500Y-77831500D01*
X103722500Y-132747500D02*
X104822500Y-131647500D01*
X103722500Y-78231500D02*
X104822500Y-77131500D01*
X102922500Y-63131500D02*
X100622500Y-63131500D01*
X103056815Y-63265815D02*
X102922500Y-63131500D01*
X104822500Y-115131500D02*
X104322500Y-114631500D01*
X103522500Y-131381815D02*
X103056815Y-131381815D01*
X102022500Y-131847500D02*
X101152500Y-131847500D01*
X103522500Y-104065815D02*
X103056815Y-104065815D01*
X103162499Y-105691501D02*
X103422500Y-105431500D01*
X103162499Y-92091501D02*
X103422500Y-91831500D01*
X103522500Y-76865815D02*
X103056815Y-76865815D01*
X97622500Y-134347500D02*
X97622500Y-133447500D01*
X101632500Y-106591500D02*
X102532499Y-105691501D01*
X103162499Y-119291501D02*
X103422500Y-119031500D01*
X103422500Y-78231500D02*
X103722500Y-78231500D01*
X102022500Y-118131500D02*
X101152500Y-118131500D01*
X104822500Y-63531500D02*
X104822500Y-60731500D01*
X103722500Y-119031500D02*
X104822500Y-117931500D01*
X97622500Y-93431500D02*
X97822500Y-93631500D01*
X104822500Y-77131500D02*
X104822500Y-74331500D01*
X97622500Y-79831500D02*
X97622500Y-78931500D01*
X97622500Y-120631500D02*
X97622500Y-119731500D01*
X97622500Y-79831500D02*
X97822500Y-80031500D01*
X97622500Y-107031500D02*
X97622500Y-106131500D01*
X102922500Y-76731500D02*
X100622500Y-76731500D01*
X104822500Y-117931500D02*
X104822500Y-115131500D01*
X102922500Y-90331500D02*
X100622500Y-90331500D01*
X103622500Y-63365815D02*
X103522500Y-63265815D01*
X98722500Y-105031500D02*
X99522500Y-105031500D01*
X104822500Y-131647500D02*
X104822500Y-128847500D01*
X100622500Y-63131500D02*
X99522500Y-64231500D01*
X100622500Y-131247500D02*
X99522500Y-132347500D01*
X97622500Y-106131500D02*
X98722500Y-105031500D01*
X103722500Y-64631500D02*
X104822500Y-63531500D01*
X101632500Y-133907500D02*
X102532499Y-133007501D01*
X103722500Y-91831500D02*
X104822500Y-90731500D01*
X97822500Y-134547500D02*
X97822500Y-136447500D01*
X104822500Y-128847500D02*
X104322500Y-128347500D01*
X103422500Y-64631500D02*
X103722500Y-64631500D01*
X101152500Y-90931500D02*
X99092500Y-92991500D01*
X97822500Y-80031500D02*
X97822500Y-81931500D01*
X104822500Y-104331500D02*
X104822500Y-101531500D01*
X101152500Y-118131500D02*
X99092500Y-120191500D01*
X102532499Y-105691501D02*
X103162499Y-105691501D01*
X101152500Y-63731500D02*
X99092500Y-65791500D01*
X104822500Y-74331500D02*
X104322500Y-73831500D01*
X101152500Y-131847500D02*
X99092500Y-133907500D01*
X103622500Y-76965815D02*
X103522500Y-76865815D01*
X97622500Y-134347500D02*
X97822500Y-134547500D01*
X100622500Y-90331500D02*
X99522500Y-91431500D01*
X103162499Y-78491501D02*
X103422500Y-78231500D01*
X102022500Y-63731500D02*
X101152500Y-63731500D01*
X103622500Y-118331500D02*
X103622500Y-117765815D01*
X97622500Y-92531500D02*
X98722500Y-91431500D01*
X102922500Y-117531500D02*
X100622500Y-117531500D01*
X104822500Y-87931500D02*
X104322500Y-87431500D01*
X97622500Y-65331500D02*
X98722500Y-64231500D01*
X102532499Y-64891501D02*
X103162499Y-64891501D01*
X101632500Y-120191500D02*
X102532499Y-119291501D01*
X97622500Y-78931500D02*
X98722500Y-77831500D01*
X103422500Y-105431500D02*
X103722500Y-105431500D01*
X97622500Y-93431500D02*
X97622500Y-92531500D01*
X103622500Y-77531500D02*
X103622500Y-76965815D01*
X97822500Y-93631500D02*
X97822500Y-95531500D01*
X103056815Y-90465815D02*
X102922500Y-90331500D01*
X103622500Y-63931500D02*
X103622500Y-63365815D01*
X97622500Y-66231500D02*
X97622500Y-65331500D01*
X103522500Y-117665815D02*
X103056815Y-117665815D01*
X102922500Y-103931500D02*
X100622500Y-103931500D01*
X97622500Y-120631500D02*
X97822500Y-120831500D01*
X103056815Y-104065815D02*
X102922500Y-103931500D01*
X103522500Y-63265815D02*
X103056815Y-63265815D01*
G04 #@! TD*
M02*
