M48
;DRILL file {KiCad 5.0.2-bee76a0~70~ubuntu18.04.1} date Fr 10 Mai 2019 19:11:03 CEST
;FORMAT={-:-/ absolute / inch / decimal}
FMAT,2
INCH,TZ
T1C0.0157
T2C0.0315
%
G90
G05
T1
X4.0166Y-2.5091
X4.0166Y-3.0445
X4.0166Y-3.58
X4.0166Y-4.1154
X4.0166Y-4.6508
X4.0166Y-5.1908
X4.0796Y-2.517
X4.0796Y-3.0524
X4.0796Y-3.5879
X4.0796Y-4.1233
X4.0796Y-4.6587
X4.0796Y-5.1987
X4.1072Y-2.3713
X4.1072Y-2.9068
X4.1072Y-3.4422
X4.1072Y-3.9776
X4.1072Y-4.5131
X4.1072Y-5.0531
X4.4991Y-2.5091
X4.4991Y-3.0445
X4.4991Y-3.58
X4.4991Y-4.1154
X4.4991Y-4.6508
X4.4991Y-5.1908
X4.5621Y-2.517
X4.5621Y-3.0524
X4.5621Y-3.5879
X4.5621Y-4.1233
X4.5621Y-4.6587
X4.5621Y-5.1987
X4.5897Y-2.3713
X4.5897Y-2.9068
X4.5897Y-3.4422
X4.5897Y-3.9776
X4.5897Y-4.5131
X4.5897Y-5.0531
X4.9741Y-2.5091
X4.9741Y-3.0445
X4.9741Y-3.58
X4.9741Y-4.1154
X4.9741Y-4.6508
X4.9741Y-5.1908
X5.0371Y-2.517
X5.0371Y-3.0524
X5.0371Y-3.5879
X5.0371Y-4.1233
X5.0371Y-4.6587
X5.0371Y-5.1987
X5.0647Y-2.3713
X5.0647Y-2.9068
X5.0647Y-3.4422
X5.0647Y-3.9776
X5.0647Y-4.5131
X5.0647Y-5.0531
X5.4466Y-2.5091
X5.4466Y-3.0445
X5.4466Y-3.58
X5.4466Y-4.1154
X5.4466Y-4.6508
X5.4466Y-5.1908
X5.5096Y-2.517
X5.5096Y-3.0524
X5.5096Y-3.5879
X5.5096Y-4.1233
X5.5096Y-4.6587
X5.5096Y-5.1987
X5.5371Y-2.3713
X5.5371Y-2.9068
X5.5371Y-3.4422
X5.5371Y-3.9776
X5.5371Y-4.5131
X5.5371Y-5.0531
X5.919Y-2.5091
X5.919Y-3.0445
X5.919Y-3.58
X5.919Y-4.1154
X5.919Y-4.6508
X5.919Y-5.1908
X5.982Y-2.517
X5.982Y-3.0524
X5.982Y-3.5879
X5.982Y-4.1233
X5.982Y-4.6587
X5.982Y-5.1987
X6.0096Y-2.3713
X6.0096Y-2.9068
X6.0096Y-3.4422
X6.0096Y-3.9776
X6.0096Y-4.5131
X6.0096Y-5.0531
X6.3915Y-2.5091
X6.3915Y-3.0445
X6.3915Y-3.58
X6.3915Y-4.1154
X6.3915Y-4.6508
X6.3915Y-5.1908
X6.4544Y-2.517
X6.4544Y-3.0524
X6.4544Y-3.5879
X6.4544Y-4.1233
X6.4544Y-4.6587
X6.4544Y-5.1987
X6.482Y-2.3713
X6.482Y-2.9068
X6.482Y-3.4422
X6.482Y-3.9776
X6.482Y-4.5131
X6.482Y-5.0531
X6.8639Y-2.5091
X6.8639Y-3.0445
X6.8639Y-3.58
X6.8639Y-4.1154
X6.8639Y-4.6508
X6.8639Y-5.1908
X6.9269Y-2.517
X6.9269Y-3.0524
X6.9269Y-3.5879
X6.9269Y-4.1233
X6.9269Y-4.6587
X6.9269Y-5.1987
X6.9544Y-2.3713
X6.9544Y-2.9068
X6.9544Y-3.4422
X6.9544Y-3.9776
X6.9544Y-4.5131
X6.9544Y-5.0531
T2
X4.3338Y-2.6902
X4.3838Y-2.5902
X4.4338Y-2.6902
X4.4838Y-2.5902
X4.5338Y-2.6902
X4.5838Y-2.5902
X3.8513Y-3.2256
X3.9013Y-3.1256
X3.9513Y-3.2256
X4.0013Y-3.1256
X4.0513Y-3.2256
X4.1013Y-3.1256
X5.7537Y-3.2256
X5.8037Y-3.1256
X5.8537Y-3.2256
X5.9037Y-3.1256
X5.9537Y-3.2256
X6.0037Y-3.1256
X6.2261Y-5.3719
X6.2761Y-5.2719
X6.3261Y-5.3719
X6.3761Y-5.2719
X6.4261Y-5.3719
X6.4761Y-5.2719
X4.3338Y-3.2256
X4.3838Y-3.1256
X4.4338Y-3.2256
X4.4838Y-3.1256
X4.5338Y-3.2256
X4.5838Y-3.1256
X4.8088Y-4.8319
X4.8588Y-4.7319
X4.9088Y-4.8319
X4.9588Y-4.7319
X5.0088Y-4.8319
X5.0588Y-4.7319
X5.7537Y-2.6902
X5.8037Y-2.5902
X5.8537Y-2.6902
X5.9037Y-2.5902
X5.9537Y-2.6902
X6.0037Y-2.5902
X4.8088Y-3.7611
X4.8588Y-3.6611
X4.9088Y-3.7611
X4.9588Y-3.6611
X5.0088Y-3.7611
X5.0588Y-3.6611
X6.2261Y-3.2256
X6.2761Y-3.1256
X6.3261Y-3.2256
X6.3761Y-3.1256
X6.4261Y-3.2256
X6.4761Y-3.1256
X5.2812Y-2.6902
X5.3312Y-2.5902
X5.3812Y-2.6902
X5.4312Y-2.5902
X5.4812Y-2.6902
X5.5312Y-2.5902
X4.3338Y-4.2965
X4.3838Y-4.1965
X4.4338Y-4.2965
X4.4838Y-4.1965
X4.5338Y-4.2965
X4.5838Y-4.1965
X6.6985Y-4.2965
X6.7485Y-4.1965
X6.7985Y-4.2965
X6.8485Y-4.1965
X6.8985Y-4.2965
X6.9485Y-4.1965
X6.6985Y-2.6902
X6.7485Y-2.5902
X6.7985Y-2.6902
X6.8485Y-2.5902
X6.8985Y-2.6902
X6.9485Y-2.5902
X6.2261Y-4.2965
X6.2761Y-4.1965
X6.3261Y-4.2965
X6.3761Y-4.1965
X6.4261Y-4.2965
X6.4761Y-4.1965
X6.6985Y-3.7611
X6.7485Y-3.6611
X6.7985Y-3.7611
X6.8485Y-3.6611
X6.8985Y-3.7611
X6.9485Y-3.6611
X5.2812Y-4.8319
X5.3312Y-4.7319
X5.3812Y-4.8319
X5.4312Y-4.7319
X5.4812Y-4.8319
X5.5312Y-4.7319
X4.8088Y-5.3719
X4.8588Y-5.2719
X4.9088Y-5.3719
X4.9588Y-5.2719
X5.0088Y-5.3719
X5.0588Y-5.2719
X5.7537Y-5.3719
X5.8037Y-5.2719
X5.8537Y-5.3719
X5.9037Y-5.2719
X5.9537Y-5.3719
X6.0037Y-5.2719
X6.6985Y-5.3719
X6.7485Y-5.2719
X6.7985Y-5.3719
X6.8485Y-5.2719
X6.8985Y-5.3719
X6.9485Y-5.2719
X4.8088Y-4.2965
X4.8588Y-4.1965
X4.9088Y-4.2965
X4.9588Y-4.1965
X5.0088Y-4.2965
X5.0588Y-4.1965
X5.2812Y-3.2256
X5.3312Y-3.1256
X5.3812Y-3.2256
X5.4312Y-3.1256
X5.4812Y-3.2256
X5.5312Y-3.1256
X6.2261Y-2.6902
X6.2761Y-2.5902
X6.3261Y-2.6902
X6.3761Y-2.5902
X6.4261Y-2.6902
X6.4761Y-2.5902
X5.7537Y-4.2965
X5.8037Y-4.1965
X5.8537Y-4.2965
X5.9037Y-4.1965
X5.9537Y-4.2965
X6.0037Y-4.1965
X5.7537Y-4.8319
X5.8037Y-4.7319
X5.8537Y-4.8319
X5.9037Y-4.7319
X5.9537Y-4.8319
X6.0037Y-4.7319
X4.8088Y-3.2256
X4.8588Y-3.1256
X4.9088Y-3.2256
X4.9588Y-3.1256
X5.0088Y-3.2256
X5.0588Y-3.1256
X5.2812Y-3.7611
X5.3312Y-3.6611
X5.3812Y-3.7611
X5.4312Y-3.6611
X5.4812Y-3.7611
X5.5312Y-3.6611
X4.8088Y-2.6902
X4.8588Y-2.5902
X4.9088Y-2.6902
X4.9588Y-2.5902
X5.0088Y-2.6902
X5.0588Y-2.5902
X3.8513Y-3.7611
X3.9013Y-3.6611
X3.9513Y-3.7611
X4.0013Y-3.6611
X4.0513Y-3.7611
X4.1013Y-3.6611
X4.3338Y-4.8319
X4.3838Y-4.7319
X4.4338Y-4.8319
X4.4838Y-4.7319
X4.5338Y-4.8319
X4.5838Y-4.7319
X5.2812Y-5.3719
X5.3312Y-5.2719
X5.3812Y-5.3719
X5.4312Y-5.2719
X5.4812Y-5.3719
X5.5312Y-5.2719
X3.8513Y-2.6902
X3.9013Y-2.5902
X3.9513Y-2.6902
X4.0013Y-2.5902
X4.0513Y-2.6902
X4.1013Y-2.5902
X5.7537Y-3.7611
X5.8037Y-3.6611
X5.8537Y-3.7611
X5.9037Y-3.6611
X5.9537Y-3.7611
X6.0037Y-3.6611
X4.3338Y-5.3719
X4.3838Y-5.2719
X4.4338Y-5.3719
X4.4838Y-5.2719
X4.5338Y-5.3719
X4.5838Y-5.2719
X6.2261Y-4.8319
X6.2761Y-4.7319
X6.3261Y-4.8319
X6.3761Y-4.7319
X6.4261Y-4.8319
X6.4761Y-4.7319
X6.6985Y-3.2256
X6.7485Y-3.1256
X6.7985Y-3.2256
X6.8485Y-3.1256
X6.8985Y-3.2256
X6.9485Y-3.1256
X5.2812Y-4.2965
X5.3312Y-4.1965
X5.3812Y-4.2965
X5.4312Y-4.1965
X5.4812Y-4.2965
X5.5312Y-4.1965
X6.2261Y-3.7611
X6.2761Y-3.6611
X6.3261Y-3.7611
X6.3761Y-3.6611
X6.4261Y-3.7611
X6.4761Y-3.6611
X6.6985Y-4.8319
X6.7485Y-4.7319
X6.7985Y-4.8319
X6.8485Y-4.7319
X6.8985Y-4.8319
X6.9485Y-4.7319
X3.8513Y-4.8319
X3.9013Y-4.7319
X3.9513Y-4.8319
X4.0013Y-4.7319
X4.0513Y-4.8319
X4.1013Y-4.7319
X4.3338Y-3.7611
X4.3838Y-3.6611
X4.4338Y-3.7611
X4.4838Y-3.6611
X4.5338Y-3.7611
X4.5838Y-3.6611
X3.8513Y-5.3719
X3.9013Y-5.2719
X3.9513Y-5.3719
X4.0013Y-5.2719
X4.0513Y-5.3719
X4.1013Y-5.2719
X3.8513Y-4.2965
X3.9013Y-4.1965
X3.9513Y-4.2965
X4.0013Y-4.1965
X4.0513Y-4.2965
X4.1013Y-4.1965
T0
M30
