M48
;DRILL file {KiCad 5.0.2-bee76a0~70~ubuntu18.04.1} date Fr 10 Mai 2019 19:11:03 CEST
;FORMAT={-:-/ absolute / inch / decimal}
FMAT,2
INCH,TZ
T1C0.0591
%
G90
G05
T1
X4.2787Y-2.6194
X3.7962Y-3.1548
X5.6985Y-3.1548
X6.171Y-5.3011
X4.2787Y-3.1548
X4.7537Y-4.7611
X5.6985Y-2.6194
X4.7537Y-3.6902
X6.171Y-3.1548
X5.2261Y-2.6194
X4.2787Y-4.2256
X6.6434Y-4.2256
X6.6434Y-2.6194
X6.171Y-4.2256
X6.6434Y-3.6902
X5.2261Y-4.7611
X4.7537Y-5.3011
X5.6985Y-5.3011
X6.6434Y-5.3011
X4.7537Y-4.2256
X5.2261Y-3.1548
X6.171Y-2.6194
X5.6985Y-4.2256
X5.6985Y-4.7611
X4.7537Y-3.1548
X5.2261Y-3.6902
X4.7537Y-2.6194
X3.7962Y-3.6902
X4.2787Y-4.7611
X5.2261Y-5.3011
X3.7962Y-2.6194
X5.6985Y-3.6902
X4.2787Y-5.3011
X6.171Y-4.7611
X6.6434Y-3.1548
X5.2261Y-4.2256
X6.171Y-3.6902
X6.6434Y-4.7611
X3.7962Y-4.7611
X4.2787Y-3.6902
X3.7962Y-5.3011
X3.7962Y-4.2256
T0
M30
