G04 #@! TF.GenerationSoftware,KiCad,Pcbnew,5.1.0-060a0da~80~ubuntu18.04.1*
G04 #@! TF.CreationDate,2019-05-11T20:46:11+02:00*
G04 #@! TF.ProjectId,spi_connector_board,7370695f-636f-46e6-9e65-63746f725f62,rev?*
G04 #@! TF.SameCoordinates,Original*
G04 #@! TF.FileFunction,Profile,NP*
%FSLAX46Y46*%
G04 Gerber Fmt 4.6, Leading zero omitted, Abs format (unit mm)*
G04 Created by KiCad (PCBNEW 5.1.0-060a0da~80~ubuntu18.04.1) date 2019-05-11 20:46:11*
%MOMM*%
%LPD*%
G04 APERTURE LIST*
%ADD10C,0.050000*%
G04 APERTURE END LIST*
D10*
X188750000Y-139000000D02*
X200500000Y-139000000D01*
X177000000Y-139000000D02*
X188750000Y-139000000D01*
X165250000Y-139000000D02*
X177000000Y-139000000D01*
X153500000Y-139000000D02*
X165250000Y-139000000D01*
X141750000Y-139000000D02*
X153500000Y-139000000D01*
X130000000Y-139000000D02*
X141750000Y-139000000D01*
X118250000Y-139000000D02*
X130000000Y-139000000D01*
X188750000Y-125500000D02*
X200500000Y-125500000D01*
X177000000Y-125500000D02*
X188750000Y-125500000D01*
X165250000Y-125500000D02*
X177000000Y-125500000D01*
X153500000Y-125500000D02*
X165250000Y-125500000D01*
X141750000Y-125500000D02*
X153500000Y-125500000D01*
X130000000Y-125500000D02*
X141750000Y-125500000D01*
X118250000Y-125500000D02*
X130000000Y-125500000D01*
X188750000Y-112000000D02*
X200500000Y-112000000D01*
X177000000Y-112000000D02*
X188750000Y-112000000D01*
X165250000Y-112000000D02*
X177000000Y-112000000D01*
X153500000Y-112000000D02*
X165250000Y-112000000D01*
X141750000Y-112000000D02*
X153500000Y-112000000D01*
X130000000Y-112000000D02*
X141750000Y-112000000D01*
X118250000Y-112000000D02*
X130000000Y-112000000D01*
X188750000Y-98500000D02*
X200500000Y-98500000D01*
X177000000Y-98500000D02*
X188750000Y-98500000D01*
X165250000Y-98500000D02*
X177000000Y-98500000D01*
X153500000Y-98500000D02*
X165250000Y-98500000D01*
X141750000Y-98500000D02*
X153500000Y-98500000D01*
X130000000Y-98500000D02*
X141750000Y-98500000D01*
X118250000Y-98500000D02*
X130000000Y-98500000D01*
X188750000Y-85000000D02*
X200500000Y-85000000D01*
X177000000Y-85000000D02*
X188750000Y-85000000D01*
X165250000Y-85000000D02*
X177000000Y-85000000D01*
X153500000Y-85000000D02*
X165250000Y-85000000D01*
X141750000Y-85000000D02*
X153500000Y-85000000D01*
X130000000Y-85000000D02*
X141750000Y-85000000D01*
X118250000Y-85000000D02*
X130000000Y-85000000D01*
X188750000Y-71500000D02*
X200500000Y-71500000D01*
X177000000Y-71500000D02*
X188750000Y-71500000D01*
X165250000Y-71500000D02*
X177000000Y-71500000D01*
X153500000Y-71500000D02*
X165250000Y-71500000D01*
X141750000Y-71500000D02*
X153500000Y-71500000D01*
X130000000Y-71500000D02*
X141750000Y-71500000D01*
X188750000Y-152500000D02*
X188750000Y-139000000D01*
X177000000Y-152500000D02*
X177000000Y-139000000D01*
X165250000Y-152500000D02*
X165250000Y-139000000D01*
X153500000Y-152500000D02*
X153500000Y-139000000D01*
X141750000Y-152500000D02*
X141750000Y-139000000D01*
X130000000Y-152500000D02*
X130000000Y-139000000D01*
X118250000Y-152500000D02*
X118250000Y-139000000D01*
X188750000Y-139000000D02*
X188750000Y-125500000D01*
X177000000Y-139000000D02*
X177000000Y-125500000D01*
X165250000Y-139000000D02*
X165250000Y-125500000D01*
X153500000Y-139000000D02*
X153500000Y-125500000D01*
X141750000Y-139000000D02*
X141750000Y-125500000D01*
X130000000Y-139000000D02*
X130000000Y-125500000D01*
X118250000Y-139000000D02*
X118250000Y-125500000D01*
X188750000Y-125500000D02*
X188750000Y-112000000D01*
X177000000Y-125500000D02*
X177000000Y-112000000D01*
X165250000Y-125500000D02*
X165250000Y-112000000D01*
X153500000Y-125500000D02*
X153500000Y-112000000D01*
X141750000Y-125500000D02*
X141750000Y-112000000D01*
X130000000Y-125500000D02*
X130000000Y-112000000D01*
X118250000Y-125500000D02*
X118250000Y-112000000D01*
X188750000Y-112000000D02*
X188750000Y-98500000D01*
X177000000Y-112000000D02*
X177000000Y-98500000D01*
X165250000Y-112000000D02*
X165250000Y-98500000D01*
X153500000Y-112000000D02*
X153500000Y-98500000D01*
X141750000Y-112000000D02*
X141750000Y-98500000D01*
X130000000Y-112000000D02*
X130000000Y-98500000D01*
X118250000Y-112000000D02*
X118250000Y-98500000D01*
X188750000Y-98500000D02*
X188750000Y-85000000D01*
X177000000Y-98500000D02*
X177000000Y-85000000D01*
X165250000Y-98500000D02*
X165250000Y-85000000D01*
X153500000Y-98500000D02*
X153500000Y-85000000D01*
X141750000Y-98500000D02*
X141750000Y-85000000D01*
X130000000Y-98500000D02*
X130000000Y-85000000D01*
X118250000Y-98500000D02*
X118250000Y-85000000D01*
X188750000Y-85000000D02*
X188750000Y-71500000D01*
X177000000Y-85000000D02*
X177000000Y-71500000D01*
X165250000Y-85000000D02*
X165250000Y-71500000D01*
X153500000Y-85000000D02*
X153500000Y-71500000D01*
X141750000Y-85000000D02*
X141750000Y-71500000D01*
X130000000Y-85000000D02*
X130000000Y-71500000D01*
X200500000Y-139000000D02*
X200500000Y-152500000D01*
X188750000Y-139000000D02*
X188750000Y-152500000D01*
X177000000Y-139000000D02*
X177000000Y-152500000D01*
X165250000Y-139000000D02*
X165250000Y-152500000D01*
X153500000Y-139000000D02*
X153500000Y-152500000D01*
X141750000Y-139000000D02*
X141750000Y-152500000D01*
X130000000Y-139000000D02*
X130000000Y-152500000D01*
X200500000Y-125500000D02*
X200500000Y-139000000D01*
X188750000Y-125500000D02*
X188750000Y-139000000D01*
X177000000Y-125500000D02*
X177000000Y-139000000D01*
X165250000Y-125500000D02*
X165250000Y-139000000D01*
X153500000Y-125500000D02*
X153500000Y-139000000D01*
X141750000Y-125500000D02*
X141750000Y-139000000D01*
X130000000Y-125500000D02*
X130000000Y-139000000D01*
X200500000Y-112000000D02*
X200500000Y-125500000D01*
X188750000Y-112000000D02*
X188750000Y-125500000D01*
X177000000Y-112000000D02*
X177000000Y-125500000D01*
X165250000Y-112000000D02*
X165250000Y-125500000D01*
X153500000Y-112000000D02*
X153500000Y-125500000D01*
X141750000Y-112000000D02*
X141750000Y-125500000D01*
X130000000Y-112000000D02*
X130000000Y-125500000D01*
X200500000Y-98500000D02*
X200500000Y-112000000D01*
X188750000Y-98500000D02*
X188750000Y-112000000D01*
X177000000Y-98500000D02*
X177000000Y-112000000D01*
X165250000Y-98500000D02*
X165250000Y-112000000D01*
X153500000Y-98500000D02*
X153500000Y-112000000D01*
X141750000Y-98500000D02*
X141750000Y-112000000D01*
X130000000Y-98500000D02*
X130000000Y-112000000D01*
X200500000Y-85000000D02*
X200500000Y-98500000D01*
X188750000Y-85000000D02*
X188750000Y-98500000D01*
X177000000Y-85000000D02*
X177000000Y-98500000D01*
X165250000Y-85000000D02*
X165250000Y-98500000D01*
X153500000Y-85000000D02*
X153500000Y-98500000D01*
X141750000Y-85000000D02*
X141750000Y-98500000D01*
X130000000Y-85000000D02*
X130000000Y-98500000D01*
X200500000Y-71500000D02*
X200500000Y-85000000D01*
X188750000Y-71500000D02*
X188750000Y-85000000D01*
X177000000Y-71500000D02*
X177000000Y-85000000D01*
X165250000Y-71500000D02*
X165250000Y-85000000D01*
X153500000Y-71500000D02*
X153500000Y-85000000D01*
X141750000Y-71500000D02*
X141750000Y-85000000D01*
X200500000Y-152500000D02*
X188750000Y-152500000D01*
X188750000Y-152500000D02*
X177000000Y-152500000D01*
X177000000Y-152500000D02*
X165250000Y-152500000D01*
X165250000Y-152500000D02*
X153500000Y-152500000D01*
X153500000Y-152500000D02*
X141750000Y-152500000D01*
X141750000Y-152500000D02*
X130000000Y-152500000D01*
X130000000Y-152500000D02*
X118250000Y-152500000D01*
X200500000Y-139000000D02*
X188750000Y-139000000D01*
X188750000Y-139000000D02*
X177000000Y-139000000D01*
X177000000Y-139000000D02*
X165250000Y-139000000D01*
X165250000Y-139000000D02*
X153500000Y-139000000D01*
X153500000Y-139000000D02*
X141750000Y-139000000D01*
X141750000Y-139000000D02*
X130000000Y-139000000D01*
X130000000Y-139000000D02*
X118250000Y-139000000D01*
X200500000Y-125500000D02*
X188750000Y-125500000D01*
X188750000Y-125500000D02*
X177000000Y-125500000D01*
X177000000Y-125500000D02*
X165250000Y-125500000D01*
X165250000Y-125500000D02*
X153500000Y-125500000D01*
X153500000Y-125500000D02*
X141750000Y-125500000D01*
X141750000Y-125500000D02*
X130000000Y-125500000D01*
X130000000Y-125500000D02*
X118250000Y-125500000D01*
X200500000Y-112000000D02*
X188750000Y-112000000D01*
X188750000Y-112000000D02*
X177000000Y-112000000D01*
X177000000Y-112000000D02*
X165250000Y-112000000D01*
X165250000Y-112000000D02*
X153500000Y-112000000D01*
X153500000Y-112000000D02*
X141750000Y-112000000D01*
X141750000Y-112000000D02*
X130000000Y-112000000D01*
X130000000Y-112000000D02*
X118250000Y-112000000D01*
X200500000Y-98500000D02*
X188750000Y-98500000D01*
X188750000Y-98500000D02*
X177000000Y-98500000D01*
X177000000Y-98500000D02*
X165250000Y-98500000D01*
X165250000Y-98500000D02*
X153500000Y-98500000D01*
X153500000Y-98500000D02*
X141750000Y-98500000D01*
X141750000Y-98500000D02*
X130000000Y-98500000D01*
X130000000Y-98500000D02*
X118250000Y-98500000D01*
X200500000Y-85000000D02*
X188750000Y-85000000D01*
X188750000Y-85000000D02*
X177000000Y-85000000D01*
X177000000Y-85000000D02*
X165250000Y-85000000D01*
X165250000Y-85000000D02*
X153500000Y-85000000D01*
X153500000Y-85000000D02*
X141750000Y-85000000D01*
X141750000Y-85000000D02*
X130000000Y-85000000D01*
X118250000Y-85000000D02*
X118250000Y-71500000D01*
X130000000Y-85000000D02*
X118250000Y-85000000D01*
X130000000Y-71500000D02*
X130000000Y-85000000D01*
X118250000Y-71500000D02*
X130000000Y-71500000D01*
M02*
