G04 #@! TF.GenerationSoftware,KiCad,Pcbnew,5.1.0-060a0da~80~ubuntu18.04.1*
G04 #@! TF.CreationDate,2019-05-11T20:40:31+02:00*
G04 #@! TF.ProjectId,spi_connector_board_micromatch_only_5x5_panel,7370695f-636f-46e6-9e65-63746f725f62,rev?*
G04 #@! TF.SameCoordinates,Original*
G04 #@! TF.FileFunction,Copper,L2,Bot*
G04 #@! TF.FilePolarity,Positive*
%FSLAX46Y46*%
G04 Gerber Fmt 4.6, Leading zero omitted, Abs format (unit mm)*
G04 Created by KiCad (PCBNEW 5.1.0-060a0da~80~ubuntu18.04.1) date 2019-05-11 20:40:31*
%MOMM*%
%LPD*%
G04 APERTURE LIST*
%ADD10C,1.800000*%
%ADD11R,1.800000X1.800000*%
G04 APERTURE END LIST*
D10*
X155272500Y-143192000D03*
X154002500Y-145732000D03*
X152732500Y-143192000D03*
D11*
X151462500Y-145732000D03*
D10*
X156542500Y-145732000D03*
X157812500Y-143192000D03*
X143522500Y-143192000D03*
X142252500Y-145732000D03*
X140982500Y-143192000D03*
D11*
X139712500Y-145732000D03*
D10*
X144792500Y-145732000D03*
X146062500Y-143192000D03*
X131772500Y-143192000D03*
X130502500Y-145732000D03*
X129232500Y-143192000D03*
D11*
X127962500Y-145732000D03*
D10*
X133042500Y-145732000D03*
X134312500Y-143192000D03*
X120022500Y-143192000D03*
X118752500Y-145732000D03*
X117482500Y-143192000D03*
D11*
X116212500Y-145732000D03*
D10*
X121292500Y-145732000D03*
X122562500Y-143192000D03*
X108272500Y-143192000D03*
X107002500Y-145732000D03*
X105732500Y-143192000D03*
D11*
X104462500Y-145732000D03*
D10*
X109542500Y-145732000D03*
X110812500Y-143192000D03*
X96522500Y-143192000D03*
X95252500Y-145732000D03*
X93982500Y-143192000D03*
D11*
X92712500Y-145732000D03*
D10*
X97792500Y-145732000D03*
X99062500Y-143192000D03*
X84772500Y-143192000D03*
X83502500Y-145732000D03*
X82232500Y-143192000D03*
D11*
X80962500Y-145732000D03*
D10*
X86042500Y-145732000D03*
X87312500Y-143192000D03*
X155272500Y-129692000D03*
X154002500Y-132232000D03*
X152732500Y-129692000D03*
D11*
X151462500Y-132232000D03*
D10*
X156542500Y-132232000D03*
X157812500Y-129692000D03*
X143522500Y-129692000D03*
X142252500Y-132232000D03*
X140982500Y-129692000D03*
D11*
X139712500Y-132232000D03*
D10*
X144792500Y-132232000D03*
X146062500Y-129692000D03*
X131772500Y-129692000D03*
X130502500Y-132232000D03*
X129232500Y-129692000D03*
D11*
X127962500Y-132232000D03*
D10*
X133042500Y-132232000D03*
X134312500Y-129692000D03*
X120022500Y-129692000D03*
X118752500Y-132232000D03*
X117482500Y-129692000D03*
D11*
X116212500Y-132232000D03*
D10*
X121292500Y-132232000D03*
X122562500Y-129692000D03*
X108272500Y-129692000D03*
X107002500Y-132232000D03*
X105732500Y-129692000D03*
D11*
X104462500Y-132232000D03*
D10*
X109542500Y-132232000D03*
X110812500Y-129692000D03*
X96522500Y-129692000D03*
X95252500Y-132232000D03*
X93982500Y-129692000D03*
D11*
X92712500Y-132232000D03*
D10*
X97792500Y-132232000D03*
X99062500Y-129692000D03*
X84772500Y-129692000D03*
X83502500Y-132232000D03*
X82232500Y-129692000D03*
D11*
X80962500Y-132232000D03*
D10*
X86042500Y-132232000D03*
X87312500Y-129692000D03*
X155272500Y-116192000D03*
X154002500Y-118732000D03*
X152732500Y-116192000D03*
D11*
X151462500Y-118732000D03*
D10*
X156542500Y-118732000D03*
X157812500Y-116192000D03*
X143522500Y-116192000D03*
X142252500Y-118732000D03*
X140982500Y-116192000D03*
D11*
X139712500Y-118732000D03*
D10*
X144792500Y-118732000D03*
X146062500Y-116192000D03*
X131772500Y-116192000D03*
X130502500Y-118732000D03*
X129232500Y-116192000D03*
D11*
X127962500Y-118732000D03*
D10*
X133042500Y-118732000D03*
X134312500Y-116192000D03*
X120022500Y-116192000D03*
X118752500Y-118732000D03*
X117482500Y-116192000D03*
D11*
X116212500Y-118732000D03*
D10*
X121292500Y-118732000D03*
X122562500Y-116192000D03*
X108272500Y-116192000D03*
X107002500Y-118732000D03*
X105732500Y-116192000D03*
D11*
X104462500Y-118732000D03*
D10*
X109542500Y-118732000D03*
X110812500Y-116192000D03*
X96522500Y-116192000D03*
X95252500Y-118732000D03*
X93982500Y-116192000D03*
D11*
X92712500Y-118732000D03*
D10*
X97792500Y-118732000D03*
X99062500Y-116192000D03*
X84772500Y-116192000D03*
X83502500Y-118732000D03*
X82232500Y-116192000D03*
D11*
X80962500Y-118732000D03*
D10*
X86042500Y-118732000D03*
X87312500Y-116192000D03*
X155272500Y-102692000D03*
X154002500Y-105232000D03*
X152732500Y-102692000D03*
D11*
X151462500Y-105232000D03*
D10*
X156542500Y-105232000D03*
X157812500Y-102692000D03*
X143522500Y-102692000D03*
X142252500Y-105232000D03*
X140982500Y-102692000D03*
D11*
X139712500Y-105232000D03*
D10*
X144792500Y-105232000D03*
X146062500Y-102692000D03*
X131772500Y-102692000D03*
X130502500Y-105232000D03*
X129232500Y-102692000D03*
D11*
X127962500Y-105232000D03*
D10*
X133042500Y-105232000D03*
X134312500Y-102692000D03*
X120022500Y-102692000D03*
X118752500Y-105232000D03*
X117482500Y-102692000D03*
D11*
X116212500Y-105232000D03*
D10*
X121292500Y-105232000D03*
X122562500Y-102692000D03*
X108272500Y-102692000D03*
X107002500Y-105232000D03*
X105732500Y-102692000D03*
D11*
X104462500Y-105232000D03*
D10*
X109542500Y-105232000D03*
X110812500Y-102692000D03*
X96522500Y-102692000D03*
X95252500Y-105232000D03*
X93982500Y-102692000D03*
D11*
X92712500Y-105232000D03*
D10*
X97792500Y-105232000D03*
X99062500Y-102692000D03*
X84772500Y-102692000D03*
X83502500Y-105232000D03*
X82232500Y-102692000D03*
D11*
X80962500Y-105232000D03*
D10*
X86042500Y-105232000D03*
X87312500Y-102692000D03*
X155272500Y-89192000D03*
X154002500Y-91732000D03*
X152732500Y-89192000D03*
D11*
X151462500Y-91732000D03*
D10*
X156542500Y-91732000D03*
X157812500Y-89192000D03*
X143522500Y-89192000D03*
X142252500Y-91732000D03*
X140982500Y-89192000D03*
D11*
X139712500Y-91732000D03*
D10*
X144792500Y-91732000D03*
X146062500Y-89192000D03*
X131772500Y-89192000D03*
X130502500Y-91732000D03*
X129232500Y-89192000D03*
D11*
X127962500Y-91732000D03*
D10*
X133042500Y-91732000D03*
X134312500Y-89192000D03*
X120022500Y-89192000D03*
X118752500Y-91732000D03*
X117482500Y-89192000D03*
D11*
X116212500Y-91732000D03*
D10*
X121292500Y-91732000D03*
X122562500Y-89192000D03*
X108272500Y-89192000D03*
X107002500Y-91732000D03*
X105732500Y-89192000D03*
D11*
X104462500Y-91732000D03*
D10*
X109542500Y-91732000D03*
X110812500Y-89192000D03*
X96522500Y-89192000D03*
X95252500Y-91732000D03*
X93982500Y-89192000D03*
D11*
X92712500Y-91732000D03*
D10*
X97792500Y-91732000D03*
X99062500Y-89192000D03*
X84772500Y-89192000D03*
X83502500Y-91732000D03*
X82232500Y-89192000D03*
D11*
X80962500Y-91732000D03*
D10*
X86042500Y-91732000D03*
X87312500Y-89192000D03*
X155272500Y-75692000D03*
X154002500Y-78232000D03*
X152732500Y-75692000D03*
D11*
X151462500Y-78232000D03*
D10*
X156542500Y-78232000D03*
X157812500Y-75692000D03*
X143522500Y-75692000D03*
X142252500Y-78232000D03*
X140982500Y-75692000D03*
D11*
X139712500Y-78232000D03*
D10*
X144792500Y-78232000D03*
X146062500Y-75692000D03*
X131772500Y-75692000D03*
X130502500Y-78232000D03*
X129232500Y-75692000D03*
D11*
X127962500Y-78232000D03*
D10*
X133042500Y-78232000D03*
X134312500Y-75692000D03*
X120022500Y-75692000D03*
X118752500Y-78232000D03*
X117482500Y-75692000D03*
D11*
X116212500Y-78232000D03*
D10*
X121292500Y-78232000D03*
X122562500Y-75692000D03*
X108272500Y-75692000D03*
X107002500Y-78232000D03*
X105732500Y-75692000D03*
D11*
X104462500Y-78232000D03*
D10*
X109542500Y-78232000D03*
X110812500Y-75692000D03*
X96522500Y-75692000D03*
X95252500Y-78232000D03*
X93982500Y-75692000D03*
D11*
X92712500Y-78232000D03*
D10*
X97792500Y-78232000D03*
X99062500Y-75692000D03*
X157781500Y-149865000D03*
X156511500Y-152405000D03*
D11*
X151431500Y-152405000D03*
D10*
X152701500Y-149865000D03*
X153971500Y-152405000D03*
X155241500Y-149865000D03*
X146031500Y-149865000D03*
X144761500Y-152405000D03*
D11*
X139681500Y-152405000D03*
D10*
X140951500Y-149865000D03*
X142221500Y-152405000D03*
X143491500Y-149865000D03*
X134281500Y-149865000D03*
X133011500Y-152405000D03*
D11*
X127931500Y-152405000D03*
D10*
X129201500Y-149865000D03*
X130471500Y-152405000D03*
X131741500Y-149865000D03*
X122531500Y-149865000D03*
X121261500Y-152405000D03*
D11*
X116181500Y-152405000D03*
D10*
X117451500Y-149865000D03*
X118721500Y-152405000D03*
X119991500Y-149865000D03*
X110781500Y-149865000D03*
X109511500Y-152405000D03*
D11*
X104431500Y-152405000D03*
D10*
X105701500Y-149865000D03*
X106971500Y-152405000D03*
X108241500Y-149865000D03*
X99031500Y-149865000D03*
X97761500Y-152405000D03*
D11*
X92681500Y-152405000D03*
D10*
X93951500Y-149865000D03*
X95221500Y-152405000D03*
X96491500Y-149865000D03*
X87281500Y-149865000D03*
X86011500Y-152405000D03*
D11*
X80931500Y-152405000D03*
D10*
X82201500Y-149865000D03*
X83471500Y-152405000D03*
X84741500Y-149865000D03*
X157781500Y-136365000D03*
X156511500Y-138905000D03*
D11*
X151431500Y-138905000D03*
D10*
X152701500Y-136365000D03*
X153971500Y-138905000D03*
X155241500Y-136365000D03*
X146031500Y-136365000D03*
X144761500Y-138905000D03*
D11*
X139681500Y-138905000D03*
D10*
X140951500Y-136365000D03*
X142221500Y-138905000D03*
X143491500Y-136365000D03*
X134281500Y-136365000D03*
X133011500Y-138905000D03*
D11*
X127931500Y-138905000D03*
D10*
X129201500Y-136365000D03*
X130471500Y-138905000D03*
X131741500Y-136365000D03*
X122531500Y-136365000D03*
X121261500Y-138905000D03*
D11*
X116181500Y-138905000D03*
D10*
X117451500Y-136365000D03*
X118721500Y-138905000D03*
X119991500Y-136365000D03*
X110781500Y-136365000D03*
X109511500Y-138905000D03*
D11*
X104431500Y-138905000D03*
D10*
X105701500Y-136365000D03*
X106971500Y-138905000D03*
X108241500Y-136365000D03*
X99031500Y-136365000D03*
X97761500Y-138905000D03*
D11*
X92681500Y-138905000D03*
D10*
X93951500Y-136365000D03*
X95221500Y-138905000D03*
X96491500Y-136365000D03*
X87281500Y-136365000D03*
X86011500Y-138905000D03*
D11*
X80931500Y-138905000D03*
D10*
X82201500Y-136365000D03*
X83471500Y-138905000D03*
X84741500Y-136365000D03*
X157781500Y-122865000D03*
X156511500Y-125405000D03*
D11*
X151431500Y-125405000D03*
D10*
X152701500Y-122865000D03*
X153971500Y-125405000D03*
X155241500Y-122865000D03*
X146031500Y-122865000D03*
X144761500Y-125405000D03*
D11*
X139681500Y-125405000D03*
D10*
X140951500Y-122865000D03*
X142221500Y-125405000D03*
X143491500Y-122865000D03*
X134281500Y-122865000D03*
X133011500Y-125405000D03*
D11*
X127931500Y-125405000D03*
D10*
X129201500Y-122865000D03*
X130471500Y-125405000D03*
X131741500Y-122865000D03*
X122531500Y-122865000D03*
X121261500Y-125405000D03*
D11*
X116181500Y-125405000D03*
D10*
X117451500Y-122865000D03*
X118721500Y-125405000D03*
X119991500Y-122865000D03*
X110781500Y-122865000D03*
X109511500Y-125405000D03*
D11*
X104431500Y-125405000D03*
D10*
X105701500Y-122865000D03*
X106971500Y-125405000D03*
X108241500Y-122865000D03*
X99031500Y-122865000D03*
X97761500Y-125405000D03*
D11*
X92681500Y-125405000D03*
D10*
X93951500Y-122865000D03*
X95221500Y-125405000D03*
X96491500Y-122865000D03*
X87281500Y-122865000D03*
X86011500Y-125405000D03*
D11*
X80931500Y-125405000D03*
D10*
X82201500Y-122865000D03*
X83471500Y-125405000D03*
X84741500Y-122865000D03*
X157781500Y-109365000D03*
X156511500Y-111905000D03*
D11*
X151431500Y-111905000D03*
D10*
X152701500Y-109365000D03*
X153971500Y-111905000D03*
X155241500Y-109365000D03*
X146031500Y-109365000D03*
X144761500Y-111905000D03*
D11*
X139681500Y-111905000D03*
D10*
X140951500Y-109365000D03*
X142221500Y-111905000D03*
X143491500Y-109365000D03*
X134281500Y-109365000D03*
X133011500Y-111905000D03*
D11*
X127931500Y-111905000D03*
D10*
X129201500Y-109365000D03*
X130471500Y-111905000D03*
X131741500Y-109365000D03*
X122531500Y-109365000D03*
X121261500Y-111905000D03*
D11*
X116181500Y-111905000D03*
D10*
X117451500Y-109365000D03*
X118721500Y-111905000D03*
X119991500Y-109365000D03*
X110781500Y-109365000D03*
X109511500Y-111905000D03*
D11*
X104431500Y-111905000D03*
D10*
X105701500Y-109365000D03*
X106971500Y-111905000D03*
X108241500Y-109365000D03*
X99031500Y-109365000D03*
X97761500Y-111905000D03*
D11*
X92681500Y-111905000D03*
D10*
X93951500Y-109365000D03*
X95221500Y-111905000D03*
X96491500Y-109365000D03*
X87281500Y-109365000D03*
X86011500Y-111905000D03*
D11*
X80931500Y-111905000D03*
D10*
X82201500Y-109365000D03*
X83471500Y-111905000D03*
X84741500Y-109365000D03*
X157781500Y-95865000D03*
X156511500Y-98405000D03*
D11*
X151431500Y-98405000D03*
D10*
X152701500Y-95865000D03*
X153971500Y-98405000D03*
X155241500Y-95865000D03*
X146031500Y-95865000D03*
X144761500Y-98405000D03*
D11*
X139681500Y-98405000D03*
D10*
X140951500Y-95865000D03*
X142221500Y-98405000D03*
X143491500Y-95865000D03*
X134281500Y-95865000D03*
X133011500Y-98405000D03*
D11*
X127931500Y-98405000D03*
D10*
X129201500Y-95865000D03*
X130471500Y-98405000D03*
X131741500Y-95865000D03*
X122531500Y-95865000D03*
X121261500Y-98405000D03*
D11*
X116181500Y-98405000D03*
D10*
X117451500Y-95865000D03*
X118721500Y-98405000D03*
X119991500Y-95865000D03*
X110781500Y-95865000D03*
X109511500Y-98405000D03*
D11*
X104431500Y-98405000D03*
D10*
X105701500Y-95865000D03*
X106971500Y-98405000D03*
X108241500Y-95865000D03*
X99031500Y-95865000D03*
X97761500Y-98405000D03*
D11*
X92681500Y-98405000D03*
D10*
X93951500Y-95865000D03*
X95221500Y-98405000D03*
X96491500Y-95865000D03*
X87281500Y-95865000D03*
X86011500Y-98405000D03*
D11*
X80931500Y-98405000D03*
D10*
X82201500Y-95865000D03*
X83471500Y-98405000D03*
X84741500Y-95865000D03*
X157781500Y-82365000D03*
X156511500Y-84905000D03*
D11*
X151431500Y-84905000D03*
D10*
X152701500Y-82365000D03*
X153971500Y-84905000D03*
X155241500Y-82365000D03*
X146031500Y-82365000D03*
X144761500Y-84905000D03*
D11*
X139681500Y-84905000D03*
D10*
X140951500Y-82365000D03*
X142221500Y-84905000D03*
X143491500Y-82365000D03*
X134281500Y-82365000D03*
X133011500Y-84905000D03*
D11*
X127931500Y-84905000D03*
D10*
X129201500Y-82365000D03*
X130471500Y-84905000D03*
X131741500Y-82365000D03*
X122531500Y-82365000D03*
X121261500Y-84905000D03*
D11*
X116181500Y-84905000D03*
D10*
X117451500Y-82365000D03*
X118721500Y-84905000D03*
X119991500Y-82365000D03*
X110781500Y-82365000D03*
X109511500Y-84905000D03*
D11*
X104431500Y-84905000D03*
D10*
X105701500Y-82365000D03*
X106971500Y-84905000D03*
X108241500Y-82365000D03*
X99031500Y-82365000D03*
X97761500Y-84905000D03*
D11*
X92681500Y-84905000D03*
D10*
X93951500Y-82365000D03*
X95221500Y-84905000D03*
X96491500Y-82365000D03*
X84741500Y-82365000D03*
X83471500Y-84905000D03*
X82201500Y-82365000D03*
D11*
X80931500Y-84905000D03*
D10*
X86011500Y-84905000D03*
X87281500Y-82365000D03*
X87312500Y-75692000D03*
X86042500Y-78232000D03*
D11*
X80962500Y-78232000D03*
D10*
X82232500Y-75692000D03*
X83502500Y-78232000D03*
X84772500Y-75692000D03*
M02*
