G04 #@! TF.GenerationSoftware,KiCad,Pcbnew,5.0.2-bee76a0~70~ubuntu18.04.1*
G04 #@! TF.CreationDate,2019-05-10T19:14:11+02:00*
G04 #@! TF.ProjectId,spi_connector_board_micromatch_only_5x5_panel,7370695f-636f-46e6-9e65-63746f725f62,rev?*
G04 #@! TF.SameCoordinates,Original*
G04 #@! TF.FileFunction,Profile,NP*
%FSLAX46Y46*%
G04 Gerber Fmt 4.6, Leading zero omitted, Abs format (unit mm)*
G04 Created by KiCad (PCBNEW 5.0.2-bee76a0~70~ubuntu18.04.1) date Fr 10 Mai 2019 19:14:11 CEST*
%MOMM*%
%LPD*%
G01*
G04 APERTURE LIST*
%ADD10C,0.050000*%
G04 APERTURE END LIST*
D10*
X90246500Y-155421000D02*
X90246500Y-141921000D01*
X102311500Y-141921000D02*
X114061500Y-141921000D01*
X114311500Y-141921000D02*
X126061500Y-141921000D01*
X126311500Y-141921000D02*
X138061500Y-141921000D01*
X138311500Y-141921000D02*
X150061500Y-141921000D01*
X150311500Y-141921000D02*
X162061500Y-141921000D01*
X114061500Y-141921000D02*
X114061500Y-155421000D01*
X126061500Y-141921000D02*
X126061500Y-155421000D01*
X138061500Y-141921000D02*
X138061500Y-155421000D01*
X150061500Y-141921000D02*
X150061500Y-155421000D01*
X162061500Y-141921000D02*
X162061500Y-155421000D01*
X114061500Y-155421000D02*
X102311500Y-155421000D01*
X126061500Y-155421000D02*
X114311500Y-155421000D01*
X138061500Y-155421000D02*
X126311500Y-155421000D01*
X150061500Y-155421000D02*
X138311500Y-155421000D01*
X162061500Y-155421000D02*
X150311500Y-155421000D01*
X102311500Y-155421000D02*
X102311500Y-141921000D01*
X114311500Y-155421000D02*
X114311500Y-141921000D01*
X126311500Y-155421000D02*
X126311500Y-141921000D01*
X138311500Y-155421000D02*
X138311500Y-141921000D01*
X150311500Y-155421000D02*
X150311500Y-141921000D01*
X78181500Y-155421000D02*
X78181500Y-141921000D01*
X89931500Y-141921000D02*
X89931500Y-155421000D01*
X89931500Y-155421000D02*
X78181500Y-155421000D01*
X78181500Y-141921000D02*
X89931500Y-141921000D01*
X90246500Y-141921000D02*
X101996500Y-141921000D01*
X101996500Y-141921000D02*
X101996500Y-155421000D01*
X101996500Y-155421000D02*
X90246500Y-155421000D01*
X78181500Y-141705000D02*
X78181500Y-128205000D01*
X78181500Y-128005000D02*
X78181500Y-114505000D01*
X78181500Y-100605000D02*
X78181500Y-87105000D01*
X78181500Y-114305000D02*
X78181500Y-100805000D01*
X89931500Y-128005000D02*
X78181500Y-128005000D01*
X89931500Y-114305000D02*
X78181500Y-114305000D01*
X78181500Y-73405000D02*
X89931500Y-73405000D01*
X89931500Y-73405000D02*
X89931500Y-86905000D01*
X89931500Y-86905000D02*
X78181500Y-86905000D01*
X78181500Y-86905000D02*
X78181500Y-73405000D01*
X78181500Y-87105000D02*
X89931500Y-87105000D01*
X78181500Y-100805000D02*
X89931500Y-100805000D01*
X78181500Y-114505000D02*
X89931500Y-114505000D01*
X78181500Y-128205000D02*
X89931500Y-128205000D01*
X89931500Y-87105000D02*
X89931500Y-100605000D01*
X89931500Y-100805000D02*
X89931500Y-114305000D01*
X89931500Y-114505000D02*
X89931500Y-128005000D01*
X89931500Y-100605000D02*
X78181500Y-100605000D01*
X89931500Y-128205000D02*
X89931500Y-141705000D01*
X89931500Y-141705000D02*
X78181500Y-141705000D01*
X90246500Y-73405000D02*
X101996500Y-73405000D01*
X101996500Y-73405000D02*
X101996500Y-86905000D01*
X101996500Y-86905000D02*
X90246500Y-86905000D01*
X90246500Y-86905000D02*
X90246500Y-73405000D01*
X90246500Y-87105000D02*
X101996500Y-87105000D01*
X90246500Y-100805000D02*
X101996500Y-100805000D01*
X90246500Y-114505000D02*
X101996500Y-114505000D01*
X90246500Y-128205000D02*
X101996500Y-128205000D01*
X101996500Y-87105000D02*
X101996500Y-100605000D01*
X101996500Y-100805000D02*
X101996500Y-114305000D01*
X101996500Y-114505000D02*
X101996500Y-128005000D01*
X101996500Y-128205000D02*
X101996500Y-141705000D01*
X101996500Y-100605000D02*
X90246500Y-100605000D01*
X101996500Y-114305000D02*
X90246500Y-114305000D01*
X101996500Y-128005000D02*
X90246500Y-128005000D01*
X101996500Y-141705000D02*
X90246500Y-141705000D01*
X90246500Y-100605000D02*
X90246500Y-87105000D01*
X90246500Y-114305000D02*
X90246500Y-100805000D01*
X90246500Y-128005000D02*
X90246500Y-114505000D01*
X90246500Y-141705000D02*
X90246500Y-128205000D01*
X150311500Y-141705000D02*
X150311500Y-128205000D01*
X138311500Y-141705000D02*
X138311500Y-128205000D01*
X126311500Y-141705000D02*
X126311500Y-128205000D01*
X114311500Y-141705000D02*
X114311500Y-128205000D01*
X102311500Y-141705000D02*
X102311500Y-128205000D01*
X150311500Y-128005000D02*
X150311500Y-114505000D01*
X138311500Y-128005000D02*
X138311500Y-114505000D01*
X126311500Y-128005000D02*
X126311500Y-114505000D01*
X114311500Y-128005000D02*
X114311500Y-114505000D01*
X102311500Y-128005000D02*
X102311500Y-114505000D01*
X150311500Y-114305000D02*
X150311500Y-100805000D01*
X138311500Y-114305000D02*
X138311500Y-100805000D01*
X126311500Y-114305000D02*
X126311500Y-100805000D01*
X114311500Y-114305000D02*
X114311500Y-100805000D01*
X102311500Y-114305000D02*
X102311500Y-100805000D01*
X150311500Y-100605000D02*
X150311500Y-87105000D01*
X138311500Y-100605000D02*
X138311500Y-87105000D01*
X126311500Y-100605000D02*
X126311500Y-87105000D01*
X114311500Y-100605000D02*
X114311500Y-87105000D01*
X102311500Y-100605000D02*
X102311500Y-87105000D01*
X150311500Y-86905000D02*
X150311500Y-73405000D01*
X138311500Y-86905000D02*
X138311500Y-73405000D01*
X126311500Y-86905000D02*
X126311500Y-73405000D01*
X114311500Y-86905000D02*
X114311500Y-73405000D01*
X162061500Y-141705000D02*
X150311500Y-141705000D01*
X150061500Y-141705000D02*
X138311500Y-141705000D01*
X138061500Y-141705000D02*
X126311500Y-141705000D01*
X126061500Y-141705000D02*
X114311500Y-141705000D01*
X114061500Y-141705000D02*
X102311500Y-141705000D01*
X162061500Y-128005000D02*
X150311500Y-128005000D01*
X150061500Y-128005000D02*
X138311500Y-128005000D01*
X138061500Y-128005000D02*
X126311500Y-128005000D01*
X126061500Y-128005000D02*
X114311500Y-128005000D01*
X114061500Y-128005000D02*
X102311500Y-128005000D01*
X162061500Y-114305000D02*
X150311500Y-114305000D01*
X150061500Y-114305000D02*
X138311500Y-114305000D01*
X138061500Y-114305000D02*
X126311500Y-114305000D01*
X126061500Y-114305000D02*
X114311500Y-114305000D01*
X114061500Y-114305000D02*
X102311500Y-114305000D01*
X162061500Y-100605000D02*
X150311500Y-100605000D01*
X150061500Y-100605000D02*
X138311500Y-100605000D01*
X138061500Y-100605000D02*
X126311500Y-100605000D01*
X126061500Y-100605000D02*
X114311500Y-100605000D01*
X114061500Y-100605000D02*
X102311500Y-100605000D01*
X162061500Y-86905000D02*
X150311500Y-86905000D01*
X150061500Y-86905000D02*
X138311500Y-86905000D01*
X138061500Y-86905000D02*
X126311500Y-86905000D01*
X126061500Y-86905000D02*
X114311500Y-86905000D01*
X162061500Y-128205000D02*
X162061500Y-141705000D01*
X150061500Y-128205000D02*
X150061500Y-141705000D01*
X138061500Y-128205000D02*
X138061500Y-141705000D01*
X126061500Y-128205000D02*
X126061500Y-141705000D01*
X114061500Y-128205000D02*
X114061500Y-141705000D01*
X162061500Y-114505000D02*
X162061500Y-128005000D01*
X150061500Y-114505000D02*
X150061500Y-128005000D01*
X138061500Y-114505000D02*
X138061500Y-128005000D01*
X126061500Y-114505000D02*
X126061500Y-128005000D01*
X114061500Y-114505000D02*
X114061500Y-128005000D01*
X162061500Y-100805000D02*
X162061500Y-114305000D01*
X150061500Y-100805000D02*
X150061500Y-114305000D01*
X138061500Y-100805000D02*
X138061500Y-114305000D01*
X126061500Y-100805000D02*
X126061500Y-114305000D01*
X114061500Y-100805000D02*
X114061500Y-114305000D01*
X162061500Y-87105000D02*
X162061500Y-100605000D01*
X150061500Y-87105000D02*
X150061500Y-100605000D01*
X138061500Y-87105000D02*
X138061500Y-100605000D01*
X126061500Y-87105000D02*
X126061500Y-100605000D01*
X114061500Y-87105000D02*
X114061500Y-100605000D01*
X162061500Y-73405000D02*
X162061500Y-86905000D01*
X150061500Y-73405000D02*
X150061500Y-86905000D01*
X138061500Y-73405000D02*
X138061500Y-86905000D01*
X126061500Y-73405000D02*
X126061500Y-86905000D01*
X150311500Y-128205000D02*
X162061500Y-128205000D01*
X138311500Y-128205000D02*
X150061500Y-128205000D01*
X126311500Y-128205000D02*
X138061500Y-128205000D01*
X114311500Y-128205000D02*
X126061500Y-128205000D01*
X102311500Y-128205000D02*
X114061500Y-128205000D01*
X150311500Y-114505000D02*
X162061500Y-114505000D01*
X138311500Y-114505000D02*
X150061500Y-114505000D01*
X126311500Y-114505000D02*
X138061500Y-114505000D01*
X114311500Y-114505000D02*
X126061500Y-114505000D01*
X102311500Y-114505000D02*
X114061500Y-114505000D01*
X150311500Y-100805000D02*
X162061500Y-100805000D01*
X138311500Y-100805000D02*
X150061500Y-100805000D01*
X126311500Y-100805000D02*
X138061500Y-100805000D01*
X114311500Y-100805000D02*
X126061500Y-100805000D01*
X102311500Y-100805000D02*
X114061500Y-100805000D01*
X150311500Y-87105000D02*
X162061500Y-87105000D01*
X138311500Y-87105000D02*
X150061500Y-87105000D01*
X126311500Y-87105000D02*
X138061500Y-87105000D01*
X114311500Y-87105000D02*
X126061500Y-87105000D01*
X102311500Y-87105000D02*
X114061500Y-87105000D01*
X150311500Y-73405000D02*
X162061500Y-73405000D01*
X138311500Y-73405000D02*
X150061500Y-73405000D01*
X126311500Y-73405000D02*
X138061500Y-73405000D01*
X114311500Y-73405000D02*
X126061500Y-73405000D01*
X102311500Y-86905000D02*
X102311500Y-73405000D01*
X114061500Y-86905000D02*
X102311500Y-86905000D01*
X114061500Y-73405000D02*
X114061500Y-86905000D01*
X102311500Y-73405000D02*
X114061500Y-73405000D01*
M02*
