M48
;DRILL file {KiCad 5.0.2-bee76a0~70~ubuntu18.04.1} date Fr 10 Mai 2019 19:14:14 CEST
;FORMAT={-:-/ absolute / inch / decimal}
FMAT,2
INCH,TZ
T1C0.0591
%
G90
G05
T1
X3.1324Y-5.7066
X5.0273Y-5.1666
X3.6074Y-3.0091
X3.1324Y-3.5485
X3.1312Y-5.4293
X3.1312Y-3.2719
X5.9709Y-5.9693
X4.5536Y-4.3506
X5.4997Y-3.0091
X5.0273Y-3.0091
X5.9709Y-5.4293
X3.1324Y-4.6272
X3.1312Y-4.3506
X4.0824Y-4.0879
X5.9721Y-3.5485
X5.4997Y-3.5485
X5.0273Y-3.5485
X4.5536Y-3.2719
X3.1324Y-4.0879
X4.5548Y-3.0091
X3.6062Y-5.4293
X5.4985Y-5.4293
X5.026Y-5.4293
X4.5536Y-5.4293
X4.0812Y-5.4293
X5.9709Y-4.89
X5.4985Y-4.89
X5.026Y-4.89
X4.0812Y-4.89
X3.6074Y-4.6272
X3.1312Y-4.89
X3.6062Y-3.8112
X3.6062Y-4.3506
X5.0273Y-4.6272
X4.5548Y-4.6272
X4.0824Y-4.6272
X3.1324Y-3.0091
X5.4997Y-5.1666
X5.0273Y-5.7066
X5.4997Y-4.6272
X4.0812Y-3.2719
X5.9721Y-5.1666
X5.4997Y-5.7066
X3.6062Y-3.2719
X5.9721Y-5.7066
X4.0824Y-5.7066
X4.5536Y-4.89
X5.9709Y-4.3506
X3.1312Y-3.8112
X4.0824Y-3.5485
X3.6074Y-4.0879
X5.9721Y-4.0879
X5.026Y-5.9693
X4.5548Y-3.5485
X4.5548Y-5.7066
X3.6062Y-4.89
X4.0824Y-3.0091
X5.9721Y-4.6272
X4.5548Y-5.1666
X5.0273Y-4.0879
X4.5548Y-4.0879
X3.6062Y-5.9693
X5.026Y-3.2719
X5.4985Y-4.3506
X5.026Y-4.3506
X3.6074Y-5.1666
X5.9721Y-3.0091
X3.6074Y-3.5485
X3.6074Y-5.7066
X3.1312Y-5.9693
X4.0812Y-4.3506
X5.9709Y-3.8112
X5.4985Y-3.8112
X5.026Y-3.8112
X4.5536Y-3.8112
X4.0812Y-3.8112
X5.9709Y-3.2719
X5.4985Y-3.2719
X5.4997Y-4.0879
X4.0824Y-5.1666
X3.1324Y-5.1666
X4.5536Y-5.9693
X4.0812Y-5.9693
X5.4985Y-5.9693
T0
M30
