G04 #@! TF.GenerationSoftware,KiCad,Pcbnew,5.1.0-060a0da~80~ubuntu18.04.1*
G04 #@! TF.CreationDate,2019-05-11T20:40:31+02:00*
G04 #@! TF.ProjectId,spi_connector_board_micromatch_only_5x5_panel,7370695f-636f-46e6-9e65-63746f725f62,rev?*
G04 #@! TF.SameCoordinates,Original*
G04 #@! TF.FileFunction,Profile,NP*
%FSLAX46Y46*%
G04 Gerber Fmt 4.6, Leading zero omitted, Abs format (unit mm)*
G04 Created by KiCad (PCBNEW 5.1.0-060a0da~80~ubuntu18.04.1) date 2019-05-11 20:40:31*
%MOMM*%
%LPD*%
G04 APERTURE LIST*
%ADD10C,0.050000*%
G04 APERTURE END LIST*
D10*
X148681500Y-154405000D02*
X148681500Y-140905000D01*
X136931500Y-154405000D02*
X136931500Y-140905000D01*
X125181500Y-154405000D02*
X125181500Y-140905000D01*
X113431500Y-154405000D02*
X113431500Y-140905000D01*
X101681500Y-154405000D02*
X101681500Y-140905000D01*
X89931500Y-154405000D02*
X89931500Y-140905000D01*
X78181500Y-154405000D02*
X78181500Y-140905000D01*
X148681500Y-140905000D02*
X148681500Y-127405000D01*
X136931500Y-140905000D02*
X136931500Y-127405000D01*
X125181500Y-140905000D02*
X125181500Y-127405000D01*
X113431500Y-140905000D02*
X113431500Y-127405000D01*
X101681500Y-140905000D02*
X101681500Y-127405000D01*
X89931500Y-140905000D02*
X89931500Y-127405000D01*
X78181500Y-140905000D02*
X78181500Y-127405000D01*
X148681500Y-127405000D02*
X148681500Y-113905000D01*
X136931500Y-127405000D02*
X136931500Y-113905000D01*
X125181500Y-127405000D02*
X125181500Y-113905000D01*
X113431500Y-127405000D02*
X113431500Y-113905000D01*
X101681500Y-127405000D02*
X101681500Y-113905000D01*
X89931500Y-127405000D02*
X89931500Y-113905000D01*
X78181500Y-127405000D02*
X78181500Y-113905000D01*
X148681500Y-113905000D02*
X148681500Y-100405000D01*
X136931500Y-113905000D02*
X136931500Y-100405000D01*
X125181500Y-113905000D02*
X125181500Y-100405000D01*
X113431500Y-113905000D02*
X113431500Y-100405000D01*
X101681500Y-113905000D02*
X101681500Y-100405000D01*
X89931500Y-113905000D02*
X89931500Y-100405000D01*
X78181500Y-113905000D02*
X78181500Y-100405000D01*
X148681500Y-100405000D02*
X148681500Y-86905000D01*
X136931500Y-100405000D02*
X136931500Y-86905000D01*
X125181500Y-100405000D02*
X125181500Y-86905000D01*
X113431500Y-100405000D02*
X113431500Y-86905000D01*
X101681500Y-100405000D02*
X101681500Y-86905000D01*
X89931500Y-100405000D02*
X89931500Y-86905000D01*
X78181500Y-100405000D02*
X78181500Y-86905000D01*
X148681500Y-86905000D02*
X148681500Y-73405000D01*
X136931500Y-86905000D02*
X136931500Y-73405000D01*
X125181500Y-86905000D02*
X125181500Y-73405000D01*
X113431500Y-86905000D02*
X113431500Y-73405000D01*
X101681500Y-86905000D02*
X101681500Y-73405000D01*
X89931500Y-86905000D02*
X89931500Y-73405000D01*
X160431500Y-154405000D02*
X148681500Y-154405000D01*
X148681500Y-154405000D02*
X136931500Y-154405000D01*
X136931500Y-154405000D02*
X125181500Y-154405000D01*
X125181500Y-154405000D02*
X113431500Y-154405000D01*
X113431500Y-154405000D02*
X101681500Y-154405000D01*
X101681500Y-154405000D02*
X89931500Y-154405000D01*
X89931500Y-154405000D02*
X78181500Y-154405000D01*
X160431500Y-140905000D02*
X148681500Y-140905000D01*
X148681500Y-140905000D02*
X136931500Y-140905000D01*
X136931500Y-140905000D02*
X125181500Y-140905000D01*
X125181500Y-140905000D02*
X113431500Y-140905000D01*
X113431500Y-140905000D02*
X101681500Y-140905000D01*
X101681500Y-140905000D02*
X89931500Y-140905000D01*
X89931500Y-140905000D02*
X78181500Y-140905000D01*
X160431500Y-127405000D02*
X148681500Y-127405000D01*
X148681500Y-127405000D02*
X136931500Y-127405000D01*
X136931500Y-127405000D02*
X125181500Y-127405000D01*
X125181500Y-127405000D02*
X113431500Y-127405000D01*
X113431500Y-127405000D02*
X101681500Y-127405000D01*
X101681500Y-127405000D02*
X89931500Y-127405000D01*
X89931500Y-127405000D02*
X78181500Y-127405000D01*
X160431500Y-113905000D02*
X148681500Y-113905000D01*
X148681500Y-113905000D02*
X136931500Y-113905000D01*
X136931500Y-113905000D02*
X125181500Y-113905000D01*
X125181500Y-113905000D02*
X113431500Y-113905000D01*
X113431500Y-113905000D02*
X101681500Y-113905000D01*
X101681500Y-113905000D02*
X89931500Y-113905000D01*
X89931500Y-113905000D02*
X78181500Y-113905000D01*
X160431500Y-100405000D02*
X148681500Y-100405000D01*
X148681500Y-100405000D02*
X136931500Y-100405000D01*
X136931500Y-100405000D02*
X125181500Y-100405000D01*
X125181500Y-100405000D02*
X113431500Y-100405000D01*
X113431500Y-100405000D02*
X101681500Y-100405000D01*
X101681500Y-100405000D02*
X89931500Y-100405000D01*
X89931500Y-100405000D02*
X78181500Y-100405000D01*
X160431500Y-86905000D02*
X148681500Y-86905000D01*
X148681500Y-86905000D02*
X136931500Y-86905000D01*
X136931500Y-86905000D02*
X125181500Y-86905000D01*
X125181500Y-86905000D02*
X113431500Y-86905000D01*
X113431500Y-86905000D02*
X101681500Y-86905000D01*
X101681500Y-86905000D02*
X89931500Y-86905000D01*
X160431500Y-140905000D02*
X160431500Y-154405000D01*
X148681500Y-140905000D02*
X148681500Y-154405000D01*
X136931500Y-140905000D02*
X136931500Y-154405000D01*
X125181500Y-140905000D02*
X125181500Y-154405000D01*
X113431500Y-140905000D02*
X113431500Y-154405000D01*
X101681500Y-140905000D02*
X101681500Y-154405000D01*
X89931500Y-140905000D02*
X89931500Y-154405000D01*
X160431500Y-127405000D02*
X160431500Y-140905000D01*
X148681500Y-127405000D02*
X148681500Y-140905000D01*
X136931500Y-127405000D02*
X136931500Y-140905000D01*
X125181500Y-127405000D02*
X125181500Y-140905000D01*
X113431500Y-127405000D02*
X113431500Y-140905000D01*
X101681500Y-127405000D02*
X101681500Y-140905000D01*
X89931500Y-127405000D02*
X89931500Y-140905000D01*
X160431500Y-113905000D02*
X160431500Y-127405000D01*
X148681500Y-113905000D02*
X148681500Y-127405000D01*
X136931500Y-113905000D02*
X136931500Y-127405000D01*
X125181500Y-113905000D02*
X125181500Y-127405000D01*
X113431500Y-113905000D02*
X113431500Y-127405000D01*
X101681500Y-113905000D02*
X101681500Y-127405000D01*
X89931500Y-113905000D02*
X89931500Y-127405000D01*
X160431500Y-100405000D02*
X160431500Y-113905000D01*
X148681500Y-100405000D02*
X148681500Y-113905000D01*
X136931500Y-100405000D02*
X136931500Y-113905000D01*
X125181500Y-100405000D02*
X125181500Y-113905000D01*
X113431500Y-100405000D02*
X113431500Y-113905000D01*
X101681500Y-100405000D02*
X101681500Y-113905000D01*
X89931500Y-100405000D02*
X89931500Y-113905000D01*
X160431500Y-86905000D02*
X160431500Y-100405000D01*
X148681500Y-86905000D02*
X148681500Y-100405000D01*
X136931500Y-86905000D02*
X136931500Y-100405000D01*
X125181500Y-86905000D02*
X125181500Y-100405000D01*
X113431500Y-86905000D02*
X113431500Y-100405000D01*
X101681500Y-86905000D02*
X101681500Y-100405000D01*
X89931500Y-86905000D02*
X89931500Y-100405000D01*
X160431500Y-73405000D02*
X160431500Y-86905000D01*
X148681500Y-73405000D02*
X148681500Y-86905000D01*
X136931500Y-73405000D02*
X136931500Y-86905000D01*
X125181500Y-73405000D02*
X125181500Y-86905000D01*
X113431500Y-73405000D02*
X113431500Y-86905000D01*
X101681500Y-73405000D02*
X101681500Y-86905000D01*
X148681500Y-140905000D02*
X160431500Y-140905000D01*
X136931500Y-140905000D02*
X148681500Y-140905000D01*
X125181500Y-140905000D02*
X136931500Y-140905000D01*
X113431500Y-140905000D02*
X125181500Y-140905000D01*
X101681500Y-140905000D02*
X113431500Y-140905000D01*
X89931500Y-140905000D02*
X101681500Y-140905000D01*
X78181500Y-140905000D02*
X89931500Y-140905000D01*
X148681500Y-127405000D02*
X160431500Y-127405000D01*
X136931500Y-127405000D02*
X148681500Y-127405000D01*
X125181500Y-127405000D02*
X136931500Y-127405000D01*
X113431500Y-127405000D02*
X125181500Y-127405000D01*
X101681500Y-127405000D02*
X113431500Y-127405000D01*
X89931500Y-127405000D02*
X101681500Y-127405000D01*
X78181500Y-127405000D02*
X89931500Y-127405000D01*
X148681500Y-113905000D02*
X160431500Y-113905000D01*
X136931500Y-113905000D02*
X148681500Y-113905000D01*
X125181500Y-113905000D02*
X136931500Y-113905000D01*
X113431500Y-113905000D02*
X125181500Y-113905000D01*
X101681500Y-113905000D02*
X113431500Y-113905000D01*
X89931500Y-113905000D02*
X101681500Y-113905000D01*
X78181500Y-113905000D02*
X89931500Y-113905000D01*
X148681500Y-100405000D02*
X160431500Y-100405000D01*
X136931500Y-100405000D02*
X148681500Y-100405000D01*
X125181500Y-100405000D02*
X136931500Y-100405000D01*
X113431500Y-100405000D02*
X125181500Y-100405000D01*
X101681500Y-100405000D02*
X113431500Y-100405000D01*
X89931500Y-100405000D02*
X101681500Y-100405000D01*
X78181500Y-100405000D02*
X89931500Y-100405000D01*
X148681500Y-86905000D02*
X160431500Y-86905000D01*
X136931500Y-86905000D02*
X148681500Y-86905000D01*
X125181500Y-86905000D02*
X136931500Y-86905000D01*
X113431500Y-86905000D02*
X125181500Y-86905000D01*
X101681500Y-86905000D02*
X113431500Y-86905000D01*
X89931500Y-86905000D02*
X101681500Y-86905000D01*
X78181500Y-86905000D02*
X89931500Y-86905000D01*
X148681500Y-73405000D02*
X160431500Y-73405000D01*
X136931500Y-73405000D02*
X148681500Y-73405000D01*
X125181500Y-73405000D02*
X136931500Y-73405000D01*
X113431500Y-73405000D02*
X125181500Y-73405000D01*
X101681500Y-73405000D02*
X113431500Y-73405000D01*
X89931500Y-73405000D02*
X101681500Y-73405000D01*
X78181500Y-73405000D02*
X89931500Y-73405000D01*
X89931500Y-73405000D02*
X89931500Y-86905000D01*
X89931500Y-86905000D02*
X78181500Y-86905000D01*
X78181500Y-86905000D02*
X78181500Y-73405000D01*
M02*
