M48
; DRILL file {KiCad 5.1.0-060a0da~80~ubuntu18.04.1} date Mo 13 Mai 2019 00:31:10 CEST
; FORMAT={-:-/ absolute / inch / decimal}
; #@! TF.CreationDate,2019-05-13T00:31:10+02:00
; #@! TF.GenerationSoftware,Kicad,Pcbnew,5.1.0-060a0da~80~ubuntu18.04.1
; #@! TF.FileFunction,NonPlated,1,2,NPTH
FMAT,2
INCH
T1C0.0591
%
G90
G05
T1
X4.0576Y-3.0091
X4.5202Y-4.6036
X4.0564Y-3.2719
X4.0576Y-3.5406
X5.908Y-4.0721
X4.0564Y-5.9293
X3.1312Y-5.3978
X3.595Y-4.0721
X4.9816Y-3.8033
X3.1324Y-5.1351
X5.908Y-5.6666
X3.1312Y-3.8033
X4.5202Y-5.1351
X4.0564Y-4.3348
X5.4442Y-4.3348
X4.9828Y-5.6666
X3.1324Y-5.6666
X3.1312Y-3.2719
X3.595Y-3.0091
X3.595Y-3.5406
X5.908Y-3.5406
X5.4454Y-4.0721
X3.1312Y-5.9293
X5.9068Y-4.8663
X4.0564Y-4.8663
X4.0564Y-3.8033
X3.595Y-5.6666
X3.1324Y-4.0721
X3.1324Y-3.0091
X4.9816Y-4.3348
X5.9068Y-5.3978
X4.0576Y-4.6036
X5.4454Y-3.0091
X4.9816Y-5.3978
X5.908Y-4.6036
X4.9816Y-4.8663
X4.519Y-3.2719
X3.5938Y-5.9293
X5.4454Y-5.6666
X3.595Y-5.1351
X3.5938Y-3.8033
X5.4442Y-5.9293
X4.9828Y-4.0721
X5.9068Y-5.9293
X4.0576Y-4.0721
X4.0564Y-5.3978
X4.519Y-5.9293
X4.519Y-4.3348
X5.4442Y-4.8663
X3.1324Y-3.5406
X4.9828Y-5.1351
X5.9068Y-3.8033
X3.1324Y-4.6036
X4.5202Y-4.0721
X3.5938Y-5.3978
X3.5938Y-3.2719
X4.9828Y-3.5406
X5.4442Y-3.2719
X4.5202Y-3.0091
X5.4454Y-4.6036
X5.4454Y-3.5406
X3.1312Y-4.3348
X5.4442Y-3.8033
X4.5202Y-3.5406
X4.9828Y-3.0091
X4.519Y-4.8663
X5.908Y-3.0091
X4.5202Y-5.6666
X5.908Y-5.1351
X4.519Y-3.8033
X4.9816Y-5.9293
X3.595Y-4.6036
X4.9816Y-3.2719
X5.4442Y-5.3978
X3.5938Y-4.3348
X4.519Y-5.3978
X5.9068Y-4.3348
X3.1312Y-4.8663
X5.9068Y-3.2719
X4.0576Y-5.1351
X4.9828Y-4.6036
X3.5938Y-4.8663
X4.0576Y-5.6666
X5.4454Y-5.1351
T0
M30
