G04 #@! TF.GenerationSoftware,KiCad,Pcbnew,5.1.0-060a0da~80~ubuntu18.04.1*
G04 #@! TF.CreationDate,2019-05-13T00:31:07+02:00*
G04 #@! TF.ProjectId,spi_connector_board_micromatch_only_5x5_panel,7370695f-636f-46e6-9e65-63746f725f62,rev?*
G04 #@! TF.SameCoordinates,Original*
G04 #@! TF.FileFunction,Legend,Top*
G04 #@! TF.FilePolarity,Positive*
%FSLAX46Y46*%
G04 Gerber Fmt 4.6, Leading zero omitted, Abs format (unit mm)*
G04 Created by KiCad (PCBNEW 5.1.0-060a0da~80~ubuntu18.04.1) date 2019-05-13 00:31:07*
%MOMM*%
%LPD*%
G04 APERTURE LIST*
%ADD10C,0.120000*%
G04 APERTURE END LIST*
D10*
X149587500Y-147262000D02*
X149587500Y-145732000D01*
X151462500Y-147262000D02*
X149587500Y-147262000D01*
X152732500Y-144462000D02*
X152732500Y-146332000D01*
X150862500Y-144462000D02*
X152732500Y-144462000D01*
X149587500Y-143192000D02*
X149587500Y-141662000D01*
X149587500Y-141662000D02*
X159687500Y-141662000D01*
X159687500Y-147262000D02*
X159687500Y-141662000D01*
X154002500Y-147262000D02*
X159687500Y-147262000D01*
X137837500Y-147262000D02*
X137837500Y-145732000D01*
X139712500Y-147262000D02*
X137837500Y-147262000D01*
X140982500Y-144462000D02*
X140982500Y-146332000D01*
X139112500Y-144462000D02*
X140982500Y-144462000D01*
X137837500Y-143192000D02*
X137837500Y-141662000D01*
X137837500Y-141662000D02*
X147937500Y-141662000D01*
X147937500Y-147262000D02*
X147937500Y-141662000D01*
X142252500Y-147262000D02*
X147937500Y-147262000D01*
X126087500Y-147262000D02*
X126087500Y-145732000D01*
X127962500Y-147262000D02*
X126087500Y-147262000D01*
X129232500Y-144462000D02*
X129232500Y-146332000D01*
X127362500Y-144462000D02*
X129232500Y-144462000D01*
X126087500Y-143192000D02*
X126087500Y-141662000D01*
X126087500Y-141662000D02*
X136187500Y-141662000D01*
X136187500Y-147262000D02*
X136187500Y-141662000D01*
X130502500Y-147262000D02*
X136187500Y-147262000D01*
X114337500Y-147262000D02*
X114337500Y-145732000D01*
X116212500Y-147262000D02*
X114337500Y-147262000D01*
X117482500Y-144462000D02*
X117482500Y-146332000D01*
X115612500Y-144462000D02*
X117482500Y-144462000D01*
X114337500Y-143192000D02*
X114337500Y-141662000D01*
X114337500Y-141662000D02*
X124437500Y-141662000D01*
X124437500Y-147262000D02*
X124437500Y-141662000D01*
X118752500Y-147262000D02*
X124437500Y-147262000D01*
X102587500Y-147262000D02*
X102587500Y-145732000D01*
X104462500Y-147262000D02*
X102587500Y-147262000D01*
X105732500Y-144462000D02*
X105732500Y-146332000D01*
X103862500Y-144462000D02*
X105732500Y-144462000D01*
X102587500Y-143192000D02*
X102587500Y-141662000D01*
X102587500Y-141662000D02*
X112687500Y-141662000D01*
X112687500Y-147262000D02*
X112687500Y-141662000D01*
X107002500Y-147262000D02*
X112687500Y-147262000D01*
X90837500Y-147262000D02*
X90837500Y-145732000D01*
X92712500Y-147262000D02*
X90837500Y-147262000D01*
X93982500Y-144462000D02*
X93982500Y-146332000D01*
X92112500Y-144462000D02*
X93982500Y-144462000D01*
X90837500Y-143192000D02*
X90837500Y-141662000D01*
X90837500Y-141662000D02*
X100937500Y-141662000D01*
X100937500Y-147262000D02*
X100937500Y-141662000D01*
X95252500Y-147262000D02*
X100937500Y-147262000D01*
X79087500Y-147262000D02*
X79087500Y-145732000D01*
X80962500Y-147262000D02*
X79087500Y-147262000D01*
X82232500Y-144462000D02*
X82232500Y-146332000D01*
X80362500Y-144462000D02*
X82232500Y-144462000D01*
X79087500Y-143192000D02*
X79087500Y-141662000D01*
X79087500Y-141662000D02*
X89187500Y-141662000D01*
X89187500Y-147262000D02*
X89187500Y-141662000D01*
X83502500Y-147262000D02*
X89187500Y-147262000D01*
X149587500Y-133762000D02*
X149587500Y-132232000D01*
X151462500Y-133762000D02*
X149587500Y-133762000D01*
X152732500Y-130962000D02*
X152732500Y-132832000D01*
X150862500Y-130962000D02*
X152732500Y-130962000D01*
X149587500Y-129692000D02*
X149587500Y-128162000D01*
X149587500Y-128162000D02*
X159687500Y-128162000D01*
X159687500Y-133762000D02*
X159687500Y-128162000D01*
X154002500Y-133762000D02*
X159687500Y-133762000D01*
X137837500Y-133762000D02*
X137837500Y-132232000D01*
X139712500Y-133762000D02*
X137837500Y-133762000D01*
X140982500Y-130962000D02*
X140982500Y-132832000D01*
X139112500Y-130962000D02*
X140982500Y-130962000D01*
X137837500Y-129692000D02*
X137837500Y-128162000D01*
X137837500Y-128162000D02*
X147937500Y-128162000D01*
X147937500Y-133762000D02*
X147937500Y-128162000D01*
X142252500Y-133762000D02*
X147937500Y-133762000D01*
X126087500Y-133762000D02*
X126087500Y-132232000D01*
X127962500Y-133762000D02*
X126087500Y-133762000D01*
X129232500Y-130962000D02*
X129232500Y-132832000D01*
X127362500Y-130962000D02*
X129232500Y-130962000D01*
X126087500Y-129692000D02*
X126087500Y-128162000D01*
X126087500Y-128162000D02*
X136187500Y-128162000D01*
X136187500Y-133762000D02*
X136187500Y-128162000D01*
X130502500Y-133762000D02*
X136187500Y-133762000D01*
X114337500Y-133762000D02*
X114337500Y-132232000D01*
X116212500Y-133762000D02*
X114337500Y-133762000D01*
X117482500Y-130962000D02*
X117482500Y-132832000D01*
X115612500Y-130962000D02*
X117482500Y-130962000D01*
X114337500Y-129692000D02*
X114337500Y-128162000D01*
X114337500Y-128162000D02*
X124437500Y-128162000D01*
X124437500Y-133762000D02*
X124437500Y-128162000D01*
X118752500Y-133762000D02*
X124437500Y-133762000D01*
X102587500Y-133762000D02*
X102587500Y-132232000D01*
X104462500Y-133762000D02*
X102587500Y-133762000D01*
X105732500Y-130962000D02*
X105732500Y-132832000D01*
X103862500Y-130962000D02*
X105732500Y-130962000D01*
X102587500Y-129692000D02*
X102587500Y-128162000D01*
X102587500Y-128162000D02*
X112687500Y-128162000D01*
X112687500Y-133762000D02*
X112687500Y-128162000D01*
X107002500Y-133762000D02*
X112687500Y-133762000D01*
X90837500Y-133762000D02*
X90837500Y-132232000D01*
X92712500Y-133762000D02*
X90837500Y-133762000D01*
X93982500Y-130962000D02*
X93982500Y-132832000D01*
X92112500Y-130962000D02*
X93982500Y-130962000D01*
X90837500Y-129692000D02*
X90837500Y-128162000D01*
X90837500Y-128162000D02*
X100937500Y-128162000D01*
X100937500Y-133762000D02*
X100937500Y-128162000D01*
X95252500Y-133762000D02*
X100937500Y-133762000D01*
X79087500Y-133762000D02*
X79087500Y-132232000D01*
X80962500Y-133762000D02*
X79087500Y-133762000D01*
X82232500Y-130962000D02*
X82232500Y-132832000D01*
X80362500Y-130962000D02*
X82232500Y-130962000D01*
X79087500Y-129692000D02*
X79087500Y-128162000D01*
X79087500Y-128162000D02*
X89187500Y-128162000D01*
X89187500Y-133762000D02*
X89187500Y-128162000D01*
X83502500Y-133762000D02*
X89187500Y-133762000D01*
X149587500Y-120262000D02*
X149587500Y-118732000D01*
X151462500Y-120262000D02*
X149587500Y-120262000D01*
X152732500Y-117462000D02*
X152732500Y-119332000D01*
X150862500Y-117462000D02*
X152732500Y-117462000D01*
X149587500Y-116192000D02*
X149587500Y-114662000D01*
X149587500Y-114662000D02*
X159687500Y-114662000D01*
X159687500Y-120262000D02*
X159687500Y-114662000D01*
X154002500Y-120262000D02*
X159687500Y-120262000D01*
X137837500Y-120262000D02*
X137837500Y-118732000D01*
X139712500Y-120262000D02*
X137837500Y-120262000D01*
X140982500Y-117462000D02*
X140982500Y-119332000D01*
X139112500Y-117462000D02*
X140982500Y-117462000D01*
X137837500Y-116192000D02*
X137837500Y-114662000D01*
X137837500Y-114662000D02*
X147937500Y-114662000D01*
X147937500Y-120262000D02*
X147937500Y-114662000D01*
X142252500Y-120262000D02*
X147937500Y-120262000D01*
X126087500Y-120262000D02*
X126087500Y-118732000D01*
X127962500Y-120262000D02*
X126087500Y-120262000D01*
X129232500Y-117462000D02*
X129232500Y-119332000D01*
X127362500Y-117462000D02*
X129232500Y-117462000D01*
X126087500Y-116192000D02*
X126087500Y-114662000D01*
X126087500Y-114662000D02*
X136187500Y-114662000D01*
X136187500Y-120262000D02*
X136187500Y-114662000D01*
X130502500Y-120262000D02*
X136187500Y-120262000D01*
X114337500Y-120262000D02*
X114337500Y-118732000D01*
X116212500Y-120262000D02*
X114337500Y-120262000D01*
X117482500Y-117462000D02*
X117482500Y-119332000D01*
X115612500Y-117462000D02*
X117482500Y-117462000D01*
X114337500Y-116192000D02*
X114337500Y-114662000D01*
X114337500Y-114662000D02*
X124437500Y-114662000D01*
X124437500Y-120262000D02*
X124437500Y-114662000D01*
X118752500Y-120262000D02*
X124437500Y-120262000D01*
X102587500Y-120262000D02*
X102587500Y-118732000D01*
X104462500Y-120262000D02*
X102587500Y-120262000D01*
X105732500Y-117462000D02*
X105732500Y-119332000D01*
X103862500Y-117462000D02*
X105732500Y-117462000D01*
X102587500Y-116192000D02*
X102587500Y-114662000D01*
X102587500Y-114662000D02*
X112687500Y-114662000D01*
X112687500Y-120262000D02*
X112687500Y-114662000D01*
X107002500Y-120262000D02*
X112687500Y-120262000D01*
X90837500Y-120262000D02*
X90837500Y-118732000D01*
X92712500Y-120262000D02*
X90837500Y-120262000D01*
X93982500Y-117462000D02*
X93982500Y-119332000D01*
X92112500Y-117462000D02*
X93982500Y-117462000D01*
X90837500Y-116192000D02*
X90837500Y-114662000D01*
X90837500Y-114662000D02*
X100937500Y-114662000D01*
X100937500Y-120262000D02*
X100937500Y-114662000D01*
X95252500Y-120262000D02*
X100937500Y-120262000D01*
X79087500Y-120262000D02*
X79087500Y-118732000D01*
X80962500Y-120262000D02*
X79087500Y-120262000D01*
X82232500Y-117462000D02*
X82232500Y-119332000D01*
X80362500Y-117462000D02*
X82232500Y-117462000D01*
X79087500Y-116192000D02*
X79087500Y-114662000D01*
X79087500Y-114662000D02*
X89187500Y-114662000D01*
X89187500Y-120262000D02*
X89187500Y-114662000D01*
X83502500Y-120262000D02*
X89187500Y-120262000D01*
X149587500Y-106762000D02*
X149587500Y-105232000D01*
X151462500Y-106762000D02*
X149587500Y-106762000D01*
X152732500Y-103962000D02*
X152732500Y-105832000D01*
X150862500Y-103962000D02*
X152732500Y-103962000D01*
X149587500Y-102692000D02*
X149587500Y-101162000D01*
X149587500Y-101162000D02*
X159687500Y-101162000D01*
X159687500Y-106762000D02*
X159687500Y-101162000D01*
X154002500Y-106762000D02*
X159687500Y-106762000D01*
X137837500Y-106762000D02*
X137837500Y-105232000D01*
X139712500Y-106762000D02*
X137837500Y-106762000D01*
X140982500Y-103962000D02*
X140982500Y-105832000D01*
X139112500Y-103962000D02*
X140982500Y-103962000D01*
X137837500Y-102692000D02*
X137837500Y-101162000D01*
X137837500Y-101162000D02*
X147937500Y-101162000D01*
X147937500Y-106762000D02*
X147937500Y-101162000D01*
X142252500Y-106762000D02*
X147937500Y-106762000D01*
X126087500Y-106762000D02*
X126087500Y-105232000D01*
X127962500Y-106762000D02*
X126087500Y-106762000D01*
X129232500Y-103962000D02*
X129232500Y-105832000D01*
X127362500Y-103962000D02*
X129232500Y-103962000D01*
X126087500Y-102692000D02*
X126087500Y-101162000D01*
X126087500Y-101162000D02*
X136187500Y-101162000D01*
X136187500Y-106762000D02*
X136187500Y-101162000D01*
X130502500Y-106762000D02*
X136187500Y-106762000D01*
X114337500Y-106762000D02*
X114337500Y-105232000D01*
X116212500Y-106762000D02*
X114337500Y-106762000D01*
X117482500Y-103962000D02*
X117482500Y-105832000D01*
X115612500Y-103962000D02*
X117482500Y-103962000D01*
X114337500Y-102692000D02*
X114337500Y-101162000D01*
X114337500Y-101162000D02*
X124437500Y-101162000D01*
X124437500Y-106762000D02*
X124437500Y-101162000D01*
X118752500Y-106762000D02*
X124437500Y-106762000D01*
X102587500Y-106762000D02*
X102587500Y-105232000D01*
X104462500Y-106762000D02*
X102587500Y-106762000D01*
X105732500Y-103962000D02*
X105732500Y-105832000D01*
X103862500Y-103962000D02*
X105732500Y-103962000D01*
X102587500Y-102692000D02*
X102587500Y-101162000D01*
X102587500Y-101162000D02*
X112687500Y-101162000D01*
X112687500Y-106762000D02*
X112687500Y-101162000D01*
X107002500Y-106762000D02*
X112687500Y-106762000D01*
X90837500Y-106762000D02*
X90837500Y-105232000D01*
X92712500Y-106762000D02*
X90837500Y-106762000D01*
X93982500Y-103962000D02*
X93982500Y-105832000D01*
X92112500Y-103962000D02*
X93982500Y-103962000D01*
X90837500Y-102692000D02*
X90837500Y-101162000D01*
X90837500Y-101162000D02*
X100937500Y-101162000D01*
X100937500Y-106762000D02*
X100937500Y-101162000D01*
X95252500Y-106762000D02*
X100937500Y-106762000D01*
X79087500Y-106762000D02*
X79087500Y-105232000D01*
X80962500Y-106762000D02*
X79087500Y-106762000D01*
X82232500Y-103962000D02*
X82232500Y-105832000D01*
X80362500Y-103962000D02*
X82232500Y-103962000D01*
X79087500Y-102692000D02*
X79087500Y-101162000D01*
X79087500Y-101162000D02*
X89187500Y-101162000D01*
X89187500Y-106762000D02*
X89187500Y-101162000D01*
X83502500Y-106762000D02*
X89187500Y-106762000D01*
X149587500Y-93262000D02*
X149587500Y-91732000D01*
X151462500Y-93262000D02*
X149587500Y-93262000D01*
X152732500Y-90462000D02*
X152732500Y-92332000D01*
X150862500Y-90462000D02*
X152732500Y-90462000D01*
X149587500Y-89192000D02*
X149587500Y-87662000D01*
X149587500Y-87662000D02*
X159687500Y-87662000D01*
X159687500Y-93262000D02*
X159687500Y-87662000D01*
X154002500Y-93262000D02*
X159687500Y-93262000D01*
X137837500Y-93262000D02*
X137837500Y-91732000D01*
X139712500Y-93262000D02*
X137837500Y-93262000D01*
X140982500Y-90462000D02*
X140982500Y-92332000D01*
X139112500Y-90462000D02*
X140982500Y-90462000D01*
X137837500Y-89192000D02*
X137837500Y-87662000D01*
X137837500Y-87662000D02*
X147937500Y-87662000D01*
X147937500Y-93262000D02*
X147937500Y-87662000D01*
X142252500Y-93262000D02*
X147937500Y-93262000D01*
X126087500Y-93262000D02*
X126087500Y-91732000D01*
X127962500Y-93262000D02*
X126087500Y-93262000D01*
X129232500Y-90462000D02*
X129232500Y-92332000D01*
X127362500Y-90462000D02*
X129232500Y-90462000D01*
X126087500Y-89192000D02*
X126087500Y-87662000D01*
X126087500Y-87662000D02*
X136187500Y-87662000D01*
X136187500Y-93262000D02*
X136187500Y-87662000D01*
X130502500Y-93262000D02*
X136187500Y-93262000D01*
X114337500Y-93262000D02*
X114337500Y-91732000D01*
X116212500Y-93262000D02*
X114337500Y-93262000D01*
X117482500Y-90462000D02*
X117482500Y-92332000D01*
X115612500Y-90462000D02*
X117482500Y-90462000D01*
X114337500Y-89192000D02*
X114337500Y-87662000D01*
X114337500Y-87662000D02*
X124437500Y-87662000D01*
X124437500Y-93262000D02*
X124437500Y-87662000D01*
X118752500Y-93262000D02*
X124437500Y-93262000D01*
X102587500Y-93262000D02*
X102587500Y-91732000D01*
X104462500Y-93262000D02*
X102587500Y-93262000D01*
X105732500Y-90462000D02*
X105732500Y-92332000D01*
X103862500Y-90462000D02*
X105732500Y-90462000D01*
X102587500Y-89192000D02*
X102587500Y-87662000D01*
X102587500Y-87662000D02*
X112687500Y-87662000D01*
X112687500Y-93262000D02*
X112687500Y-87662000D01*
X107002500Y-93262000D02*
X112687500Y-93262000D01*
X90837500Y-93262000D02*
X90837500Y-91732000D01*
X92712500Y-93262000D02*
X90837500Y-93262000D01*
X93982500Y-90462000D02*
X93982500Y-92332000D01*
X92112500Y-90462000D02*
X93982500Y-90462000D01*
X90837500Y-89192000D02*
X90837500Y-87662000D01*
X90837500Y-87662000D02*
X100937500Y-87662000D01*
X100937500Y-93262000D02*
X100937500Y-87662000D01*
X95252500Y-93262000D02*
X100937500Y-93262000D01*
X79087500Y-93262000D02*
X79087500Y-91732000D01*
X80962500Y-93262000D02*
X79087500Y-93262000D01*
X82232500Y-90462000D02*
X82232500Y-92332000D01*
X80362500Y-90462000D02*
X82232500Y-90462000D01*
X79087500Y-89192000D02*
X79087500Y-87662000D01*
X79087500Y-87662000D02*
X89187500Y-87662000D01*
X89187500Y-93262000D02*
X89187500Y-87662000D01*
X83502500Y-93262000D02*
X89187500Y-93262000D01*
X149587500Y-79762000D02*
X149587500Y-78232000D01*
X151462500Y-79762000D02*
X149587500Y-79762000D01*
X152732500Y-76962000D02*
X152732500Y-78832000D01*
X150862500Y-76962000D02*
X152732500Y-76962000D01*
X149587500Y-75692000D02*
X149587500Y-74162000D01*
X149587500Y-74162000D02*
X159687500Y-74162000D01*
X159687500Y-79762000D02*
X159687500Y-74162000D01*
X154002500Y-79762000D02*
X159687500Y-79762000D01*
X137837500Y-79762000D02*
X137837500Y-78232000D01*
X139712500Y-79762000D02*
X137837500Y-79762000D01*
X140982500Y-76962000D02*
X140982500Y-78832000D01*
X139112500Y-76962000D02*
X140982500Y-76962000D01*
X137837500Y-75692000D02*
X137837500Y-74162000D01*
X137837500Y-74162000D02*
X147937500Y-74162000D01*
X147937500Y-79762000D02*
X147937500Y-74162000D01*
X142252500Y-79762000D02*
X147937500Y-79762000D01*
X126087500Y-79762000D02*
X126087500Y-78232000D01*
X127962500Y-79762000D02*
X126087500Y-79762000D01*
X129232500Y-76962000D02*
X129232500Y-78832000D01*
X127362500Y-76962000D02*
X129232500Y-76962000D01*
X126087500Y-75692000D02*
X126087500Y-74162000D01*
X126087500Y-74162000D02*
X136187500Y-74162000D01*
X136187500Y-79762000D02*
X136187500Y-74162000D01*
X130502500Y-79762000D02*
X136187500Y-79762000D01*
X114337500Y-79762000D02*
X114337500Y-78232000D01*
X116212500Y-79762000D02*
X114337500Y-79762000D01*
X117482500Y-76962000D02*
X117482500Y-78832000D01*
X115612500Y-76962000D02*
X117482500Y-76962000D01*
X114337500Y-75692000D02*
X114337500Y-74162000D01*
X114337500Y-74162000D02*
X124437500Y-74162000D01*
X124437500Y-79762000D02*
X124437500Y-74162000D01*
X118752500Y-79762000D02*
X124437500Y-79762000D01*
X102587500Y-79762000D02*
X102587500Y-78232000D01*
X104462500Y-79762000D02*
X102587500Y-79762000D01*
X105732500Y-76962000D02*
X105732500Y-78832000D01*
X103862500Y-76962000D02*
X105732500Y-76962000D01*
X102587500Y-75692000D02*
X102587500Y-74162000D01*
X102587500Y-74162000D02*
X112687500Y-74162000D01*
X112687500Y-79762000D02*
X112687500Y-74162000D01*
X107002500Y-79762000D02*
X112687500Y-79762000D01*
X90837500Y-79762000D02*
X90837500Y-78232000D01*
X92712500Y-79762000D02*
X90837500Y-79762000D01*
X93982500Y-76962000D02*
X93982500Y-78832000D01*
X92112500Y-76962000D02*
X93982500Y-76962000D01*
X90837500Y-75692000D02*
X90837500Y-74162000D01*
X90837500Y-74162000D02*
X100937500Y-74162000D01*
X100937500Y-79762000D02*
X100937500Y-74162000D01*
X95252500Y-79762000D02*
X100937500Y-79762000D01*
X153971500Y-153935000D02*
X159656500Y-153935000D01*
X159656500Y-153935000D02*
X159656500Y-148335000D01*
X149556500Y-148335000D02*
X159656500Y-148335000D01*
X149556500Y-149865000D02*
X149556500Y-148335000D01*
X150831500Y-151135000D02*
X152701500Y-151135000D01*
X152701500Y-151135000D02*
X152701500Y-153005000D01*
X151431500Y-153935000D02*
X149556500Y-153935000D01*
X149556500Y-153935000D02*
X149556500Y-152405000D01*
X142221500Y-153935000D02*
X147906500Y-153935000D01*
X147906500Y-153935000D02*
X147906500Y-148335000D01*
X137806500Y-148335000D02*
X147906500Y-148335000D01*
X137806500Y-149865000D02*
X137806500Y-148335000D01*
X139081500Y-151135000D02*
X140951500Y-151135000D01*
X140951500Y-151135000D02*
X140951500Y-153005000D01*
X139681500Y-153935000D02*
X137806500Y-153935000D01*
X137806500Y-153935000D02*
X137806500Y-152405000D01*
X130471500Y-153935000D02*
X136156500Y-153935000D01*
X136156500Y-153935000D02*
X136156500Y-148335000D01*
X126056500Y-148335000D02*
X136156500Y-148335000D01*
X126056500Y-149865000D02*
X126056500Y-148335000D01*
X127331500Y-151135000D02*
X129201500Y-151135000D01*
X129201500Y-151135000D02*
X129201500Y-153005000D01*
X127931500Y-153935000D02*
X126056500Y-153935000D01*
X126056500Y-153935000D02*
X126056500Y-152405000D01*
X118721500Y-153935000D02*
X124406500Y-153935000D01*
X124406500Y-153935000D02*
X124406500Y-148335000D01*
X114306500Y-148335000D02*
X124406500Y-148335000D01*
X114306500Y-149865000D02*
X114306500Y-148335000D01*
X115581500Y-151135000D02*
X117451500Y-151135000D01*
X117451500Y-151135000D02*
X117451500Y-153005000D01*
X116181500Y-153935000D02*
X114306500Y-153935000D01*
X114306500Y-153935000D02*
X114306500Y-152405000D01*
X106971500Y-153935000D02*
X112656500Y-153935000D01*
X112656500Y-153935000D02*
X112656500Y-148335000D01*
X102556500Y-148335000D02*
X112656500Y-148335000D01*
X102556500Y-149865000D02*
X102556500Y-148335000D01*
X103831500Y-151135000D02*
X105701500Y-151135000D01*
X105701500Y-151135000D02*
X105701500Y-153005000D01*
X104431500Y-153935000D02*
X102556500Y-153935000D01*
X102556500Y-153935000D02*
X102556500Y-152405000D01*
X95221500Y-153935000D02*
X100906500Y-153935000D01*
X100906500Y-153935000D02*
X100906500Y-148335000D01*
X90806500Y-148335000D02*
X100906500Y-148335000D01*
X90806500Y-149865000D02*
X90806500Y-148335000D01*
X92081500Y-151135000D02*
X93951500Y-151135000D01*
X93951500Y-151135000D02*
X93951500Y-153005000D01*
X92681500Y-153935000D02*
X90806500Y-153935000D01*
X90806500Y-153935000D02*
X90806500Y-152405000D01*
X83471500Y-153935000D02*
X89156500Y-153935000D01*
X89156500Y-153935000D02*
X89156500Y-148335000D01*
X79056500Y-148335000D02*
X89156500Y-148335000D01*
X79056500Y-149865000D02*
X79056500Y-148335000D01*
X80331500Y-151135000D02*
X82201500Y-151135000D01*
X82201500Y-151135000D02*
X82201500Y-153005000D01*
X80931500Y-153935000D02*
X79056500Y-153935000D01*
X79056500Y-153935000D02*
X79056500Y-152405000D01*
X153971500Y-140435000D02*
X159656500Y-140435000D01*
X159656500Y-140435000D02*
X159656500Y-134835000D01*
X149556500Y-134835000D02*
X159656500Y-134835000D01*
X149556500Y-136365000D02*
X149556500Y-134835000D01*
X150831500Y-137635000D02*
X152701500Y-137635000D01*
X152701500Y-137635000D02*
X152701500Y-139505000D01*
X151431500Y-140435000D02*
X149556500Y-140435000D01*
X149556500Y-140435000D02*
X149556500Y-138905000D01*
X142221500Y-140435000D02*
X147906500Y-140435000D01*
X147906500Y-140435000D02*
X147906500Y-134835000D01*
X137806500Y-134835000D02*
X147906500Y-134835000D01*
X137806500Y-136365000D02*
X137806500Y-134835000D01*
X139081500Y-137635000D02*
X140951500Y-137635000D01*
X140951500Y-137635000D02*
X140951500Y-139505000D01*
X139681500Y-140435000D02*
X137806500Y-140435000D01*
X137806500Y-140435000D02*
X137806500Y-138905000D01*
X130471500Y-140435000D02*
X136156500Y-140435000D01*
X136156500Y-140435000D02*
X136156500Y-134835000D01*
X126056500Y-134835000D02*
X136156500Y-134835000D01*
X126056500Y-136365000D02*
X126056500Y-134835000D01*
X127331500Y-137635000D02*
X129201500Y-137635000D01*
X129201500Y-137635000D02*
X129201500Y-139505000D01*
X127931500Y-140435000D02*
X126056500Y-140435000D01*
X126056500Y-140435000D02*
X126056500Y-138905000D01*
X118721500Y-140435000D02*
X124406500Y-140435000D01*
X124406500Y-140435000D02*
X124406500Y-134835000D01*
X114306500Y-134835000D02*
X124406500Y-134835000D01*
X114306500Y-136365000D02*
X114306500Y-134835000D01*
X115581500Y-137635000D02*
X117451500Y-137635000D01*
X117451500Y-137635000D02*
X117451500Y-139505000D01*
X116181500Y-140435000D02*
X114306500Y-140435000D01*
X114306500Y-140435000D02*
X114306500Y-138905000D01*
X106971500Y-140435000D02*
X112656500Y-140435000D01*
X112656500Y-140435000D02*
X112656500Y-134835000D01*
X102556500Y-134835000D02*
X112656500Y-134835000D01*
X102556500Y-136365000D02*
X102556500Y-134835000D01*
X103831500Y-137635000D02*
X105701500Y-137635000D01*
X105701500Y-137635000D02*
X105701500Y-139505000D01*
X104431500Y-140435000D02*
X102556500Y-140435000D01*
X102556500Y-140435000D02*
X102556500Y-138905000D01*
X95221500Y-140435000D02*
X100906500Y-140435000D01*
X100906500Y-140435000D02*
X100906500Y-134835000D01*
X90806500Y-134835000D02*
X100906500Y-134835000D01*
X90806500Y-136365000D02*
X90806500Y-134835000D01*
X92081500Y-137635000D02*
X93951500Y-137635000D01*
X93951500Y-137635000D02*
X93951500Y-139505000D01*
X92681500Y-140435000D02*
X90806500Y-140435000D01*
X90806500Y-140435000D02*
X90806500Y-138905000D01*
X83471500Y-140435000D02*
X89156500Y-140435000D01*
X89156500Y-140435000D02*
X89156500Y-134835000D01*
X79056500Y-134835000D02*
X89156500Y-134835000D01*
X79056500Y-136365000D02*
X79056500Y-134835000D01*
X80331500Y-137635000D02*
X82201500Y-137635000D01*
X82201500Y-137635000D02*
X82201500Y-139505000D01*
X80931500Y-140435000D02*
X79056500Y-140435000D01*
X79056500Y-140435000D02*
X79056500Y-138905000D01*
X153971500Y-126935000D02*
X159656500Y-126935000D01*
X159656500Y-126935000D02*
X159656500Y-121335000D01*
X149556500Y-121335000D02*
X159656500Y-121335000D01*
X149556500Y-122865000D02*
X149556500Y-121335000D01*
X150831500Y-124135000D02*
X152701500Y-124135000D01*
X152701500Y-124135000D02*
X152701500Y-126005000D01*
X151431500Y-126935000D02*
X149556500Y-126935000D01*
X149556500Y-126935000D02*
X149556500Y-125405000D01*
X142221500Y-126935000D02*
X147906500Y-126935000D01*
X147906500Y-126935000D02*
X147906500Y-121335000D01*
X137806500Y-121335000D02*
X147906500Y-121335000D01*
X137806500Y-122865000D02*
X137806500Y-121335000D01*
X139081500Y-124135000D02*
X140951500Y-124135000D01*
X140951500Y-124135000D02*
X140951500Y-126005000D01*
X139681500Y-126935000D02*
X137806500Y-126935000D01*
X137806500Y-126935000D02*
X137806500Y-125405000D01*
X130471500Y-126935000D02*
X136156500Y-126935000D01*
X136156500Y-126935000D02*
X136156500Y-121335000D01*
X126056500Y-121335000D02*
X136156500Y-121335000D01*
X126056500Y-122865000D02*
X126056500Y-121335000D01*
X127331500Y-124135000D02*
X129201500Y-124135000D01*
X129201500Y-124135000D02*
X129201500Y-126005000D01*
X127931500Y-126935000D02*
X126056500Y-126935000D01*
X126056500Y-126935000D02*
X126056500Y-125405000D01*
X118721500Y-126935000D02*
X124406500Y-126935000D01*
X124406500Y-126935000D02*
X124406500Y-121335000D01*
X114306500Y-121335000D02*
X124406500Y-121335000D01*
X114306500Y-122865000D02*
X114306500Y-121335000D01*
X115581500Y-124135000D02*
X117451500Y-124135000D01*
X117451500Y-124135000D02*
X117451500Y-126005000D01*
X116181500Y-126935000D02*
X114306500Y-126935000D01*
X114306500Y-126935000D02*
X114306500Y-125405000D01*
X106971500Y-126935000D02*
X112656500Y-126935000D01*
X112656500Y-126935000D02*
X112656500Y-121335000D01*
X102556500Y-121335000D02*
X112656500Y-121335000D01*
X102556500Y-122865000D02*
X102556500Y-121335000D01*
X103831500Y-124135000D02*
X105701500Y-124135000D01*
X105701500Y-124135000D02*
X105701500Y-126005000D01*
X104431500Y-126935000D02*
X102556500Y-126935000D01*
X102556500Y-126935000D02*
X102556500Y-125405000D01*
X95221500Y-126935000D02*
X100906500Y-126935000D01*
X100906500Y-126935000D02*
X100906500Y-121335000D01*
X90806500Y-121335000D02*
X100906500Y-121335000D01*
X90806500Y-122865000D02*
X90806500Y-121335000D01*
X92081500Y-124135000D02*
X93951500Y-124135000D01*
X93951500Y-124135000D02*
X93951500Y-126005000D01*
X92681500Y-126935000D02*
X90806500Y-126935000D01*
X90806500Y-126935000D02*
X90806500Y-125405000D01*
X83471500Y-126935000D02*
X89156500Y-126935000D01*
X89156500Y-126935000D02*
X89156500Y-121335000D01*
X79056500Y-121335000D02*
X89156500Y-121335000D01*
X79056500Y-122865000D02*
X79056500Y-121335000D01*
X80331500Y-124135000D02*
X82201500Y-124135000D01*
X82201500Y-124135000D02*
X82201500Y-126005000D01*
X80931500Y-126935000D02*
X79056500Y-126935000D01*
X79056500Y-126935000D02*
X79056500Y-125405000D01*
X153971500Y-113435000D02*
X159656500Y-113435000D01*
X159656500Y-113435000D02*
X159656500Y-107835000D01*
X149556500Y-107835000D02*
X159656500Y-107835000D01*
X149556500Y-109365000D02*
X149556500Y-107835000D01*
X150831500Y-110635000D02*
X152701500Y-110635000D01*
X152701500Y-110635000D02*
X152701500Y-112505000D01*
X151431500Y-113435000D02*
X149556500Y-113435000D01*
X149556500Y-113435000D02*
X149556500Y-111905000D01*
X142221500Y-113435000D02*
X147906500Y-113435000D01*
X147906500Y-113435000D02*
X147906500Y-107835000D01*
X137806500Y-107835000D02*
X147906500Y-107835000D01*
X137806500Y-109365000D02*
X137806500Y-107835000D01*
X139081500Y-110635000D02*
X140951500Y-110635000D01*
X140951500Y-110635000D02*
X140951500Y-112505000D01*
X139681500Y-113435000D02*
X137806500Y-113435000D01*
X137806500Y-113435000D02*
X137806500Y-111905000D01*
X130471500Y-113435000D02*
X136156500Y-113435000D01*
X136156500Y-113435000D02*
X136156500Y-107835000D01*
X126056500Y-107835000D02*
X136156500Y-107835000D01*
X126056500Y-109365000D02*
X126056500Y-107835000D01*
X127331500Y-110635000D02*
X129201500Y-110635000D01*
X129201500Y-110635000D02*
X129201500Y-112505000D01*
X127931500Y-113435000D02*
X126056500Y-113435000D01*
X126056500Y-113435000D02*
X126056500Y-111905000D01*
X118721500Y-113435000D02*
X124406500Y-113435000D01*
X124406500Y-113435000D02*
X124406500Y-107835000D01*
X114306500Y-107835000D02*
X124406500Y-107835000D01*
X114306500Y-109365000D02*
X114306500Y-107835000D01*
X115581500Y-110635000D02*
X117451500Y-110635000D01*
X117451500Y-110635000D02*
X117451500Y-112505000D01*
X116181500Y-113435000D02*
X114306500Y-113435000D01*
X114306500Y-113435000D02*
X114306500Y-111905000D01*
X106971500Y-113435000D02*
X112656500Y-113435000D01*
X112656500Y-113435000D02*
X112656500Y-107835000D01*
X102556500Y-107835000D02*
X112656500Y-107835000D01*
X102556500Y-109365000D02*
X102556500Y-107835000D01*
X103831500Y-110635000D02*
X105701500Y-110635000D01*
X105701500Y-110635000D02*
X105701500Y-112505000D01*
X104431500Y-113435000D02*
X102556500Y-113435000D01*
X102556500Y-113435000D02*
X102556500Y-111905000D01*
X95221500Y-113435000D02*
X100906500Y-113435000D01*
X100906500Y-113435000D02*
X100906500Y-107835000D01*
X90806500Y-107835000D02*
X100906500Y-107835000D01*
X90806500Y-109365000D02*
X90806500Y-107835000D01*
X92081500Y-110635000D02*
X93951500Y-110635000D01*
X93951500Y-110635000D02*
X93951500Y-112505000D01*
X92681500Y-113435000D02*
X90806500Y-113435000D01*
X90806500Y-113435000D02*
X90806500Y-111905000D01*
X83471500Y-113435000D02*
X89156500Y-113435000D01*
X89156500Y-113435000D02*
X89156500Y-107835000D01*
X79056500Y-107835000D02*
X89156500Y-107835000D01*
X79056500Y-109365000D02*
X79056500Y-107835000D01*
X80331500Y-110635000D02*
X82201500Y-110635000D01*
X82201500Y-110635000D02*
X82201500Y-112505000D01*
X80931500Y-113435000D02*
X79056500Y-113435000D01*
X79056500Y-113435000D02*
X79056500Y-111905000D01*
X153971500Y-99935000D02*
X159656500Y-99935000D01*
X159656500Y-99935000D02*
X159656500Y-94335000D01*
X149556500Y-94335000D02*
X159656500Y-94335000D01*
X149556500Y-95865000D02*
X149556500Y-94335000D01*
X150831500Y-97135000D02*
X152701500Y-97135000D01*
X152701500Y-97135000D02*
X152701500Y-99005000D01*
X151431500Y-99935000D02*
X149556500Y-99935000D01*
X149556500Y-99935000D02*
X149556500Y-98405000D01*
X142221500Y-99935000D02*
X147906500Y-99935000D01*
X147906500Y-99935000D02*
X147906500Y-94335000D01*
X137806500Y-94335000D02*
X147906500Y-94335000D01*
X137806500Y-95865000D02*
X137806500Y-94335000D01*
X139081500Y-97135000D02*
X140951500Y-97135000D01*
X140951500Y-97135000D02*
X140951500Y-99005000D01*
X139681500Y-99935000D02*
X137806500Y-99935000D01*
X137806500Y-99935000D02*
X137806500Y-98405000D01*
X130471500Y-99935000D02*
X136156500Y-99935000D01*
X136156500Y-99935000D02*
X136156500Y-94335000D01*
X126056500Y-94335000D02*
X136156500Y-94335000D01*
X126056500Y-95865000D02*
X126056500Y-94335000D01*
X127331500Y-97135000D02*
X129201500Y-97135000D01*
X129201500Y-97135000D02*
X129201500Y-99005000D01*
X127931500Y-99935000D02*
X126056500Y-99935000D01*
X126056500Y-99935000D02*
X126056500Y-98405000D01*
X118721500Y-99935000D02*
X124406500Y-99935000D01*
X124406500Y-99935000D02*
X124406500Y-94335000D01*
X114306500Y-94335000D02*
X124406500Y-94335000D01*
X114306500Y-95865000D02*
X114306500Y-94335000D01*
X115581500Y-97135000D02*
X117451500Y-97135000D01*
X117451500Y-97135000D02*
X117451500Y-99005000D01*
X116181500Y-99935000D02*
X114306500Y-99935000D01*
X114306500Y-99935000D02*
X114306500Y-98405000D01*
X106971500Y-99935000D02*
X112656500Y-99935000D01*
X112656500Y-99935000D02*
X112656500Y-94335000D01*
X102556500Y-94335000D02*
X112656500Y-94335000D01*
X102556500Y-95865000D02*
X102556500Y-94335000D01*
X103831500Y-97135000D02*
X105701500Y-97135000D01*
X105701500Y-97135000D02*
X105701500Y-99005000D01*
X104431500Y-99935000D02*
X102556500Y-99935000D01*
X102556500Y-99935000D02*
X102556500Y-98405000D01*
X95221500Y-99935000D02*
X100906500Y-99935000D01*
X100906500Y-99935000D02*
X100906500Y-94335000D01*
X90806500Y-94335000D02*
X100906500Y-94335000D01*
X90806500Y-95865000D02*
X90806500Y-94335000D01*
X92081500Y-97135000D02*
X93951500Y-97135000D01*
X93951500Y-97135000D02*
X93951500Y-99005000D01*
X92681500Y-99935000D02*
X90806500Y-99935000D01*
X90806500Y-99935000D02*
X90806500Y-98405000D01*
X83471500Y-99935000D02*
X89156500Y-99935000D01*
X89156500Y-99935000D02*
X89156500Y-94335000D01*
X79056500Y-94335000D02*
X89156500Y-94335000D01*
X79056500Y-95865000D02*
X79056500Y-94335000D01*
X80331500Y-97135000D02*
X82201500Y-97135000D01*
X82201500Y-97135000D02*
X82201500Y-99005000D01*
X80931500Y-99935000D02*
X79056500Y-99935000D01*
X79056500Y-99935000D02*
X79056500Y-98405000D01*
X153971500Y-86435000D02*
X159656500Y-86435000D01*
X159656500Y-86435000D02*
X159656500Y-80835000D01*
X149556500Y-80835000D02*
X159656500Y-80835000D01*
X149556500Y-82365000D02*
X149556500Y-80835000D01*
X150831500Y-83635000D02*
X152701500Y-83635000D01*
X152701500Y-83635000D02*
X152701500Y-85505000D01*
X151431500Y-86435000D02*
X149556500Y-86435000D01*
X149556500Y-86435000D02*
X149556500Y-84905000D01*
X142221500Y-86435000D02*
X147906500Y-86435000D01*
X147906500Y-86435000D02*
X147906500Y-80835000D01*
X137806500Y-80835000D02*
X147906500Y-80835000D01*
X137806500Y-82365000D02*
X137806500Y-80835000D01*
X139081500Y-83635000D02*
X140951500Y-83635000D01*
X140951500Y-83635000D02*
X140951500Y-85505000D01*
X139681500Y-86435000D02*
X137806500Y-86435000D01*
X137806500Y-86435000D02*
X137806500Y-84905000D01*
X130471500Y-86435000D02*
X136156500Y-86435000D01*
X136156500Y-86435000D02*
X136156500Y-80835000D01*
X126056500Y-80835000D02*
X136156500Y-80835000D01*
X126056500Y-82365000D02*
X126056500Y-80835000D01*
X127331500Y-83635000D02*
X129201500Y-83635000D01*
X129201500Y-83635000D02*
X129201500Y-85505000D01*
X127931500Y-86435000D02*
X126056500Y-86435000D01*
X126056500Y-86435000D02*
X126056500Y-84905000D01*
X118721500Y-86435000D02*
X124406500Y-86435000D01*
X124406500Y-86435000D02*
X124406500Y-80835000D01*
X114306500Y-80835000D02*
X124406500Y-80835000D01*
X114306500Y-82365000D02*
X114306500Y-80835000D01*
X115581500Y-83635000D02*
X117451500Y-83635000D01*
X117451500Y-83635000D02*
X117451500Y-85505000D01*
X116181500Y-86435000D02*
X114306500Y-86435000D01*
X114306500Y-86435000D02*
X114306500Y-84905000D01*
X106971500Y-86435000D02*
X112656500Y-86435000D01*
X112656500Y-86435000D02*
X112656500Y-80835000D01*
X102556500Y-80835000D02*
X112656500Y-80835000D01*
X102556500Y-82365000D02*
X102556500Y-80835000D01*
X103831500Y-83635000D02*
X105701500Y-83635000D01*
X105701500Y-83635000D02*
X105701500Y-85505000D01*
X104431500Y-86435000D02*
X102556500Y-86435000D01*
X102556500Y-86435000D02*
X102556500Y-84905000D01*
X95221500Y-86435000D02*
X100906500Y-86435000D01*
X100906500Y-86435000D02*
X100906500Y-80835000D01*
X90806500Y-80835000D02*
X100906500Y-80835000D01*
X90806500Y-82365000D02*
X90806500Y-80835000D01*
X92081500Y-83635000D02*
X93951500Y-83635000D01*
X93951500Y-83635000D02*
X93951500Y-85505000D01*
X92681500Y-86435000D02*
X90806500Y-86435000D01*
X90806500Y-86435000D02*
X90806500Y-84905000D01*
X79056500Y-86435000D02*
X79056500Y-84905000D01*
X80931500Y-86435000D02*
X79056500Y-86435000D01*
X82201500Y-83635000D02*
X82201500Y-85505000D01*
X80331500Y-83635000D02*
X82201500Y-83635000D01*
X79056500Y-82365000D02*
X79056500Y-80835000D01*
X79056500Y-80835000D02*
X89156500Y-80835000D01*
X89156500Y-86435000D02*
X89156500Y-80835000D01*
X83471500Y-86435000D02*
X89156500Y-86435000D01*
X83502500Y-79762000D02*
X89187500Y-79762000D01*
X89187500Y-79762000D02*
X89187500Y-74162000D01*
X79087500Y-74162000D02*
X89187500Y-74162000D01*
X79087500Y-75692000D02*
X79087500Y-74162000D01*
X80362500Y-76962000D02*
X82232500Y-76962000D01*
X82232500Y-76962000D02*
X82232500Y-78832000D01*
X80962500Y-79762000D02*
X79087500Y-79762000D01*
X79087500Y-79762000D02*
X79087500Y-78232000D01*
M02*
