G04 #@! TF.GenerationSoftware,KiCad,Pcbnew,5.0.2-bee76a0~70~ubuntu18.04.1*
G04 #@! TF.CreationDate,2019-05-10T19:14:11+02:00*
G04 #@! TF.ProjectId,spi_connector_board_micromatch_only_5x5_panel,7370695f-636f-46e6-9e65-63746f725f62,rev?*
G04 #@! TF.SameCoordinates,Original*
G04 #@! TF.FileFunction,Legend,Top*
G04 #@! TF.FilePolarity,Positive*
%FSLAX46Y46*%
G04 Gerber Fmt 4.6, Leading zero omitted, Abs format (unit mm)*
G04 Created by KiCad (PCBNEW 5.0.2-bee76a0~70~ubuntu18.04.1) date Fr 10 Mai 2019 19:14:11 CEST*
%MOMM*%
%LPD*%
G01*
G04 APERTURE LIST*
%ADD10C,0.120000*%
G04 APERTURE END LIST*
D10*
G04 #@! TO.C,REF\002A\002A*
X155632500Y-148278000D02*
X161317500Y-148278000D01*
X161317500Y-148278000D02*
X161317500Y-142678000D01*
X151217500Y-142678000D02*
X161317500Y-142678000D01*
X151217500Y-144208000D02*
X151217500Y-142678000D01*
X152492500Y-145478000D02*
X154362500Y-145478000D01*
X154362500Y-145478000D02*
X154362500Y-147348000D01*
X153092500Y-148278000D02*
X151217500Y-148278000D01*
X151217500Y-148278000D02*
X151217500Y-146748000D01*
X143632500Y-148278000D02*
X149317500Y-148278000D01*
X149317500Y-148278000D02*
X149317500Y-142678000D01*
X139217500Y-142678000D02*
X149317500Y-142678000D01*
X139217500Y-144208000D02*
X139217500Y-142678000D01*
X140492500Y-145478000D02*
X142362500Y-145478000D01*
X142362500Y-145478000D02*
X142362500Y-147348000D01*
X141092500Y-148278000D02*
X139217500Y-148278000D01*
X139217500Y-148278000D02*
X139217500Y-146748000D01*
X131632500Y-148278000D02*
X137317500Y-148278000D01*
X137317500Y-148278000D02*
X137317500Y-142678000D01*
X127217500Y-142678000D02*
X137317500Y-142678000D01*
X127217500Y-144208000D02*
X127217500Y-142678000D01*
X128492500Y-145478000D02*
X130362500Y-145478000D01*
X130362500Y-145478000D02*
X130362500Y-147348000D01*
X129092500Y-148278000D02*
X127217500Y-148278000D01*
X127217500Y-148278000D02*
X127217500Y-146748000D01*
X95536500Y-154951000D02*
X101221500Y-154951000D01*
X101221500Y-154951000D02*
X101221500Y-149351000D01*
X91121500Y-149351000D02*
X101221500Y-149351000D01*
X91121500Y-150881000D02*
X91121500Y-149351000D01*
X92396500Y-152151000D02*
X94266500Y-152151000D01*
X94266500Y-152151000D02*
X94266500Y-154021000D01*
X92996500Y-154951000D02*
X91121500Y-154951000D01*
X91121500Y-154951000D02*
X91121500Y-153421000D01*
X151186500Y-154951000D02*
X151186500Y-153421000D01*
X153061500Y-154951000D02*
X151186500Y-154951000D01*
X154331500Y-152151000D02*
X154331500Y-154021000D01*
X152461500Y-152151000D02*
X154331500Y-152151000D01*
X151186500Y-150881000D02*
X151186500Y-149351000D01*
X151186500Y-149351000D02*
X161286500Y-149351000D01*
X161286500Y-154951000D02*
X161286500Y-149351000D01*
X155601500Y-154951000D02*
X161286500Y-154951000D01*
X83502500Y-148278000D02*
X89187500Y-148278000D01*
X89187500Y-148278000D02*
X89187500Y-142678000D01*
X79087500Y-142678000D02*
X89187500Y-142678000D01*
X79087500Y-144208000D02*
X79087500Y-142678000D01*
X80362500Y-145478000D02*
X82232500Y-145478000D01*
X82232500Y-145478000D02*
X82232500Y-147348000D01*
X80962500Y-148278000D02*
X79087500Y-148278000D01*
X79087500Y-148278000D02*
X79087500Y-146748000D01*
X103186500Y-154951000D02*
X103186500Y-153421000D01*
X105061500Y-154951000D02*
X103186500Y-154951000D01*
X106331500Y-152151000D02*
X106331500Y-154021000D01*
X104461500Y-152151000D02*
X106331500Y-152151000D01*
X103186500Y-150881000D02*
X103186500Y-149351000D01*
X103186500Y-149351000D02*
X113286500Y-149351000D01*
X113286500Y-154951000D02*
X113286500Y-149351000D01*
X107601500Y-154951000D02*
X113286500Y-154951000D01*
X115186500Y-154951000D02*
X115186500Y-153421000D01*
X117061500Y-154951000D02*
X115186500Y-154951000D01*
X118331500Y-152151000D02*
X118331500Y-154021000D01*
X116461500Y-152151000D02*
X118331500Y-152151000D01*
X115186500Y-150881000D02*
X115186500Y-149351000D01*
X115186500Y-149351000D02*
X125286500Y-149351000D01*
X125286500Y-154951000D02*
X125286500Y-149351000D01*
X119601500Y-154951000D02*
X125286500Y-154951000D01*
X127186500Y-154951000D02*
X127186500Y-153421000D01*
X129061500Y-154951000D02*
X127186500Y-154951000D01*
X130331500Y-152151000D02*
X130331500Y-154021000D01*
X128461500Y-152151000D02*
X130331500Y-152151000D01*
X127186500Y-150881000D02*
X127186500Y-149351000D01*
X127186500Y-149351000D02*
X137286500Y-149351000D01*
X137286500Y-154951000D02*
X137286500Y-149351000D01*
X131601500Y-154951000D02*
X137286500Y-154951000D01*
X139186500Y-154951000D02*
X139186500Y-153421000D01*
X141061500Y-154951000D02*
X139186500Y-154951000D01*
X142331500Y-152151000D02*
X142331500Y-154021000D01*
X140461500Y-152151000D02*
X142331500Y-152151000D01*
X139186500Y-150881000D02*
X139186500Y-149351000D01*
X139186500Y-149351000D02*
X149286500Y-149351000D01*
X149286500Y-154951000D02*
X149286500Y-149351000D01*
X143601500Y-154951000D02*
X149286500Y-154951000D01*
X79056500Y-154951000D02*
X79056500Y-153421000D01*
X80931500Y-154951000D02*
X79056500Y-154951000D01*
X82201500Y-152151000D02*
X82201500Y-154021000D01*
X80331500Y-152151000D02*
X82201500Y-152151000D01*
X79056500Y-150881000D02*
X79056500Y-149351000D01*
X79056500Y-149351000D02*
X89156500Y-149351000D01*
X89156500Y-154951000D02*
X89156500Y-149351000D01*
X83471500Y-154951000D02*
X89156500Y-154951000D01*
X107632500Y-148278000D02*
X113317500Y-148278000D01*
X113317500Y-148278000D02*
X113317500Y-142678000D01*
X103217500Y-142678000D02*
X113317500Y-142678000D01*
X103217500Y-144208000D02*
X103217500Y-142678000D01*
X104492500Y-145478000D02*
X106362500Y-145478000D01*
X106362500Y-145478000D02*
X106362500Y-147348000D01*
X105092500Y-148278000D02*
X103217500Y-148278000D01*
X103217500Y-148278000D02*
X103217500Y-146748000D01*
X91152500Y-148278000D02*
X91152500Y-146748000D01*
X93027500Y-148278000D02*
X91152500Y-148278000D01*
X94297500Y-145478000D02*
X94297500Y-147348000D01*
X92427500Y-145478000D02*
X94297500Y-145478000D01*
X91152500Y-144208000D02*
X91152500Y-142678000D01*
X91152500Y-142678000D02*
X101252500Y-142678000D01*
X101252500Y-148278000D02*
X101252500Y-142678000D01*
X95567500Y-148278000D02*
X101252500Y-148278000D01*
X119632500Y-148278000D02*
X125317500Y-148278000D01*
X125317500Y-148278000D02*
X125317500Y-142678000D01*
X115217500Y-142678000D02*
X125317500Y-142678000D01*
X115217500Y-144208000D02*
X115217500Y-142678000D01*
X116492500Y-145478000D02*
X118362500Y-145478000D01*
X118362500Y-145478000D02*
X118362500Y-147348000D01*
X117092500Y-148278000D02*
X115217500Y-148278000D01*
X115217500Y-148278000D02*
X115217500Y-146748000D01*
X79056500Y-86435000D02*
X79056500Y-84905000D01*
X80931500Y-86435000D02*
X79056500Y-86435000D01*
X82201500Y-83635000D02*
X82201500Y-85505000D01*
X80331500Y-83635000D02*
X82201500Y-83635000D01*
X79056500Y-82365000D02*
X79056500Y-80835000D01*
X79056500Y-80835000D02*
X89156500Y-80835000D01*
X89156500Y-86435000D02*
X89156500Y-80835000D01*
X83471500Y-86435000D02*
X89156500Y-86435000D01*
X83471500Y-100135000D02*
X89156500Y-100135000D01*
X89156500Y-100135000D02*
X89156500Y-94535000D01*
X79056500Y-94535000D02*
X89156500Y-94535000D01*
X79056500Y-96065000D02*
X79056500Y-94535000D01*
X80331500Y-97335000D02*
X82201500Y-97335000D01*
X82201500Y-97335000D02*
X82201500Y-99205000D01*
X80931500Y-100135000D02*
X79056500Y-100135000D01*
X79056500Y-100135000D02*
X79056500Y-98605000D01*
X83471500Y-127535000D02*
X89156500Y-127535000D01*
X89156500Y-127535000D02*
X89156500Y-121935000D01*
X79056500Y-121935000D02*
X89156500Y-121935000D01*
X79056500Y-123465000D02*
X79056500Y-121935000D01*
X80331500Y-124735000D02*
X82201500Y-124735000D01*
X82201500Y-124735000D02*
X82201500Y-126605000D01*
X80931500Y-127535000D02*
X79056500Y-127535000D01*
X79056500Y-127535000D02*
X79056500Y-126005000D01*
X83471500Y-141235000D02*
X89156500Y-141235000D01*
X89156500Y-141235000D02*
X89156500Y-135635000D01*
X79056500Y-135635000D02*
X89156500Y-135635000D01*
X79056500Y-137165000D02*
X79056500Y-135635000D01*
X80331500Y-138435000D02*
X82201500Y-138435000D01*
X82201500Y-138435000D02*
X82201500Y-140305000D01*
X80931500Y-141235000D02*
X79056500Y-141235000D01*
X79056500Y-141235000D02*
X79056500Y-139705000D01*
X83471500Y-113835000D02*
X89156500Y-113835000D01*
X89156500Y-113835000D02*
X89156500Y-108235000D01*
X79056500Y-108235000D02*
X89156500Y-108235000D01*
X79056500Y-109765000D02*
X79056500Y-108235000D01*
X80331500Y-111035000D02*
X82201500Y-111035000D01*
X82201500Y-111035000D02*
X82201500Y-112905000D01*
X80931500Y-113835000D02*
X79056500Y-113835000D01*
X79056500Y-113835000D02*
X79056500Y-112305000D01*
X79087500Y-93462000D02*
X79087500Y-91932000D01*
X80962500Y-93462000D02*
X79087500Y-93462000D01*
X82232500Y-90662000D02*
X82232500Y-92532000D01*
X80362500Y-90662000D02*
X82232500Y-90662000D01*
X79087500Y-89392000D02*
X79087500Y-87862000D01*
X79087500Y-87862000D02*
X89187500Y-87862000D01*
X89187500Y-93462000D02*
X89187500Y-87862000D01*
X83502500Y-93462000D02*
X89187500Y-93462000D01*
X79087500Y-107162000D02*
X79087500Y-105632000D01*
X80962500Y-107162000D02*
X79087500Y-107162000D01*
X82232500Y-104362000D02*
X82232500Y-106232000D01*
X80362500Y-104362000D02*
X82232500Y-104362000D01*
X79087500Y-103092000D02*
X79087500Y-101562000D01*
X79087500Y-101562000D02*
X89187500Y-101562000D01*
X89187500Y-107162000D02*
X89187500Y-101562000D01*
X83502500Y-107162000D02*
X89187500Y-107162000D01*
X79087500Y-120862000D02*
X79087500Y-119332000D01*
X80962500Y-120862000D02*
X79087500Y-120862000D01*
X82232500Y-118062000D02*
X82232500Y-119932000D01*
X80362500Y-118062000D02*
X82232500Y-118062000D01*
X79087500Y-116792000D02*
X79087500Y-115262000D01*
X79087500Y-115262000D02*
X89187500Y-115262000D01*
X89187500Y-120862000D02*
X89187500Y-115262000D01*
X83502500Y-120862000D02*
X89187500Y-120862000D01*
X83502500Y-79762000D02*
X89187500Y-79762000D01*
X89187500Y-79762000D02*
X89187500Y-74162000D01*
X79087500Y-74162000D02*
X89187500Y-74162000D01*
X79087500Y-75692000D02*
X79087500Y-74162000D01*
X80362500Y-76962000D02*
X82232500Y-76962000D01*
X82232500Y-76962000D02*
X82232500Y-78832000D01*
X80962500Y-79762000D02*
X79087500Y-79762000D01*
X79087500Y-79762000D02*
X79087500Y-78232000D01*
X79087500Y-134562000D02*
X79087500Y-133032000D01*
X80962500Y-134562000D02*
X79087500Y-134562000D01*
X82232500Y-131762000D02*
X82232500Y-133632000D01*
X80362500Y-131762000D02*
X82232500Y-131762000D01*
X79087500Y-130492000D02*
X79087500Y-128962000D01*
X79087500Y-128962000D02*
X89187500Y-128962000D01*
X89187500Y-134562000D02*
X89187500Y-128962000D01*
X83502500Y-134562000D02*
X89187500Y-134562000D01*
X95567500Y-93462000D02*
X101252500Y-93462000D01*
X101252500Y-93462000D02*
X101252500Y-87862000D01*
X91152500Y-87862000D02*
X101252500Y-87862000D01*
X91152500Y-89392000D02*
X91152500Y-87862000D01*
X92427500Y-90662000D02*
X94297500Y-90662000D01*
X94297500Y-90662000D02*
X94297500Y-92532000D01*
X93027500Y-93462000D02*
X91152500Y-93462000D01*
X91152500Y-93462000D02*
X91152500Y-91932000D01*
X95567500Y-107162000D02*
X101252500Y-107162000D01*
X101252500Y-107162000D02*
X101252500Y-101562000D01*
X91152500Y-101562000D02*
X101252500Y-101562000D01*
X91152500Y-103092000D02*
X91152500Y-101562000D01*
X92427500Y-104362000D02*
X94297500Y-104362000D01*
X94297500Y-104362000D02*
X94297500Y-106232000D01*
X93027500Y-107162000D02*
X91152500Y-107162000D01*
X91152500Y-107162000D02*
X91152500Y-105632000D01*
X95567500Y-120862000D02*
X101252500Y-120862000D01*
X101252500Y-120862000D02*
X101252500Y-115262000D01*
X91152500Y-115262000D02*
X101252500Y-115262000D01*
X91152500Y-116792000D02*
X91152500Y-115262000D01*
X92427500Y-118062000D02*
X94297500Y-118062000D01*
X94297500Y-118062000D02*
X94297500Y-119932000D01*
X93027500Y-120862000D02*
X91152500Y-120862000D01*
X91152500Y-120862000D02*
X91152500Y-119332000D01*
X91152500Y-79762000D02*
X91152500Y-78232000D01*
X93027500Y-79762000D02*
X91152500Y-79762000D01*
X94297500Y-76962000D02*
X94297500Y-78832000D01*
X92427500Y-76962000D02*
X94297500Y-76962000D01*
X91152500Y-75692000D02*
X91152500Y-74162000D01*
X91152500Y-74162000D02*
X101252500Y-74162000D01*
X101252500Y-79762000D02*
X101252500Y-74162000D01*
X95567500Y-79762000D02*
X101252500Y-79762000D01*
X91121500Y-100135000D02*
X91121500Y-98605000D01*
X92996500Y-100135000D02*
X91121500Y-100135000D01*
X94266500Y-97335000D02*
X94266500Y-99205000D01*
X92396500Y-97335000D02*
X94266500Y-97335000D01*
X91121500Y-96065000D02*
X91121500Y-94535000D01*
X91121500Y-94535000D02*
X101221500Y-94535000D01*
X101221500Y-100135000D02*
X101221500Y-94535000D01*
X95536500Y-100135000D02*
X101221500Y-100135000D01*
X91121500Y-113835000D02*
X91121500Y-112305000D01*
X92996500Y-113835000D02*
X91121500Y-113835000D01*
X94266500Y-111035000D02*
X94266500Y-112905000D01*
X92396500Y-111035000D02*
X94266500Y-111035000D01*
X91121500Y-109765000D02*
X91121500Y-108235000D01*
X91121500Y-108235000D02*
X101221500Y-108235000D01*
X101221500Y-113835000D02*
X101221500Y-108235000D01*
X95536500Y-113835000D02*
X101221500Y-113835000D01*
X91121500Y-127535000D02*
X91121500Y-126005000D01*
X92996500Y-127535000D02*
X91121500Y-127535000D01*
X94266500Y-124735000D02*
X94266500Y-126605000D01*
X92396500Y-124735000D02*
X94266500Y-124735000D01*
X91121500Y-123465000D02*
X91121500Y-121935000D01*
X91121500Y-121935000D02*
X101221500Y-121935000D01*
X101221500Y-127535000D02*
X101221500Y-121935000D01*
X95536500Y-127535000D02*
X101221500Y-127535000D01*
X91121500Y-141235000D02*
X91121500Y-139705000D01*
X92996500Y-141235000D02*
X91121500Y-141235000D01*
X94266500Y-138435000D02*
X94266500Y-140305000D01*
X92396500Y-138435000D02*
X94266500Y-138435000D01*
X91121500Y-137165000D02*
X91121500Y-135635000D01*
X91121500Y-135635000D02*
X101221500Y-135635000D01*
X101221500Y-141235000D02*
X101221500Y-135635000D01*
X95536500Y-141235000D02*
X101221500Y-141235000D01*
X95536500Y-86435000D02*
X101221500Y-86435000D01*
X101221500Y-86435000D02*
X101221500Y-80835000D01*
X91121500Y-80835000D02*
X101221500Y-80835000D01*
X91121500Y-82365000D02*
X91121500Y-80835000D01*
X92396500Y-83635000D02*
X94266500Y-83635000D01*
X94266500Y-83635000D02*
X94266500Y-85505000D01*
X92996500Y-86435000D02*
X91121500Y-86435000D01*
X91121500Y-86435000D02*
X91121500Y-84905000D01*
X95567500Y-134562000D02*
X101252500Y-134562000D01*
X101252500Y-134562000D02*
X101252500Y-128962000D01*
X91152500Y-128962000D02*
X101252500Y-128962000D01*
X91152500Y-130492000D02*
X91152500Y-128962000D01*
X92427500Y-131762000D02*
X94297500Y-131762000D01*
X94297500Y-131762000D02*
X94297500Y-133632000D01*
X93027500Y-134562000D02*
X91152500Y-134562000D01*
X91152500Y-134562000D02*
X91152500Y-133032000D01*
X151217500Y-134562000D02*
X151217500Y-133032000D01*
X153092500Y-134562000D02*
X151217500Y-134562000D01*
X154362500Y-131762000D02*
X154362500Y-133632000D01*
X152492500Y-131762000D02*
X154362500Y-131762000D01*
X151217500Y-130492000D02*
X151217500Y-128962000D01*
X151217500Y-128962000D02*
X161317500Y-128962000D01*
X161317500Y-134562000D02*
X161317500Y-128962000D01*
X155632500Y-134562000D02*
X161317500Y-134562000D01*
X139217500Y-134562000D02*
X139217500Y-133032000D01*
X141092500Y-134562000D02*
X139217500Y-134562000D01*
X142362500Y-131762000D02*
X142362500Y-133632000D01*
X140492500Y-131762000D02*
X142362500Y-131762000D01*
X139217500Y-130492000D02*
X139217500Y-128962000D01*
X139217500Y-128962000D02*
X149317500Y-128962000D01*
X149317500Y-134562000D02*
X149317500Y-128962000D01*
X143632500Y-134562000D02*
X149317500Y-134562000D01*
X127217500Y-134562000D02*
X127217500Y-133032000D01*
X129092500Y-134562000D02*
X127217500Y-134562000D01*
X130362500Y-131762000D02*
X130362500Y-133632000D01*
X128492500Y-131762000D02*
X130362500Y-131762000D01*
X127217500Y-130492000D02*
X127217500Y-128962000D01*
X127217500Y-128962000D02*
X137317500Y-128962000D01*
X137317500Y-134562000D02*
X137317500Y-128962000D01*
X131632500Y-134562000D02*
X137317500Y-134562000D01*
X115217500Y-134562000D02*
X115217500Y-133032000D01*
X117092500Y-134562000D02*
X115217500Y-134562000D01*
X118362500Y-131762000D02*
X118362500Y-133632000D01*
X116492500Y-131762000D02*
X118362500Y-131762000D01*
X115217500Y-130492000D02*
X115217500Y-128962000D01*
X115217500Y-128962000D02*
X125317500Y-128962000D01*
X125317500Y-134562000D02*
X125317500Y-128962000D01*
X119632500Y-134562000D02*
X125317500Y-134562000D01*
X103217500Y-134562000D02*
X103217500Y-133032000D01*
X105092500Y-134562000D02*
X103217500Y-134562000D01*
X106362500Y-131762000D02*
X106362500Y-133632000D01*
X104492500Y-131762000D02*
X106362500Y-131762000D01*
X103217500Y-130492000D02*
X103217500Y-128962000D01*
X103217500Y-128962000D02*
X113317500Y-128962000D01*
X113317500Y-134562000D02*
X113317500Y-128962000D01*
X107632500Y-134562000D02*
X113317500Y-134562000D01*
X151217500Y-120862000D02*
X151217500Y-119332000D01*
X153092500Y-120862000D02*
X151217500Y-120862000D01*
X154362500Y-118062000D02*
X154362500Y-119932000D01*
X152492500Y-118062000D02*
X154362500Y-118062000D01*
X151217500Y-116792000D02*
X151217500Y-115262000D01*
X151217500Y-115262000D02*
X161317500Y-115262000D01*
X161317500Y-120862000D02*
X161317500Y-115262000D01*
X155632500Y-120862000D02*
X161317500Y-120862000D01*
X139217500Y-120862000D02*
X139217500Y-119332000D01*
X141092500Y-120862000D02*
X139217500Y-120862000D01*
X142362500Y-118062000D02*
X142362500Y-119932000D01*
X140492500Y-118062000D02*
X142362500Y-118062000D01*
X139217500Y-116792000D02*
X139217500Y-115262000D01*
X139217500Y-115262000D02*
X149317500Y-115262000D01*
X149317500Y-120862000D02*
X149317500Y-115262000D01*
X143632500Y-120862000D02*
X149317500Y-120862000D01*
X127217500Y-120862000D02*
X127217500Y-119332000D01*
X129092500Y-120862000D02*
X127217500Y-120862000D01*
X130362500Y-118062000D02*
X130362500Y-119932000D01*
X128492500Y-118062000D02*
X130362500Y-118062000D01*
X127217500Y-116792000D02*
X127217500Y-115262000D01*
X127217500Y-115262000D02*
X137317500Y-115262000D01*
X137317500Y-120862000D02*
X137317500Y-115262000D01*
X131632500Y-120862000D02*
X137317500Y-120862000D01*
X115217500Y-120862000D02*
X115217500Y-119332000D01*
X117092500Y-120862000D02*
X115217500Y-120862000D01*
X118362500Y-118062000D02*
X118362500Y-119932000D01*
X116492500Y-118062000D02*
X118362500Y-118062000D01*
X115217500Y-116792000D02*
X115217500Y-115262000D01*
X115217500Y-115262000D02*
X125317500Y-115262000D01*
X125317500Y-120862000D02*
X125317500Y-115262000D01*
X119632500Y-120862000D02*
X125317500Y-120862000D01*
X103217500Y-120862000D02*
X103217500Y-119332000D01*
X105092500Y-120862000D02*
X103217500Y-120862000D01*
X106362500Y-118062000D02*
X106362500Y-119932000D01*
X104492500Y-118062000D02*
X106362500Y-118062000D01*
X103217500Y-116792000D02*
X103217500Y-115262000D01*
X103217500Y-115262000D02*
X113317500Y-115262000D01*
X113317500Y-120862000D02*
X113317500Y-115262000D01*
X107632500Y-120862000D02*
X113317500Y-120862000D01*
X151217500Y-107162000D02*
X151217500Y-105632000D01*
X153092500Y-107162000D02*
X151217500Y-107162000D01*
X154362500Y-104362000D02*
X154362500Y-106232000D01*
X152492500Y-104362000D02*
X154362500Y-104362000D01*
X151217500Y-103092000D02*
X151217500Y-101562000D01*
X151217500Y-101562000D02*
X161317500Y-101562000D01*
X161317500Y-107162000D02*
X161317500Y-101562000D01*
X155632500Y-107162000D02*
X161317500Y-107162000D01*
X139217500Y-107162000D02*
X139217500Y-105632000D01*
X141092500Y-107162000D02*
X139217500Y-107162000D01*
X142362500Y-104362000D02*
X142362500Y-106232000D01*
X140492500Y-104362000D02*
X142362500Y-104362000D01*
X139217500Y-103092000D02*
X139217500Y-101562000D01*
X139217500Y-101562000D02*
X149317500Y-101562000D01*
X149317500Y-107162000D02*
X149317500Y-101562000D01*
X143632500Y-107162000D02*
X149317500Y-107162000D01*
X127217500Y-107162000D02*
X127217500Y-105632000D01*
X129092500Y-107162000D02*
X127217500Y-107162000D01*
X130362500Y-104362000D02*
X130362500Y-106232000D01*
X128492500Y-104362000D02*
X130362500Y-104362000D01*
X127217500Y-103092000D02*
X127217500Y-101562000D01*
X127217500Y-101562000D02*
X137317500Y-101562000D01*
X137317500Y-107162000D02*
X137317500Y-101562000D01*
X131632500Y-107162000D02*
X137317500Y-107162000D01*
X115217500Y-107162000D02*
X115217500Y-105632000D01*
X117092500Y-107162000D02*
X115217500Y-107162000D01*
X118362500Y-104362000D02*
X118362500Y-106232000D01*
X116492500Y-104362000D02*
X118362500Y-104362000D01*
X115217500Y-103092000D02*
X115217500Y-101562000D01*
X115217500Y-101562000D02*
X125317500Y-101562000D01*
X125317500Y-107162000D02*
X125317500Y-101562000D01*
X119632500Y-107162000D02*
X125317500Y-107162000D01*
X103217500Y-107162000D02*
X103217500Y-105632000D01*
X105092500Y-107162000D02*
X103217500Y-107162000D01*
X106362500Y-104362000D02*
X106362500Y-106232000D01*
X104492500Y-104362000D02*
X106362500Y-104362000D01*
X103217500Y-103092000D02*
X103217500Y-101562000D01*
X103217500Y-101562000D02*
X113317500Y-101562000D01*
X113317500Y-107162000D02*
X113317500Y-101562000D01*
X107632500Y-107162000D02*
X113317500Y-107162000D01*
X151217500Y-93462000D02*
X151217500Y-91932000D01*
X153092500Y-93462000D02*
X151217500Y-93462000D01*
X154362500Y-90662000D02*
X154362500Y-92532000D01*
X152492500Y-90662000D02*
X154362500Y-90662000D01*
X151217500Y-89392000D02*
X151217500Y-87862000D01*
X151217500Y-87862000D02*
X161317500Y-87862000D01*
X161317500Y-93462000D02*
X161317500Y-87862000D01*
X155632500Y-93462000D02*
X161317500Y-93462000D01*
X139217500Y-93462000D02*
X139217500Y-91932000D01*
X141092500Y-93462000D02*
X139217500Y-93462000D01*
X142362500Y-90662000D02*
X142362500Y-92532000D01*
X140492500Y-90662000D02*
X142362500Y-90662000D01*
X139217500Y-89392000D02*
X139217500Y-87862000D01*
X139217500Y-87862000D02*
X149317500Y-87862000D01*
X149317500Y-93462000D02*
X149317500Y-87862000D01*
X143632500Y-93462000D02*
X149317500Y-93462000D01*
X127217500Y-93462000D02*
X127217500Y-91932000D01*
X129092500Y-93462000D02*
X127217500Y-93462000D01*
X130362500Y-90662000D02*
X130362500Y-92532000D01*
X128492500Y-90662000D02*
X130362500Y-90662000D01*
X127217500Y-89392000D02*
X127217500Y-87862000D01*
X127217500Y-87862000D02*
X137317500Y-87862000D01*
X137317500Y-93462000D02*
X137317500Y-87862000D01*
X131632500Y-93462000D02*
X137317500Y-93462000D01*
X115217500Y-93462000D02*
X115217500Y-91932000D01*
X117092500Y-93462000D02*
X115217500Y-93462000D01*
X118362500Y-90662000D02*
X118362500Y-92532000D01*
X116492500Y-90662000D02*
X118362500Y-90662000D01*
X115217500Y-89392000D02*
X115217500Y-87862000D01*
X115217500Y-87862000D02*
X125317500Y-87862000D01*
X125317500Y-93462000D02*
X125317500Y-87862000D01*
X119632500Y-93462000D02*
X125317500Y-93462000D01*
X103217500Y-93462000D02*
X103217500Y-91932000D01*
X105092500Y-93462000D02*
X103217500Y-93462000D01*
X106362500Y-90662000D02*
X106362500Y-92532000D01*
X104492500Y-90662000D02*
X106362500Y-90662000D01*
X103217500Y-89392000D02*
X103217500Y-87862000D01*
X103217500Y-87862000D02*
X113317500Y-87862000D01*
X113317500Y-93462000D02*
X113317500Y-87862000D01*
X107632500Y-93462000D02*
X113317500Y-93462000D01*
X151217500Y-79762000D02*
X151217500Y-78232000D01*
X153092500Y-79762000D02*
X151217500Y-79762000D01*
X154362500Y-76962000D02*
X154362500Y-78832000D01*
X152492500Y-76962000D02*
X154362500Y-76962000D01*
X151217500Y-75692000D02*
X151217500Y-74162000D01*
X151217500Y-74162000D02*
X161317500Y-74162000D01*
X161317500Y-79762000D02*
X161317500Y-74162000D01*
X155632500Y-79762000D02*
X161317500Y-79762000D01*
X139217500Y-79762000D02*
X139217500Y-78232000D01*
X141092500Y-79762000D02*
X139217500Y-79762000D01*
X142362500Y-76962000D02*
X142362500Y-78832000D01*
X140492500Y-76962000D02*
X142362500Y-76962000D01*
X139217500Y-75692000D02*
X139217500Y-74162000D01*
X139217500Y-74162000D02*
X149317500Y-74162000D01*
X149317500Y-79762000D02*
X149317500Y-74162000D01*
X143632500Y-79762000D02*
X149317500Y-79762000D01*
X127217500Y-79762000D02*
X127217500Y-78232000D01*
X129092500Y-79762000D02*
X127217500Y-79762000D01*
X130362500Y-76962000D02*
X130362500Y-78832000D01*
X128492500Y-76962000D02*
X130362500Y-76962000D01*
X127217500Y-75692000D02*
X127217500Y-74162000D01*
X127217500Y-74162000D02*
X137317500Y-74162000D01*
X137317500Y-79762000D02*
X137317500Y-74162000D01*
X131632500Y-79762000D02*
X137317500Y-79762000D01*
X115217500Y-79762000D02*
X115217500Y-78232000D01*
X117092500Y-79762000D02*
X115217500Y-79762000D01*
X118362500Y-76962000D02*
X118362500Y-78832000D01*
X116492500Y-76962000D02*
X118362500Y-76962000D01*
X115217500Y-75692000D02*
X115217500Y-74162000D01*
X115217500Y-74162000D02*
X125317500Y-74162000D01*
X125317500Y-79762000D02*
X125317500Y-74162000D01*
X119632500Y-79762000D02*
X125317500Y-79762000D01*
X155601500Y-141235000D02*
X161286500Y-141235000D01*
X161286500Y-141235000D02*
X161286500Y-135635000D01*
X151186500Y-135635000D02*
X161286500Y-135635000D01*
X151186500Y-137165000D02*
X151186500Y-135635000D01*
X152461500Y-138435000D02*
X154331500Y-138435000D01*
X154331500Y-138435000D02*
X154331500Y-140305000D01*
X153061500Y-141235000D02*
X151186500Y-141235000D01*
X151186500Y-141235000D02*
X151186500Y-139705000D01*
X143601500Y-141235000D02*
X149286500Y-141235000D01*
X149286500Y-141235000D02*
X149286500Y-135635000D01*
X139186500Y-135635000D02*
X149286500Y-135635000D01*
X139186500Y-137165000D02*
X139186500Y-135635000D01*
X140461500Y-138435000D02*
X142331500Y-138435000D01*
X142331500Y-138435000D02*
X142331500Y-140305000D01*
X141061500Y-141235000D02*
X139186500Y-141235000D01*
X139186500Y-141235000D02*
X139186500Y-139705000D01*
X131601500Y-141235000D02*
X137286500Y-141235000D01*
X137286500Y-141235000D02*
X137286500Y-135635000D01*
X127186500Y-135635000D02*
X137286500Y-135635000D01*
X127186500Y-137165000D02*
X127186500Y-135635000D01*
X128461500Y-138435000D02*
X130331500Y-138435000D01*
X130331500Y-138435000D02*
X130331500Y-140305000D01*
X129061500Y-141235000D02*
X127186500Y-141235000D01*
X127186500Y-141235000D02*
X127186500Y-139705000D01*
X119601500Y-141235000D02*
X125286500Y-141235000D01*
X125286500Y-141235000D02*
X125286500Y-135635000D01*
X115186500Y-135635000D02*
X125286500Y-135635000D01*
X115186500Y-137165000D02*
X115186500Y-135635000D01*
X116461500Y-138435000D02*
X118331500Y-138435000D01*
X118331500Y-138435000D02*
X118331500Y-140305000D01*
X117061500Y-141235000D02*
X115186500Y-141235000D01*
X115186500Y-141235000D02*
X115186500Y-139705000D01*
X107601500Y-141235000D02*
X113286500Y-141235000D01*
X113286500Y-141235000D02*
X113286500Y-135635000D01*
X103186500Y-135635000D02*
X113286500Y-135635000D01*
X103186500Y-137165000D02*
X103186500Y-135635000D01*
X104461500Y-138435000D02*
X106331500Y-138435000D01*
X106331500Y-138435000D02*
X106331500Y-140305000D01*
X105061500Y-141235000D02*
X103186500Y-141235000D01*
X103186500Y-141235000D02*
X103186500Y-139705000D01*
X155601500Y-127535000D02*
X161286500Y-127535000D01*
X161286500Y-127535000D02*
X161286500Y-121935000D01*
X151186500Y-121935000D02*
X161286500Y-121935000D01*
X151186500Y-123465000D02*
X151186500Y-121935000D01*
X152461500Y-124735000D02*
X154331500Y-124735000D01*
X154331500Y-124735000D02*
X154331500Y-126605000D01*
X153061500Y-127535000D02*
X151186500Y-127535000D01*
X151186500Y-127535000D02*
X151186500Y-126005000D01*
X143601500Y-127535000D02*
X149286500Y-127535000D01*
X149286500Y-127535000D02*
X149286500Y-121935000D01*
X139186500Y-121935000D02*
X149286500Y-121935000D01*
X139186500Y-123465000D02*
X139186500Y-121935000D01*
X140461500Y-124735000D02*
X142331500Y-124735000D01*
X142331500Y-124735000D02*
X142331500Y-126605000D01*
X141061500Y-127535000D02*
X139186500Y-127535000D01*
X139186500Y-127535000D02*
X139186500Y-126005000D01*
X131601500Y-127535000D02*
X137286500Y-127535000D01*
X137286500Y-127535000D02*
X137286500Y-121935000D01*
X127186500Y-121935000D02*
X137286500Y-121935000D01*
X127186500Y-123465000D02*
X127186500Y-121935000D01*
X128461500Y-124735000D02*
X130331500Y-124735000D01*
X130331500Y-124735000D02*
X130331500Y-126605000D01*
X129061500Y-127535000D02*
X127186500Y-127535000D01*
X127186500Y-127535000D02*
X127186500Y-126005000D01*
X119601500Y-127535000D02*
X125286500Y-127535000D01*
X125286500Y-127535000D02*
X125286500Y-121935000D01*
X115186500Y-121935000D02*
X125286500Y-121935000D01*
X115186500Y-123465000D02*
X115186500Y-121935000D01*
X116461500Y-124735000D02*
X118331500Y-124735000D01*
X118331500Y-124735000D02*
X118331500Y-126605000D01*
X117061500Y-127535000D02*
X115186500Y-127535000D01*
X115186500Y-127535000D02*
X115186500Y-126005000D01*
X107601500Y-127535000D02*
X113286500Y-127535000D01*
X113286500Y-127535000D02*
X113286500Y-121935000D01*
X103186500Y-121935000D02*
X113286500Y-121935000D01*
X103186500Y-123465000D02*
X103186500Y-121935000D01*
X104461500Y-124735000D02*
X106331500Y-124735000D01*
X106331500Y-124735000D02*
X106331500Y-126605000D01*
X105061500Y-127535000D02*
X103186500Y-127535000D01*
X103186500Y-127535000D02*
X103186500Y-126005000D01*
X155601500Y-113835000D02*
X161286500Y-113835000D01*
X161286500Y-113835000D02*
X161286500Y-108235000D01*
X151186500Y-108235000D02*
X161286500Y-108235000D01*
X151186500Y-109765000D02*
X151186500Y-108235000D01*
X152461500Y-111035000D02*
X154331500Y-111035000D01*
X154331500Y-111035000D02*
X154331500Y-112905000D01*
X153061500Y-113835000D02*
X151186500Y-113835000D01*
X151186500Y-113835000D02*
X151186500Y-112305000D01*
X143601500Y-113835000D02*
X149286500Y-113835000D01*
X149286500Y-113835000D02*
X149286500Y-108235000D01*
X139186500Y-108235000D02*
X149286500Y-108235000D01*
X139186500Y-109765000D02*
X139186500Y-108235000D01*
X140461500Y-111035000D02*
X142331500Y-111035000D01*
X142331500Y-111035000D02*
X142331500Y-112905000D01*
X141061500Y-113835000D02*
X139186500Y-113835000D01*
X139186500Y-113835000D02*
X139186500Y-112305000D01*
X131601500Y-113835000D02*
X137286500Y-113835000D01*
X137286500Y-113835000D02*
X137286500Y-108235000D01*
X127186500Y-108235000D02*
X137286500Y-108235000D01*
X127186500Y-109765000D02*
X127186500Y-108235000D01*
X128461500Y-111035000D02*
X130331500Y-111035000D01*
X130331500Y-111035000D02*
X130331500Y-112905000D01*
X129061500Y-113835000D02*
X127186500Y-113835000D01*
X127186500Y-113835000D02*
X127186500Y-112305000D01*
X119601500Y-113835000D02*
X125286500Y-113835000D01*
X125286500Y-113835000D02*
X125286500Y-108235000D01*
X115186500Y-108235000D02*
X125286500Y-108235000D01*
X115186500Y-109765000D02*
X115186500Y-108235000D01*
X116461500Y-111035000D02*
X118331500Y-111035000D01*
X118331500Y-111035000D02*
X118331500Y-112905000D01*
X117061500Y-113835000D02*
X115186500Y-113835000D01*
X115186500Y-113835000D02*
X115186500Y-112305000D01*
X107601500Y-113835000D02*
X113286500Y-113835000D01*
X113286500Y-113835000D02*
X113286500Y-108235000D01*
X103186500Y-108235000D02*
X113286500Y-108235000D01*
X103186500Y-109765000D02*
X103186500Y-108235000D01*
X104461500Y-111035000D02*
X106331500Y-111035000D01*
X106331500Y-111035000D02*
X106331500Y-112905000D01*
X105061500Y-113835000D02*
X103186500Y-113835000D01*
X103186500Y-113835000D02*
X103186500Y-112305000D01*
X155601500Y-100135000D02*
X161286500Y-100135000D01*
X161286500Y-100135000D02*
X161286500Y-94535000D01*
X151186500Y-94535000D02*
X161286500Y-94535000D01*
X151186500Y-96065000D02*
X151186500Y-94535000D01*
X152461500Y-97335000D02*
X154331500Y-97335000D01*
X154331500Y-97335000D02*
X154331500Y-99205000D01*
X153061500Y-100135000D02*
X151186500Y-100135000D01*
X151186500Y-100135000D02*
X151186500Y-98605000D01*
X143601500Y-100135000D02*
X149286500Y-100135000D01*
X149286500Y-100135000D02*
X149286500Y-94535000D01*
X139186500Y-94535000D02*
X149286500Y-94535000D01*
X139186500Y-96065000D02*
X139186500Y-94535000D01*
X140461500Y-97335000D02*
X142331500Y-97335000D01*
X142331500Y-97335000D02*
X142331500Y-99205000D01*
X141061500Y-100135000D02*
X139186500Y-100135000D01*
X139186500Y-100135000D02*
X139186500Y-98605000D01*
X131601500Y-100135000D02*
X137286500Y-100135000D01*
X137286500Y-100135000D02*
X137286500Y-94535000D01*
X127186500Y-94535000D02*
X137286500Y-94535000D01*
X127186500Y-96065000D02*
X127186500Y-94535000D01*
X128461500Y-97335000D02*
X130331500Y-97335000D01*
X130331500Y-97335000D02*
X130331500Y-99205000D01*
X129061500Y-100135000D02*
X127186500Y-100135000D01*
X127186500Y-100135000D02*
X127186500Y-98605000D01*
X119601500Y-100135000D02*
X125286500Y-100135000D01*
X125286500Y-100135000D02*
X125286500Y-94535000D01*
X115186500Y-94535000D02*
X125286500Y-94535000D01*
X115186500Y-96065000D02*
X115186500Y-94535000D01*
X116461500Y-97335000D02*
X118331500Y-97335000D01*
X118331500Y-97335000D02*
X118331500Y-99205000D01*
X117061500Y-100135000D02*
X115186500Y-100135000D01*
X115186500Y-100135000D02*
X115186500Y-98605000D01*
X107601500Y-100135000D02*
X113286500Y-100135000D01*
X113286500Y-100135000D02*
X113286500Y-94535000D01*
X103186500Y-94535000D02*
X113286500Y-94535000D01*
X103186500Y-96065000D02*
X103186500Y-94535000D01*
X104461500Y-97335000D02*
X106331500Y-97335000D01*
X106331500Y-97335000D02*
X106331500Y-99205000D01*
X105061500Y-100135000D02*
X103186500Y-100135000D01*
X103186500Y-100135000D02*
X103186500Y-98605000D01*
X155601500Y-86435000D02*
X161286500Y-86435000D01*
X161286500Y-86435000D02*
X161286500Y-80835000D01*
X151186500Y-80835000D02*
X161286500Y-80835000D01*
X151186500Y-82365000D02*
X151186500Y-80835000D01*
X152461500Y-83635000D02*
X154331500Y-83635000D01*
X154331500Y-83635000D02*
X154331500Y-85505000D01*
X153061500Y-86435000D02*
X151186500Y-86435000D01*
X151186500Y-86435000D02*
X151186500Y-84905000D01*
X143601500Y-86435000D02*
X149286500Y-86435000D01*
X149286500Y-86435000D02*
X149286500Y-80835000D01*
X139186500Y-80835000D02*
X149286500Y-80835000D01*
X139186500Y-82365000D02*
X139186500Y-80835000D01*
X140461500Y-83635000D02*
X142331500Y-83635000D01*
X142331500Y-83635000D02*
X142331500Y-85505000D01*
X141061500Y-86435000D02*
X139186500Y-86435000D01*
X139186500Y-86435000D02*
X139186500Y-84905000D01*
X131601500Y-86435000D02*
X137286500Y-86435000D01*
X137286500Y-86435000D02*
X137286500Y-80835000D01*
X127186500Y-80835000D02*
X137286500Y-80835000D01*
X127186500Y-82365000D02*
X127186500Y-80835000D01*
X128461500Y-83635000D02*
X130331500Y-83635000D01*
X130331500Y-83635000D02*
X130331500Y-85505000D01*
X129061500Y-86435000D02*
X127186500Y-86435000D01*
X127186500Y-86435000D02*
X127186500Y-84905000D01*
X119601500Y-86435000D02*
X125286500Y-86435000D01*
X125286500Y-86435000D02*
X125286500Y-80835000D01*
X115186500Y-80835000D02*
X125286500Y-80835000D01*
X115186500Y-82365000D02*
X115186500Y-80835000D01*
X116461500Y-83635000D02*
X118331500Y-83635000D01*
X118331500Y-83635000D02*
X118331500Y-85505000D01*
X117061500Y-86435000D02*
X115186500Y-86435000D01*
X115186500Y-86435000D02*
X115186500Y-84905000D01*
X107632500Y-79762000D02*
X113317500Y-79762000D01*
X113317500Y-79762000D02*
X113317500Y-74162000D01*
X103217500Y-74162000D02*
X113317500Y-74162000D01*
X103217500Y-75692000D02*
X103217500Y-74162000D01*
X104492500Y-76962000D02*
X106362500Y-76962000D01*
X106362500Y-76962000D02*
X106362500Y-78832000D01*
X105092500Y-79762000D02*
X103217500Y-79762000D01*
X103217500Y-79762000D02*
X103217500Y-78232000D01*
X103186500Y-86435000D02*
X103186500Y-84905000D01*
X105061500Y-86435000D02*
X103186500Y-86435000D01*
X106331500Y-83635000D02*
X106331500Y-85505000D01*
X104461500Y-83635000D02*
X106331500Y-83635000D01*
X103186500Y-82365000D02*
X103186500Y-80835000D01*
X103186500Y-80835000D02*
X113286500Y-80835000D01*
X113286500Y-86435000D02*
X113286500Y-80835000D01*
X107601500Y-86435000D02*
X113286500Y-86435000D01*
G04 #@! TD*
M02*
