M48
; DRILL file {KiCad 5.1.0-060a0da~80~ubuntu18.04.1} date Sa 11 Mai 2019 20:40:35 CEST
; FORMAT={-:-/ absolute / inch / decimal}
; #@! TF.CreationDate,2019-05-11T20:40:35+02:00
; #@! TF.GenerationSoftware,Kicad,Pcbnew,5.1.0-060a0da~80~ubuntu18.04.1
; #@! TF.FileFunction,Plated,1,2,PTH
FMAT,2
INCH
T1C0.0315
%
G90
G05
T1
X5.0367Y-5.4687
X5.0867Y-5.3687
X5.1367Y-5.4687
X5.1867Y-5.3687
X5.2367Y-5.4687
X5.2867Y-5.3687
X3.1863Y-3.3427
X3.2363Y-3.2427
X3.2863Y-3.3427
X3.3363Y-3.2427
X3.3863Y-3.3427
X3.4363Y-3.2427
X4.1127Y-3.08
X4.1627Y-2.98
X4.2127Y-3.08
X4.2627Y-2.98
X4.3127Y-3.08
X4.3627Y-2.98
X5.9619Y-5.4687
X6.0119Y-5.3687
X6.0619Y-5.4687
X6.1119Y-5.3687
X6.1619Y-5.4687
X6.2119Y-5.3687
X5.9619Y-3.8742
X6.0119Y-3.7742
X6.0619Y-3.8742
X6.1119Y-3.7742
X6.1619Y-3.8742
X6.2119Y-3.7742
X3.6501Y-4.143
X3.7001Y-4.043
X3.7501Y-4.143
X3.8001Y-4.043
X3.8501Y-4.143
X3.9001Y-4.043
X5.0379Y-4.143
X5.0879Y-4.043
X5.1379Y-4.143
X5.1879Y-4.043
X5.2379Y-4.143
X5.2879Y-4.043
X5.9631Y-3.6115
X6.0131Y-3.5115
X6.0631Y-3.6115
X6.1131Y-3.5115
X6.1631Y-3.6115
X6.2131Y-3.5115
X4.5741Y-3.3427
X4.6241Y-3.2427
X4.6741Y-3.3427
X4.7241Y-3.2427
X4.7741Y-3.3427
X4.8241Y-3.2427
X3.1875Y-5.206
X3.2375Y-5.106
X3.2875Y-5.206
X3.3375Y-5.106
X3.3875Y-5.206
X3.4375Y-5.106
X4.5753Y-5.206
X4.6253Y-5.106
X4.6753Y-5.206
X4.7253Y-5.106
X4.7753Y-5.206
X4.8253Y-5.106
X4.5741Y-6.0002
X4.6241Y-5.9002
X4.6741Y-6.0002
X4.7241Y-5.9002
X4.7741Y-6.0002
X4.8241Y-5.9002
X3.6489Y-3.3427
X3.6989Y-3.2427
X3.7489Y-3.3427
X3.7989Y-3.2427
X3.8489Y-3.3427
X3.8989Y-3.2427
X5.4993Y-3.8742
X5.5493Y-3.7742
X5.5993Y-3.8742
X5.6493Y-3.7742
X5.6993Y-3.8742
X5.7493Y-3.7742
X5.5005Y-4.143
X5.5505Y-4.043
X5.6005Y-4.143
X5.6505Y-4.043
X5.7005Y-4.143
X5.7505Y-4.043
X5.0379Y-4.6745
X5.0879Y-4.5745
X5.1379Y-4.6745
X5.1879Y-4.5745
X5.2379Y-4.6745
X5.2879Y-4.5745
X3.1863Y-6.0002
X3.2363Y-5.9002
X3.2863Y-6.0002
X3.3363Y-5.9002
X3.3863Y-6.0002
X3.4363Y-5.9002
X3.1863Y-5.4687
X3.2363Y-5.3687
X3.2863Y-5.4687
X3.3363Y-5.3687
X3.3863Y-5.4687
X3.4363Y-5.3687
X5.0379Y-5.7375
X5.0879Y-5.6375
X5.1379Y-5.7375
X5.1879Y-5.6375
X5.2379Y-5.7375
X5.2879Y-5.6375
X5.5005Y-5.7375
X5.5505Y-5.6375
X5.6005Y-5.7375
X5.6505Y-5.6375
X5.7005Y-5.7375
X5.7505Y-5.6375
X5.0367Y-3.3427
X5.0867Y-3.2427
X5.1367Y-3.3427
X5.1867Y-3.2427
X5.2367Y-3.3427
X5.2867Y-3.2427
X5.4993Y-6.0002
X5.5493Y-5.9002
X5.5993Y-6.0002
X5.6493Y-5.9002
X5.6993Y-6.0002
X5.7493Y-5.9002
X4.1127Y-4.143
X4.1627Y-4.043
X4.2127Y-4.143
X4.2627Y-4.043
X4.3127Y-4.143
X4.3627Y-4.043
X5.9619Y-6.0002
X6.0119Y-5.9002
X6.0619Y-6.0002
X6.1119Y-5.9002
X6.1619Y-6.0002
X6.2119Y-5.9002
X4.1115Y-3.8742
X4.1615Y-3.7742
X4.2115Y-3.8742
X4.2615Y-3.7742
X4.3115Y-3.8742
X4.3615Y-3.7742
X4.1115Y-6.0002
X4.1615Y-5.9002
X4.2115Y-6.0002
X4.2615Y-5.9002
X4.3115Y-6.0002
X4.3615Y-5.9002
X4.5753Y-4.6745
X4.6253Y-4.5745
X4.6753Y-4.6745
X4.7253Y-4.5745
X4.7753Y-4.6745
X4.8253Y-4.5745
X5.5005Y-5.206
X5.5505Y-5.106
X5.6005Y-5.206
X5.6505Y-5.106
X5.7005Y-5.206
X5.7505Y-5.106
X4.1127Y-3.6115
X4.1627Y-3.5115
X4.2127Y-3.6115
X4.2627Y-3.5115
X4.3127Y-3.6115
X4.3627Y-3.5115
X5.0367Y-4.4057
X5.0867Y-4.3057
X5.1367Y-4.4057
X5.1867Y-4.3057
X5.2367Y-4.4057
X5.2867Y-4.3057
X5.9619Y-4.4057
X6.0119Y-4.3057
X6.0619Y-4.4057
X6.1119Y-4.3057
X6.1619Y-4.4057
X6.2119Y-4.3057
X5.4993Y-3.3427
X5.5493Y-3.2427
X5.5993Y-3.3427
X5.6493Y-3.2427
X5.6993Y-3.3427
X5.7493Y-3.2427
X5.9631Y-5.206
X6.0131Y-5.106
X6.0631Y-5.206
X6.1131Y-5.106
X6.1631Y-5.206
X6.2131Y-5.106
X5.0379Y-5.206
X5.0879Y-5.106
X5.1379Y-5.206
X5.1879Y-5.106
X5.2379Y-5.206
X5.2879Y-5.106
X5.4993Y-4.4057
X5.5493Y-4.3057
X5.5993Y-4.4057
X5.6493Y-4.3057
X5.6993Y-4.4057
X5.7493Y-4.3057
X3.6501Y-5.7375
X3.7001Y-5.6375
X3.7501Y-5.7375
X3.8001Y-5.6375
X3.8501Y-5.7375
X3.9001Y-5.6375
X3.6501Y-4.6745
X3.7001Y-4.5745
X3.7501Y-4.6745
X3.8001Y-4.5745
X3.8501Y-4.6745
X3.9001Y-4.5745
X4.1115Y-3.3427
X4.1615Y-3.2427
X4.2115Y-3.3427
X4.2615Y-3.2427
X4.3115Y-3.3427
X4.3615Y-3.2427
X4.5753Y-3.08
X4.6253Y-2.98
X4.6753Y-3.08
X4.7253Y-2.98
X4.7753Y-3.08
X4.8253Y-2.98
X3.1875Y-5.7375
X3.2375Y-5.6375
X3.2875Y-5.7375
X3.3375Y-5.6375
X3.3875Y-5.7375
X3.4375Y-5.6375
X5.5005Y-3.6115
X5.5505Y-3.5115
X5.6005Y-3.6115
X5.6505Y-3.5115
X5.7005Y-3.6115
X5.7505Y-3.5115
X5.5005Y-3.08
X5.5505Y-2.98
X5.6005Y-3.08
X5.6505Y-2.98
X5.7005Y-3.08
X5.7505Y-2.98
X4.5741Y-4.4057
X4.6241Y-4.3057
X4.6741Y-4.4057
X4.7241Y-4.3057
X4.7741Y-4.4057
X4.8241Y-4.3057
X3.6489Y-4.9372
X3.6989Y-4.8372
X3.7489Y-4.9372
X3.7989Y-4.8372
X3.8489Y-4.9372
X3.8989Y-4.8372
X3.1875Y-4.143
X3.2375Y-4.043
X3.2875Y-4.143
X3.3375Y-4.043
X3.3875Y-4.143
X3.4375Y-4.043
X3.1863Y-4.9372
X3.2363Y-4.8372
X3.2863Y-4.9372
X3.3363Y-4.8372
X3.3863Y-4.9372
X3.4363Y-4.8372
X3.1875Y-3.6115
X3.2375Y-3.5115
X3.2875Y-3.6115
X3.3375Y-3.5115
X3.3875Y-3.6115
X3.4375Y-3.5115
X5.4993Y-5.4687
X5.5493Y-5.3687
X5.5993Y-5.4687
X5.6493Y-5.3687
X5.6993Y-5.4687
X5.7493Y-5.3687
X5.4993Y-4.9372
X5.5493Y-4.8372
X5.5993Y-4.9372
X5.6493Y-4.8372
X5.6993Y-4.9372
X5.7493Y-4.8372
X5.9619Y-4.9372
X6.0119Y-4.8372
X6.0619Y-4.9372
X6.1119Y-4.8372
X6.1619Y-4.9372
X6.2119Y-4.8372
X5.9631Y-5.7375
X6.0131Y-5.6375
X6.0631Y-5.7375
X6.1131Y-5.6375
X6.1631Y-5.7375
X6.2131Y-5.6375
X4.5753Y-4.143
X4.6253Y-4.043
X4.6753Y-4.143
X4.7253Y-4.043
X4.7753Y-4.143
X4.8253Y-4.043
X3.1875Y-4.6745
X3.2375Y-4.5745
X3.2875Y-4.6745
X3.3375Y-4.5745
X3.3875Y-4.6745
X3.4375Y-4.5745
X5.9619Y-3.3427
X6.0119Y-3.2427
X6.0619Y-3.3427
X6.1119Y-3.2427
X6.1619Y-3.3427
X6.2119Y-3.2427
X3.1863Y-3.8742
X3.2363Y-3.7742
X3.2863Y-3.8742
X3.3363Y-3.7742
X3.3863Y-3.8742
X3.4363Y-3.7742
X5.0367Y-6.0002
X5.0867Y-5.9002
X5.1367Y-6.0002
X5.1867Y-5.9002
X5.2367Y-6.0002
X5.2867Y-5.9002
X4.1115Y-4.9372
X4.1615Y-4.8372
X4.2115Y-4.9372
X4.2615Y-4.8372
X4.3115Y-4.9372
X4.3615Y-4.8372
X3.6501Y-3.6115
X3.7001Y-3.5115
X3.7501Y-3.6115
X3.8001Y-3.5115
X3.8501Y-3.6115
X3.9001Y-3.5115
X4.5753Y-5.7375
X4.6253Y-5.6375
X4.6753Y-5.7375
X4.7253Y-5.6375
X4.7753Y-5.7375
X4.8253Y-5.6375
X4.5741Y-5.4687
X4.6241Y-5.3687
X4.6741Y-5.4687
X4.7241Y-5.3687
X4.7741Y-5.4687
X4.8241Y-5.3687
X3.6501Y-3.08
X3.7001Y-2.98
X3.7501Y-3.08
X3.8001Y-2.98
X3.8501Y-3.08
X3.9001Y-2.98
X4.5741Y-3.8742
X4.6241Y-3.7742
X4.6741Y-3.8742
X4.7241Y-3.7742
X4.7741Y-3.8742
X4.8241Y-3.7742
X5.9631Y-4.143
X6.0131Y-4.043
X6.0631Y-4.143
X6.1131Y-4.043
X6.1631Y-4.143
X6.2131Y-4.043
X5.0379Y-3.08
X5.0879Y-2.98
X5.1379Y-3.08
X5.1879Y-2.98
X5.2379Y-3.08
X5.2879Y-2.98
X3.1875Y-3.08
X3.2375Y-2.98
X3.2875Y-3.08
X3.3375Y-2.98
X3.3875Y-3.08
X3.4375Y-2.98
X4.5753Y-3.6115
X4.6253Y-3.5115
X4.6753Y-3.6115
X4.7253Y-3.5115
X4.7753Y-3.6115
X4.8253Y-3.5115
X4.1115Y-4.4057
X4.1615Y-4.3057
X4.2115Y-4.4057
X4.2615Y-4.3057
X4.3115Y-4.4057
X4.3615Y-4.3057
X5.5005Y-4.6745
X5.5505Y-4.5745
X5.6005Y-4.6745
X5.6505Y-4.5745
X5.7005Y-4.6745
X5.7505Y-4.5745
X5.0379Y-3.6115
X5.0879Y-3.5115
X5.1379Y-3.6115
X5.1879Y-3.5115
X5.2379Y-3.6115
X5.2879Y-3.5115
X3.6489Y-4.4057
X3.6989Y-4.3057
X3.7489Y-4.4057
X3.7989Y-4.3057
X3.8489Y-4.4057
X3.8989Y-4.3057
X4.1127Y-4.6745
X4.1627Y-4.5745
X4.2127Y-4.6745
X4.2627Y-4.5745
X4.3127Y-4.6745
X4.3627Y-4.5745
X4.5741Y-4.9372
X4.6241Y-4.8372
X4.6741Y-4.9372
X4.7241Y-4.8372
X4.7741Y-4.9372
X4.8241Y-4.8372
X3.6489Y-3.8742
X3.6989Y-3.7742
X3.7489Y-3.8742
X3.7989Y-3.7742
X3.8489Y-3.8742
X3.8989Y-3.7742
X5.0367Y-3.8742
X5.0867Y-3.7742
X5.1367Y-3.8742
X5.1867Y-3.7742
X5.2367Y-3.8742
X5.2867Y-3.7742
X5.0367Y-4.9372
X5.0867Y-4.8372
X5.1367Y-4.9372
X5.1867Y-4.8372
X5.2367Y-4.9372
X5.2867Y-4.8372
X5.9631Y-4.6745
X6.0131Y-4.5745
X6.0631Y-4.6745
X6.1131Y-4.5745
X6.1631Y-4.6745
X6.2131Y-4.5745
X4.1115Y-5.4687
X4.1615Y-5.3687
X4.2115Y-5.4687
X4.2615Y-5.3687
X4.3115Y-5.4687
X4.3615Y-5.3687
X4.1127Y-5.206
X4.1627Y-5.106
X4.2127Y-5.206
X4.2627Y-5.106
X4.3127Y-5.206
X4.3627Y-5.106
X4.1127Y-5.7375
X4.1627Y-5.6375
X4.2127Y-5.7375
X4.2627Y-5.6375
X4.3127Y-5.7375
X4.3627Y-5.6375
X3.6489Y-5.4687
X3.6989Y-5.3687
X3.7489Y-5.4687
X3.7989Y-5.3687
X3.8489Y-5.4687
X3.8989Y-5.3687
X3.6489Y-6.0002
X3.6989Y-5.9002
X3.7489Y-6.0002
X3.7989Y-5.9002
X3.8489Y-6.0002
X3.8989Y-5.9002
X5.9631Y-3.08
X6.0131Y-2.98
X6.0631Y-3.08
X6.1131Y-2.98
X6.1631Y-3.08
X6.2131Y-2.98
X3.6501Y-5.206
X3.7001Y-5.106
X3.7501Y-5.206
X3.8001Y-5.106
X3.8501Y-5.206
X3.9001Y-5.106
X3.1863Y-4.4057
X3.2363Y-4.3057
X3.2863Y-4.4057
X3.3363Y-4.3057
X3.3863Y-4.4057
X3.4363Y-4.3057
T0
M30
