M48
;DRILL file {KiCad 5.0.2-bee76a0~70~ubuntu18.04.1} date Fr 10 Mai 2019 19:14:14 CEST
;FORMAT={-:-/ absolute / inch / decimal}
FMAT,2
INCH,TZ
T1C0.0315
%
G90
G05
T1
X3.1875Y-5.7775
X3.2375Y-5.6775
X3.2875Y-5.7775
X3.3375Y-5.6775
X3.3875Y-5.7775
X3.4375Y-5.6775
X5.0824Y-5.2375
X5.1324Y-5.1375
X5.1824Y-5.2375
X5.2324Y-5.1375
X5.2824Y-5.2375
X5.3324Y-5.1375
X3.6625Y-3.08
X3.7125Y-2.98
X3.7625Y-3.08
X3.8125Y-2.98
X3.8625Y-3.08
X3.9125Y-2.98
X3.1875Y-3.6194
X3.2375Y-3.5194
X3.2875Y-3.6194
X3.3375Y-3.5194
X3.3875Y-3.6194
X3.4375Y-3.5194
X3.1863Y-5.5002
X3.2363Y-5.4002
X3.2863Y-5.5002
X3.3363Y-5.4002
X3.3863Y-5.5002
X3.4363Y-5.4002
X3.1863Y-3.3427
X3.2363Y-3.2427
X3.2863Y-3.3427
X3.3363Y-3.2427
X3.3863Y-3.3427
X3.4363Y-3.2427
X6.026Y-6.0402
X6.076Y-5.9402
X6.126Y-6.0402
X6.176Y-5.9402
X6.226Y-6.0402
X6.276Y-5.9402
X4.6087Y-4.4215
X4.6587Y-4.3215
X4.7087Y-4.4215
X4.7587Y-4.3215
X4.8087Y-4.4215
X4.8587Y-4.3215
X5.5548Y-3.08
X5.6048Y-2.98
X5.6548Y-3.08
X5.7048Y-2.98
X5.7548Y-3.08
X5.8048Y-2.98
X5.0824Y-3.08
X5.1324Y-2.98
X5.1824Y-3.08
X5.2324Y-2.98
X5.2824Y-3.08
X5.3324Y-2.98
X6.026Y-5.5002
X6.076Y-5.4002
X6.126Y-5.5002
X6.176Y-5.4002
X6.226Y-5.5002
X6.276Y-5.4002
X3.1875Y-4.6981
X3.2375Y-4.5981
X3.2875Y-4.6981
X3.3375Y-4.5981
X3.3875Y-4.6981
X3.4375Y-4.5981
X3.1863Y-4.4215
X3.2363Y-4.3215
X3.2863Y-4.4215
X3.3363Y-4.3215
X3.3863Y-4.4215
X3.4363Y-4.3215
X4.1375Y-4.1587
X4.1875Y-4.0587
X4.2375Y-4.1587
X4.2875Y-4.0587
X4.3375Y-4.1587
X4.3875Y-4.0587
X6.0273Y-3.6194
X6.0773Y-3.5194
X6.1273Y-3.6194
X6.1773Y-3.5194
X6.2273Y-3.6194
X6.2773Y-3.5194
X5.5548Y-3.6194
X5.6048Y-3.5194
X5.6548Y-3.6194
X5.7048Y-3.5194
X5.7548Y-3.6194
X5.8048Y-3.5194
X5.0824Y-3.6194
X5.1324Y-3.5194
X5.1824Y-3.6194
X5.2324Y-3.5194
X5.2824Y-3.6194
X5.3324Y-3.5194
X4.6087Y-3.3427
X4.6587Y-3.2427
X4.7087Y-3.3427
X4.7587Y-3.2427
X4.8087Y-3.3427
X4.8587Y-3.2427
X3.1875Y-4.1587
X3.2375Y-4.0587
X3.2875Y-4.1587
X3.3375Y-4.0587
X3.3875Y-4.1587
X3.4375Y-4.0587
X4.6099Y-3.08
X4.6599Y-2.98
X4.7099Y-3.08
X4.7599Y-2.98
X4.8099Y-3.08
X4.8599Y-2.98
X3.6613Y-5.5002
X3.7113Y-5.4002
X3.7613Y-5.5002
X3.8113Y-5.4002
X3.8613Y-5.5002
X3.9113Y-5.4002
X5.5536Y-5.5002
X5.6036Y-5.4002
X5.6536Y-5.5002
X5.7036Y-5.4002
X5.7536Y-5.5002
X5.8036Y-5.4002
X5.0812Y-5.5002
X5.1312Y-5.4002
X5.1812Y-5.5002
X5.2312Y-5.4002
X5.2812Y-5.5002
X5.3312Y-5.4002
X4.6087Y-5.5002
X4.6587Y-5.4002
X4.7087Y-5.5002
X4.7587Y-5.4002
X4.8087Y-5.5002
X4.8587Y-5.4002
X4.1363Y-5.5002
X4.1863Y-5.4002
X4.2363Y-5.5002
X4.2863Y-5.4002
X4.3363Y-5.5002
X4.3863Y-5.4002
X6.026Y-4.9608
X6.076Y-4.8608
X6.126Y-4.9608
X6.176Y-4.8608
X6.226Y-4.9608
X6.276Y-4.8608
X5.5536Y-4.9608
X5.6036Y-4.8608
X5.6536Y-4.9608
X5.7036Y-4.8608
X5.7536Y-4.9608
X5.8036Y-4.8608
X5.0812Y-4.9608
X5.1312Y-4.8608
X5.1812Y-4.9608
X5.2312Y-4.8608
X5.2812Y-4.9608
X5.3312Y-4.8608
X4.1363Y-4.9608
X4.1863Y-4.8608
X4.2363Y-4.9608
X4.2863Y-4.8608
X4.3363Y-4.9608
X4.3863Y-4.8608
X3.6625Y-4.6981
X3.7125Y-4.5981
X3.7625Y-4.6981
X3.8125Y-4.5981
X3.8625Y-4.6981
X3.9125Y-4.5981
X3.1863Y-4.9608
X3.2363Y-4.8608
X3.2863Y-4.9608
X3.3363Y-4.8608
X3.3863Y-4.9608
X3.4363Y-4.8608
X3.6613Y-3.8821
X3.7113Y-3.7821
X3.7613Y-3.8821
X3.8113Y-3.7821
X3.8613Y-3.8821
X3.9113Y-3.7821
X3.6613Y-4.4215
X3.7113Y-4.3215
X3.7613Y-4.4215
X3.8113Y-4.3215
X3.8613Y-4.4215
X3.9113Y-4.3215
X5.0824Y-4.6981
X5.1324Y-4.5981
X5.1824Y-4.6981
X5.2324Y-4.5981
X5.2824Y-4.6981
X5.3324Y-4.5981
X4.6099Y-4.6981
X4.6599Y-4.5981
X4.7099Y-4.6981
X4.7599Y-4.5981
X4.8099Y-4.6981
X4.8599Y-4.5981
X4.1375Y-4.6981
X4.1875Y-4.5981
X4.2375Y-4.6981
X4.2875Y-4.5981
X4.3375Y-4.6981
X4.3875Y-4.5981
X3.1875Y-3.08
X3.2375Y-2.98
X3.2875Y-3.08
X3.3375Y-2.98
X3.3875Y-3.08
X3.4375Y-2.98
X5.5548Y-5.2375
X5.6048Y-5.1375
X5.6548Y-5.2375
X5.7048Y-5.1375
X5.7548Y-5.2375
X5.8048Y-5.1375
X5.0824Y-5.7775
X5.1324Y-5.6775
X5.1824Y-5.7775
X5.2324Y-5.6775
X5.2824Y-5.7775
X5.3324Y-5.6775
X5.5548Y-4.6981
X5.6048Y-4.5981
X5.6548Y-4.6981
X5.7048Y-4.5981
X5.7548Y-4.6981
X5.8048Y-4.5981
X4.1363Y-3.3427
X4.1863Y-3.2427
X4.2363Y-3.3427
X4.2863Y-3.2427
X4.3363Y-3.3427
X4.3863Y-3.2427
X6.0273Y-5.2375
X6.0773Y-5.1375
X6.1273Y-5.2375
X6.1773Y-5.1375
X6.2273Y-5.2375
X6.2773Y-5.1375
X5.5548Y-5.7775
X5.6048Y-5.6775
X5.6548Y-5.7775
X5.7048Y-5.6775
X5.7548Y-5.7775
X5.8048Y-5.6775
X3.6613Y-3.3427
X3.7113Y-3.2427
X3.7613Y-3.3427
X3.8113Y-3.2427
X3.8613Y-3.3427
X3.9113Y-3.2427
X6.0273Y-5.7775
X6.0773Y-5.6775
X6.1273Y-5.7775
X6.1773Y-5.6775
X6.2273Y-5.7775
X6.2773Y-5.6775
X4.1375Y-5.7775
X4.1875Y-5.6775
X4.2375Y-5.7775
X4.2875Y-5.6775
X4.3375Y-5.7775
X4.3875Y-5.6775
X4.6087Y-4.9608
X4.6587Y-4.8608
X4.7087Y-4.9608
X4.7587Y-4.8608
X4.8087Y-4.9608
X4.8587Y-4.8608
X6.026Y-4.4215
X6.076Y-4.3215
X6.126Y-4.4215
X6.176Y-4.3215
X6.226Y-4.4215
X6.276Y-4.3215
X3.1863Y-3.8821
X3.2363Y-3.7821
X3.2863Y-3.8821
X3.3363Y-3.7821
X3.3863Y-3.8821
X3.4363Y-3.7821
X4.1375Y-3.6194
X4.1875Y-3.5194
X4.2375Y-3.6194
X4.2875Y-3.5194
X4.3375Y-3.6194
X4.3875Y-3.5194
X3.6625Y-4.1587
X3.7125Y-4.0587
X3.7625Y-4.1587
X3.8125Y-4.0587
X3.8625Y-4.1587
X3.9125Y-4.0587
X6.0273Y-4.1587
X6.0773Y-4.0587
X6.1273Y-4.1587
X6.1773Y-4.0587
X6.2273Y-4.1587
X6.2773Y-4.0587
X5.0812Y-6.0402
X5.1312Y-5.9402
X5.1812Y-6.0402
X5.2312Y-5.9402
X5.2812Y-6.0402
X5.3312Y-5.9402
X4.6099Y-3.6194
X4.6599Y-3.5194
X4.7099Y-3.6194
X4.7599Y-3.5194
X4.8099Y-3.6194
X4.8599Y-3.5194
X4.6099Y-5.7775
X4.6599Y-5.6775
X4.7099Y-5.7775
X4.7599Y-5.6775
X4.8099Y-5.7775
X4.8599Y-5.6775
X3.6613Y-4.9608
X3.7113Y-4.8608
X3.7613Y-4.9608
X3.8113Y-4.8608
X3.8613Y-4.9608
X3.9113Y-4.8608
X4.1375Y-3.08
X4.1875Y-2.98
X4.2375Y-3.08
X4.2875Y-2.98
X4.3375Y-3.08
X4.3875Y-2.98
X6.0273Y-4.6981
X6.0773Y-4.5981
X6.1273Y-4.6981
X6.1773Y-4.5981
X6.2273Y-4.6981
X6.2773Y-4.5981
X4.6099Y-5.2375
X4.6599Y-5.1375
X4.7099Y-5.2375
X4.7599Y-5.1375
X4.8099Y-5.2375
X4.8599Y-5.1375
X5.0824Y-4.1587
X5.1324Y-4.0587
X5.1824Y-4.1587
X5.2324Y-4.0587
X5.2824Y-4.1587
X5.3324Y-4.0587
X4.6099Y-4.1587
X4.6599Y-4.0587
X4.7099Y-4.1587
X4.7599Y-4.0587
X4.8099Y-4.1587
X4.8599Y-4.0587
X3.6613Y-6.0402
X3.7113Y-5.9402
X3.7613Y-6.0402
X3.8113Y-5.9402
X3.8613Y-6.0402
X3.9113Y-5.9402
X5.0812Y-3.3427
X5.1312Y-3.2427
X5.1812Y-3.3427
X5.2312Y-3.2427
X5.2812Y-3.3427
X5.3312Y-3.2427
X5.5536Y-4.4215
X5.6036Y-4.3215
X5.6536Y-4.4215
X5.7036Y-4.3215
X5.7536Y-4.4215
X5.8036Y-4.3215
X5.0812Y-4.4215
X5.1312Y-4.3215
X5.1812Y-4.4215
X5.2312Y-4.3215
X5.2812Y-4.4215
X5.3312Y-4.3215
X3.6625Y-5.2375
X3.7125Y-5.1375
X3.7625Y-5.2375
X3.8125Y-5.1375
X3.8625Y-5.2375
X3.9125Y-5.1375
X6.0273Y-3.08
X6.0773Y-2.98
X6.1273Y-3.08
X6.1773Y-2.98
X6.2273Y-3.08
X6.2773Y-2.98
X3.6625Y-3.6194
X3.7125Y-3.5194
X3.7625Y-3.6194
X3.8125Y-3.5194
X3.8625Y-3.6194
X3.9125Y-3.5194
X3.6625Y-5.7775
X3.7125Y-5.6775
X3.7625Y-5.7775
X3.8125Y-5.6775
X3.8625Y-5.7775
X3.9125Y-5.6775
X3.1863Y-6.0402
X3.2363Y-5.9402
X3.2863Y-6.0402
X3.3363Y-5.9402
X3.3863Y-6.0402
X3.4363Y-5.9402
X4.1363Y-4.4215
X4.1863Y-4.3215
X4.2363Y-4.4215
X4.2863Y-4.3215
X4.3363Y-4.4215
X4.3863Y-4.3215
X6.026Y-3.8821
X6.076Y-3.7821
X6.126Y-3.8821
X6.176Y-3.7821
X6.226Y-3.8821
X6.276Y-3.7821
X5.5536Y-3.8821
X5.6036Y-3.7821
X5.6536Y-3.8821
X5.7036Y-3.7821
X5.7536Y-3.8821
X5.8036Y-3.7821
X5.0812Y-3.8821
X5.1312Y-3.7821
X5.1812Y-3.8821
X5.2312Y-3.7821
X5.2812Y-3.8821
X5.3312Y-3.7821
X4.6087Y-3.8821
X4.6587Y-3.7821
X4.7087Y-3.8821
X4.7587Y-3.7821
X4.8087Y-3.8821
X4.8587Y-3.7821
X4.1363Y-3.8821
X4.1863Y-3.7821
X4.2363Y-3.8821
X4.2863Y-3.7821
X4.3363Y-3.8821
X4.3863Y-3.7821
X6.026Y-3.3427
X6.076Y-3.2427
X6.126Y-3.3427
X6.176Y-3.2427
X6.226Y-3.3427
X6.276Y-3.2427
X5.5536Y-3.3427
X5.6036Y-3.2427
X5.6536Y-3.3427
X5.7036Y-3.2427
X5.7536Y-3.3427
X5.8036Y-3.2427
X5.5548Y-4.1587
X5.6048Y-4.0587
X5.6548Y-4.1587
X5.7048Y-4.0587
X5.7548Y-4.1587
X5.8048Y-4.0587
X4.1375Y-5.2375
X4.1875Y-5.1375
X4.2375Y-5.2375
X4.2875Y-5.1375
X4.3375Y-5.2375
X4.3875Y-5.1375
X3.1875Y-5.2375
X3.2375Y-5.1375
X3.2875Y-5.2375
X3.3375Y-5.1375
X3.3875Y-5.2375
X3.4375Y-5.1375
X4.6087Y-6.0402
X4.6587Y-5.9402
X4.7087Y-6.0402
X4.7587Y-5.9402
X4.8087Y-6.0402
X4.8587Y-5.9402
X4.1363Y-6.0402
X4.1863Y-5.9402
X4.2363Y-6.0402
X4.2863Y-5.9402
X4.3363Y-6.0402
X4.3863Y-5.9402
X5.5536Y-6.0402
X5.6036Y-5.9402
X5.6536Y-6.0402
X5.7036Y-5.9402
X5.7536Y-6.0402
X5.8036Y-5.9402
T0
M30
