G04 #@! TF.GenerationSoftware,KiCad,Pcbnew,5.0.2-bee76a0~70~ubuntu18.04.1*
G04 #@! TF.CreationDate,2019-05-10T19:14:11+02:00*
G04 #@! TF.ProjectId,spi_connector_board_micromatch_only_5x5_panel,7370695f-636f-46e6-9e65-63746f725f62,rev?*
G04 #@! TF.SameCoordinates,Original*
G04 #@! TF.FileFunction,Copper,L2,Bot*
G04 #@! TF.FilePolarity,Positive*
%FSLAX46Y46*%
G04 Gerber Fmt 4.6, Leading zero omitted, Abs format (unit mm)*
G04 Created by KiCad (PCBNEW 5.0.2-bee76a0~70~ubuntu18.04.1) date Fr 10 Mai 2019 19:14:11 CEST*
%MOMM*%
%LPD*%
G01*
G04 APERTURE LIST*
G04 #@! TA.AperFunction,ComponentPad*
%ADD10C,1.800000*%
G04 #@! TD*
G04 #@! TA.AperFunction,ComponentPad*
%ADD11R,1.800000X1.800000*%
G04 #@! TD*
G04 APERTURE END LIST*
D10*
G04 #@! TO.P,REF\002A\002A,6*
G04 #@! TO.N,N/C*
X159442500Y-144208000D03*
G04 #@! TO.P,REF\002A\002A,5*
X158172500Y-146748000D03*
D11*
G04 #@! TO.P,REF\002A\002A,1*
X153092500Y-146748000D03*
D10*
G04 #@! TO.P,REF\002A\002A,2*
X154362500Y-144208000D03*
G04 #@! TO.P,REF\002A\002A,3*
X155632500Y-146748000D03*
G04 #@! TO.P,REF\002A\002A,4*
X156902500Y-144208000D03*
G04 #@! TD*
G04 #@! TO.P,REF\002A\002A,6*
G04 #@! TO.N,N/C*
X147442500Y-144208000D03*
G04 #@! TO.P,REF\002A\002A,5*
X146172500Y-146748000D03*
D11*
G04 #@! TO.P,REF\002A\002A,1*
X141092500Y-146748000D03*
D10*
G04 #@! TO.P,REF\002A\002A,2*
X142362500Y-144208000D03*
G04 #@! TO.P,REF\002A\002A,3*
X143632500Y-146748000D03*
G04 #@! TO.P,REF\002A\002A,4*
X144902500Y-144208000D03*
G04 #@! TD*
G04 #@! TO.P,REF\002A\002A,6*
G04 #@! TO.N,N/C*
X135442500Y-144208000D03*
G04 #@! TO.P,REF\002A\002A,5*
X134172500Y-146748000D03*
D11*
G04 #@! TO.P,REF\002A\002A,1*
X129092500Y-146748000D03*
D10*
G04 #@! TO.P,REF\002A\002A,2*
X130362500Y-144208000D03*
G04 #@! TO.P,REF\002A\002A,3*
X131632500Y-146748000D03*
G04 #@! TO.P,REF\002A\002A,4*
X132902500Y-144208000D03*
G04 #@! TD*
G04 #@! TO.P,REF\002A\002A,6*
G04 #@! TO.N,N/C*
X99346500Y-150881000D03*
G04 #@! TO.P,REF\002A\002A,5*
X98076500Y-153421000D03*
D11*
G04 #@! TO.P,REF\002A\002A,1*
X92996500Y-153421000D03*
D10*
G04 #@! TO.P,REF\002A\002A,2*
X94266500Y-150881000D03*
G04 #@! TO.P,REF\002A\002A,3*
X95536500Y-153421000D03*
G04 #@! TO.P,REF\002A\002A,4*
X96806500Y-150881000D03*
G04 #@! TD*
G04 #@! TO.P,REF\002A\002A,4*
G04 #@! TO.N,N/C*
X156871500Y-150881000D03*
G04 #@! TO.P,REF\002A\002A,3*
X155601500Y-153421000D03*
G04 #@! TO.P,REF\002A\002A,2*
X154331500Y-150881000D03*
D11*
G04 #@! TO.P,REF\002A\002A,1*
X153061500Y-153421000D03*
D10*
G04 #@! TO.P,REF\002A\002A,5*
X158141500Y-153421000D03*
G04 #@! TO.P,REF\002A\002A,6*
X159411500Y-150881000D03*
G04 #@! TD*
G04 #@! TO.P,REF\002A\002A,6*
G04 #@! TO.N,N/C*
X87312500Y-144208000D03*
G04 #@! TO.P,REF\002A\002A,5*
X86042500Y-146748000D03*
D11*
G04 #@! TO.P,REF\002A\002A,1*
X80962500Y-146748000D03*
D10*
G04 #@! TO.P,REF\002A\002A,2*
X82232500Y-144208000D03*
G04 #@! TO.P,REF\002A\002A,3*
X83502500Y-146748000D03*
G04 #@! TO.P,REF\002A\002A,4*
X84772500Y-144208000D03*
G04 #@! TD*
G04 #@! TO.P,REF\002A\002A,4*
G04 #@! TO.N,N/C*
X108871500Y-150881000D03*
G04 #@! TO.P,REF\002A\002A,3*
X107601500Y-153421000D03*
G04 #@! TO.P,REF\002A\002A,2*
X106331500Y-150881000D03*
D11*
G04 #@! TO.P,REF\002A\002A,1*
X105061500Y-153421000D03*
D10*
G04 #@! TO.P,REF\002A\002A,5*
X110141500Y-153421000D03*
G04 #@! TO.P,REF\002A\002A,6*
X111411500Y-150881000D03*
G04 #@! TD*
G04 #@! TO.P,REF\002A\002A,4*
G04 #@! TO.N,N/C*
X120871500Y-150881000D03*
G04 #@! TO.P,REF\002A\002A,3*
X119601500Y-153421000D03*
G04 #@! TO.P,REF\002A\002A,2*
X118331500Y-150881000D03*
D11*
G04 #@! TO.P,REF\002A\002A,1*
X117061500Y-153421000D03*
D10*
G04 #@! TO.P,REF\002A\002A,5*
X122141500Y-153421000D03*
G04 #@! TO.P,REF\002A\002A,6*
X123411500Y-150881000D03*
G04 #@! TD*
G04 #@! TO.P,REF\002A\002A,4*
G04 #@! TO.N,N/C*
X132871500Y-150881000D03*
G04 #@! TO.P,REF\002A\002A,3*
X131601500Y-153421000D03*
G04 #@! TO.P,REF\002A\002A,2*
X130331500Y-150881000D03*
D11*
G04 #@! TO.P,REF\002A\002A,1*
X129061500Y-153421000D03*
D10*
G04 #@! TO.P,REF\002A\002A,5*
X134141500Y-153421000D03*
G04 #@! TO.P,REF\002A\002A,6*
X135411500Y-150881000D03*
G04 #@! TD*
G04 #@! TO.P,REF\002A\002A,4*
G04 #@! TO.N,N/C*
X144871500Y-150881000D03*
G04 #@! TO.P,REF\002A\002A,3*
X143601500Y-153421000D03*
G04 #@! TO.P,REF\002A\002A,2*
X142331500Y-150881000D03*
D11*
G04 #@! TO.P,REF\002A\002A,1*
X141061500Y-153421000D03*
D10*
G04 #@! TO.P,REF\002A\002A,5*
X146141500Y-153421000D03*
G04 #@! TO.P,REF\002A\002A,6*
X147411500Y-150881000D03*
G04 #@! TD*
G04 #@! TO.P,REF\002A\002A,4*
G04 #@! TO.N,N/C*
X84741500Y-150881000D03*
G04 #@! TO.P,REF\002A\002A,3*
X83471500Y-153421000D03*
G04 #@! TO.P,REF\002A\002A,2*
X82201500Y-150881000D03*
D11*
G04 #@! TO.P,REF\002A\002A,1*
X80931500Y-153421000D03*
D10*
G04 #@! TO.P,REF\002A\002A,5*
X86011500Y-153421000D03*
G04 #@! TO.P,REF\002A\002A,6*
X87281500Y-150881000D03*
G04 #@! TD*
G04 #@! TO.P,REF\002A\002A,6*
G04 #@! TO.N,N/C*
X111442500Y-144208000D03*
G04 #@! TO.P,REF\002A\002A,5*
X110172500Y-146748000D03*
D11*
G04 #@! TO.P,REF\002A\002A,1*
X105092500Y-146748000D03*
D10*
G04 #@! TO.P,REF\002A\002A,2*
X106362500Y-144208000D03*
G04 #@! TO.P,REF\002A\002A,3*
X107632500Y-146748000D03*
G04 #@! TO.P,REF\002A\002A,4*
X108902500Y-144208000D03*
G04 #@! TD*
G04 #@! TO.P,REF\002A\002A,4*
G04 #@! TO.N,N/C*
X96837500Y-144208000D03*
G04 #@! TO.P,REF\002A\002A,3*
X95567500Y-146748000D03*
G04 #@! TO.P,REF\002A\002A,2*
X94297500Y-144208000D03*
D11*
G04 #@! TO.P,REF\002A\002A,1*
X93027500Y-146748000D03*
D10*
G04 #@! TO.P,REF\002A\002A,5*
X98107500Y-146748000D03*
G04 #@! TO.P,REF\002A\002A,6*
X99377500Y-144208000D03*
G04 #@! TD*
G04 #@! TO.P,REF\002A\002A,6*
G04 #@! TO.N,N/C*
X123442500Y-144208000D03*
G04 #@! TO.P,REF\002A\002A,5*
X122172500Y-146748000D03*
D11*
G04 #@! TO.P,REF\002A\002A,1*
X117092500Y-146748000D03*
D10*
G04 #@! TO.P,REF\002A\002A,2*
X118362500Y-144208000D03*
G04 #@! TO.P,REF\002A\002A,3*
X119632500Y-146748000D03*
G04 #@! TO.P,REF\002A\002A,4*
X120902500Y-144208000D03*
G04 #@! TD*
G04 #@! TO.P,REF\002A\002A,4*
G04 #@! TO.N,N/C*
X84741500Y-82365000D03*
G04 #@! TO.P,REF\002A\002A,3*
X83471500Y-84905000D03*
G04 #@! TO.P,REF\002A\002A,2*
X82201500Y-82365000D03*
D11*
G04 #@! TO.P,REF\002A\002A,1*
X80931500Y-84905000D03*
D10*
G04 #@! TO.P,REF\002A\002A,5*
X86011500Y-84905000D03*
G04 #@! TO.P,REF\002A\002A,6*
X87281500Y-82365000D03*
G04 #@! TD*
G04 #@! TO.P,REF\002A\002A,6*
G04 #@! TO.N,N/C*
X87281500Y-96065000D03*
G04 #@! TO.P,REF\002A\002A,5*
X86011500Y-98605000D03*
D11*
G04 #@! TO.P,REF\002A\002A,1*
X80931500Y-98605000D03*
D10*
G04 #@! TO.P,REF\002A\002A,2*
X82201500Y-96065000D03*
G04 #@! TO.P,REF\002A\002A,3*
X83471500Y-98605000D03*
G04 #@! TO.P,REF\002A\002A,4*
X84741500Y-96065000D03*
G04 #@! TD*
G04 #@! TO.P,REF\002A\002A,6*
G04 #@! TO.N,N/C*
X87281500Y-123465000D03*
G04 #@! TO.P,REF\002A\002A,5*
X86011500Y-126005000D03*
D11*
G04 #@! TO.P,REF\002A\002A,1*
X80931500Y-126005000D03*
D10*
G04 #@! TO.P,REF\002A\002A,2*
X82201500Y-123465000D03*
G04 #@! TO.P,REF\002A\002A,3*
X83471500Y-126005000D03*
G04 #@! TO.P,REF\002A\002A,4*
X84741500Y-123465000D03*
G04 #@! TD*
G04 #@! TO.P,REF\002A\002A,6*
G04 #@! TO.N,N/C*
X87281500Y-137165000D03*
G04 #@! TO.P,REF\002A\002A,5*
X86011500Y-139705000D03*
D11*
G04 #@! TO.P,REF\002A\002A,1*
X80931500Y-139705000D03*
D10*
G04 #@! TO.P,REF\002A\002A,2*
X82201500Y-137165000D03*
G04 #@! TO.P,REF\002A\002A,3*
X83471500Y-139705000D03*
G04 #@! TO.P,REF\002A\002A,4*
X84741500Y-137165000D03*
G04 #@! TD*
G04 #@! TO.P,REF\002A\002A,6*
G04 #@! TO.N,N/C*
X87281500Y-109765000D03*
G04 #@! TO.P,REF\002A\002A,5*
X86011500Y-112305000D03*
D11*
G04 #@! TO.P,REF\002A\002A,1*
X80931500Y-112305000D03*
D10*
G04 #@! TO.P,REF\002A\002A,2*
X82201500Y-109765000D03*
G04 #@! TO.P,REF\002A\002A,3*
X83471500Y-112305000D03*
G04 #@! TO.P,REF\002A\002A,4*
X84741500Y-109765000D03*
G04 #@! TD*
G04 #@! TO.P,REF\002A\002A,4*
G04 #@! TO.N,N/C*
X84772500Y-89392000D03*
G04 #@! TO.P,REF\002A\002A,3*
X83502500Y-91932000D03*
G04 #@! TO.P,REF\002A\002A,2*
X82232500Y-89392000D03*
D11*
G04 #@! TO.P,REF\002A\002A,1*
X80962500Y-91932000D03*
D10*
G04 #@! TO.P,REF\002A\002A,5*
X86042500Y-91932000D03*
G04 #@! TO.P,REF\002A\002A,6*
X87312500Y-89392000D03*
G04 #@! TD*
G04 #@! TO.P,REF\002A\002A,4*
G04 #@! TO.N,N/C*
X84772500Y-103092000D03*
G04 #@! TO.P,REF\002A\002A,3*
X83502500Y-105632000D03*
G04 #@! TO.P,REF\002A\002A,2*
X82232500Y-103092000D03*
D11*
G04 #@! TO.P,REF\002A\002A,1*
X80962500Y-105632000D03*
D10*
G04 #@! TO.P,REF\002A\002A,5*
X86042500Y-105632000D03*
G04 #@! TO.P,REF\002A\002A,6*
X87312500Y-103092000D03*
G04 #@! TD*
G04 #@! TO.P,REF\002A\002A,4*
G04 #@! TO.N,N/C*
X84772500Y-116792000D03*
G04 #@! TO.P,REF\002A\002A,3*
X83502500Y-119332000D03*
G04 #@! TO.P,REF\002A\002A,2*
X82232500Y-116792000D03*
D11*
G04 #@! TO.P,REF\002A\002A,1*
X80962500Y-119332000D03*
D10*
G04 #@! TO.P,REF\002A\002A,5*
X86042500Y-119332000D03*
G04 #@! TO.P,REF\002A\002A,6*
X87312500Y-116792000D03*
G04 #@! TD*
G04 #@! TO.P,REF\002A\002A,6*
G04 #@! TO.N,N/C*
X87312500Y-75692000D03*
G04 #@! TO.P,REF\002A\002A,5*
X86042500Y-78232000D03*
D11*
G04 #@! TO.P,REF\002A\002A,1*
X80962500Y-78232000D03*
D10*
G04 #@! TO.P,REF\002A\002A,2*
X82232500Y-75692000D03*
G04 #@! TO.P,REF\002A\002A,3*
X83502500Y-78232000D03*
G04 #@! TO.P,REF\002A\002A,4*
X84772500Y-75692000D03*
G04 #@! TD*
G04 #@! TO.P,REF\002A\002A,4*
G04 #@! TO.N,N/C*
X84772500Y-130492000D03*
G04 #@! TO.P,REF\002A\002A,3*
X83502500Y-133032000D03*
G04 #@! TO.P,REF\002A\002A,2*
X82232500Y-130492000D03*
D11*
G04 #@! TO.P,REF\002A\002A,1*
X80962500Y-133032000D03*
D10*
G04 #@! TO.P,REF\002A\002A,5*
X86042500Y-133032000D03*
G04 #@! TO.P,REF\002A\002A,6*
X87312500Y-130492000D03*
G04 #@! TD*
G04 #@! TO.P,REF\002A\002A,6*
G04 #@! TO.N,N/C*
X99377500Y-89392000D03*
G04 #@! TO.P,REF\002A\002A,5*
X98107500Y-91932000D03*
D11*
G04 #@! TO.P,REF\002A\002A,1*
X93027500Y-91932000D03*
D10*
G04 #@! TO.P,REF\002A\002A,2*
X94297500Y-89392000D03*
G04 #@! TO.P,REF\002A\002A,3*
X95567500Y-91932000D03*
G04 #@! TO.P,REF\002A\002A,4*
X96837500Y-89392000D03*
G04 #@! TD*
G04 #@! TO.P,REF\002A\002A,6*
G04 #@! TO.N,N/C*
X99377500Y-103092000D03*
G04 #@! TO.P,REF\002A\002A,5*
X98107500Y-105632000D03*
D11*
G04 #@! TO.P,REF\002A\002A,1*
X93027500Y-105632000D03*
D10*
G04 #@! TO.P,REF\002A\002A,2*
X94297500Y-103092000D03*
G04 #@! TO.P,REF\002A\002A,3*
X95567500Y-105632000D03*
G04 #@! TO.P,REF\002A\002A,4*
X96837500Y-103092000D03*
G04 #@! TD*
G04 #@! TO.P,REF\002A\002A,6*
G04 #@! TO.N,N/C*
X99377500Y-116792000D03*
G04 #@! TO.P,REF\002A\002A,5*
X98107500Y-119332000D03*
D11*
G04 #@! TO.P,REF\002A\002A,1*
X93027500Y-119332000D03*
D10*
G04 #@! TO.P,REF\002A\002A,2*
X94297500Y-116792000D03*
G04 #@! TO.P,REF\002A\002A,3*
X95567500Y-119332000D03*
G04 #@! TO.P,REF\002A\002A,4*
X96837500Y-116792000D03*
G04 #@! TD*
G04 #@! TO.P,REF\002A\002A,4*
G04 #@! TO.N,N/C*
X96837500Y-75692000D03*
G04 #@! TO.P,REF\002A\002A,3*
X95567500Y-78232000D03*
G04 #@! TO.P,REF\002A\002A,2*
X94297500Y-75692000D03*
D11*
G04 #@! TO.P,REF\002A\002A,1*
X93027500Y-78232000D03*
D10*
G04 #@! TO.P,REF\002A\002A,5*
X98107500Y-78232000D03*
G04 #@! TO.P,REF\002A\002A,6*
X99377500Y-75692000D03*
G04 #@! TD*
G04 #@! TO.P,REF\002A\002A,4*
G04 #@! TO.N,N/C*
X96806500Y-96065000D03*
G04 #@! TO.P,REF\002A\002A,3*
X95536500Y-98605000D03*
G04 #@! TO.P,REF\002A\002A,2*
X94266500Y-96065000D03*
D11*
G04 #@! TO.P,REF\002A\002A,1*
X92996500Y-98605000D03*
D10*
G04 #@! TO.P,REF\002A\002A,5*
X98076500Y-98605000D03*
G04 #@! TO.P,REF\002A\002A,6*
X99346500Y-96065000D03*
G04 #@! TD*
G04 #@! TO.P,REF\002A\002A,4*
G04 #@! TO.N,N/C*
X96806500Y-109765000D03*
G04 #@! TO.P,REF\002A\002A,3*
X95536500Y-112305000D03*
G04 #@! TO.P,REF\002A\002A,2*
X94266500Y-109765000D03*
D11*
G04 #@! TO.P,REF\002A\002A,1*
X92996500Y-112305000D03*
D10*
G04 #@! TO.P,REF\002A\002A,5*
X98076500Y-112305000D03*
G04 #@! TO.P,REF\002A\002A,6*
X99346500Y-109765000D03*
G04 #@! TD*
G04 #@! TO.P,REF\002A\002A,4*
G04 #@! TO.N,N/C*
X96806500Y-123465000D03*
G04 #@! TO.P,REF\002A\002A,3*
X95536500Y-126005000D03*
G04 #@! TO.P,REF\002A\002A,2*
X94266500Y-123465000D03*
D11*
G04 #@! TO.P,REF\002A\002A,1*
X92996500Y-126005000D03*
D10*
G04 #@! TO.P,REF\002A\002A,5*
X98076500Y-126005000D03*
G04 #@! TO.P,REF\002A\002A,6*
X99346500Y-123465000D03*
G04 #@! TD*
G04 #@! TO.P,REF\002A\002A,4*
G04 #@! TO.N,N/C*
X96806500Y-137165000D03*
G04 #@! TO.P,REF\002A\002A,3*
X95536500Y-139705000D03*
G04 #@! TO.P,REF\002A\002A,2*
X94266500Y-137165000D03*
D11*
G04 #@! TO.P,REF\002A\002A,1*
X92996500Y-139705000D03*
D10*
G04 #@! TO.P,REF\002A\002A,5*
X98076500Y-139705000D03*
G04 #@! TO.P,REF\002A\002A,6*
X99346500Y-137165000D03*
G04 #@! TD*
G04 #@! TO.P,REF\002A\002A,6*
G04 #@! TO.N,N/C*
X99346500Y-82365000D03*
G04 #@! TO.P,REF\002A\002A,5*
X98076500Y-84905000D03*
D11*
G04 #@! TO.P,REF\002A\002A,1*
X92996500Y-84905000D03*
D10*
G04 #@! TO.P,REF\002A\002A,2*
X94266500Y-82365000D03*
G04 #@! TO.P,REF\002A\002A,3*
X95536500Y-84905000D03*
G04 #@! TO.P,REF\002A\002A,4*
X96806500Y-82365000D03*
G04 #@! TD*
G04 #@! TO.P,REF\002A\002A,6*
G04 #@! TO.N,N/C*
X99377500Y-130492000D03*
G04 #@! TO.P,REF\002A\002A,5*
X98107500Y-133032000D03*
D11*
G04 #@! TO.P,REF\002A\002A,1*
X93027500Y-133032000D03*
D10*
G04 #@! TO.P,REF\002A\002A,2*
X94297500Y-130492000D03*
G04 #@! TO.P,REF\002A\002A,3*
X95567500Y-133032000D03*
G04 #@! TO.P,REF\002A\002A,4*
X96837500Y-130492000D03*
G04 #@! TD*
G04 #@! TO.P,REF\002A\002A,4*
G04 #@! TO.N,N/C*
X156902500Y-130492000D03*
G04 #@! TO.P,REF\002A\002A,3*
X155632500Y-133032000D03*
G04 #@! TO.P,REF\002A\002A,2*
X154362500Y-130492000D03*
D11*
G04 #@! TO.P,REF\002A\002A,1*
X153092500Y-133032000D03*
D10*
G04 #@! TO.P,REF\002A\002A,5*
X158172500Y-133032000D03*
G04 #@! TO.P,REF\002A\002A,6*
X159442500Y-130492000D03*
G04 #@! TD*
G04 #@! TO.P,REF\002A\002A,4*
G04 #@! TO.N,N/C*
X144902500Y-130492000D03*
G04 #@! TO.P,REF\002A\002A,3*
X143632500Y-133032000D03*
G04 #@! TO.P,REF\002A\002A,2*
X142362500Y-130492000D03*
D11*
G04 #@! TO.P,REF\002A\002A,1*
X141092500Y-133032000D03*
D10*
G04 #@! TO.P,REF\002A\002A,5*
X146172500Y-133032000D03*
G04 #@! TO.P,REF\002A\002A,6*
X147442500Y-130492000D03*
G04 #@! TD*
G04 #@! TO.P,REF\002A\002A,4*
G04 #@! TO.N,N/C*
X132902500Y-130492000D03*
G04 #@! TO.P,REF\002A\002A,3*
X131632500Y-133032000D03*
G04 #@! TO.P,REF\002A\002A,2*
X130362500Y-130492000D03*
D11*
G04 #@! TO.P,REF\002A\002A,1*
X129092500Y-133032000D03*
D10*
G04 #@! TO.P,REF\002A\002A,5*
X134172500Y-133032000D03*
G04 #@! TO.P,REF\002A\002A,6*
X135442500Y-130492000D03*
G04 #@! TD*
G04 #@! TO.P,REF\002A\002A,4*
G04 #@! TO.N,N/C*
X120902500Y-130492000D03*
G04 #@! TO.P,REF\002A\002A,3*
X119632500Y-133032000D03*
G04 #@! TO.P,REF\002A\002A,2*
X118362500Y-130492000D03*
D11*
G04 #@! TO.P,REF\002A\002A,1*
X117092500Y-133032000D03*
D10*
G04 #@! TO.P,REF\002A\002A,5*
X122172500Y-133032000D03*
G04 #@! TO.P,REF\002A\002A,6*
X123442500Y-130492000D03*
G04 #@! TD*
G04 #@! TO.P,REF\002A\002A,4*
G04 #@! TO.N,N/C*
X108902500Y-130492000D03*
G04 #@! TO.P,REF\002A\002A,3*
X107632500Y-133032000D03*
G04 #@! TO.P,REF\002A\002A,2*
X106362500Y-130492000D03*
D11*
G04 #@! TO.P,REF\002A\002A,1*
X105092500Y-133032000D03*
D10*
G04 #@! TO.P,REF\002A\002A,5*
X110172500Y-133032000D03*
G04 #@! TO.P,REF\002A\002A,6*
X111442500Y-130492000D03*
G04 #@! TD*
G04 #@! TO.P,REF\002A\002A,4*
G04 #@! TO.N,N/C*
X156902500Y-116792000D03*
G04 #@! TO.P,REF\002A\002A,3*
X155632500Y-119332000D03*
G04 #@! TO.P,REF\002A\002A,2*
X154362500Y-116792000D03*
D11*
G04 #@! TO.P,REF\002A\002A,1*
X153092500Y-119332000D03*
D10*
G04 #@! TO.P,REF\002A\002A,5*
X158172500Y-119332000D03*
G04 #@! TO.P,REF\002A\002A,6*
X159442500Y-116792000D03*
G04 #@! TD*
G04 #@! TO.P,REF\002A\002A,4*
G04 #@! TO.N,N/C*
X144902500Y-116792000D03*
G04 #@! TO.P,REF\002A\002A,3*
X143632500Y-119332000D03*
G04 #@! TO.P,REF\002A\002A,2*
X142362500Y-116792000D03*
D11*
G04 #@! TO.P,REF\002A\002A,1*
X141092500Y-119332000D03*
D10*
G04 #@! TO.P,REF\002A\002A,5*
X146172500Y-119332000D03*
G04 #@! TO.P,REF\002A\002A,6*
X147442500Y-116792000D03*
G04 #@! TD*
G04 #@! TO.P,REF\002A\002A,4*
G04 #@! TO.N,N/C*
X132902500Y-116792000D03*
G04 #@! TO.P,REF\002A\002A,3*
X131632500Y-119332000D03*
G04 #@! TO.P,REF\002A\002A,2*
X130362500Y-116792000D03*
D11*
G04 #@! TO.P,REF\002A\002A,1*
X129092500Y-119332000D03*
D10*
G04 #@! TO.P,REF\002A\002A,5*
X134172500Y-119332000D03*
G04 #@! TO.P,REF\002A\002A,6*
X135442500Y-116792000D03*
G04 #@! TD*
G04 #@! TO.P,REF\002A\002A,4*
G04 #@! TO.N,N/C*
X120902500Y-116792000D03*
G04 #@! TO.P,REF\002A\002A,3*
X119632500Y-119332000D03*
G04 #@! TO.P,REF\002A\002A,2*
X118362500Y-116792000D03*
D11*
G04 #@! TO.P,REF\002A\002A,1*
X117092500Y-119332000D03*
D10*
G04 #@! TO.P,REF\002A\002A,5*
X122172500Y-119332000D03*
G04 #@! TO.P,REF\002A\002A,6*
X123442500Y-116792000D03*
G04 #@! TD*
G04 #@! TO.P,REF\002A\002A,4*
G04 #@! TO.N,N/C*
X108902500Y-116792000D03*
G04 #@! TO.P,REF\002A\002A,3*
X107632500Y-119332000D03*
G04 #@! TO.P,REF\002A\002A,2*
X106362500Y-116792000D03*
D11*
G04 #@! TO.P,REF\002A\002A,1*
X105092500Y-119332000D03*
D10*
G04 #@! TO.P,REF\002A\002A,5*
X110172500Y-119332000D03*
G04 #@! TO.P,REF\002A\002A,6*
X111442500Y-116792000D03*
G04 #@! TD*
G04 #@! TO.P,REF\002A\002A,4*
G04 #@! TO.N,N/C*
X156902500Y-103092000D03*
G04 #@! TO.P,REF\002A\002A,3*
X155632500Y-105632000D03*
G04 #@! TO.P,REF\002A\002A,2*
X154362500Y-103092000D03*
D11*
G04 #@! TO.P,REF\002A\002A,1*
X153092500Y-105632000D03*
D10*
G04 #@! TO.P,REF\002A\002A,5*
X158172500Y-105632000D03*
G04 #@! TO.P,REF\002A\002A,6*
X159442500Y-103092000D03*
G04 #@! TD*
G04 #@! TO.P,REF\002A\002A,4*
G04 #@! TO.N,N/C*
X144902500Y-103092000D03*
G04 #@! TO.P,REF\002A\002A,3*
X143632500Y-105632000D03*
G04 #@! TO.P,REF\002A\002A,2*
X142362500Y-103092000D03*
D11*
G04 #@! TO.P,REF\002A\002A,1*
X141092500Y-105632000D03*
D10*
G04 #@! TO.P,REF\002A\002A,5*
X146172500Y-105632000D03*
G04 #@! TO.P,REF\002A\002A,6*
X147442500Y-103092000D03*
G04 #@! TD*
G04 #@! TO.P,REF\002A\002A,4*
G04 #@! TO.N,N/C*
X132902500Y-103092000D03*
G04 #@! TO.P,REF\002A\002A,3*
X131632500Y-105632000D03*
G04 #@! TO.P,REF\002A\002A,2*
X130362500Y-103092000D03*
D11*
G04 #@! TO.P,REF\002A\002A,1*
X129092500Y-105632000D03*
D10*
G04 #@! TO.P,REF\002A\002A,5*
X134172500Y-105632000D03*
G04 #@! TO.P,REF\002A\002A,6*
X135442500Y-103092000D03*
G04 #@! TD*
G04 #@! TO.P,REF\002A\002A,4*
G04 #@! TO.N,N/C*
X120902500Y-103092000D03*
G04 #@! TO.P,REF\002A\002A,3*
X119632500Y-105632000D03*
G04 #@! TO.P,REF\002A\002A,2*
X118362500Y-103092000D03*
D11*
G04 #@! TO.P,REF\002A\002A,1*
X117092500Y-105632000D03*
D10*
G04 #@! TO.P,REF\002A\002A,5*
X122172500Y-105632000D03*
G04 #@! TO.P,REF\002A\002A,6*
X123442500Y-103092000D03*
G04 #@! TD*
G04 #@! TO.P,REF\002A\002A,4*
G04 #@! TO.N,N/C*
X108902500Y-103092000D03*
G04 #@! TO.P,REF\002A\002A,3*
X107632500Y-105632000D03*
G04 #@! TO.P,REF\002A\002A,2*
X106362500Y-103092000D03*
D11*
G04 #@! TO.P,REF\002A\002A,1*
X105092500Y-105632000D03*
D10*
G04 #@! TO.P,REF\002A\002A,5*
X110172500Y-105632000D03*
G04 #@! TO.P,REF\002A\002A,6*
X111442500Y-103092000D03*
G04 #@! TD*
G04 #@! TO.P,REF\002A\002A,4*
G04 #@! TO.N,N/C*
X156902500Y-89392000D03*
G04 #@! TO.P,REF\002A\002A,3*
X155632500Y-91932000D03*
G04 #@! TO.P,REF\002A\002A,2*
X154362500Y-89392000D03*
D11*
G04 #@! TO.P,REF\002A\002A,1*
X153092500Y-91932000D03*
D10*
G04 #@! TO.P,REF\002A\002A,5*
X158172500Y-91932000D03*
G04 #@! TO.P,REF\002A\002A,6*
X159442500Y-89392000D03*
G04 #@! TD*
G04 #@! TO.P,REF\002A\002A,4*
G04 #@! TO.N,N/C*
X144902500Y-89392000D03*
G04 #@! TO.P,REF\002A\002A,3*
X143632500Y-91932000D03*
G04 #@! TO.P,REF\002A\002A,2*
X142362500Y-89392000D03*
D11*
G04 #@! TO.P,REF\002A\002A,1*
X141092500Y-91932000D03*
D10*
G04 #@! TO.P,REF\002A\002A,5*
X146172500Y-91932000D03*
G04 #@! TO.P,REF\002A\002A,6*
X147442500Y-89392000D03*
G04 #@! TD*
G04 #@! TO.P,REF\002A\002A,4*
G04 #@! TO.N,N/C*
X132902500Y-89392000D03*
G04 #@! TO.P,REF\002A\002A,3*
X131632500Y-91932000D03*
G04 #@! TO.P,REF\002A\002A,2*
X130362500Y-89392000D03*
D11*
G04 #@! TO.P,REF\002A\002A,1*
X129092500Y-91932000D03*
D10*
G04 #@! TO.P,REF\002A\002A,5*
X134172500Y-91932000D03*
G04 #@! TO.P,REF\002A\002A,6*
X135442500Y-89392000D03*
G04 #@! TD*
G04 #@! TO.P,REF\002A\002A,4*
G04 #@! TO.N,N/C*
X120902500Y-89392000D03*
G04 #@! TO.P,REF\002A\002A,3*
X119632500Y-91932000D03*
G04 #@! TO.P,REF\002A\002A,2*
X118362500Y-89392000D03*
D11*
G04 #@! TO.P,REF\002A\002A,1*
X117092500Y-91932000D03*
D10*
G04 #@! TO.P,REF\002A\002A,5*
X122172500Y-91932000D03*
G04 #@! TO.P,REF\002A\002A,6*
X123442500Y-89392000D03*
G04 #@! TD*
G04 #@! TO.P,REF\002A\002A,4*
G04 #@! TO.N,N/C*
X108902500Y-89392000D03*
G04 #@! TO.P,REF\002A\002A,3*
X107632500Y-91932000D03*
G04 #@! TO.P,REF\002A\002A,2*
X106362500Y-89392000D03*
D11*
G04 #@! TO.P,REF\002A\002A,1*
X105092500Y-91932000D03*
D10*
G04 #@! TO.P,REF\002A\002A,5*
X110172500Y-91932000D03*
G04 #@! TO.P,REF\002A\002A,6*
X111442500Y-89392000D03*
G04 #@! TD*
G04 #@! TO.P,REF\002A\002A,4*
G04 #@! TO.N,N/C*
X156902500Y-75692000D03*
G04 #@! TO.P,REF\002A\002A,3*
X155632500Y-78232000D03*
G04 #@! TO.P,REF\002A\002A,2*
X154362500Y-75692000D03*
D11*
G04 #@! TO.P,REF\002A\002A,1*
X153092500Y-78232000D03*
D10*
G04 #@! TO.P,REF\002A\002A,5*
X158172500Y-78232000D03*
G04 #@! TO.P,REF\002A\002A,6*
X159442500Y-75692000D03*
G04 #@! TD*
G04 #@! TO.P,REF\002A\002A,4*
G04 #@! TO.N,N/C*
X144902500Y-75692000D03*
G04 #@! TO.P,REF\002A\002A,3*
X143632500Y-78232000D03*
G04 #@! TO.P,REF\002A\002A,2*
X142362500Y-75692000D03*
D11*
G04 #@! TO.P,REF\002A\002A,1*
X141092500Y-78232000D03*
D10*
G04 #@! TO.P,REF\002A\002A,5*
X146172500Y-78232000D03*
G04 #@! TO.P,REF\002A\002A,6*
X147442500Y-75692000D03*
G04 #@! TD*
G04 #@! TO.P,REF\002A\002A,4*
G04 #@! TO.N,N/C*
X132902500Y-75692000D03*
G04 #@! TO.P,REF\002A\002A,3*
X131632500Y-78232000D03*
G04 #@! TO.P,REF\002A\002A,2*
X130362500Y-75692000D03*
D11*
G04 #@! TO.P,REF\002A\002A,1*
X129092500Y-78232000D03*
D10*
G04 #@! TO.P,REF\002A\002A,5*
X134172500Y-78232000D03*
G04 #@! TO.P,REF\002A\002A,6*
X135442500Y-75692000D03*
G04 #@! TD*
G04 #@! TO.P,REF\002A\002A,4*
G04 #@! TO.N,N/C*
X120902500Y-75692000D03*
G04 #@! TO.P,REF\002A\002A,3*
X119632500Y-78232000D03*
G04 #@! TO.P,REF\002A\002A,2*
X118362500Y-75692000D03*
D11*
G04 #@! TO.P,REF\002A\002A,1*
X117092500Y-78232000D03*
D10*
G04 #@! TO.P,REF\002A\002A,5*
X122172500Y-78232000D03*
G04 #@! TO.P,REF\002A\002A,6*
X123442500Y-75692000D03*
G04 #@! TD*
G04 #@! TO.P,REF\002A\002A,6*
G04 #@! TO.N,N/C*
X159411500Y-137165000D03*
G04 #@! TO.P,REF\002A\002A,5*
X158141500Y-139705000D03*
D11*
G04 #@! TO.P,REF\002A\002A,1*
X153061500Y-139705000D03*
D10*
G04 #@! TO.P,REF\002A\002A,2*
X154331500Y-137165000D03*
G04 #@! TO.P,REF\002A\002A,3*
X155601500Y-139705000D03*
G04 #@! TO.P,REF\002A\002A,4*
X156871500Y-137165000D03*
G04 #@! TD*
G04 #@! TO.P,REF\002A\002A,6*
G04 #@! TO.N,N/C*
X147411500Y-137165000D03*
G04 #@! TO.P,REF\002A\002A,5*
X146141500Y-139705000D03*
D11*
G04 #@! TO.P,REF\002A\002A,1*
X141061500Y-139705000D03*
D10*
G04 #@! TO.P,REF\002A\002A,2*
X142331500Y-137165000D03*
G04 #@! TO.P,REF\002A\002A,3*
X143601500Y-139705000D03*
G04 #@! TO.P,REF\002A\002A,4*
X144871500Y-137165000D03*
G04 #@! TD*
G04 #@! TO.P,REF\002A\002A,6*
G04 #@! TO.N,N/C*
X135411500Y-137165000D03*
G04 #@! TO.P,REF\002A\002A,5*
X134141500Y-139705000D03*
D11*
G04 #@! TO.P,REF\002A\002A,1*
X129061500Y-139705000D03*
D10*
G04 #@! TO.P,REF\002A\002A,2*
X130331500Y-137165000D03*
G04 #@! TO.P,REF\002A\002A,3*
X131601500Y-139705000D03*
G04 #@! TO.P,REF\002A\002A,4*
X132871500Y-137165000D03*
G04 #@! TD*
G04 #@! TO.P,REF\002A\002A,6*
G04 #@! TO.N,N/C*
X123411500Y-137165000D03*
G04 #@! TO.P,REF\002A\002A,5*
X122141500Y-139705000D03*
D11*
G04 #@! TO.P,REF\002A\002A,1*
X117061500Y-139705000D03*
D10*
G04 #@! TO.P,REF\002A\002A,2*
X118331500Y-137165000D03*
G04 #@! TO.P,REF\002A\002A,3*
X119601500Y-139705000D03*
G04 #@! TO.P,REF\002A\002A,4*
X120871500Y-137165000D03*
G04 #@! TD*
G04 #@! TO.P,REF\002A\002A,6*
G04 #@! TO.N,N/C*
X111411500Y-137165000D03*
G04 #@! TO.P,REF\002A\002A,5*
X110141500Y-139705000D03*
D11*
G04 #@! TO.P,REF\002A\002A,1*
X105061500Y-139705000D03*
D10*
G04 #@! TO.P,REF\002A\002A,2*
X106331500Y-137165000D03*
G04 #@! TO.P,REF\002A\002A,3*
X107601500Y-139705000D03*
G04 #@! TO.P,REF\002A\002A,4*
X108871500Y-137165000D03*
G04 #@! TD*
G04 #@! TO.P,REF\002A\002A,6*
G04 #@! TO.N,N/C*
X159411500Y-123465000D03*
G04 #@! TO.P,REF\002A\002A,5*
X158141500Y-126005000D03*
D11*
G04 #@! TO.P,REF\002A\002A,1*
X153061500Y-126005000D03*
D10*
G04 #@! TO.P,REF\002A\002A,2*
X154331500Y-123465000D03*
G04 #@! TO.P,REF\002A\002A,3*
X155601500Y-126005000D03*
G04 #@! TO.P,REF\002A\002A,4*
X156871500Y-123465000D03*
G04 #@! TD*
G04 #@! TO.P,REF\002A\002A,6*
G04 #@! TO.N,N/C*
X147411500Y-123465000D03*
G04 #@! TO.P,REF\002A\002A,5*
X146141500Y-126005000D03*
D11*
G04 #@! TO.P,REF\002A\002A,1*
X141061500Y-126005000D03*
D10*
G04 #@! TO.P,REF\002A\002A,2*
X142331500Y-123465000D03*
G04 #@! TO.P,REF\002A\002A,3*
X143601500Y-126005000D03*
G04 #@! TO.P,REF\002A\002A,4*
X144871500Y-123465000D03*
G04 #@! TD*
G04 #@! TO.P,REF\002A\002A,6*
G04 #@! TO.N,N/C*
X135411500Y-123465000D03*
G04 #@! TO.P,REF\002A\002A,5*
X134141500Y-126005000D03*
D11*
G04 #@! TO.P,REF\002A\002A,1*
X129061500Y-126005000D03*
D10*
G04 #@! TO.P,REF\002A\002A,2*
X130331500Y-123465000D03*
G04 #@! TO.P,REF\002A\002A,3*
X131601500Y-126005000D03*
G04 #@! TO.P,REF\002A\002A,4*
X132871500Y-123465000D03*
G04 #@! TD*
G04 #@! TO.P,REF\002A\002A,6*
G04 #@! TO.N,N/C*
X123411500Y-123465000D03*
G04 #@! TO.P,REF\002A\002A,5*
X122141500Y-126005000D03*
D11*
G04 #@! TO.P,REF\002A\002A,1*
X117061500Y-126005000D03*
D10*
G04 #@! TO.P,REF\002A\002A,2*
X118331500Y-123465000D03*
G04 #@! TO.P,REF\002A\002A,3*
X119601500Y-126005000D03*
G04 #@! TO.P,REF\002A\002A,4*
X120871500Y-123465000D03*
G04 #@! TD*
G04 #@! TO.P,REF\002A\002A,6*
G04 #@! TO.N,N/C*
X111411500Y-123465000D03*
G04 #@! TO.P,REF\002A\002A,5*
X110141500Y-126005000D03*
D11*
G04 #@! TO.P,REF\002A\002A,1*
X105061500Y-126005000D03*
D10*
G04 #@! TO.P,REF\002A\002A,2*
X106331500Y-123465000D03*
G04 #@! TO.P,REF\002A\002A,3*
X107601500Y-126005000D03*
G04 #@! TO.P,REF\002A\002A,4*
X108871500Y-123465000D03*
G04 #@! TD*
G04 #@! TO.P,REF\002A\002A,6*
G04 #@! TO.N,N/C*
X159411500Y-109765000D03*
G04 #@! TO.P,REF\002A\002A,5*
X158141500Y-112305000D03*
D11*
G04 #@! TO.P,REF\002A\002A,1*
X153061500Y-112305000D03*
D10*
G04 #@! TO.P,REF\002A\002A,2*
X154331500Y-109765000D03*
G04 #@! TO.P,REF\002A\002A,3*
X155601500Y-112305000D03*
G04 #@! TO.P,REF\002A\002A,4*
X156871500Y-109765000D03*
G04 #@! TD*
G04 #@! TO.P,REF\002A\002A,6*
G04 #@! TO.N,N/C*
X147411500Y-109765000D03*
G04 #@! TO.P,REF\002A\002A,5*
X146141500Y-112305000D03*
D11*
G04 #@! TO.P,REF\002A\002A,1*
X141061500Y-112305000D03*
D10*
G04 #@! TO.P,REF\002A\002A,2*
X142331500Y-109765000D03*
G04 #@! TO.P,REF\002A\002A,3*
X143601500Y-112305000D03*
G04 #@! TO.P,REF\002A\002A,4*
X144871500Y-109765000D03*
G04 #@! TD*
G04 #@! TO.P,REF\002A\002A,6*
G04 #@! TO.N,N/C*
X135411500Y-109765000D03*
G04 #@! TO.P,REF\002A\002A,5*
X134141500Y-112305000D03*
D11*
G04 #@! TO.P,REF\002A\002A,1*
X129061500Y-112305000D03*
D10*
G04 #@! TO.P,REF\002A\002A,2*
X130331500Y-109765000D03*
G04 #@! TO.P,REF\002A\002A,3*
X131601500Y-112305000D03*
G04 #@! TO.P,REF\002A\002A,4*
X132871500Y-109765000D03*
G04 #@! TD*
G04 #@! TO.P,REF\002A\002A,6*
G04 #@! TO.N,N/C*
X123411500Y-109765000D03*
G04 #@! TO.P,REF\002A\002A,5*
X122141500Y-112305000D03*
D11*
G04 #@! TO.P,REF\002A\002A,1*
X117061500Y-112305000D03*
D10*
G04 #@! TO.P,REF\002A\002A,2*
X118331500Y-109765000D03*
G04 #@! TO.P,REF\002A\002A,3*
X119601500Y-112305000D03*
G04 #@! TO.P,REF\002A\002A,4*
X120871500Y-109765000D03*
G04 #@! TD*
G04 #@! TO.P,REF\002A\002A,6*
G04 #@! TO.N,N/C*
X111411500Y-109765000D03*
G04 #@! TO.P,REF\002A\002A,5*
X110141500Y-112305000D03*
D11*
G04 #@! TO.P,REF\002A\002A,1*
X105061500Y-112305000D03*
D10*
G04 #@! TO.P,REF\002A\002A,2*
X106331500Y-109765000D03*
G04 #@! TO.P,REF\002A\002A,3*
X107601500Y-112305000D03*
G04 #@! TO.P,REF\002A\002A,4*
X108871500Y-109765000D03*
G04 #@! TD*
G04 #@! TO.P,REF\002A\002A,6*
G04 #@! TO.N,N/C*
X159411500Y-96065000D03*
G04 #@! TO.P,REF\002A\002A,5*
X158141500Y-98605000D03*
D11*
G04 #@! TO.P,REF\002A\002A,1*
X153061500Y-98605000D03*
D10*
G04 #@! TO.P,REF\002A\002A,2*
X154331500Y-96065000D03*
G04 #@! TO.P,REF\002A\002A,3*
X155601500Y-98605000D03*
G04 #@! TO.P,REF\002A\002A,4*
X156871500Y-96065000D03*
G04 #@! TD*
G04 #@! TO.P,REF\002A\002A,6*
G04 #@! TO.N,N/C*
X147411500Y-96065000D03*
G04 #@! TO.P,REF\002A\002A,5*
X146141500Y-98605000D03*
D11*
G04 #@! TO.P,REF\002A\002A,1*
X141061500Y-98605000D03*
D10*
G04 #@! TO.P,REF\002A\002A,2*
X142331500Y-96065000D03*
G04 #@! TO.P,REF\002A\002A,3*
X143601500Y-98605000D03*
G04 #@! TO.P,REF\002A\002A,4*
X144871500Y-96065000D03*
G04 #@! TD*
G04 #@! TO.P,REF\002A\002A,6*
G04 #@! TO.N,N/C*
X135411500Y-96065000D03*
G04 #@! TO.P,REF\002A\002A,5*
X134141500Y-98605000D03*
D11*
G04 #@! TO.P,REF\002A\002A,1*
X129061500Y-98605000D03*
D10*
G04 #@! TO.P,REF\002A\002A,2*
X130331500Y-96065000D03*
G04 #@! TO.P,REF\002A\002A,3*
X131601500Y-98605000D03*
G04 #@! TO.P,REF\002A\002A,4*
X132871500Y-96065000D03*
G04 #@! TD*
G04 #@! TO.P,REF\002A\002A,6*
G04 #@! TO.N,N/C*
X123411500Y-96065000D03*
G04 #@! TO.P,REF\002A\002A,5*
X122141500Y-98605000D03*
D11*
G04 #@! TO.P,REF\002A\002A,1*
X117061500Y-98605000D03*
D10*
G04 #@! TO.P,REF\002A\002A,2*
X118331500Y-96065000D03*
G04 #@! TO.P,REF\002A\002A,3*
X119601500Y-98605000D03*
G04 #@! TO.P,REF\002A\002A,4*
X120871500Y-96065000D03*
G04 #@! TD*
G04 #@! TO.P,REF\002A\002A,6*
G04 #@! TO.N,N/C*
X111411500Y-96065000D03*
G04 #@! TO.P,REF\002A\002A,5*
X110141500Y-98605000D03*
D11*
G04 #@! TO.P,REF\002A\002A,1*
X105061500Y-98605000D03*
D10*
G04 #@! TO.P,REF\002A\002A,2*
X106331500Y-96065000D03*
G04 #@! TO.P,REF\002A\002A,3*
X107601500Y-98605000D03*
G04 #@! TO.P,REF\002A\002A,4*
X108871500Y-96065000D03*
G04 #@! TD*
G04 #@! TO.P,REF\002A\002A,6*
G04 #@! TO.N,N/C*
X159411500Y-82365000D03*
G04 #@! TO.P,REF\002A\002A,5*
X158141500Y-84905000D03*
D11*
G04 #@! TO.P,REF\002A\002A,1*
X153061500Y-84905000D03*
D10*
G04 #@! TO.P,REF\002A\002A,2*
X154331500Y-82365000D03*
G04 #@! TO.P,REF\002A\002A,3*
X155601500Y-84905000D03*
G04 #@! TO.P,REF\002A\002A,4*
X156871500Y-82365000D03*
G04 #@! TD*
G04 #@! TO.P,REF\002A\002A,6*
G04 #@! TO.N,N/C*
X147411500Y-82365000D03*
G04 #@! TO.P,REF\002A\002A,5*
X146141500Y-84905000D03*
D11*
G04 #@! TO.P,REF\002A\002A,1*
X141061500Y-84905000D03*
D10*
G04 #@! TO.P,REF\002A\002A,2*
X142331500Y-82365000D03*
G04 #@! TO.P,REF\002A\002A,3*
X143601500Y-84905000D03*
G04 #@! TO.P,REF\002A\002A,4*
X144871500Y-82365000D03*
G04 #@! TD*
G04 #@! TO.P,REF\002A\002A,6*
G04 #@! TO.N,N/C*
X135411500Y-82365000D03*
G04 #@! TO.P,REF\002A\002A,5*
X134141500Y-84905000D03*
D11*
G04 #@! TO.P,REF\002A\002A,1*
X129061500Y-84905000D03*
D10*
G04 #@! TO.P,REF\002A\002A,2*
X130331500Y-82365000D03*
G04 #@! TO.P,REF\002A\002A,3*
X131601500Y-84905000D03*
G04 #@! TO.P,REF\002A\002A,4*
X132871500Y-82365000D03*
G04 #@! TD*
G04 #@! TO.P,REF\002A\002A,6*
G04 #@! TO.N,N/C*
X123411500Y-82365000D03*
G04 #@! TO.P,REF\002A\002A,5*
X122141500Y-84905000D03*
D11*
G04 #@! TO.P,REF\002A\002A,1*
X117061500Y-84905000D03*
D10*
G04 #@! TO.P,REF\002A\002A,2*
X118331500Y-82365000D03*
G04 #@! TO.P,REF\002A\002A,3*
X119601500Y-84905000D03*
G04 #@! TO.P,REF\002A\002A,4*
X120871500Y-82365000D03*
G04 #@! TD*
G04 #@! TO.P,REF\002A\002A,6*
G04 #@! TO.N,N/C*
X111442500Y-75692000D03*
G04 #@! TO.P,REF\002A\002A,5*
X110172500Y-78232000D03*
D11*
G04 #@! TO.P,REF\002A\002A,1*
X105092500Y-78232000D03*
D10*
G04 #@! TO.P,REF\002A\002A,2*
X106362500Y-75692000D03*
G04 #@! TO.P,REF\002A\002A,3*
X107632500Y-78232000D03*
G04 #@! TO.P,REF\002A\002A,4*
X108902500Y-75692000D03*
G04 #@! TD*
G04 #@! TO.P,REF\002A\002A,4*
G04 #@! TO.N,N/C*
X108871500Y-82365000D03*
G04 #@! TO.P,REF\002A\002A,3*
X107601500Y-84905000D03*
G04 #@! TO.P,REF\002A\002A,2*
X106331500Y-82365000D03*
D11*
G04 #@! TO.P,REF\002A\002A,1*
X105061500Y-84905000D03*
D10*
G04 #@! TO.P,REF\002A\002A,5*
X110141500Y-84905000D03*
G04 #@! TO.P,REF\002A\002A,6*
X111411500Y-82365000D03*
G04 #@! TD*
M02*
